/* XPM */
static char *_5573_6ad95df3cc6f8930d5f3772f65abcf4d7ea99ae1361247c2d794c4114abea76c[] = {
/* columns rows colors chars-per-pixel */
"250 70 37 1 ",
"  c #413838",
". c #483F3F",
"X c #4C4444",
"o c #4F4848",
"O c #534B4B",
"+ c #575050",
"@ c #5A5454",
"# c #5F5959",
"$ c #635D5D",
"% c #666161",
"& c #696565",
"* c #6D6A6A",
"= c #726E6E",
"- c #757272",
"; c #797676",
": c #7C7A7A",
"> c #817E7E",
", c #848383",
"< c #898686",
"1 c #8C8C8C",
"2 c #918E8E",
"3 c #949494",
"4 c #999797",
"5 c #9C9B9B",
"6 c #A09D9D",
"7 c #A3A3A3",
"8 c #ABABAB",
"9 c #B1AFAF",
"0 c #B4B4B4",
"q c #BCBBBB",
"w c #C0BEBE",
"e c #C4C4C4",
"r c #C8C7C7",
"t c #CBCBCB",
"y c #D4D4D4",
"u c #DEDEDE",
"i c None",
/* pixels */
"iiiiiiiiiiiiiiiiiiiiiiiiiiiiiuuuuuuuuuuuuuuuuuuuuuuuuuuuuuuuuuuuuuuuuuuuuuuuuuuuuuuuuuuuuuuuuuuuuuuuuuuuuuuuuuuuuuuuuuuuuuuuuuuuuuuuuuuuuuuuuuuuuuuuuuuuuuuuuuuuuuuuuuuuuuuuuuuuuuuuuuuuuuuuuuuuuuuuuuuuuuuuuuuuuuuuuuuuuuuuuiiiiiiiiiiiiiiiiiiiiiiiiiiiii",
"iiiiiiiiiiiiiiiiiiiiiiiiiuuuuuuuuuuuuuuuuuuuuuuuuuuuuuuuuuuuuuuuuuuuuuuuuuuuuuuuuuuuuuuuuuuuuuuuuuuuuuuuuuuuuuuuuuuuuuuuuuuuuuuuuuuuuuuuuuuuuuuuuuuuuuuuuuuuuuuuuuuuuuuuuuuuuuuuuuuuuuuuuuuuuuuuuuuuuuuuuuuuuuuuuuuuuuuuuuuuuuuuuiiiiiiiiiiiiiiiiiiiiiiiii",
"iiiiiiiiiiiiiiiiiiiiiiuuuuuuuuuuuuuuuuuuuuuuuuuuuuuuuuuuuuuuuuuuuuuuuuuuuuuuuuuuuuuuuuuuuuuuuuuuuuuuuuuuuuuuuuuuuuuuuuuuuuuuuuuuuuuuuuuuuuuuuuuuuuuuuuuuuuuuuuuuuuuuuuuuuuuuuuuuuuuuuuuuuuuuuuuuuuuuuuuuuuuuuuuuuuuuuuuuuuuuuuuuuuuuiiiiiiiiiiiiiiiiiiiiii",
"iiiiiiiiiiiiiiiiiiiiuuuuuuuuuuuuuuuuuuuuuuuuuuuuuuuuuuuuuuuuuuuuuuuuuuuuuuuuuuuuuuuuuuuuuuuuuuuuuuuuuuuuuuuuuuuuuuuuuuuuuuuuuuuuuuuuuuuuuuuuuuuuuuuuuuuuuuuuuuuuuuuuuuuuuuuuuuuuuuuuuuuuuuuuuuuuuuuuuuuuuuuuuuuuuuuuuuuuuuuuuuuuuuuuuuiiiiiiiiiiiiiiiiiiii",
"iiiiiiiiiiiiiiiiiiuuuuuuuuuuuuuuuuuuuuuuuuuuuuuuuuuuuuuuuuuuuuuuuuuuuuuuuuuuuuuuuuuuuuuuuuuuuuuuuuuuuuuuuuuuuuuuuuuuuuuuuuuuuuuuuuuuuuuuuuuuuuuuuuuuuuuuuuuuuuuuuuuuuuuuuuuuuuuuuuuuuuuuuuuuuuuuuuuuuuuuuuuuuuuuuuuuuuuuuuuuuuuuuuuuuuuuiiiiiiiiiiiiiiiiii",
"iiiiiiiiiiiiiiiiuuuuuuuuuuuuuuuuuuuuuuuuuuuuuuuuuuuuuuuuuuuuuuuuuuuuuuuuuuuuuuuuuuuuuuuuuuuuuuuuuuuuuuuuuuuuuuuuuuuuuuuuuuuuuuuuuuuuuuuuuuuuuuuuuuuuuuuuuuuuuuuuuuuuuuuuuuuuuuuuuuuuuuuuuuuuuuuuuuuuuuuuuuuuuuuuuuuuuuuuuuuuuuuuuuuuuuuuuuiiiiiiiiiiiiiiii",
"iiiiiiiiiiiiiiiuuuuuuuuuuuuuuuuuuuuuuuuuuuuuuuuuuuuuuuuuuuuuuuuuuuuuuuuuuuuuuuuuuuuuuuuuuuuuuuuuuuuuuuuuuuuuuuuuuuuuuuuuuuuuuuuuuuuuuuuuuuuuuuuuuuuuuuuuuuuuuuuuuuuuuuuuuuuuuuuuuuuuuuuuuuuuuuuuuuuuuuuuuuuuuuuuuuuuuuuuuuuuuuuuuuuuuuuuuuuiiiiiiiiiiiiiii",
"iiiiiiiiiiiiiuuuuuuuuuuuuuuuuuuuuuuuuuuuuuuuuuuuuuuuuuuuuuuuuuuuuuuuuuuuuuuuuuuuuuuuuuuuuuuuuuuuuuuuuuuuuuuuuuuuuuuuuuuuuuuuuuuuuuuuuuuuuuuuuuuuuuuuuuuuuuuuuuuuuuuuuuuuuuuuuuuuuuuuuuuuuuuuuuuuuuuuuuuuuuuuuuuuuuuuuuuuuuuuuuuuuuuuuuuuuuuuuiiiiiiiiiiiii",
"iiiiiiiiiiiiuuuuuuuuuuuuuuuuuuuuuuuuuuuuuuuuuuuuuuuuuuuuuuuuuuuuuuuuuuuuuuuuuuuuuuuuuuuuuuuuuuuuuuuuuuuuuuuuuuuuuuuuuuuuuuuuuuuuuuuuuuuuuuuuuuuuuuuuuuuuuuuuuuuuuuuuuuuuuuuuuuuuuuuuuuuuuuuuuuuuuuuuuuuuuuuuuuuuuuuuuuuuuuuuuuuuuuuuuuuuuuuuuuiiiiiiiiiiii",
"iiiiiiiiiiiuuuuuuuuuuuuuuuuuuuuuuuuuuuuuuuuuuuuuuuuuuuuuuuuuuuuuuuuuuuuuuuuuuuuuuuuuuuuuuuuuuuuuuuuuuuuuuuuuuuuuuuuuuuuuuuuuuuuuuuuuuuuuuuuuuuuuuuuuuuuuuuuuuuuuuuuuuuuuuuuuuuuuuuuuuuuuuuuuuuuuuuuuuuuuuuuuuuuuuuuuuuuuuuuuuuuuuuuuuuuuuuuuuuuiiiiiiiiiii",
"iiiiiiiiiiuuuuuuuuuuuuuuuuuuuuuuuuuuuuuuuuuuuuuuuuuuuuuuuuuuuuuuuuuuuuuuuuuuuuuuuuuuuuuuuuuuuuuuuuuuuuuuuuuuuuuuuuuuuuuuuuuuuuuuuuuuuuuuuuuuuuuuuuuuuuuuuuuuuuuuuuuuuuuuuuuuuuuuuuuuuuuuuuuuuuuuuuuuuuuuuuuuuuuuuuuuuuuuuuuuuuuuuuuuuuuuuuuuuuuuiiiiiiiiii",
"iiiiiiiiiuuuuuuuuuuuuuuuuuuuuuuuuuuuuuuuuuuuuuuuuuuuuuuuuuuuuuuuuuuuuuuuuuuuuuuuuuuuuuuuuuuuuuuuuuuuuuuuuuuuuuuuuuuuuuuuuuuuuuuuuuuuuuuuuuuuuuuuuuuuuuuuuuuuuuuuuuuuuuuuuuuuuuuuuuuuuuuuuuuuuuuuuuuuuuuuuuuuuuuuuuuuuuuuuuuuuuuuuuuuuuuuuuuuuuuuuiiiiiiiii",
"iiiiiiiiuuuuuuuuuuuuuuuuuuuuuuuuuuuuuuuuuuuuuuuuuuuuuuuuuuuuuuuuuuuuuuuuuuuuuuuuuuuuuuuuuuuuuuuuuuuuuuuuuuuuuuuuuuuuuuuuuuuuuuuuuuuuuuuuuuuuuuuuuuuuuuuuuuuuuuuuuuuuuuuuuuuuuuuuuuuuuuuuuuuuuuuuuuuuuuuuuuuuuuuuuuuuuuuuuuuuuuuuuuuuuuuuuuuuuuuuuuiiiiiiii",
"iiiiiiiuuuuuuuuuuuuuuuuuuuuuuuuuuuuuuuuuuuuuuuuuuuuuuuuuuuuuuuuuuuuuuuuuuuuuuuuuuuuuuuuuuuuuuuuuuuuuuuuuuuuuuuuuuuuuuuuuuuuuuuuuuuuuuuuuuuuuuuuuuuuuuuuuuuuuuuuuuuuuuuuuuuuuuuuuuuuuuuuuuuuuuuuuuuuuuuuuuuuuuuuuuuuuuuuuuuuuuuuuuuuuuuuuuuuuuuuuuuuiiiiiii",
"iiiiiiiuuuuuuuuuuuuuuuuuuuuuuuuuuuuuuuuuuuuuuuuuuuuuuuuuuuuuuuuuuuuuuuuuuuuuuuuuuuuuuuuuuuuuuuuuuuuuuuuuuuuuuuuuuuuuuuuuuuuuuuuuuuuuuuuuuuuuuuuuuuuuuuuuuuuuuuuuuuuuuuuuuuuuuuuuuuuuuuuuuuuuuuuuuuuuuuuuuuuuuuuuuuuuuuuuuuuuuuuuuuuuuuuuuuuuuuuuuuuiiiiiii",
"iiiiiiuuuuuuuuuuuuuuuuuuuuuuuuuuuuuuuuuuuuuuuuuuuuuuuuuuuuuuuuuuuuuuuuuuuuuuuuuuuuuuuuuuuuuuuuuuuuuuuuuuuuuuuuuuuuuuuuuuuuuuuuuuuuuuuuuuuuuuuuuuuuuuuuuuuuuuuuuuuuuuuuuuuuuuuuuuuuuuuuuuuuuuuuuuuuuuuuuuuuuuuuuuuuuuuuuuuuuuuuuuuuuuuuuuuuuuuuuuuuuuiiiiii",
"iiiiiuuuuuuuuuuuuuuuuuuuuuuuuuuuuuuuuuuuuuuuuuuuuuuuuuuuuuuuuuuuuuuuuuuuuuuuuuuuuuuuuuuuuuuuuuuuuuuuuuuuuuuuuuuuuuuuuuuuuuuuuuuuuuuuuuuuuuuuuuuuuuuuuuuuuuuuuuuuuuuuuuuuuuuuuuuuuuuuuuuuuuuuuuuuuuuuuuuuuuuuuuuuuuuuuuuuuuuuuuuuuuuuuuuuuuuuuuuuuuuuuiiiii",
"iiiiiuuuuuuuuuuuuuuuuuuuuuuuuuuuuuuuuuuuuuuuuuuuuuuuuuuuuuuuuuuuuuuuuuuuuuuuuuuuuuuuuuuuuuuuuuuuuuuuuuuuuuuuuuuuuuuuuuuuuuuuuuuuuuuuuuuuuuuuuuuuuuuuuuuuuuuuuuuuuuuuuuuuuuuuuuuuuuuuuuuuuuuuuuuuuuuuuuuuuuuuuuuuuuuuuuuuuuuuuuuuuuuuuuuuuuuuuuuuuuuuuiiiii",
"iiiiuuuuuuuuuuuuuuuuuuuuuuuuuuuuuuuuuuuuuuuuuuuuuuuuuuuuuuuuuuuuuuuuuuuuuuuuuuuuuuuuuuuuuuuuuuuuuuuuuuuuuuuuuuuuuuuuuuuuuuuuuuuuuuuuuuuuuuuuuuuuuuuuuuuuuuuuuuuuuuuuuuuuuuuuuuuuuuuuuuuuuuuuuuuuuuuuuuuuuuuuuuuuuuuuuuuuuuuuuuuuuuuuuuuuuuuuuuuuuuuuuuiiii",
"iiiiuuuuuuuuuuuuuuuuuuuuuuuuuuuuuuuuuuuuuuuuuuuuuuuuuuuuuuuuuuuuuuuuuuuuuuuuuuuuuuuuuuuuuuuuuuuuuuuuuuuuuuuuuuuuuuuuuuuuuuuuuuuuuuuuuuuuuuuuuuuuuuuuuuuuuuuuuuuuuuuuuuuuuuuuuuuuuuuuuuuuuuuuuuuuuuuuuuuuuuuuuuuuuuuuuuuuuuuuuuuuuuuuuuuuuuuuuuuuuuuuuuiiii",
"iiiuuuuuuuuuuuuuuuuuuuuuuuuuuuuuuuuuuuuuuuuuuuuuuuuyuuuuuuuuuuuuuuuuuuuuuuuuuuuuuuuuuuuuuuuuuuuuuuuuuuuuuuuuuuuuuuuuuuuuuuuuuuuuuuuuuuuuuuuuuuuuuuuuuuuuuuuuuuuuuuuuuuuuuuuuuuuuuuuuuuuuuuuuuuuuuuuuuuuuuuuuuuuuuuuuuuuuuuuuuuuuuuuuuuuuuuuuuuuuuuuuuuuiii",
"iiiuuuuuuuuuuuuuuuuuuuuuuuuuuuuuuuuuuuuuuuuuuuuyuuuyyyyyuuyuuuuuuuuuuuuuuyuyyuuuuuuuuuuuuyuyuuuuuuuuuuuuuuyuyuuuuuyuuuuyuyuuuuuuuuuuuuuuuuuuuuuyuuuuuuuuuuuuuyyuuuyuuuuuuuuuuuyuyyyuuuyuuuuuuuuuuuuyuyuuuuuuuuuyuuuuuuuuuuuuuuuuuuuuuuuuuuuuuuuuuuuuuuuiii",
"iiuuuuuuuuuuuuuuuuuuuuuuuuuuuuuuuuuuuuuuuuuuuuy93,:<48eyyyyuuuuuuuuuuuuuyyyyyuuuuuuuyyyyyyyuyuuuuuuuuyyyyyyyyyuyuuyytyyyyyyyyyuuuuuuuuuuuuuyyyytyyyyuuuuuuuyyyyytyyuuuuuuyuur71>>260yyyyyuuuuuuyyyyyyyyuyuuuyyyyuyyyyyuuuuuuuuuuuuuuuuuuuuuuuuuuuuuuuuuuii",
"iiuuuuuuuuuuuuuuuuuuuuuuuuuuuuuuuuuuuuuuuuuur=.        #3etyyyuuuuuu@ XO  5ryyyuuuu%     Oqttyyuuuuuu9      1ry$+o      @$-3ttyyyuuuuuuuuu@     5tyyyuuuuu%       4yuuuuuu0&        O<wyyyyyuu%     Oetyyuy@    Oo&tyyyuuuuuuuuuuuuuuuuuuuuuuuuuuuuuuuuuii",
"iiuuuuuuuuuuuuuuuuuuuuuuuuuuuuuuuuuuuuuuuuy1X            o3rtyyuuyu0      $qetyuyuy$      &weyyuuuuuyo      ,qe$            X>wtyyyuuuuuuq      #qetyuuuuy%       ,qryyyu1.           o4ryyyuy%      &qryyy@      $qetyyuuuuuuuuuuuuuuuuuuuuuuuuuuuuuuuuii",
"iuuuuuuuuuuuuuuuuuuuuuuuuuuuuuuuuuuuuuuuyq#       oo      +qeyyuuuu>  .X   6qeyyuuy%   X   <qeyyuuuy-   X   :80$   oXXXX      .8eyyyuuuuy:  XX   7qeyyuuuy%   X   :9qryw#      .OX     =qryyuy%   .   ,qety+  .   @8qeyuuuuuuuuuuuuuuuuuuuuuuuuuuuuuuuuuui",
"iuuuuuuuuuuuuuuuuuuuuuuuuuuuuuuuuuuuuuuuto    o;,,::<:%   18qtyuyuyX  ,4o  =8qryuuy%  X3O  X7qeyyuu9   ;<   -78$  o1:::,,,&.   O8etyyuuuyX  ,3o  =8qtyyuuy$  X,   -70eqX    %:1,:,,%  o78wtyuy$  $2X  .50er@  -$  @78eyyuuuuuuuuuuuuuuuuuuuuuuuuuuuuuuuuui",
"iuuuuuuuuuuuuuuuuuuuuuuuuuuuuuuuuuuuuuuu*   X*>+X    o+  @370eyyuu6  .3%&  o70eyyuy$  o<>   $8qryyto  +3,   *57#  X:     .$>$   @0wtyuuy7  X3%*  X70eyyuuy$  X:   =58q*   O,-O    .X  >48qtyyy$  $,;   O8qe@  =@  O38qtyuuuuuuuuuuuuuuuuuuuuuuuuuuuuuuuuui",
"iuuuuuuuuuuuuuuuuuuuuuuuuuuuuuuuuuuuuuu5   X1%           ,370ryyuy&  &=.<   ,8qtyyy$  X>&*   >0ety=  .2$,   *37@  X:       .>O   10eyyuy%  *=X,   ,8qtyuuy%  X;   *481   #1+         %158qryyy%  $&-$   =80+  *@  O470tyuuuuuuuuuuuuuuuuuuuuuuuuuuuuuuuuui",
"uuuuuuuuuuuuuuuuuuuuuuuuuuuuuuuuuuuuuue.   :+           #138qryuur   <O -@  $60eyuy$  X; ,O  .60e6   ;=.:   *47@  X:   #O   X>   $7qryyr   <o =#  #70eyyyy%  o;   *47X  X1X         O<378eyyuy$  $&X,o   <8O  *@  O380ryuuuuuuuuuuuuuuuuuuuuuuuuuuuuuuuuuu",
"uuuuuuuuuuuuuuuuuuuuuuuuuuuuuuuuuuuuuy1   $-    $;1,:$ X<378wyyuy2  O<  +;   58qtyy$  X> O<.  @89X  $2..,   *47+  X:   1<&   ,X  o79eyy<  o1  +;  .50qtyuy%  X:   &3-   :$   O;,<:$.<358qryuuy#  $* +>   X5O  *@  +470ryuuuuuuuuuuuuuuuuuuuuuuuuuuuuuuuuuu",
"uuuuuuuuuuuuuuuuuuuuuuuuuuuuuuuuuuuuuy$   <.  X:1234551:578qryuyy@  -&   <X  ;8qryy$  X>  &-   ;$   2O .>   *37@  X;  X12,   -O  X48qty+  -%   ,.  ;7qtyyy#  X;   *4+  O,   @<1345545780eyyyyy%  $&  =&   #O  *@  O480tyuuuuuuuuuuuuuuuuuuuuuuuuuuuuuuuuuu",
"uuuuuuuuuuuuuuuuuuuuuuuuuuuuuuuuuuuuut   o;   -13478888880qeyyuu0   3    &#  +70ett%  X:   :+      -=  .>   *37@  X:  .133   =+  .37qt8   3.   %%  O70etyy$  X:   &3   %%  X,1357888789qeryyyy%  $*   >+      &@  +380tyuuuuuuuuuuuuuuuuuuuuuuuuuuuuuuuuuu",
"uuuuuuuuuuuuuuuuuuuuuuuuuuuuuuuuuuuuuw   $&  o<3588qqqqqqqttyuuy:  #:    o:   18qtt%  o:   o,.    O>   X:   *37@  X:   13:   :o  o370e-  #:    .:   18qtyy%  X:   *,   =+  $13780qOXXXXXXXX4tt#  #&   X>.     %+  +380tyuuuuuuuuuuuuuuuuuuuuuuuuuuuuuuuuuu",
"uuuuuuuuuuuuuuuuuuuuuuuuuuuuuuuuuuuuu9   =+  #1470etttttttyyyuuy.  ,+     -o  &70et#  X:    #-   .>o   .:   *37@  X:   :=X  .<   @370q.  :+     =o  *7qeyy$  X:   *:   :X  *3580ero        1ww#  %&    @=     %+  +37qtyuuuuuuuuuuuuuuuuuuuuuuuuuuuuuuuuuu",
"uuuuuuuuuuuuuuuuuuuuuuuuuuuuuuuuuuuuy9   &+  #258qtyuyuyyyyuuuy5  X1   o  @*  o58ee#  X:     -@  &$    .;   *37@  X:        :$   =3703  X3   X  @*  X50ett$  X;   &:   :X  =370ettO :111X  >00#  #&     =#    %@  +370eyuuuuuuuuuuuuuuuuuuuuuuuuuuuuuuuuuu",
"uuuuuuuuuuuuuuuuuuuuuuuuuuuuuuuuuuuuuy   #$  X370etyyuuyuuuuyuy%  **  o=   :   ,80e%  X:     .:.+-      ;   *37@  X:      o:=   X1380#  **  X=   ,   ,8qet$  X:   &,   *+  $370tyto XXX1   ;70@  #&     X:o   $+  +380tyyuuuuuuuuuuuuuuuuuuuuuuuuuuuuuuuuu",
"uuuuuuuuuuuuuuuuuuuuuuuuuuuuuuuuuuuuuu   o=   ;70eyyuuuuyuuuuue   1o  %,.  *#  #70q#  X:      @-:X     .=   *37@  X,$$$%*::+    :3588   1o  %,.  *@  @70et$  X:   *1   #%  .180tyyo    :X  =57@  $&      O;   %+  +370tyuuuuuuuuuuuuuuuuuuuuuuuuuuuuuuuuuu",
"uuuuuuuuuuuuuuuuuuuuuuuuuuuuuuuuuuuuut@   >X  X18qtyyyt>yyyyyu<  +,   ,,%  o-   580#  o:   .   =$   X  .-   *47@  X,@##@o.     -3370:  +,   ,1%  o;   38qe$  X;   *1+  o;   @50wtrq<   :X  =57@  %&  oo   %&  %+  +370tyuuuuuuuuuuuuuuuuuuuuuuuuuuuuuuuuuu",
"uuuuuuuuuuuuuuuuuuuuuuuuuuuuuuuuuuuuuy>   #*    =5qe01X 1tyyyyo  -#  X&*#   :.  -78#  X:   *   .   .*  .-   *37@  X:         O-3370qo  :$  X%&#   :o  -80e#  X:   *1*   =#   X,8e8:    >   =57@  #&  o:X   :+ &#  +37qtyuuuuuuuuuuuuuuuuuuuuuuuuuuuuuuuuuu",
"uuuuuuuuuuuuuuuuuuuuuuuuuuuuuuuuuuuuuy0.   =+           X0ety8  .3.         %%  O78#  X:  .,+      *=  .-   *37@  X:      X@:33578q7  .1          $%  +500#  X:   *13X   >X           -%   =37@  $&  o,*   o:.&@  +380tyuuuuuuuuuuuuuuuuuuuuuuuuuuuuuuuuuu",
"iuuuuuuuuuuuuuuuuuuuuuuuuuuuuuuuuuuuyut1   X:$           *0we=  %1*&&&&&&*&&*,   17@  X:  .,,X    @,-  X;   *37@  X:   :,11335770qe-  %1*&&*&&&****,   180#  X:   *35,   +>+         :#   .,57@  $&  o,1#   #;*#  +380tyuuuuuuuuuuuuuuuuuuuuuuuuuuuuuuuuui",
"iuuuuuuuuuuuuuuuuuuuuuuuuuuuuuuuuuuuuyye#   .&;@X    o=X  300.  ,%@+@++@+@@@@:+  %3@  X:  .11:   X,1;  X:   *37@  X:  .133377800ete   ,&@+@+++@@@+@:+  %78#  X;   *357%   X==O    .$,#    =358@  $&  o133o   ;1@  +37qtyuuuuuuuuuuuuuuuuuuuuuuuuuuuuuuuuui",
"iuuuuuuuuuuuuuuuuuuuuuuuuuuuuuuuuuuuuuyt0X    o*:,;:,>%X  @7,  o1            @-  .3@  X;  .133&  -12>  X:   *37@  X:  .133880qetty3  X1            @*  .58@  X;   *3788o    @=,>;>,*o    $1370#  $*  o3373   .1@  +570eyuuuuuuuuuuuuuuuuuuuuuuuuuuuuuuuuui",
"iuuuuuuuuuuuuuuuuuuuuuuuuuuuuuuuuuuuuyyye7O       XX       ,+   .   ooooooX   X   -+   .  .1557O%4571   .   *37@   .  .1570qetyyyy#   .  .oooXooX   X   ;5@   .   *38007#      Xo       %1358q#      o3588:   .   O37qtyuuuuuuuuuuuuuuuuuuuuuuuuuuuuuuuuui",
"iiuuuuuuuuuuuuuuuuuuuuuuuuuuuuuuuuuuuuuytw0;              *,       *1113533o      @+      .1580587782       *37@      .158qtyyyyuq       *1133333X      @5@       *57qeq0>X           X-1358qe#      o378q0#      O380tyuuuuuuuuuuuuuuuuuuuuuuuuuuuuuuuuii",
"iiuuuuuuuuuuuuuuuuuuuuuuuuuuuuuuuuuuuuuuytw05#         o%,1&      .13357777-       O      .378qqqqqq7       *57#      X370eyyuuuu,      .13357787=       3+       *58qtee07$        o*,2577qwr#      o570ee8X     +57qtyuuuuuuuuuuuuuuuuuuuuuuuuuuuuuuuuii",
"iiuuuuuuuuuuuuuuuuuuuuuuuuuuuuuuuuuuuuuuyytw087,=%$%*:<11357777331335780000075333113333111358qetrrrrew0733113780885311358qtyuuuuuytq853133578000008733135577753111570etytwq77>=%#*-:334578qrtytq87313358qete085333550qyuuuuuuuuuuuuuuuuuuuuuuuuuuuuuuuuuii",
"iiiuuuuuuuuuuuuuuuuuuuuuuuuuuuuuuuuuuuuuuuuyeq087553355577800888777780qeeeee08877577777755780ettyyyyyeq08757800eq08757780eyyuuuuuyte08777780qeeeee008757788088775788qtyyyyeq0875555457780wtyyyyeq8855880etyteq887588qeyyuuuuuuuuuuuuuuuuuuuuuuuuuuuuuuuiii",
"iiiuuuuuuuuuuuuuuuuuuuuuuuuuuuuuuuuuuuuuuuuyyteq0088888800qqewq00000eetyyyyyteq000000000000qetyyyyyyyytqq0000qetteq0000qetyyuuuuuyyte00000eetyyyttteq00000qqq000000etyyyyyyteq00888889qqetyyyyyyeq0000qetyyyteqq00qqetyuuuuuuuuuuuuuuuuuuuuuuuuuuuuuuuuiii",
"iiiiuuuuuuuuuuuuuuuuuuuuuuuuuuuuuuuuuuuuuuuuyyyteeqqqqwwettttttteetttyyyyyuyyytteeeeteeeeetttyyyuuyuuyyteteettyytytteetttyyuuuuuuyuytteetttyyyuyyyyytttettttttttetttyyyuuyuytteeeqqewwryyyyuuuyyytteettyyuuuytteteetyyyuuuuuuuuuuuuuuuuuuuuuuuuuuuuuuuiiii",
"iiiiuuuuuuuuuuuuuuuuuuuuuuuuuuuuuuuuuuuuuuuuuyyyytyttttyyyyuyuyyyyyyyuuyuuuyyyyyyyyuyyyyyyyyuyuuuuuuuuuyyyyyyyuuyyyyyyyyyuuuuuuuuuuuyyyyyyyyyuuuuuyyyyyyyyyyyyuuyyyyyuuuuuuyyyyytttyyyyyyuuuuuuyyyyyyyyyyuuuuuuyyyyyyyuuuuuuuuuuuuuuuuuuuuuuuuuuuuuuuuiiii",
"iiiiiuuuuuuuuuuuuuuuuuuuuuuuuuuuuuuuuuuuuuuuuuuuyyuyuyyyuuuuuuuuyuyuuuuuuuuuuyuuuuuuuuuuuyuuuuuuuuuuuuuuuyuyuuuuuuuyuuuyyuuuuuuuuuuuuuuuyuuuuuuuuuuuuuuyyuyuuuuuyuuyuuuuuuuuuuyyuuuuuuuuuuuuuuuuuyuuuuyuuuuuuuuuuuyuuuuuuuuuuuuuuuuuuuuuuuuuuuuuuuuuuiiiii",
"iiiiiuuuuuuuuuuuuuuuuuuuuuuuuuuuuuuuuuuuuuuuuuuuuuuuuuuuuuuuuuuuuuuuuuuuuuuuuuuuuuuuuuuuuuuuuuuuuuuuuuuuuuuuuuuuuuuuuuuuuuuuuuuuuuuuuuuuuuuuuuuuuuuuuuuuuuuuuuuuuuuuuuuuuuuuuuuuuuuuuuuuuuuuuuuuuuuuuuuuuuuuuuuuuuuuuuuuuuuuuuuuuuuuuuuuuuuuuuuuuuuuuiiiii",
"iiiiiiuuuuuuuuuuuuuuuuuuuuuuuuuuuuuuuuuuuuuuuuuuuuuuuuuuuuuuuuuuuuuuuuuuuuuuuuuuuuuuuuuuuuuuuuuuuuuuuuuuuuuuuuuuuuuuuuuuuuuuuuuuuuuuuuuuuuuuuuuuuuuuuuuuuuuuuuuuuuuuuuuuuuuuuuuuuuuuuuuuuuuuuuuuuuuuuuuuuuuuuuuuuuuuuuuuuuuuuuuuuuuuuuuuuuuuuuuuuuuuiiiiii",
"iiiiiiiuuuuuuuuuuuuuuuuuuuuuuuuuuuuuuuuuuuuuuuuuuuuuuuuuuuuuuuuuuuuuuuuuuuuuuuuuuuuuuuuuuuuuuuuuuuuuuuuuuuuuuuuuuuuuuuuuuuuuuuuuuuuuuuuuuuuuuuuuuuuuuuuuuuuuuuuuuuuuuuuuuuuuuuuuuuuuuuuuuuuuuuuuuuuuuuuuuuuuuuuuuuuuuuuuuuuuuuuuuuuuuuuuuuuuuuuuuuuiiiiiii",
"iiiiiiiuuuuuuuuuuuuuuuuuuuuuuuuuuuuuuuuuuuuuuuuuuuuuuuuuuuuuuuuuuuuuuuuuuuuuuuuuuuuuuuuuuuuuuuuuuuuuuuuuuuuuuuuuuuuuuuuuuuuuuuuuuuuuuuuuuuuuuuuuuuuuuuuuuuuuuuuuuuuuuuuuuuuuuuuuuuuuuuuuuuuuuuuuuuuuuuuuuuuuuuuuuuuuuuuuuuuuuuuuuuuuuuuuuuuuuuuuuuuiiiiiii",
"iiiiiiiiuuuuuuuuuuuuuuuuuuuuuuuuuuuuuuuuuuuuuuuuuuuuuuuuuuuuuuuuuuuuuuuuuuuuuuuuuuuuuuuuuuuuuuuuuuuuuuuuuuuuuuuuuuuuuuuuuuuuuuuuuuuuuuuuuuuuuuuuuuuuuuuuuuuuuuuuuuuuuuuuuuuuuuuuuuuuuuuuuuuuuuuuuuuuuuuuuuuuuuuuuuuuuuuuuuuuuuuuuuuuuuuuuuuuuuuuuuiiiiiiii",
"iiiiiiiiiuuuuuuuuuuuuuuuuuuuuuuuuuuuuuuuuuuuuuuuuuuuuuuuuuuuuuuuuuuuuuuuuuuuuuuuuuuuuuuuuuuuuuuuuuuuuuuuuuuuuuuuuuuuuuuuuuuuuuuuuuuuuuuuuuuuuuuuuuuuuuuuuuuuuuuuuuuuuuuuuuuuuuuuuuuuuuuuuuuuuuuuuuuuuuuuuuuuuuuuuuuuuuuuuuuuuuuuuuuuuuuuuuuuuuuuuiiiiiiiii",
"iiiiiiiiiiuuuuuuuuuuuuuuuuuuuuuuuuuuuuuuuuuuuuuuuuuuuuuuuuuuuuuuuuuuuuuuuuuuuuuuuuuuuuuuuuuuuuuuuuuuuuuuuuuuuuuuuuuuuuuuuuuuuuuuuuuuuuuuuuuuuuuuuuuuuuuuuuuuuuuuuuuuuuuuuuuuuuuuuuuuuuuuuuuuuuuuuuuuuuuuuuuuuuuuuuuuuuuuuuuuuuuuuuuuuuuuuuuuuuuuiiiiiiiiii",
"iiiiiiiiiiiuuuuuuuuuuuuuuuuuuuuuuuuuuuuuuuuuuuuuuuuuuuuuuuuuuuuuuuuuuuuuuuuuuuuuuuuuuuuuuuuuuuuuuuuuuuuuuuuuuuuuuuuuuuuuuuuuuuuuuuuuuuuuuuuuuuuuuuuuuuuuuuuuuuuuuuuuuuuuuuuuuuuuuuuuuuuuuuuuuuuuuuuuuuuuuuuuuuuuuuuuuuuuuuuuuuuuuuuuuuuuuuuuuuuiiiiiiiiiii",
"iiiiiiiiiiiiuuuuuuuuuuuuuuuuuuuuuuuuuuuuuuuuuuuuuuuuuuuuuuuuuuuuuuuuuuuuuuuuuuuuuuuuuuuuuuuuuuuuuuuuuuuuuuuuuuuuuuuuuuuuuuuuuuuuuuuuuuuuuuuuuuuuuuuuuuuuuuuuuuuuuuuuuuuuuuuuuuuuuuuuuuuuuuuuuuuuuuuuuuuuuuuuuuuuuuuuuuuuuuuuuuuuuuuuuuuuuuuuuuiiiiiiiiiiii",
"iiiiiiiiiiiiiuuuuuuuuuuuuuuuuuuuuuuuuuuuuuuuuuuuuuuuuuuuuuuuuuuuuuuuuuuuuuuuuuuuuuuuuuuuuuuuuuuuuuuuuuuuuuuuuuuuuuuuuuuuuuuuuuuuuuuuuuuuuuuuuuuuuuuuuuuuuuuuuuuuuuuuuuuuuuuuuuuuuuuuuuuuuuuuuuuuuuuuuuuuuuuuuuuuuuuuuuuuuuuuuuuuuuuuuuuuuuuuuiiiiiiiiiiiii",
"iiiiiiiiiiiiiiiuuuuuuuuuuuuuuuuuuuuuuuuuuuuuuuuuuuuuuuuuuuuuuuuuuuuuuuuuuuuuuuuuuuuuuuuuuuuuuuuuuuuuuuuuuuuuuuuuuuuuuuuuuuuuuuuuuuuuuuuuuuuuuuuuuuuuuuuuuuuuuuuuuuuuuuuuuuuuuuuuuuuuuuuuuuuuuuuuuuuuuuuuuuuuuuuuuuuuuuuuuuuuuuuuuuuuuuuuuuuiiiiiiiiiiiiiii",
"iiiiiiiiiiiiiiiiuuuuuuuuuuuuuuuuuuuuuuuuuuuuuuuuuuuuuuuuuuuuuuuuuuuuuuuuuuuuuuuuuuuuuuuuuuuuuuuuuuuuuuuuuuuuuuuuuuuuuuuuuuuuuuuuuuuuuuuuuuuuuuuuuuuuuuuuuuuuuuuuuuuuuuuuuuuuuuuuuuuuuuuuuuuuuuuuuuuuuuuuuuuuuuuuuuuuuuuuuuuuuuuuuuuuuuuuuuiiiiiiiiiiiiiiii",
"iiiiiiiiiiiiiiiiiiuuuuuuuuuuuuuuuuuuuuuuuuuuuuuuuuuuuuuuuuuuuuuuuuuuuuuuuuuuuuuuuuuuuuuuuuuuuuuuuuuuuuuuuuuuuuuuuuuuuuuuuuuuuuuuuuuuuuuuuuuuuuuuuuuuuuuuuuuuuuuuuuuuuuuuuuuuuuuuuuuuuuuuuuuuuuuuuuuuuuuuuuuuuuuuuuuuuuuuuuuuuuuuuuuuuuuuiiiiiiiiiiiiiiiiii",
"iiiiiiiiiiiiiiiiiiiiuuuuuuuuuuuuuuuuuuuuuuuuuuuuuuuuuuuuuuuuuuuuuuuuuuuuuuuuuuuuuuuuuuuuuuuuuuuuuuuuuuuuuuuuuuuuuuuuuuuuuuuuuuuuuuuuuuuuuuuuuuuuuuuuuuuuuuuuuuuuuuuuuuuuuuuuuuuuuuuuuuuuuuuuuuuuuuuuuuuuuuuuuuuuuuuuuuuuuuuuuuuuuuuuuuiiiiiiiiiiiiiiiiiiii",
"iiiiiiiiiiiiiiiiiiiiiiuuuuuuuuuuuuuuuuuuuuuuuuuuuuuuuuuuuuuuuuuuuuuuuuuuuuuuuuuuuuuuuuuuuuuuuuuuuuuuuuuuuuuuuuuuuuuuuuuuuuuuuuuuuuuuuuuuuuuuuuuuuuuuuuuuuuuuuuuuuuuuuuuuuuuuuuuuuuuuuuuuuuuuuuuuuuuuuuuuuuuuuuuuuuuuuuuuuuuuuuuuuuuuiiiiiiiiiiiiiiiiiiiiii",
"iiiiiiiiiiiiiiiiiiiiiiiiiuuuuuuuuuuuuuuuuuuuuuuuuuuuuuuuuuuuuuuuuuuuuuuuuuuuuuuuuuuuuuuuuuuuuuuuuuuuuuuuuuuuuuuuuuuuuuuuuuuuuuuuuuuuuuuuuuuuuuuuuuuuuuuuuuuuuuuuuuuuuuuuuuuuuuuuuuuuuuuuuuuuuuuuuuuuuuuuuuuuuuuuuuuuuuuuuuuuuuuuuiiiiiiiiiiiiiiiiiiiiiiiii",
"iiiiiiiiiiiiiiiiiiiiiiiiiiiiiuuuuuuuuuuuuuuuuuuuuuuuuuuuuuuuuuuuuuuuuuuuuuuuuuuuuuuuuuuuuuuuuuuuuuuuuuuuuuuuuuuuuuuuuuuuuuuuuuuuuuuuuuuuuuuuuuuuuuuuuuuuuuuuuuuuuuuuuuuuuuuuuuuuuuuuuuuuuuuuuuuuuuuuuuuuuuuuuuuuuuuuuuuuuuuuuiiiiiiiiiiiiiiiiiiiiiiiiiiiii"
};
