/* XPM */
static char *_0220_384973616b1ec7f8200ebf66a8a14613de965a3b57c756a8024031e00a009c8e[] = {
/* columns rows colors chars-per-pixel */
"250 70 38 1 ",
"  c #413838",
". c #483F3F",
"X c #4C4444",
"o c #4F4848",
"O c #534C4C",
"+ c #575050",
"@ c #5A5454",
"# c #5E5858",
"$ c #635D5D",
"% c #666161",
"& c #696464",
"* c #6D6A6A",
"= c #716E6E",
"- c #757272",
"; c #7A7676",
": c #7C7A7A",
"> c #817E7E",
", c #848383",
"< c #898686",
"1 c #8C8C8C",
"2 c #918E8E",
"3 c #939393",
"4 c #999696",
"5 c #9B9B9B",
"6 c #A19F9F",
"7 c #A3A3A3",
"8 c #A9A6A6",
"9 c #ABABAB",
"0 c #B1AFAF",
"q c #B4B4B4",
"w c #BCBCBC",
"e c #C0BFBF",
"r c #C4C4C4",
"t c #C8C7C7",
"y c #CBCBCB",
"u c #D4D4D4",
"i c #DEDEDE",
"p c None",
/* pixels */
"pppppppppppppppppppppppppiiiiiiiiiiiiiiiiiiiiiiiiiiiiiiiiiiiiiiiiiiiiiiiiiiiiiiiiiiiiiiiiiiiiiiiiiiiiiiiiiiiiiiiiiiiiiiiiiiiiiiiiiiiiiiiiiiiiiiiiiiiiiiiiiiiiiiiiiiiiiiiiiiiiiiiiiiiiiiiiiiiiiiiiiiiiiiiiiiiiiiiiiiiiiiiiiiiiiiiippppppppppppppppppppppppp",
"ppppppppppppppppppppppiiiiiiiiiiiiiiiiiiiiiiiiiiiiiiiiiiiiiiiiiiiiiiiiiiiiiiiiiiiiiiiiiiiiiiiiiiiiiiiiiiiiiiiiiiiiiiiiiiiiiiiiiiiiiiiiiiiiiiiiiiiiiiiiiiiiiiiiiiiiiiiiiiiiiiiiiiiiiiiiiiiiiiiiiiiiiiiiiiiiiiiiiiiiiiiiiiiiiiiiiiiiiipppppppppppppppppppppp",
"ppppppppppppppppppppiiiiiiiiiiiiiiiiiiiiiiiiiiiiiiiiiiiiiiiiiiiiiiiiiiiiiiiiiiiiiiiiiiiiiiiiiiiiiiiiiiiiiiiiiiiiiiiiiiiiiiiiiiiiiiiiiiiiiiiiiiiiiiiiiiiiiiiiiiiiiiiiiiiiiiiiiiiiiiiiiiiiiiiiiiiiiiiiiiiiiiiiiiiiiiiiiiiiiiiiiiiiiiiiiipppppppppppppppppppp",
"ppppppppppppppppppiiiiiiiiiiiiiiiiiiiiiiiiiiiiiiiiiiiiiiiiiiiiiiiiiiiiiiiiiiiiiiiiiiiiiiiiiiiiiiiiiiiiiiiiiiiiiiiiiiiiiiiiiiiiiiiiiiiiiiiiiiiiiiiiiiiiiiiiiiiiiiiiiiiiiiiiiiiiiiiiiiiiiiiiiiiiiiiiiiiiiiiiiiiiiiiiiiiiiiiiiiiiiiiiiiiiiipppppppppppppppppp",
"ppppppppppppppppiiiiiiiiiiiiiiiiiiiiiiiiiiiiiiiiiiiiiiiiiiiiiiiiiiiiiiiiiiiiiiiiiiiiiiiiiiiiiiiiiiiiiiiiiiiiiiiiiiiiiiiiiiiiiiiiiiiiiiiiiiiiiiiiiiiiiiiiiiiiiiiiiiiiiiiiiiiiiiiiiiiiiiiiiiiiiiiiiiiiiiiiiiiiiiiiiiiiiiiiiiiiiiiiiiiiiiiiiipppppppppppppppp",
"pppppppppppppppiiiiiiiiiiiiiiiiiiiiiiiiiiiiiiiiiiiiiiiiiiiiiiiiiiiiiiiiiiiiiiiiiiiiiiiiiiiiiiiiiiiiiiiiiiiiiiiiiiiiiiiiiiiiiiiiiiiiiiiiiiiiiiiiiiiiiiiiiiiiiiiiiiiiiiiiiiiiiiiiiiiiiiiiiiiiiiiiiiiiiiiiiiiiiiiiiiiiiiiiiiiiiiiiiiiiiiiiiiiippppppppppppppp",
"pppppppppppppiiiiiiiiiiiiiiiiiiiiiiiiiiiiiiiiiiiiiiiiiiiiiiiiiiiiiiiiiiiiiiiiiiiiiiiiiiiiiiiiiiiiiiiiiiiiiiiiiiiiiiiiiiiiiiiiiiiiiiiiiiiiiiiiiiiiiiiiiiiiiiiiiiiiiiiiiiiiiiiiiiiiiiiiiiiiiiiiiiiiiiiiiiiiiiiiiiiiiiiiiiiiiiiiiiiiiiiiiiiiiiiippppppppppppp",
"ppppppppppppiiiiiiiiiiiiiiiiiiiiiiiiiiiiiiiiiiiiiiiiiiiiiiiiiiiiiiiiiiiiiiiiiiiiiiiiiiiiiiiiiiiiiiiiiiiiiiiiiiiiiiiiiiiiiiiiiiiiiiiiiiiiiiiiiiiiiiiiiiiiiiiiiiiiiiiiiiiiiiiiiiiiiiiiiiiiiiiiiiiiiiiiiiiiiiiiiiiiiiiiiiiiiiiiiiiiiiiiiiiiiiiiiipppppppppppp",
"pppppppppppiiiiiiiiiiiiiiiiiiiiiiiiiiiiiiiiiiiiiiiiiiiiiiiiiiiiiiiiiiiiiiiiiiiiiiiiiiiiiiiiiiiiiiiiiiiiiiiiiiiiiiiiiiiiiiiiiiiiiiiiiiiiiiiiiiiiiiiiiiiiiiiiiiiiiiiiiiiiiiiiiiiiiiiiiiiiiiiiiiiiiiiiiiiiiiiiiiiiiiiiiiiiiiiiiiiiiiiiiiiiiiiiiiiippppppppppp",
"ppppppppppiiiiiiiiiiiiiiiiiiiiiiiiiiiiiiiiiiiiiiiiiiiiiiiiiiiiiiiiiiiiiiiiiiiiiiiiiiiiiiiiiiiiiiiiiiiiiiiiiiiiiiiiiiiiiiiiiiiiiiiiiiiiiiiiiiiiiiiiiiiiiiiiiiiiiiiiiiiiiiiiiiiiiiiiiiiiiiiiiiiiiiiiiiiiiiiiiiiiiiiiiiiiiiiiiiiiiiiiiiiiiiiiiiiiiipppppppppp",
"pppppppppiiiiiiiiiiiiiiiiiiiiiiiiiiiiiiiiiiiiiiiiiiiiiiiiiiiiiiiiiiiiiiiiiiiiiiiiiiiiiiiiiiiiiiiiiiiiiiiiiiiiiiiiiiiiiiiiiiiiiiiiiiiiiiiiiiiiiiiiiiiiiiiiiiiiiiiiiiiiiiiiiiiiiiiiiiiiiiiiiiiiiiiiiiiiiiiiiiiiiiiiiiiiiiiiiiiiiiiiiiiiiiiiiiiiiiiippppppppp",
"ppppppppiiiiiiiiiiiiiiiiiiiiiiiiiiiiiiiiiiiiiiiiiiiiiiiiiiiiiiiiiiiiiiiiiiiiiiiiiiiiiiiiiiiiiiiiiiiiiiiiiiiiiiiiiiiiiiiiiiiiiiiiiiiiiiiiiiiiiiiiiiiiiiiiiiiiiiiiiiiiiiiiiiiiiiiiiiiiiiiiiiiiiiiiiiiiiiiiiiiiiiiiiiiiiiiiiiiiiiiiiiiiiiiiiiiiiiiiiipppppppp",
"pppppppiiiiiiiiiiiiiiiiiiiiiiiiiiiiiiiiiiiiiiiiiiiiiiiiiiiiiiiiiiiiiiiiiiiiiiiiiiiiiiiiiiiiiiiiiiiiiiiiiiiiiiiiiiiiiiiiiiiiiiiiiiiiiiiiiiiiiiiiiiiiiiiiiiiiiiiiiiiiiiiiiiiiiiiiiiiiiiiiiiiiiiiiiiiiiiiiiiiiiiiiiiiiiiiiiiiiiiiiiiiiiiiiiiiiiiiiiiiippppppp",
"pppppppiiiiiiiiiiiiiiiiiiiiiiiiiiiiiiiiiiiiiiiiiiiiiiiiiiiiiiiiiiiiiiiiiiiiiiiiiiiiiiiiiiiiiiiiiiiiiiiiiiiiiiiiiiiiiiiiiiiiiiiiiiiiiiiiiiiiiiiiiiiiiiiiiiiiiiiiiiiiiiiiiiiiiiiiiiiiiiiiiiiiiiiiiiiiiiiiiiiiiiiiiiiiiiiiiiiiiiiiiiiiiiiiiiiiiiiiiiiippppppp",
"ppppppiiiiiiiiiiiiiiiiiiiiiiiiiiiiiiiiiiiiiiiiiiiiiiiiiiiiiiiiiiiiiiiiiiiiiiiiiiiiiiiiiiiiiiiiiiiiiiiiiiiiiiiiiiiiiiiiiiiiiiiiiiiiiiiiiiiiiiiiiiiiiiiiiiiiiiiiiiiiiiiiiiiiiiiiiiiiiiiiiiiiiiiiiiiiiiiiiiiiiiiiiiiiiiiiiiiiiiiiiiiiiiiiiiiiiiiiiiiiiipppppp",
"pppppiiiiiiiiiiiiiiiiiiiiiiiiiiiiiiiiiiiiiiiiiiiiiiiiiiiiiiiiiiiiiiiiiiiiiiiiiiiiiiiiiiiiiiiiiiiiiiiiiiiiiiiiiiiiiiiiiiiiiiiiiiiiiiiiiiiiiiiiiiiiiiiiiiiiiiiiiiiiiiiiiiiiiiiiiiiiiiiiiiiiiiiiiiiiiiiiiiiiiiiiiiiiiiiiiiiiiiiiiiiiiiiiiiiiiiiiiiiiiiiippppp",
"pppppiiiiiiiiiiiiiiiiiiiiiiiiiiiiiiiiiiiiiiiiiiiiiiiiiiiiiiiiiiiiiiiiiiiiiiiiiiiiiiiiiiiiiiiiiiiiiiiiiiiiiiiiiiiiiiiiiiiiiiiiiiiiiiiiiiiiiiiiiiiiiiiiiiiiiiiiiiiiiiiiiiiiiiiiiiiiiiiiiiiiiiiiiiiiiiiiiiiiiiiiiiiiiiiiiiiiiiiiiiiiiiiiiiiiiiiiiiiiiiiippppp",
"ppppiiiiiiiiiiiiiiiiiiiiiiiiiiiiiiiiiiiiiiiiiiiiiiiiiiiiiiiiiiiiiiiiiiiiiiiiiiiiiiiiiiiiiiiiiiiiiiiiiiiiiiiiiiiiiiiiiiiiiiiiiiiiiiiiiiiiiiiiiiiiiiiiiiiiiiiiiiiiiiiiiiiiiiiiiiiiiiiiiiiiiiiiiiiiiiiiiiiiiiiiiiiiiiiiiiiiiiiiiiiiiiiiiiiiiiiiiiiiiiiiiipppp",
"ppppiiiiiiiiiiiiiiiiiiiiiiiiiiiiiiiiiiiiiiiiiiiiiiiiiiiiiiiiiiiiiiiiiiiiiiiiiiiiiiiiiiiiiiiiiiiiiiiiiiiiiiiiiiiiiiiiiiiiiiiiiiiiiiiiiiiiiiiiiiiiiiiiiiiiiiiiiiiiiiiiiiiiiiiiiiiiiiiiiiiiiiiiiiiiiiiiiiiiiiiiiiiiiiiiiiiiiiiiiiiiiiiiiiiiiiiiiiiiiiiiiipppp",
"pppiiiiiiiiiiiiiiiiiiiiiiiiiiiiiiiiiiiiiiiiiiiiiiiiiiiiiiiiiiiiiiiiiiiiiiiiiiiiiiiiiiiiiiiiiiiiiiiiiiiiiiiiiiiiiiiiiiiiiiiiiiiiiiiiiiiiiiiiiiiiiiiiiiiiiiiiiiiiiiiiiiiiiiiiiiiiiiiiiiiiiiiiiiiiiiiiiiiiiiiiiiiiiiiiiiiiiiiiiiiiiiiiiiiiiiiiiiiiiiiiiiiippp",
"pppiiiiiiiiiiiiiiiiiiiiiiiiiiiiiiiiiiiiiiiiiiiiiiiiuuiuiiiiiiiiiiiiiiiiiiiiiiiiiiiuiiiiuuiuiiiiiiiiiiiiiiiiiiiiiiiiuiuiiuiuiiiiiiuiiiiuiiiiiiiiiiiiiiiiiiiiuiuiiuiiiiiiiiuiiiuiiiiiiiiiiuiuuiuuiiiiiiiiiiiiuuuiiiiiuiiiiiiiiiiiiiiiiiiiiiiiiiiiiiiiiiiippp",
"ppiiiiiiiiiiiiiiiiiiiiiiiiiiiiiiuyyuuuuuiiiiiiiiiiuuuuuuuiiuiiiiuiuuiiiiuuuiiiiiuiuuuuyuuuuuuuuiiiiiiiiiiiiiiuuyiiuyyuyyyuuuuuuuuyyuyuuuiuiuuiuiiiiiuyuyuyuuuuuuuuyyiiuiyyuyuuuuuiuiiiu03,:13eyyuuuiiiiuiuuuuuuyiiuuuuuiuiiiiiiiiiiiiiiiiiiiiiiiiiiiiiiipp",
"ppiiiiiiiiiiiiiiiiiiiiiiiiiiii>X    Xryuuiiiiiii9      1yyuiiiiii@     5yuuiuiii%       .@%-3tyuuiuiiiiiiiii%   O   .   . 2y$      X@%:17euuuuuiiii%       3r                #yuuuiiy;X       +1yyuuiiii%       OX$;2wyyuuiiiiiiiiiiiiiiiiiiiiiiiiiiiiiipp",
"ppiiiiiiiiiiiiiiiiiiiiiiiiiiui%.     *wtyuiiiiuyo      ,eyuuuiiiw      $etyuuiii%            X:wyyuiiiiiiiii$   ..        >w$             &7yuuiiiu%       ,w                @eruuu8o           $9tuuuui%       X.   .>eyuuiiiiiiiiiiiiiiiiiiiiiiiiiiiiipp",
"piiiiiiiiiiiiiiiiiiiiiiiiiiiii$   X   1wruuiiiu;   o   ;qwyuiiiu>  .X   7wryuiuu%   XXoo.      X9ryuuiiiiiiu%   oXXXoXXX  >9@  .XXX.        =wyyuui%   .   :9   XXXXXXXXXXX. +9qrr-       o      .<rtuuu%   oXXo       X5ryuiiiiiiiiiiiiiiiiiiiiiiiiiiiiip",
"piiiiiiiiiiiiiiiiiiiiiiiiiiiiu$  o4O  X7wtuuii9   -1   =7qryuiiu.  >4O  =9wyuiiu%  X3;;:,<,%    O0ryuiiiiiiu$ .X3::;:::;  =6@  X1:>,,,-*.    +qtyuy$  X,   *3  o>::::2>>>::  +69q@    #;,1:,;&X    ;wtuy%  X2:::,1:%    .8eyuuuiiiiiiiiiiiiiiiiiiiiiiiiiip",
"piiiiiiiiiiiiiiiiiiiiiiiiiiiiu$. X1:   #9wyuuyX  @3,   *59eyuii7  .3%*  X7qruuiu%  X:     X$,#   @qeyuuiiiiu$  X:         =3+  X>    .X&,%    @9ryy%  X:   *3       .>       o57-   X::@X   X#,#    4wtt#  X:      %>@   +0wyuiiiiiiiiiiiiiiiiiiiiiiiiiiip",
"piiiiiiiiiiiiiiiiiiiiiiiiiiiiu$  X;&*   >qryu=  .3#,   *59wyuiu&  *=.<   ,9wyuiu$  X;       X,o   <qtyuiiiiu%  X;         *3+  X-       .*,.   -qwt%  X:   *3       .:       o31   O2%        X*=   O8we#  X:       X;O   =qeyuiiiiiiiiiiiiiiiiiiiiiiiiiip",
"iiiiiiiiiiiiiiiiiiiiiiiiiiiiuu$  X:.,O  .5qt5   ;=X>   &57wuuit   <O.=@  $7qruuu$  X:   #@   o>   $9wtuiiiiu%  X;  .---;;:15+  X-   .     $=    7qw#  X-   *3:,:;@  .:   #---:5o   1@           *%   *0q#  X:   $o   X;   O7wtuuiiiiiiiiiiiiiiiiiiiiiiiiii",
"iiiiiiiiiiiiiiiiiiiiiiiiiiiiiu$  X> O,.  @99X  @1 X>   *57wyuu1  o<  @-   50eyuu$  X:  .11%   >X  O5qryuiiuu$  X:  .11144567@  X:  .1,-O   -$   -9q$  X:   *33775%  .:   *1134;   -*   X*:1:%    :o   50#  X:  .11>X  *O   49wyiiiiiiiiiiiiiiiiiiiiiiiiiii",
"iiiiiiiiiiiiiiiiiiiiiiiiiiiiiu$  X:  &-   ;$  X2O X>   *59wyui+  -%   ,X  ;8wtuy$  X:  .11,   =@  X59wyiiiiu$  X;   <1235789@  X:  .,113#  .,   @79#  X:   *35999=  .>   =1467#  X<   O,12554<.  o;   ;7@  X:   112%  #$   ,7wyuiiiiiiiiiiiiiiiiiiiiiiiiii",
"iiiiiiiiiiiiiiiiiiiiiiiiiiiiiu$  X:   :@  .   -*  X:   *59wyuq   2.   %$  O6qryu$  X;  .113   *#  .47wtuuiiu$  o:         <0$  X:  .13575X  ,.   57@  X:   =37qww=  .:   =358q   $&   >1557797:   >   #5+  X:  X135=  @*   :6qtuiiiiiiiiiiiiiiiiiiiiiiiiii",
"iiiiiiiiiiiiiiiiiiiiiiiiiiiiiu$  X;   X>.    @>   .:   *39wyu-  #:    X:   19wyy#  X-  .13-   >X  o37qyuiiiu%  X:         10@  X:  .15799%  -+   35#  X:   *39qrt-  .:   *57q9   =@  #1368qweq0X  -o  o3@  X-  X135+  %%   ,5qryiiiiiiiiiiiiiiiiiiiiiiiiii",
"iiiiiiiiiiiiiiiiiiiiiiiiiiiiuu$. X;    #*    :o   .:   *39wyy.  >+     -o  &9qry%  X:  .:-.  .1.  @37qtuiiuu$  X,%%$%%%@  >7@  X-  .359ww:  %%   ,5@  X:   *39wty-  .>   *57q6   ,X  *357qryyte#  %%  X1+  X;   :&O   :+  .379ruuiiiiiiiiiiiiiiiiiiiiiiiii",
"iiiiiiiiiiiiiiiiiiiiiiiiiiiiiu$ .X:     -@  *#    .-   *39wy5  X1   X  #*  X79wr#  X:        :#   *38qyuuiiu%  X,@@####o  ;5@  X:  .35qer:  *$   ,5@  X:   *59wyu;  .>   -59w7   >X  *36qryuuut#  %%  X1+  X-        %:   @37qruiiiiiiiiiiiiiiiiiiiiiiiiii",
"iiiiiiiiiiiiiiiiiiiiiiiiiiiiiu$  X:     X:X+;     .-   *59wr%  **  o*   >   ,9wr#  X:      o:*   .<49eyuiiiu$  X:         :5+  X:   37qey&  :+   13@  .:   *59wty;  .>   *59w9   *@  #57wruiiuyX  ;o  o1+  X:       %-    :37qyuuiiiiiiiiiiiiiiiiiiiiiiiii",
"iiiiiiiiiiiiiiiiiiiiiiiiiiiiii$  X:      @-,X     .-   *39wq   1o  %,X  *#  #7qw%  X,##%%=::+    :360ryuiiiu#  o:   X  X X:4@  X-  .37qreX  1X  .13@  X:   *59wyu;  .>   -59ww   #&   17qruiiu4   1   #1+  X:ooo+#*>+    #159wyuiiiiiiiiiiiiiiiiiiiiiiiiii",
"iiiiiiiiiiiiiiiiiiiiiiiiiiiiii$  X;  ..   =#   X  .=   &59w,  +,   ,,%  o-   39q#  X,###+o.     -157wruiiiuu%  X:   11111356@  X:  .37qw*  X1   +15@  .:   *59wyu;  .>   -59wr$  X>   @50ryuuqX  +:   *1+  X,*==%%*-    #,359ruuiiiiiiiiiiiiiiiiiiiiiiiiii",
"iiiiiiiiiiiiiiiiiiiiiiiiiiiiiu%  X;   *       X&  .-   *39qo  -#  X&%#   :X  -99#  X:         O-157qryuiiiiu%  X:  X11355778@  X:  .151@   ,$   *35@  X:   =39wyy;  .>   *59wr1   &&   X,9e0>    1o   ,1+  X:      :O   -137wyuiiiiiiiiiiiiiiiiiiiiiiiiiii",
"iiiiiiiiiiiiiiiiiiiiiiiiiiiiiu$. X:  .>@      ==  .-   *593   3.         %%  o79#  X:      X@>13570wyuuiiiuu$  X:   =;;>,<49@  X:   .     *:    ,35+  X:   *59wtu;  .>   -39wtwO   :o           -*   #15+  X:      o,   o159wyuiiiiiiiiiiiiiiiiiiiiiiiiiii",
"piiiiiiiiiiiiiiiiiiiiiiiiiiiiu$  X:  .,,X    @,-  .-   *57&  %1*&&&&&*&&&*,   17@  X:   :,1135577qwyyiiiiiuu%  X:         %0#  X:       .-<.   %157#  X:   *59wyy:   :   =59wtt6   o>#        X;:   X135+  X;  .O   =#   *59ruuiiiiiiiiiiiiiiiiiiiiiiiiiip",
"piiiiiiiiiiiiiiiiiiiiiiiiiiiiu$  X:  .11:   X><:  .:   &35.  ,%@+@++@@@@@+:+  %5@  X:  .1133779qwryuuiiiiiiu#  X:         #9#  X:     o&1%    o1379#  X:   *59wyy:  .,   =59wyyt-   .=;+X   X#<%    :157@  X:   :   .,.  X3qwyuiiiiiiiiiiiiiiiiiiiiiiiiiip",
"piiiiiiiiiiiiiiiiiiiiiiiiiiiuu$  X:   135%  -13>  .:   *3:  X1            @-  .3+  X-  .13579wwryyuuiiiiiiiu%  X,-;--;:>  #7@  X,--:::=%.    o,359q#  X:   *39wyy:  X:   =59wyuywo    +*,>;<:*X    %1379#  X:  X,%   #=   %7wtuiiiiiiiiiiiiiiiiiiiiiiiiiip",
"piiiiiiiiiiiiiiiiiiiiiiiiiiiiu$   .  .1567o%3551   .   &3+   .  .ooXXXoX   .   -+   .  .157qeryyuiuiiiiiiiuu%   .X..X..X  #3+   X.X         %1359qw$   .   &59wyu:   .   *59wyuyy9%       o      .*1379q#   .   ,,.   X    39ryuiiiiiiiiiiiiiiiiiiiiiiiiip",
"ppiiiiiiiiiiiiiiiiiiiiiiiiiiiu$      .359q679793       &,       *1333353X      +o      .179ryyiuuiiiiiiiiiiu%             #3+             @>1359qrr%       *59wyy-       *59wuuuurq<.           o>1369we#       11-        #9wyuiiiiiiiiiiiiiiiiiiiiiiiipp",
"ppiiiiiiiiiiiiiiiiiiiiiiiiiiiu$      .369wwwwww6       *%       13357777*       O      .37qruuiiiiiiiiiiiiiu%             @1+      .o+%*;133569qryy%       =59ryu:       -5qeuuiuyrq6%.       X*13569wry#      .155+        1qruiiiiiiiiiiiiiiiiiiiiiiiipp",
"ppiiiiiiiiiiiiiiiiiiiiiiiiiiiuyr97311359wrryrryrrq75311357755333357qqqwqq97531333333131359wyuiiiiiiiiiiiiiiuye0651133333135567555133335355679qwryuuyw97511357qryuyrq7511337qruuiuuyrw95>=%%%*:23377qwryuywq631135799775111157qryiiiiiiiiiiiiiiiiiiiiiiiipp",
"pppiiiiiiiiiiiiiiiiiiiiiiiiiiuuyw975679qryuuuuuuywq97577999977577qqwrrrreqq77757777775579qryuiiiiiiiiiiiiiiuyrw977776667677990077667777999qqwryuuuuurq975577qwtuuurw976569qwyuuiiiuurwq9755445557qqwyuuuurw976677qwwq97775779wyuiiiiiiiiiiiiiiiiiiiiiiippp",
"pppiiiiiiiiiiiiiiiiiiiiiiiiiiiiurwqqqqwryuuuiuuuuyrwqqqqwwwwqqqqqwryuuuuyrrwqqqqqqqqqqqqwryuuiiiiiiiiiiiiiiiuyyrqqqqqqqqqqqwwrwwwqqqqwwwwrrryuuuuiiuyrwqqqqweyiiuuurewqqqwryyuiiiiiiiirwq999999qqrtyuuiuuytwqqqqwwtyrrwqqqqwwryuiiiiiiiiiiiiiiiiiiiiiiippp",
"ppppiiiiiiiiiiiiiiiiiiiiiiiiiiiiuytrryyyiiiiiiiuuuyyrrryyyyyyrrtyyuuuuiuiuyyrrrytytttrttyyuiiiiiiiiiiiiiiiiuiuuuyrrtrtrrryyyyyytrrrrrryrryyuuuiuiiiuuuyrrrrryuiiiuuuyyrrrryyuiiiiiiiiiyytrewwwrryyyuiiiiiuuyttrryyyuyyytrrrryyuuiiiiiiiiiiiiiiiiiiiiiipppp",
"ppppiiiiiiiiiiiiiiiiiiiiiiiiiiiiuuuuuuuiiiiiiiiiiiuuuuuuuuiiuuuuuuuiiiiiiiuuuuuuiuiiuuuuuuuiiiiiiiiiiiiiiiiiiuiiuyuuyuuuuuuuuuuuiuiiuyuuuuiuiiiiiiiuiuuuuuuuuiiiiuiuuuuuuuuuuiiiiiiiiiuuuyyuyuuyuuiiiiiuiiiiuuuuuuiuiuuuuuiiuuuiiiiiiiiiiiiiiiiiiiiiiipppp",
"pppppiiiiiiiiiiiiiiiiiiiiiiiiiiiiiuiiuiiiiiiiiiiiuiuiuiiiiiiiuiuiiiiiiiiiuiiiiuiiiiiiuiuiiiiiiiiiiiiiiiiiiiiiiiiiiiuiuiiiuiuiiiiiiiiiiiiiiiiiiiiiiiiiiiiiiiuiiiiiiiiiuiiiiiiiiiiiiiiiiiiiiuuuuuiiuiiiiiiiiiiiuiiiiiiiuiiiiiiiiiiiiiiiiiiiiiiiiiiiiiiippppp",
"pppppiiiiiiiiiiiiiiiiiiiiiiiiiiiiiiiiiiiiiiiiiiiiiiiiiiiiiiiiiiiiiiiiiiiiiiiiiiiiiiiiiiiiiiiiiiiiiiiiiiiiiiiiiiiiiiiiiiiiiiiiiiiiiiiiiiiiiiiiiiiiiiiiiiiiiiiiiiiiiiiiiiiiiiiiiiiiiiiiiiiiiiiiuiiiiiiiiiiiiiiiiiiiiiiiiiiiiiiiiiiiiiiiiiiiiiiiiiiiiiiippppp",
"ppppppiiiiiiiiiiiiiiiiiiiiiiiiiiiiiiiiiiiiiiiiiiiiiiiiiiiiiiiiiiiiiiiiiiiiiiiiiiiiiiiiiiiiiiiiiiiiiiiiiiiiiiiiiiiiiiiiiiiiiiiiiiiiiiiiiiiiiiiiiiiiiiiiiiiiiiiiiiiiiiiiiiiiiiiiiiiiiiiiiiiiiiiiiiiiiiiiiiiiiiiiiiiiiiiiiiiiiiiiiiiiiiiiiiiiiiiiiiiiiipppppp",
"pppppppiiiiiiiiiiiiiiiiiiiiiiiiiiiiiiiiiiiiiiiiiiiiiiiiiiiiiiiiiiiiiiiiiiiiiiiiiiiiiiiiiiiiiiiiiiiiiiiiiiiiiiiiiiiiiiiiiiiiiiiiiiiiiiiiiiiiiiiiiiiiiiiiiiiiiiiiiiiiiiiiiiiiiiiiiiiiiiiiiiiiiiiiiiiiiiiiiiiiiiiiiiiiiiiiiiiiiiiiiiiiiiiiiiiiiiiiiiiippppppp",
"pppppppiiiiiiiiiiiiiiiiiiiiiiiiiiiiiiiiiiiiiiiiiiiiiiiiiiiiiiiiiiiiiiiiiiiiiiiiiiiiiiiiiiiiiiiiiiiiiiiiiiiiiiiiiiiiiiiiiiiiiiiiiiiiiiiiiiiiiiiiiiiiiiiiiiiiiiiiiiiiiiiiiiiiiiiiiiiiiiiiiiiiiiiiiiiiiiiiiiiiiiiiiiiiiiiiiiiiiiiiiiiiiiiiiiiiiiiiiiiippppppp",
"ppppppppiiiiiiiiiiiiiiiiiiiiiiiiiiiiiiiiiiiiiiiiiiiiiiiiiiiiiiiiiiiiiiiiiiiiiiiiiiiiiiiiiiiiiiiiiiiiiiiiiiiiiiiiiiiiiiiiiiiiiiiiiiiiiiiiiiiiiiiiiiiiiiiiiiiiiiiiiiiiiiiiiiiiiiiiiiiiiiiiiiiiiiiiiiiiiiiiiiiiiiiiiiiiiiiiiiiiiiiiiiiiiiiiiiiiiiiiiipppppppp",
"pppppppppiiiiiiiiiiiiiiiiiiiiiiiiiiiiiiiiiiiiiiiiiiiiiiiiiiiiiiiiiiiiiiiiiiiiiiiiiiiiiiiiiiiiiiiiiiiiiiiiiiiiiiiiiiiiiiiiiiiiiiiiiiiiiiiiiiiiiiiiiiiiiiiiiiiiiiiiiiiiiiiiiiiiiiiiiiiiiiiiiiiiiiiiiiiiiiiiiiiiiiiiiiiiiiiiiiiiiiiiiiiiiiiiiiiiiiiippppppppp",
"ppppppppppiiiiiiiiiiiiiiiiiiiiiiiiiiiiiiiiiiiiiiiiiiiiiiiiiiiiiiiiiiiiiiiiiiiiiiiiiiiiiiiiiiiiiiiiiiiiiiiiiiiiiiiiiiiiiiiiiiiiiiiiiiiiiiiiiiiiiiiiiiiiiiiiiiiiiiiiiiiiiiiiiiiiiiiiiiiiiiiiiiiiiiiiiiiiiiiiiiiiiiiiiiiiiiiiiiiiiiiiiiiiiiiiiiiiiipppppppppp",
"pppppppppppiiiiiiiiiiiiiiiiiiiiiiiiiiiiiiiiiiiiiiiiiiiiiiiiiiiiiiiiiiiiiiiiiiiiiiiiiiiiiiiiiiiiiiiiiiiiiiiiiiiiiiiiiiiiiiiiiiiiiiiiiiiiiiiiiiiiiiiiiiiiiiiiiiiiiiiiiiiiiiiiiiiiiiiiiiiiiiiiiiiiiiiiiiiiiiiiiiiiiiiiiiiiiiiiiiiiiiiiiiiiiiiiiiiippppppppppp",
"ppppppppppppiiiiiiiiiiiiiiiiiiiiiiiiiiiiiiiiiiiiiiiiiiiiiiiiiiiiiiiiiiiiiiiiiiiiiiiiiiiiiiiiiiiiiiiiiiiiiiiiiiiiiiiiiiiiiiiiiiiiiiiiiiiiiiiiiiiiiiiiiiiiiiiiiiiiiiiiiiiiiiiiiiiiiiiiiiiiiiiiiiiiiiiiiiiiiiiiiiiiiiiiiiiiiiiiiiiiiiiiiiiiiiiiiipppppppppppp",
"pppppppppppppiiiiiiiiiiiiiiiiiiiiiiiiiiiiiiiiiiiiiiiiiiiiiiiiiiiiiiiiiiiiiiiiiiiiiiiiiiiiiiiiiiiiiiiiiiiiiiiiiiiiiiiiiiiiiiiiiiiiiiiiiiiiiiiiiiiiiiiiiiiiiiiiiiiiiiiiiiiiiiiiiiiiiiiiiiiiiiiiiiiiiiiiiiiiiiiiiiiiiiiiiiiiiiiiiiiiiiiiiiiiiiiippppppppppppp",
"pppppppppppppppiiiiiiiiiiiiiiiiiiiiiiiiiiiiiiiiiiiiiiiiiiiiiiiiiiiiiiiiiiiiiiiiiiiiiiiiiiiiiiiiiiiiiiiiiiiiiiiiiiiiiiiiiiiiiiiiiiiiiiiiiiiiiiiiiiiiiiiiiiiiiiiiiiiiiiiiiiiiiiiiiiiiiiiiiiiiiiiiiiiiiiiiiiiiiiiiiiiiiiiiiiiiiiiiiiiiiiiiiiiippppppppppppppp",
"ppppppppppppppppiiiiiiiiiiiiiiiiiiiiiiiiiiiiiiiiiiiiiiiiiiiiiiiiiiiiiiiiiiiiiiiiiiiiiiiiiiiiiiiiiiiiiiiiiiiiiiiiiiiiiiiiiiiiiiiiiiiiiiiiiiiiiiiiiiiiiiiiiiiiiiiiiiiiiiiiiiiiiiiiiiiiiiiiiiiiiiiiiiiiiiiiiiiiiiiiiiiiiiiiiiiiiiiiiiiiiiiiiipppppppppppppppp",
"ppppppppppppppppppiiiiiiiiiiiiiiiiiiiiiiiiiiiiiiiiiiiiiiiiiiiiiiiiiiiiiiiiiiiiiiiiiiiiiiiiiiiiiiiiiiiiiiiiiiiiiiiiiiiiiiiiiiiiiiiiiiiiiiiiiiiiiiiiiiiiiiiiiiiiiiiiiiiiiiiiiiiiiiiiiiiiiiiiiiiiiiiiiiiiiiiiiiiiiiiiiiiiiiiiiiiiiiiiiiiiiipppppppppppppppppp",
"ppppppppppppppppppppiiiiiiiiiiiiiiiiiiiiiiiiiiiiiiiiiiiiiiiiiiiiiiiiiiiiiiiiiiiiiiiiiiiiiiiiiiiiiiiiiiiiiiiiiiiiiiiiiiiiiiiiiiiiiiiiiiiiiiiiiiiiiiiiiiiiiiiiiiiiiiiiiiiiiiiiiiiiiiiiiiiiiiiiiiiiiiiiiiiiiiiiiiiiiiiiiiiiiiiiiiiiiiiiiipppppppppppppppppppp",
"ppppppppppppppppppppppiiiiiiiiiiiiiiiiiiiiiiiiiiiiiiiiiiiiiiiiiiiiiiiiiiiiiiiiiiiiiiiiiiiiiiiiiiiiiiiiiiiiiiiiiiiiiiiiiiiiiiiiiiiiiiiiiiiiiiiiiiiiiiiiiiiiiiiiiiiiiiiiiiiiiiiiiiiiiiiiiiiiiiiiiiiiiiiiiiiiiiiiiiiiiiiiiiiiiiiiiiiiiipppppppppppppppppppppp",
"pppppppppppppppppppppppppiiiiiiiiiiiiiiiiiiiiiiiiiiiiiiiiiiiiiiiiiiiiiiiiiiiiiiiiiiiiiiiiiiiiiiiiiiiiiiiiiiiiiiiiiiiiiiiiiiiiiiiiiiiiiiiiiiiiiiiiiiiiiiiiiiiiiiiiiiiiiiiiiiiiiiiiiiiiiiiiiiiiiiiiiiiiiiiiiiiiiiiiiiiiiiiiiiiiiiiippppppppppppppppppppppppp",
"pppppppppppppppppppppppppppppiiiiiiiiiiiiiiiiiiiiiiiiiiiiiiiiiiiiiiiiiiiiiiiiiiiiiiiiiiiiiiiiiiiiiiiiiiiiiiiiiiiiiiiiiiiiiiiiiiiiiiiiiiiiiiiiiiiiiiiiiiiiiiiiiiiiiiiiiiiiiiiiiiiiiiiiiiiiiiiiiiiiiiiiiiiiiiiiiiiiiiiiiiiiiiiippppppppppppppppppppppppppppp",
"pppppppppppppppppppppppppppppppppppppppppppppppppppppppppppppppppppppppppppppppppppppppppppppppppppppppppppppppppppppppppppppppppppppppppppppppppppppppppppppppppppppppppppppppppppppppppppppppppppppppppppppppppppppppppppppppppppppppppppppppppppppppppp"
};
