/* XPM */
static char *result[] = {
/* columns rows colors chars-per-pixel */
"112 88 75 1 ",
"  c #000000",
". c #0F0100",
"X c #0C0C0C",
"o c #130100",
"O c #1A0201",
"+ c #0F100F",
"@ c #131313",
"# c #1A1A1A",
"$ c #2C0403",
"% c #310503",
"& c #3C0805",
"* c #232323",
"= c #292929",
"- c #30302F",
"; c #353535",
": c #3B3B3B",
"> c #440A07",
", c #560E0B",
"< c #5D120C",
"1 c #67150F",
"2 c #68150F",
"3 c #6E1711",
"4 c #761911",
"5 c #7F1B14",
"6 c #454545",
"7 c #4B4B4B",
"8 c #535353",
"9 c #575857",
"0 c #5D5D5D",
"q c #636363",
"w c #6B6B6B",
"e c #737373",
"r c #7A7A7A",
"t c #841B14",
"y c #8A1E16",
"u c #A3251C",
"i c #AB281F",
"p c #B72B20",
"a c #BF2E22",
"s c #C12E22",
"d c #CA2F25",
"f c #D33227",
"g c #D43328",
"h c #DA3428",
"j c #E5382B",
"k c #EF3B2D",
"l c #F53C2E",
"z c #FD3D30",
"x c #807F80",
"c c #848484",
"v c #8C8C8C",
"b c #8F8F90",
"n c #939393",
"m c #9B9B9B",
"M c #A5A5A5",
"N c #A7A8A7",
"B c #ACACAC",
"V c #B0AFB0",
"C c #B3B3B3",
"Z c #BDBDBD",
"A c #C3C3C3",
"S c #C8C7C8",
"D c #CCCCCC",
"F c #D3D4D4",
"G c #D8D7D8",
"H c #DBDBDB",
"J c #DFE0E0",
"K c #E3E3E3",
"L c #E7E8E7",
"P c #E8E7E8",
"I c #EAEAEA",
"U c #EFF0EF",
"Y c #F4F4F4",
"T c #F7F8F7",
"R c #FEFEFE",
/* pixels */
"                                                                                                                ",
"                                                                                                                ",
"                                                                                                                ",
"                                                                                                                ",
"                                                                                                                ",
"                                                                                                                ",
"                                                                                                                ",
"                                                                                                                ",
"                                                                                                                ",
"                                                                                                                ",
"                                                                                                                ",
"                                                                                                                ",
"                                                                                                                ",
"                                                                                                                ",
"                                                                                                                ",
"                                                                                                                ",
"                                                                                                                ",
"                                                                                                                ",
"                        +@X@@@X@@XX               X@@++@@X                                                      ",
"                       XXX+XXXX+X+@X             XXXX+XXXX                                                      ",
"                                               X                                                                ",
"                      X;90q0q00qqq8@ X           :9qq000q8;X                                                    ",
"                    X *wBAAZZZZZZAB9# X       X  rCSZZZAANw# X                                                  ",
"                    @ ;nLRRRRRRRRRYN6 XX      @  NYRRRRRRKn=X@                                                  ",
"                    @ ;nLRRRRRRRRRRHe  @      @  NIRRRRRRKn* +                                                  ",
"                    @ ;nLRRRRRRRRRRTB8 #X    X@  NIRRRRRTKn=X+                                                  ",
"                    @ ;vLRRRRRRRRRRRHv  @    X+  NIRRRRRRJn= X           XXXXXXXXXX                             ",
"                    @ ;nPRRRRRRRRRRRTC8 #X    +  MIRRRRRRKn= @         X@@XX XXX X@@XX                          ",
"                    @ ;nPRRRRRRRRRRRRKn  #   X@  MIRRRRRRKn=X@       X@@@#XX+#@@XX@@@@X                         ",
"                    @ ;nLRRRRRRRRRRRRRA6 #X   @  NIRRRRRTKn= @      @@X  #-:6907:;=  X@@                        ",
"                    @ ;nLRRRRRRRRRRRRRKnX @X  @  NIRRRRRRKn= X    X@X  *wnVZDFGFACNc6   @X                      ",
"                    @ ;nPRRRRRRRRRRRRRTD8 #@  @  NIRRRRRRKm= @   X#  ;vZFLIYTRRTYYLHDNw  @@                     ",
"                    @ ;nLRRRRRRRRRRRRRRIm;X@X @  NIRRRRRRKn= @  X@ #rCHYRRRRRRRRRRRRRLSn6 X@                    ",
"                    @ ;nLRRRRRTLKTRRRRRTFw# @ XX NIRRRRRRKn= @ X# =cDTRRRRRRRRRRRRRRRRTKN8@X@                   ",
"                    @ ;nLRRRRRTFZFRRRRRRYm6 @XX  NIRRRRRTKn= X @@ cGRRRRRRRRRRTRRRRRRRRRIN8 @X                  ",
"                    @ ;vPRRRRRRFnNRRRRRRRGe  #X  NIRRRRRRKn= +@#XqFTRRRRRRRRYKHIRRRRRRRRRLM: #                  ",
"                    @ ;nPRRRRRRKvrKRRRRRRTN6 *@  NIRRRRRRKn= #X@8ZURRRRRRRISmvcnCHRRRRRRRRGv X#                 ",
"                    @ ;nLRRRRRRLn=BTRRRRRRGc  #  MIRRRRRRKn= * ;nLRRRRRRRLN0:==;8vFTRRRRRRTZ9 #                 ",
"                    @ ;nLRRRRRRIN wHRRRRRRTC7 *X MIRRRRRTKn=@# 0ATRRRRRRYC6      *cKRRRRRRRKn @@                ",
"                    @ ;nLRRRRRRYN 6NIRRRRRRHv #@ NIRRRRRRKn=# =vHRRRRRRRDr @*##*#  CIRRRRRRIZ;X#X               ",
"                    @ ;nLRRRRRRYB @qGTRRRRRTA8 @ NIRRRRRRJn=# 7NTRRRRRRTM; *X   ## cFRRRRRRTDeX#@               ",
"                    @ ;nPRRRRRRTB  *NLRRRRRRJv   NIRRRRRRJn=@ 0ZRRRRRRRLc  @    X@ 6AYRRRRRRKv@@@               ",
"                    @ ;nLRRRRRRTC   qFRRRRRRTD9  NIRRRRRRKn=+ qSRRRRRRRFe  X     @  CTRRRRRRIN# X               ",
"                    @ ;nLRRRRRRTB  @ mLRRRRRRLm= NIRRRRRTKn=  rFRRRRRRTSq X@    XX  BYRRRRRRYV# @               ",
"                    @ ;nPRRRRRRYC  = 9SRRRRRRTDq NIRRRRRRKn=  vHRRRRRRTZq @X     X  NIRRRRRRYC# XX              ",
"                    @ ;nPRRRRRRTB  *  mLRRRRRRYM mLRRRRRRKn= #bKRRRRRRTAq @@     XX NIRRRRRRYC# XX              ",
"                    @ ;nLRRRRRRTC  ## 0CTRRRRRRD8nLRRRRRRJn= +vHRRRRRRTAq @X     XX NIRRRRRRIC# +X              ",
"                    @ ;vLRRRRRRTB  @#  vLRRRRRRTnnGRRRRRRKn=  rFRRRRRRTSq X+    XX  BURRRRRRYB# @               ",
"                    @ ;bLRRRRRRTV  @@@ 9CTRRRRRRDVFRRRRRRKn=X wDRRRRRRRFw  X     X  CYRRRRRRYN# +X              ",
"                    @ ;nLRRRRRRTV  # @ #rJRRRRRRLGLTRRRRTKn*@ 0ARRRRRRTLx  @    X@X;ZTRRRRRRKn@XX               ",
"                    @ ;bLRRRRRRYV  @ X@ :CYRRRRRRTTTRRRRRKn=# 7BTRRRRRRYM= #X   ## rFTRRRRRTFeX#@               ",
"                    @ ;nLRRRRRRTV  @X @@@wGTRRRRRRRRRRRRRKn=@ ;bKRRRRRRRSw ##@X@*##BIRRRRRRYZ6X#X               ",
"                    @ ;nLRRRRRRTV  @X XX  BIRRRRRRRRRRRRRKn=#@ wSTRRRRRRLN= *##*@*qFTRRRRRRLm @@                ",
"                    @ ;nPRRRRRRTV  #   X# wFRRRRRRRRRRRRRKn= * :mIRRRRRRRHm;    @wATRRRRRRTDw #X                ",
"                    @ ;nPRRRRRRTC  @X  X@  NLRRRRRRRRRRRRJn= # #qSTRRRRRRTLCc08eMFTRRRRRRRKn X#                 ",
"                    @ ;nLRRRRRRTC  @    X@ wDRRRRRRRRRRRRKn= @++=cGRRRRRRRRUHFDFLTRRRRRRRYV8 #X                 ",
"                    @ ;nLRRRRRRYB  @     #  mLRRRRRRRRRRTKn= XX+ #mHRRRRRRRRRRRRRRRRRRRRYZq X@                  ",
"                    @ ;nPRRRRRRTB  #X    X# qARRRRRRRRRRRKb=.+ X# @mHTRRRRRRRRRRRRRRRRRIZq  @                   ",
"                    @ ;nIRRRRRRTC  @X     #  vLRRRRRRRRRRKm= @  X# #cDYTRRRRRRRRRRRRRTKN7X@@                    ",
"                    @ ;bKRRTRTRYB  #      X@ 0ZTRTRTRTTRTJn= +   X@X=qnSLTRRRRRRRRRYGBe;@@X                     ",
"                    X #0mNBNNNNMe  X       X ;wMBNNNNNNBNn0# X    XX  :enNZFGGHHFSCMc8X @X                      ",
"                      X#-;;;:;:;*             X;:;;;:;;;:;#        XX   #:0rvnnvcw6=X  X@                       ",
"                                                                    X@#              @@X                        ",
"                       X@####@##X            XX@#####@#@#@X            @@##X    X@#@@X                          ",
"                          X  X                  X   X  X                  @#####@@X                             ",
"                                                                               X                                ",
"                                                                                                                ",
"                                                                                                                ",
"         o.ooo....oo..o..o.ooo..o..o.o.o..oo..o..o.o.o..o..ooo...o.o.o..o..o.o.o.oo..oo..ooo.o..o..ooo....oo.   ",
"        .OOOOOOOOOOOOOOOOOOOOOOOOOOOOOOOOOOOOOOOOOOOOOOOOOOOOOOOOOOOOOOOOOOOOOOOOOOOOOOOOOOOOOOOOOOOOOOOOOOOo.  ",
"                                                                                                                ",
"        >121213122222222222222221121122122222121122122222221223122222222221121112222222222222222222222132222<&  ",
"     .  5psaaaaaaaaaaaaaaaaaaaaaaaaaaaaaaaaaaaaaaaaaaaaaaaaaaaaaasaaaaaaaaaaaaaaaaasaaaaaaaaaaaaaaaaaaasaassi3  ",
"     .  ujlkkkkkkkkkkkklkkkkkkkkkkkkkkkkkkkkklkkkkkkkkkkkkkkkkkkkkkkklkkkkkkkkkkkkkkkkkkkklkkkkkklkkkkkkkkllgy  ",
"    .o  ujzllllllllllllllllllllllllllllllllllllllllllllzlllllllllllllllllllllllzlllllllzllllllllllllllllllzzhy .",
"     o  ydhfggggggfffgggggggggggggggggfffffffffgggggffggffggfgggggggffffffffggggffffgggggggfffffgggggggfgdfha4 .",
"        ,tyttttttttttttttttytttttttttttyttttytttttttttttttytttytttytttytttttttttttttytttttttttttttttttttttty4>  ",
"        O$%$%%%%$%%%%%%%%%%%%%%%%%%%%%%%%%%%%%%%%%%%%%%%%$%%%%%%%$%%%%%%%%%%%%%%%%%%%%%%%%%%$%%%%%%%%%%%%%%%$O  ",
"           .  .       .           .                   .                       .          .  .        .  .       ",
"        ooOOOOoOOOOOOOoOOOOOOOOOOOOOOOOOOOOOOOOOOOOOOOOoOOOOOOOOOOOOOOOOOOOOOOoOOOOOOOOOOoOOoOOOOOOOOOOOoOOOo.  ",
"                                                                                                                ",
"                                                                                                                ",
"                                                                                                                ",
"                                                                                                                ",
"                                                                                                                ",
"                                                                                                                ",
"                                                                                                                ",
"                                                                                                                "
};
