/* XPM */
static char *result[] = {
/* columns rows colors chars-per-pixel */
"114 88 51 1 ",
"  c #000000",
". c #0C0100",
"X c #120100",
"o c #1C0201",
"O c #230302",
"+ c #2E0503",
"@ c #2E0905",
"# c #330604",
"$ c #3A0704",
"% c #370805",
"& c #3C0805",
"* c #440B06",
"= c #480B07",
"- c #430C08",
"; c #4E0E09",
": c #520F0A",
"> c #55100B",
", c #5B120C",
"< c #63130D",
"1 c #69150F",
"2 c #6D1610",
"3 c #711711",
"4 c #751912",
"5 c #7B1A13",
"6 c #861C15",
"7 c #8B1F17",
"8 c #8D1F18",
"9 c #8C2017",
"0 c #8E2018",
"q c #902017",
"w c #942118",
"e c #9B231A",
"r c #A5261D",
"t c #AA271E",
"y c #AC281F",
"u c #B1291F",
"i c #B52B20",
"p c #BA2C21",
"a c #C12E23",
"s c #C92F25",
"d c #C73024",
"f c #CB3125",
"g c #D33227",
"h c #D93427",
"j c #D63328",
"k c #DC3529",
"l c #E2372A",
"z c #E6382B",
"x c #EB392C",
"c c #F33B2E",
"v c #FB3E30",
/* pixels */
"                                                                                                                  ",
"                                                                                                                  ",
"                                                                                                                  ",
"                                                                                                                  ",
"                                                                                                                  ",
"                                                                                                                  ",
"                                                                                                                  ",
"                                                                                                                  ",
"                                                                                                                  ",
"                                                                                                                  ",
"                                                                                                                  ",
"                                                                                                                  ",
"                                                                                                                  ",
"                                                                                                                  ",
"                                                                                                                  ",
"                                                                                                                  ",
"                                                                                                                  ",
"                                                                                                                  ",
"                         .......X..                ........                                                       ",
"                                                                                                                  ",
"                         X........                 ........                                                       ",
"                       o-:>::::,>>>%              %:>>::>>;@.                                                     ",
"                       =8ipiiiuuiip9o X.          5ypiiiiir2O .                                                   ",
"                       ,izxzzzzzxxxs5 X       ..  rkxzxzxxf8@ .                                                   ",
"                     . ,pcccxcxcxxczio...      .  tzcxcxccj0@ .                                                   ",
"                       ,pxxxxxxxxxxxj5X X      .  rkcxxzxxf8@ .                                                   ",
"                     . ,uxcxzxxxxxxxxp= .      .  rlxxxxcxj8@ .                .  .                               ",
"                     . ,pxczxxxxxxxxxl6@ .    ..  tkcxxzxxj8# .          .....    ..X.                            ",
"                    .  ,pxxxxxxzxxxxxxa< X     .  rlxxxzxxj7+ .        .               .                          ",
"                     . ,pxcxxxxxzxxxxxzw+ X    .  tkxxxxxxj7+ .      .    O$*;,1<:=&+    .                        ",
"                       ,ixcxzxzxxxxzxxcd3 X.  ..  rlcxxxxxj7@ .     .  o&<7eriaaaitr02=O                          ",
"                     . ,pxxxxxxxxxxxxzczt# X   .  rlxxzxcxj8# .    . o&5epgllxcccxzzgpr6:O .                      ",
"                     . ,ixczxxxxzzxxzxzcf4 X. ..  rlxxxzxxj9# .   ..+>wazcvccxxxxxxccvxfr<O .                     ",
"                       ,ixcxxxxzfkxxxxzczuOX.  .  tkxxxxcxg7+ .  ..o<yzccxxzxxxxxxxxxxxcxp4  .                    ",
"                     . ,pxczxzxzitlczxxxcg3O. .   rlcxxxxcg7# . .. 2pxcxxxxzxxxcccxxxxxxcxd5  ..                  ",
"                       ,ixcxxxxly<dcxxxxcxi-. ..  rlxxzzxxg9+ .   :ixcxxxxxxxljffkxxxxxxxcxa3O                    ",
"                     . ,pxcxxxxzpOelczxxxxk6& ..  rlxxxxcxj7+ X  &elcxxxxxxlst856rakxxxxzxcxu<  .                 ",
"                     . ,pxczxxxzf->acxxxxxcp1X X  rlcxxzxxg7+ X +3gcxzxxxxlp<     -ykxxxxzxckw* X                 ",
"                      .,ixczxxxzg: wlczxxxxx7+ .  rlxxzzxxg8# . ;rxxxxxxxxa@ .ooo  -tzxxxxxxxp<  .                ",
"                     . ,ixcxxxxxg, 1pczxxxxcp2 .  tkcxxxxcg7+  O2sxxxxxxxg6 OX . .X 5sxxxxxxcjq# X                ",
"                    .  ,pxcxxxxzj,  6lxxxxxxze+   rlxxxzxcg9+  #7kcxxxxxxp% o.    O ;tzxxxxxclr; X                ",
"                     . ,uxcxxxxxj<  :ixxxxxxcs3   rlxxxzxxg9+  =exxxxxxxlr        X X6hxxxxzcxp< .                ",
"                       ,ucczxxxzk<  O3kxxxxxczy*  tkcxxxcxj9+  ,tcxxxxxxg7 X.     X  1fxxzxxxcs3                  ",
"                     . ,uxcxxzxzj< . +izxzxxxcg5  rlxxxzxxj9+ .1pxxxxxzcs5 O      .  <gxxxxzxcg6  .               ",
"                     . ,axcxxzxxk< .Xo<jxxxxzczu= rlxxxzcxg7@ o5acxxxxzcs4 O      .  ,szxxzxxcg6  .               ",
"                    .  ,uxcxxxxzj<  Xo tlcxxxxcj5 rkcxxxxxj7# O5fcxxxxxcf4 o.     .  ,azxxxxxcg6  .               ",
"                     . ,ucxxxxxxj<  Xo 1sxxxxzxzu%whxxxxcxg9+ O5sxxxxzxcf3 O      .  ,sxxxxxxcg6  .               ",
"                       ,uxczxxxxk<  ... rlxxxxxck4wgxxxxxxg7+ X2pxxxxxxcf5 o      .  <fxxxxzxxg6  .               ",
"                    .  ,pxcxxxxzh<  . o 1acxxxxxcyrfxxxxxxh7#  ,yxcxxxxxg6 X      .  2gxxxxzxcf5                  ",
"                     . ,ixxxxzxxh<  . .  7lxxxxxcjdjxxxxxxg7+  =rxxxxxxxle  .     X  4gxxxxxcxp2  .               ",
"                     . ,pxcxxxxxh<  .  o <pcxzxxxzzzzxxxccg7#  %9lcxxxxxxi  X.    o =elxxzxxczy> X                ",
"                     . ,pxxxxzxxh<  .  X o5kxxxxxxxxxxxxxxg7+  O4scxzxxxcf5 XoX.Xoo 2axxxxzxvjw# o                ",
"                     . ,ixczxxxzh<  .   . *pzxxxxxxxxzxzcxj7+ ..>txcxxxxxzi-   ... #rkxxxxxxxa3  .                ",
"                       ,pxxxxzxxh<  .   X O4gxxxxxxxxxxzxxg7# . O5gcxzxxxxle,#   O-egxxxxzxxke= .                 ",
"                     . ,pxcxxxxxh<  .    .  ilcxxxxxxxxxxxg8# X .=ylczxxxxxlp6>-;4yjxxxxxxxxp2. X                 ",
"                       ,uxcxxxxzh<  .    .X 4fxxzxxzxxxzxcg7+ . ..<dcczxxxxxzkfdfglxxxxxzccg6% .                  ",
"                     . ,uzxzxzxzj<  .     X. rlxxxxxxxxzxxj9+ . . o5accxxxxxxxxxxxxxxzxxccg0-  .                  ",
"                       ,accxxxxxh<  .      o 2axxxxxxxxxxcg7+ .    +6azccxxxxzxxxxxxxxccxsw-                      ",
"                    .. ,uccccxxck<  .      o .wlxcxcxxxxccj9# .  .  o2igzxxcxxxxxxxcccxjp6$  .                    ",
"                       ,uxzzlzzzg<  .       X 2pzzzzzxzzxxf9+ .   .   ;6iglxxccxxcxxljp0,o                        ",
"                       $5eeeeeee7*          . %3weeeeeeeee7,o      .   .:4wtpffsgfpue5<+  ..                      ",
"                       X#$$$$$$$%X            X+$$$$$$$$$$%O          . o+$:1466653>$+o  .                        ",
"                                                                       .    o++#++O                               ",
"                            .                        .                 ..             ..                          ",
"                           .  .                    .  .   .                ..XXXXXX.                              ",
"                                                                                                                  ",
"                                                                                                                  ",
"                                                                                                                  ",
"         .X..X.................................................................................................   ",
"                                                                                                                  ",
"        .oOOOOOOOOoOOOOOOOOOOOOOOOOOOOOOOOOoOOOOOOOOoOOOoOOOOOoOOOOoOOOOOOOOOOoOOOOOOOOOOOOooOOOOOOOOOoOOOoOOOoX  ",
"        &<11111121111111111111112<11111211211111121121222111111111111111111111222<2<21<21111211211111112111111,& .",
"     .  4iaaaaaaddaaaaaadpdpddpdaaaaaadppdpdaaaapdpddaadpdpdaaadddpdsapdpdpdpaaaaaaaaaaaaadpddpdpaaaaadppdaapdr2 X",
"     .  wlcxccxxxxxccxxccxcxxxxxccxxcxcxxcxxcxxcxcxxxcxxcxxxxxxcxxxxxccxcxxxcxcxxcxcxcxccxcxxxxxcxcxcxcxxcxxxcg6 o",
"     .  wzcvccccccccccccccccccccccccccccvcccccccccccccccvccvccccccccccccccccvccccccccccccccccccccvcccccccccccvj6 o",
"     .  6sggggjgggggggggggggjgjjggjgggjggggggggggggjgggggfggggggjggjggggggjjggggjjggggggggggjgggggggggggjjgggkp3 o",
"        ;576666666667666766796666666676766767666966766766676667766776676767667666766666766779666666766676766674* .",
"        XOOOOOOOOOOOOOOOOOOOOOOOOOOOOOOOOOOOOOOOOOOOOOOOOOOOOOOOOOOOOOOOOOOOOOOOOOOOOOOOOOOOOOOOOOOOOOOOOOOOOOOX  ",
"         .X.........................................................................................X........XX   ",
"        ..XXXXXXXXXXXXXXXXXXXXXXXXXXXXXXXXXXXXXXXXXXXXXXXXXXXXXXXXXXXXXXXXXXXXXXXXXXXXXXXXXXXXXXXXXXXXXXXXXXXXX   ",
"                                                                                                                  ",
"                                                                                                                  ",
"                                                                                                                  ",
"                                                                                                                  ",
"                                                                                                                  ",
"                                                                                                                  ",
"                                                                                                                  ",
"                                                                                                                  "
};
