/* XPM */
static char *result[] = {
/* columns rows colors chars-per-pixel */
"112 88 37 1 ",
"  c #000000",
". c #0C0C0C",
"X c #0F100F",
"o c #131313",
"O c #1B1B1B",
"+ c #222222",
"@ c #2B2B2B",
"# c #333333",
"$ c #3B3B3B",
"% c #454545",
"& c #4C4B4B",
"* c #535353",
"= c #5C5C5C",
"- c #646364",
"; c #6D6D6D",
": c #747474",
"> c #7A7A7A",
", c #818181",
"< c #8B8B8B",
"1 c #949494",
"2 c #9D9D9D",
"3 c #A2A2A2",
"4 c #ACACAC",
"5 c #B3B3B3",
"6 c #BDBCBD",
"7 c #BFBFC0",
"8 c #C2C2C2",
"9 c #C8C7C8",
"0 c #CCCCCC",
"q c #CFD0CF",
"w c #D3D3D3",
"e c #DCDCDC",
"r c #E3E3E3",
"t c #E7E8E7",
"y c #ECECEC",
"u c #F4F4F4",
"i c #FEFEFE",
/* pixels */
"                                                                                                                ",
"                                                                                                                ",
"                                                                                                                ",
"                                                                                                                ",
"                                                                                                                ",
"                                                                                                                ",
"                                                                                                                ",
"                                                                                                                ",
"                                                                                                                ",
"                                                                                                                ",
"                                                                                                                ",
"                                                                                                                ",
"                                                                                                                ",
"                                                                                                                ",
"                                                                                                                ",
"                                                                                                                ",
"                                                                                                                ",
"                                                                                                                ",
"                                                                                                                ",
"                       .oOOOOOOOOOo.             .OOOOOOOO.                                                     ",
"                                                .                                                               ",
"                      .@*-=-=-====*            . $=-=====*@.                                                    ",
"                    . O-58788786885%. .        . >59886895=O..                                                  ",
"                    o @,uiiiiiiiiiu3$ O        O 4yiiiiiiy>O.O                                                  ",
"                    . @,yiiiiiiiiiie- ..      .O 3yiiiiiiy>+oo                                                  ",
"                    o @,yiiiiiiiiiii3% O       O 3yiiiiiit>OoX                                                  ",
"                    o @,uiiiiiiiiiiit, o      .O 3yiiiiiit>+oo              . .                                 ",
"                    o @,yiiiiiiiiiiii5$ O      O 3tiiiiiit>Ooo          ....    .....                           ",
"                    o @>yiiiiiiiiiiiit1 O.     O 3yiiiiiit>+.o        ..OOO   .  .OO..                          ",
"                    o @,uiiiiiiiiiiiii8+ O     O 3yiiiiiiy>Ooo       .O     .#$+     oO.                        ",
"                    o @,yiiiiiiiiiiiiit1 O.    O 3yiiiiiiy>Ooo     oO   =<560rtw953:o  .o                       ",
"                    . @,yiiiiiiiiiiiiiiq#oo.  .O 3yiiiiiit>Ooo    O  O,6etuuiiiiuuyr93*  O.                     ",
"                    o @,yiiiiiiiiiiiiiiy2 ..   O 3yiiiiiiy>Ooo   O  ;5eiiiiiiiiiiiiiiy9<@ ..                    ",
"                    o @,uiiiiiitruiiiiiiw&...  O 3yiiiiiit>+oo  .OO>9iiiiiiiiiiiiiiiiiit2&...                   ",
"                    . @,yiiiiii94eiiiiiii2$ o .O 3yiiiiiit>Ooo .O >eiiiiiiiiiiiiiiiiiiiii3& O                   ",
"                    o @,uiiiiiie<3iiiiiiie= .  O 3yiiiiiiy>Oo..o.%eiiiiiiiiiuytuiiiiiiiiiu2  .                  ",
"                    o @,yiiiiiie,;tiiiiiii3% O O 3yiiiiiiy>Ooo. o8uiiiiiiiu81;-,5eiiiiiiiie, O                  ",
"                    o @>yiiiiiiy1O4iiiiiiie> O O 3yiiiiiiy>+.O @>yiiiiiiit4=@   %<wiiiiiiii6@ O                 ",
"                    o @>uiiiiiiu3 -riiiiiii4# OO 3yiiiiiit>OoO &6iiiiiiiu5+  .    >riiiiiiir< O.                ",
"                    o @,yiiiiiiu4 #3uiiiiiir< OO 3yiiiiiiy:OOO :yiiiiiii0; @o  .Oo 4yiiiiiiu6 X                 ",
"                    o @,uiiiiiiu4 X&eiiiiiii6  + 3yiiiiiit>O+ #2iiiiiiii2O o    .O ;eiiiiiiie@ ..               ",
"                    o @>yiiiiiii4 O 4yiiiiiit< @ 3yiiiiiiy>O+ *5iiiiiiiy,  .    .   9iiiiiiit:Xo.               ",
"                    o @,yiiiiiiu4 . $wiiiiiii0Oo 3yiiiiiit>++ ;9iiiiiiiw; O      .o 6uiiiiiiy3oOo               ",
"                    o @,uiiiiiiu4  O 2yiiiiiiy<. 3yiiiiiit>O+ :wiiiiiii8- +       O 5uiiiiiiu4OOO               ",
"                    o @>uiiiiiiu4  O &8iiiiiiiw& 3yiiiiiit>+O ,riiiiiii6= O      .O 4yiiiiiiu4OOo               ",
"                    o @,yiiiiiiu4  .o <yiiiiiiu1 2yiiiiiit>OO <yiiiiiii8= O       O 3yiiiiiiu5Ooo               ",
"                    o @,yiiiiiiu4  .O *6iiiiiiiw*1tiiiiiiy>+O ,tiiiiiii6= O       O 3yiiiiiiu5Ooo               ",
"                    o @,uiiiiiii4  ... >yiiiiiii<<eiiiiiit>O+ >wiiiiiii8= +      .O 5uiiiiiiu4OOO               ",
"                    o @>uiiiiiiu4  . O &5iiiiiii030iiiiiiy>O+ ;9iiiiiii0- O       O 5uiiiiiiu4OOo               ",
"                    o @,yiiiiiiu4  . . o;yiiiiiiuweiiiiiiy>O@ =6iiiiiiit, .     . . 9uiiiiiit>.O.               ",
"                    o @,uiiiiiiu4  .  O @4uiiiiiiuuiiiiiiy:++ #3iiiiiiiu2o o    .o -eiiiiiiiw# ..               ",
"                    . @,yiiiiiiu4  .. ..O*eiiiiiiiiiiiiiit>OOo >yiiiiiii9= +....OO 3yiiiiiii9 .                 ",
"                    o @,yiiiiiiu4  .   .O 4yiiiiiiiiiiiiit>+.+ =0iiiiiiiy2  @OO+O %eiiiiiiit1 O.                ",
"                    o @,uiiiiiii4  .   .X *wiiiiiiiiiiiiiy>O.O #1uiiiiiiir<      %9uiiiiiii9% O                 ",
"                    . @,yiiiiiiu4  ..   .O 4yiiiiiiiiiiiiy>O.o.o&0iiiiiiiir5>=&;2wiiiiiiiiy1 O.                 ",
"                    o @,yiiiiiiu4  .     O *9iiiiiiiiiiiit>+o... ;eiiiiiiiiuew0wyiiiiiiiiu4% o                  ",
"                    o @,yiiiiiii4  .     .. 2yiiiiiiiiiiit>OoX .  2tiiiiiiiiiiiiiiiiiiiiu6* O                   ",
"                    o @,yiiiiiiu4  .      O =6iiiiiiiiiiit>+oo  O  1eiiiiiiiiiiiiiiiiiiy6$ o.                   ",
"                    o @,uiiiiiiu4  ..     .  ,yiiiiiiiiiiy>Ooo   O. :0iiiiiiiiiiiiiiiit3  oo                    ",
"                    . @,yiiiiiiu4  .       O *6iiiiiiiiiiy>+Xo    o O*<9yiiiiiiiiiiue4;@...                     ",
"                    . O*23232332;  .       . @-23233332331&o..    ..  @-,36wrerew941:&. ..                      ",
"                        .......o.               .o.........         .o   O*:,<<<,-$    O                        ",
"                                                                      oO            XO.                         ",
"                       ...o.o....             ...o...o.X..              ..O++++++Oo.                            ",
"                                                                                                                ",
"                                                                                                                ",
"                                                                                                                ",
"                                                                                                                ",
"                                                                                                                ",
"                                                                                                                ",
"                                                                                                                ",
"                                                                                                                ",
"                                                                                                                ",
"                                                                                                                ",
"                                                                                                                ",
"                                                                                                                ",
"                                                                                                                ",
"                                                                                                                ",
"                                                                                                                ",
"                                                                                                                ",
"                                                                                                                ",
"                                                                                                                ",
"                                                                                                                ",
"                                                                                                                ",
"                                                                                                                ",
"                                                                                                                ",
"                                                                                                                ",
"                                                                                                                "
};
