/* XPM */
static char *_475_d217734c113c570b194052337b4848e516fc3f2eaf78d050391d6d87e0d522df[] = {
/* columns rows colors chars-per-pixel */
"250 70 35 1 ",
"  c #767474",
". c #797777",
"X c #7E7C7C",
"o c #807E7E",
"O c #858383",
"+ c #888787",
"@ c #8C8B8B",
"# c #908E8E",
"$ c #959393",
"% c #989696",
"& c #9C9A9A",
"* c #A19F9F",
"= c #A4A2A2",
"- c #A9A6A6",
"; c #ADABAB",
": c #B1AEAE",
"> c #B5B2B2",
", c #B9B6B6",
"< c #BDBBBB",
"1 c #C1BEBE",
"2 c #C7C4C4",
"3 c #C8C5C5",
"4 c #CDCCCC",
"5 c #D1CFCF",
"6 c #D4D3D3",
"7 c #D8D7D7",
"8 c #DCDBDB",
"9 c #E0DFDF",
"0 c #E4E3E3",
"q c #E8E7E7",
"w c #ECECEC",
"e c #F0EFEF",
"r c #F4F3F3",
"t c #FFFFFF",
"y c None",
/* pixels */
"yyyyyyyyyyyyyyyyyyyyyyyyyyyyy333333222223222222232222222222222322222222223222222222223222322322222222223222232222322222223222222222222223222222322222222222222232222222322222222223222232222222322222222223222322222222333333yyyyyyyyyyyyyyyyyyyyyyyyyyyyy",
"yyyyyyyyyyyyyyyyyyyyyyyyy32222322223222222222222222223222232222222232322222223222322222222222222322322222222222222223222222223222232222222222222222223222232222222222222222232222222222222222222222232222222222222322223222222223yyyyyyyyyyyyyyyyyyyyyyyyy",
"yyyyyyyyyyyyyyyyyyyyyy22232222222223232222232322222222222222222222222222222222222222222222222223222222222322222222222222222222222222222222233222222222222222222222323222223222222222222222322222223222222222222222222222223222222223yyyyyyyyyyyyyyyyyyyyyy",
"yyyyyyyyyyyyyyyyyyyy222322222222222222222222222222322232232232223222222322322223222222232322222222223222222222232322222322232232232223222222222222322232232223222222222222222223223223222222322222222223223232222222322222222223222233yyyyyyyyyyyyyyyyyyyy",
"yyyyyyyyyyyyyyyyyy3222222222322222222232222222222232223223222222222322222222222222232222222322223222222222222222223222222222232223222322222222222232223232222222232222222232232232222222232222222223232232222222322222222232232222222223yyyyyyyyyyyyyyyyyy",
"yyyyyyyyyyyyyyyy33232222322222222322222223222232222222222222232222222222322223222222222222222222222222222223222222222222222322222222222223222232222222222222232222223232222222222222232222223223222222222222223222223223222222222322223223yyyyyyyyyyyyyyyy",
"yyyyyyyyyyyyyyy3222222222232222322222222222332222222232222322222232222322223222232222323222222322222223222223223222223223222222222322222222332222222232222232222222222222222222222232222222222222222222222222222222222222222222222222222223yyyyyyyyyyyyyyy",
"yyyyyyyyyyyyy32222222322222222222222322222222222222222222222222222222222222222322222222223222222223222223222222232222222222222322222222322222222322222222222222222232222322223222222222222232222232223222223222222322222322223222223222222323yyyyyyyyyyyyy",
"yyyyyyyyyyyy3222222222322222222232222222322222223222222322222223222222222222222322222322222222322322322223223222232222222222222322232222222222222222222322222223222232222222222222222223222232222222222222222222232223222222222222232223222223yyyyyyyyyyyy",
"yyyyyyyyyyy222222322222222322223222232322222232222222222222222222322232222232222232222222322222222222222222222222222232222322222222222222223222222222222222222222222222222223222223222222223222222222223223222232222222222223222222222222222323yyyyyyyyyyy",
"yyyyyyyyyy32232222222222322222222223222222222222222332222223322222222222322223222222222222222222222222232222222322222222322232222322223232223222223232222232322232232222223222222222222223222222223222222222222222222222223222223222232232232222yyyyyyyyyy",
"yyyyyyyyy2222222222232222222322222222222223222222222222222222222222322222222222222222223222232222322222223222222223222232222222222222222222222222222222222222222222222322222222322322322222222322222322222223222223222232222222322222222222222233yyyyyyyyy",
"yyyyyyyy322222322222222222222222222222322232222322222222222222222222222322322223222322222222222222322222223222222222222222222222222322232223222222222222232222222223222222232322322222222222222223222222232222222222222222232322222222232232222223yyyyyyyy",
"yyyyyyy33223222223222232322222222322222222222222232222322322223232222222222222222222222332222232222222222222222232222222223222232222222222222222232222322222223222222322222222222222232222232322222232232222322323222322222222222223222222222222223yyyyyyy",
"yyyyyyy22222222222222222223222232222222223223222222332222223322222232322222232223222232222222222222222322222232222222322222232223222222223222222222332222223322232222222222222222223222222222222222222222222222222222222222222222222232222222322222yyyyyyy",
"yyyyyy3222223222223223222222222222223222222222222222222222222222222222222322222222222222222323223222222232222222222322223222222222222322222222222222222222222222222222223222232222222222322222222223222222232222222322223222232232222222232222222223yyyyyy",
"yyyyy322322223222232232222222222232222222222222222222222222322222322222222222222223222222222232222222322222222222222222222222222222222222222222222222222222222222222222222222222222232222222222322222222222232222222222222322222232222222232222322223yyyyy",
"yyyyy222222222222222222222322223222222322223223232222322222222222222232222222223222222322222222232222222222222222322222222222222222222222322222222222222222222222222322222222222222222222222222222322232322222222322223222222223222222232222222223222yyyyy",
"yyyy32232222222223222223322222222232322222222222223222222222222222222222222222222222222222222223223222222222222222222222222222222222222222222222222222223232222222322222222222222322222322222222222222222232222222222222222222222222322223222322222223yyyy",
"yyyy23222232222322222222222232222222222232222322222222222322222222232232222222223222222222222222222222222222222222232222222222222222223222322222222222222222222222222223222222222222222222222222222232222222223222323222322232222232222222222222222232yyyy",
"yyy3232222222222222322223222222222222232222223222232222222222222222222222222222222223222222222222222222222222222222222222232222232222222222221222222222222232222222222222222222222222222222222<22222222223222222222222222222222232223222222222323222223yyy",
"yyy22222232223222222222222222222232222222222222222222222223222212111<2<<12122222222222111121112222222221222<<22122<2<222212121121222222222222111<11112222222222121122222122212121122221212<1<2<2<222332322223222322322232322223222222222223222222222222yyy",
"yy2222222222222222222232222222322222222222322223232222222222222<4689662><<<2222222211<<<,<<<<<<11212211<<<<<<<<<,<<<<<<<<<<<<<<<111222222113689751,,<11222222121<<<<<<<22212<<<<<<<<12135708652<<<<23322222222232222322222222222223222222222222222322222yy",
"yy2222322223222323222222223222222222322222222222222222222222120ttttttttw4>,<<<<221ettttttttew94<,<<<1ttttttttttttttttw>wttttttt5><<1222120tttttttte5>><111222wtttttr,,<<12rttttttw>,<3wtttttttt2>,<<3322223222222222222222223222222222323222232222222322yy",
"yy22222322232222222222322222222223222222222223222223222222116rttttttttttt0>:,<2212wttttttttttttr6>><<ttttttttttttttttw=qttttttt3-><<2125ttttttttttttq>;,<1221wtttttt8->,<<rtttttt0-;5tttttttttt<-;,<2222222232222223222232222222222223222223222223222222yy",
"y3322222222222222322222222322223222222323222222222222222222qtttttttwttttttt3-><<11wtttrwrwtttttttt>;:ttteeeewreweeett0$0tttrttt<&-><<2qtttttttwttttttt3-><<11wtttrttt<-;,<etttrtt8%>tttttrwwttt>%;><12222322222222222223222232222322222222222223222232222y",
"y322322223222322222222223222222222323222223222222222223221rtttt8>%@%+&>wtttt4-><1<wttw@===%%&2ttttw==ttw-====@=-===tt0@0ttw&ttt,$=;,1rtttt8>$@%@%,wtttt4-><<<wtt6@rttt=-;,ett<6tt8@ettt8&%&%7tt;$*;<<2222222223223223222223222232222222222222322222222222y",
"y222222222222222222232222222322222222222222222232322222228tttr,*6rtttw3+3tttt;=:,,wttw%tttttr<#4ttt0%tttttttr#ttttttt0X0ttw%ttt>@%->8tttr>&8rtttw2@3tttt-->,,wtt6@=ttt0%-;wtt<4tt7@ttt8%wtttttt=@%;<12222222222222222222222222222223223223222222223222232y",
"y22222222222222222222222322222222222223222322222222222214tttw%2ttttttttw**tttq&;:>qttw$tttttttw@8ttt;tttttttr@ttttttt0X8ttw$ttt;+%=2tttw%2tttttttte%&tttw%->>wtt4,&3ttt2%=wtt,4tt6=ttt-8ttttttt-@&;,22222223223222232322222222222222222222222232222222222y",
"32322223222322223222223222222222322222222222222222222222rttt&8ttttttttttt;,ttt3%-:wttw%ttt<6tttq+ttt4---=7ttr@ttt2&&=%O8ttw$ttt:+%-ettt&8ttttttttttt;<ttt2&-;wtt4,e@qttt-%wtt,4tt7;ttt%wtttw,><&#&:,<22222222222222222223222232222222232222322223222232223",
"32223222322232232222222222222232222222222322232222222217ttt<<tttr-@O&2tttt+0ttt%*-qttw%ttr..<ttt+wtt0oO++3ttr#ttt-XXO@@0ttw%ttt>+$2ttt<,ttte-@o%2tttt@0ttt%&-qtt5,t8%tttr$wtt>4tt6%ttt>3ttt2  o+%=><122223222222322222222232222223222222322222222223222223",
"3222222222222222222322322232222222223222222222222322221wttw$ttt8OXOO++&ttt8$ttt>$*qttw%ttrXX@ttt-6ttwX+@$4ttr@ttt-X+@%%0ttw$ttt;+%0ttw%ttt8OXo++@&ttt7%ttt,%*qtt5,tt>>ttt6qtt>5tt8Ottt0@rttt>XO$*-,<122222222322222222322222222322223222222223222222223223",
"3222322222222222222222322222222222223322232223222322221ttt6<ttr@XO@$%%$2ttt+ttt5@%qttw%ttrXX@ttt-4tteX@$&6ttr@ttt-O@%*-qttw%ttt:+$ttt5<ttr@XO@$%%$<ttt+ttt6#%qtt4,ttt$8tttttt>4tt6.6ttt2%tttt4+%*:,1222222222222222222223222222232222222322222222232222223",
"3222222222322223223222222232322232223322222222222222222ttt,6tt3oO@%*--=&ttt*8tt0@$0ttw$ttrX+>ttt$qtt0O@&=7ttr@ttt-+$*::qttw$ttt>+&ttt,6tt2XO@%&;-=%ttt*8tt0+$0tt5,ttt0+rttttt;4tt8X@rttt,%tttt7%=:,1122222222222222322222222222222222222222223222222223223",
"3222222332222222222222222222222222223322222222222232213ttt%wtt;X@%-;>>;-0tt<3ttw+@0ttw%ttt&,rttrOttt6O@&-8ttr#ttt-+%-:>qttw%ttt;O-ttt%wtt:O+%=;:,:-0tt<2ttwO@0tt4,tttt2&ttttt;5tt8XO-tttt<%rttt6*->1222222222222222223222223232222233222222222222222322233",
"3222222222223222322223223222222322233332222323222222214ttt%wtt;O#%-,<<<>qtt<3ttwO@0ttw%tttttttt=2ttt-O$=;8ttr#ttt-+%->,wttw%ttt>+-ttt%wtt;O@&;,<<<,qtt23ttwO@qtt5,ttttt%2tttt;3tt6o+@>tttt2$rttt1*:><12222222222232222222222222222222222223222322322222223",
"3223222232222222222222222222322222222222222222232222212ttt>6tt2+$*><<2<,ttt=8tt0O+0ttw%ttttttq=;tttw++%=:8ttr#ttt-+%-,,wttw$ttt:+%ttt>6tt2O$*:<22<,rtt=0tt0O@0tt4,tttttrOqttt;4tt6O@$%-rttt3%ttte%-><<2222222222232223222222222222222222223222322322322223",
"332222222222222222322223222222222322322222322222322221<ttt4,ttr$$=;<2226ttt@ttt5O@0ttw@<<2,-%&7tttt$O@&->8ttr@ttt;@%->>wttw%ttt>+@ttt3,ttt$$=:,22<6ttt@rtt4O+0tt4,tttttt6@ttt;4tt8+@%==*qttt;<ttt,&-,<1222322222222222222322223223222232222222222222222223",
"322222322222223222223222232222322222222322223222222221<qttw@ttt8%&;,<<3rtt0&ttt;O@0ttw@34360rttttt=X+$=:,8ttt@ttt;@%->,wttw%ttt:+@0ttw@ttt7$&;,<<2ttt0&ttt-O@0tt4,tt06ttt->tt;4tt7O@&--=%rttr+ttt3$=><1222222222223222222223322222233222222223222222223232",
"322222222232222223222222222222222223222222222222222221<5ttt>>tttr<;;27tttt$0tttOO@0tte%ttttttttt7&o+#&;,,8ttr@ttt-@%-,,wttw%ttt:+@<ttt>>ttte<;;37tttt%0ttt++@0tt5>tt8Xrttt@6t:4tt7%-&-;-&qttt$wtt9@&-<1222222222222222232222222222222222322222222232222222",
"3222223222222222322222222222222222232222322223222322221,ettt@8ttttttttttt<<ttt2X@$0ttw%ttttttw4%oO@#&;><<8ttr$ttt-@%->,qttw%ttt;O#*ettt@8ttttttttttt,<ttt2X+$0tt4,tt9 &tttq+r:5tt7>ttwq0wtttt@rtt0+%-,<232222322222222222223222222222222222222222222232223",
"y32222223232222322223222223222322222222222222222222222<,<ttt0O2ttttttttr;=tttqXO@%0ttw%ttt$+.XOO@@%&-:<<<9ttr#ttt:+%->,wttw%ttt>O$%:ttt0@2ttttttttr;=tttqXO@%qtt4,tt9..3ttt2*>5tt7>tttttttttq@ttt3O%=>112222222222232222222222222223322222222322322222222y",
"y222222222222222223222232222222222223223222222222232211<:6tttr=&7rtttw6$3tttt$X+%=qttw%ttrXXO+@$%&-;><11<0ttr#ttt;+%->,wttw%ttt;+$**6tttr=%7rtttw5%3tttt$X@%*qtt5,tt0XO+qttt*@5tt7:tttttttt8@8ttt>O$-><22222222222222322222232322322223222222222222322222y",
"y322322222223222222222222222322223222222222323222222222<,;wtttt6-@@%@%>wtttt<X+$&-qttw$ttr.O@$&=-;>,<122<8ttr@ttt-@%-,,qttw%ttt>+$*--wtttt6-@@%+%>wtttt<X+$&-qtt4,tt9X+#*tttr+5tt7;tt6@%=%O*8tttrO+%-><22232232232222222232222222222222222322232222222233y",
"y3222232322222223222232232222222222222222222222322222221<>;7ttttttrwttttttt;X+#&-;wtttrttrX+#*-:,,<1122118tttettt-@%->,wtttrttt;O%-;;-7ttttttrwttttttt:XO$&-;wtttrtt0X@%%2tttettt8;ttttw0wrttttt-X@%;,122222222323222322222222222222222222322232222222223y",
"yy2222222222222222222222222222232232322222322222322222211,:=,rttttttttttt8@XO@%-:>wttttttro@*->111112231<0ttttttt-@%-,<wttttttt>+%-:>:=,rttttttttttt7@oO@&-;>wtttttt0o$&-=8tttttt7;tttttttttttt1X+$=><12223222222222222222323222222323222222222223222232yy",
"yy2222222222223222232222223232222222222222223222222222221<,;**6rtttttttq>oo+#&-:,,wttttttro#*:112222222119ttttttt-@%;,<wttttttt:@&;>,,;**6rtttttttw>Xo+#%-:,<wtttttt0O$*---rttttt6=rttttttttt8$o+@&-><22222232222232222222222222222222222222232222222222yy",
"yy22223222322222222222322222222222222223222222222222222222<,;=&$-<23<;$Xo+@$&-:<<<,-%@+Xoo#%->11222222221,;*#+oXO+$=;,<,-%@+XXo+#*:,<1,:=%$-,131:$XO+@$&-:<<<,-%@OXXO$%=>,;=%@+OOOO+%-,232:*+ooO#&-><<23222222222222222322222223322222223222222222232222yy",
"yyy222222222222222222322222222323222222222222222322222222111,:;*%$@++++@#$**-:11111:**##@#**:,11232222321,:-*$#+@%&-><1,:-%$####*->1111,:-*%#@+@++@@#%*;>1121,:-%$@@#%-:,,>:-%$#@$$$$#@++++++##$&-:,112222232222232223222222222222223222232222222222222yyy",
"yyy323223222232223222222223222222222232222322222222223222221<<>;-*&%%%%&**-:,111211>:-****-;>1112222223111,:-***==;>,<1<>:-****--:,111111>:-***#%#**-::>111111>:-====-:><1<,:--*=&===**&%%%%%**-;><<222222222222222222222223222222222222222222322232223yyy",
"yyyy222222232222222322222222222222222222222223222222222222222<<,>:;;----::>111122111,>:;::>,113122222222211,>>:::>,<12211,>:::::,111221111,>:;;---;;>,111121111,>:;>>>,<1121,>::;>>:>:;;-----::>,<1122222322223222222222222223222232222322323222222223yyyy",
"yyyy322322222223222222322322322222322322232222222232223222222221<<<,,>,,,111122222111111111113132223222222111111<<<11121111111,11112223231111,,,>,,,111212222211<<<<<<1121211111<<<<<<,,,,>>>,11122222222222222222232322322222222222222222222222322223yyyy",
"yyyyy232222222232223223222322222222222232322232222322232222222222111<1111112222222222121113133132222222222122111212212222121111212132222131121111111132133322212212112223122212122<2<2<21111111112222222222222232222222322322322322222222222223222222yyyyy",
"yyyyy322222222222222222222223222223222222222222222222222222222222222221222322232222222233113132223222232222222322222222232221323223322233333222113311332332322332322222232223233222222321222212222222222222322222232222222222222222232223222222232233yyyyy",
"yyyyyy3223222222232222222222222322223222223222222222232222222222222222223322222222222222333333322222222222222322222222222222222232222322331332223133222222222322222222222222222222222222322222222222222232222322222232222222222222322223222222222223yyyyyy",
"yyyyyyy22222232222222322232222222222222222222223222222222222222222222222222322222222222213333332223222322223222222222222232223222222222232332322333322223222222223222222322223222222223222222222322222222222222222222222223222232222222222223222222yyyyyyy",
"yyyyyyy32222223222232222322223223222222232222222322222232222222322222232222222222222222223222232222222222232223222222322222232222222232222222232333333312232223222223222222222222222322222232222222232222222222222222222322222222222222222232222232yyyyyyy",
"yyyyyyyy322222222222232222222222222222222222222222222222222222222322222222322232322223222222222222322232222222222222222222222222232222222322222233133333222222222222222222223222232222222222222322322222232222323222222222222222232222322222223223yyyyyyyy",
"yyyyyyyyy3322222322222222232223222232322222323222223322222233222222222223222222222222223222222223222222222322222322322222322222222222222222222223333313322222222322322222232222222222232232232222222222322222222222223222222232222222222322222223yyyyyyyyy",
"yyyyyyyyyy32223222222222222222222222222222222222222222222222222222232222222222222222222222232222222222222222322222222223222222232222222322223222133333332232322222222232222222232222222222222222222222222223232222232222222322222232322222222223yyyyyyyyyy",
"yyyyyyyyyyy322222232222323222322222222322222223222222222222222223222222222223222222322222222222222223222222222222223222222232322222322222222222222223331322222222223222222232322222322322223232232222322222222222222223222222232222222222223223yyyyyyyyyyy",
"yyyyyyyyyyyy3222222222222222222223222222232222222322223223222232222222323222222222222223232222323222222232222232222222222222222222222223322222323222333322222322222223222222222222222222222222222222222232222223322322223223222232232223222223yyyyyyyyyyyy",
"yyyyyyyyyyyyy32222222322222222222223222222233222222332222223322222232222223222233222232222222222223222232222222232222322222222223222232222222222223222332223222232222222222222222322222232222222223222222223322222222222222222222222322222223yyyyyyyyyyyyy",
"yyyyyyyyyyyyyyy3232222222232222322223222222222222222222222222222222223222222222222222222223223222222222222232222222222222322232222222222223223222222223322222222222222223222232222222322222222322222223222222222222232222222322222222222233yyyyyyyyyyyyyyy",
"yyyyyyyyyyyyyyyy32322222222222223222322222222222223222232222222222222322222222322223222232222222222223222222223222222222322222222322222222222322222222222222222322222232222222232222322222222322222322222222222332222222222222222222222223yyyyyyyyyyyyyyyy",
"yyyyyyyyyyyyyyyyyy3222322322223222222222232222322222222222233222322222223223222222222222222232222322222222322222222323222222322222222232222322222232222322322222222222222232222223222222322222222222222223222222222223222232222322322223yyyyyyyyyyyyyyyyyy",
"yyyyyyyyyyyyyyyyyyyy222222222222223222222222222222222322322222232222222222222322322223222232222322222222222222222222222222222223223232222222223232222222222222222232222222223222222222322223223222223223222222222222222222222322222232yyyyyyyyyyyyyyyyyyyy",
"yyyyyyyyyyyyyyyyyyyyyy22222322222222223222232222232222222222222222232232222222222222222222222222222322323222232232222222223222222222222232222222222232222322232222222322322222222222222222222222232222222222232222322222222222222222yyyyyyyyyyyyyyyyyyyyyy",
"yyyyyyyyyyyyyyyyyyyyyyyyy33332232322222232222223222222222232322222222222232222232222322232222322222223222232222222232223223222222222222222223222222222222322222323222222222222222223222222222222222232222222223223222222322222223yyyyyyyyyyyyyyyyyyyyyyyyy",
"yyyyyyyyyyyyyyyyyyyyyyyyyyyyy222333232222222222222322232222222222322232222222222222322222222222223222222222223222222222222222322322222222222222222232222222222222222232232222223222232222322232222322222322222222222223333333yyyyyyyyyyyyyyyyyyyyyyyyyyyyy"
};
