/* XPM */
static char *_8884_56a447bc500fdeffcc96b4361d0e42a85820b660978cbd8f6944cc197ac2b901[] = {
/* columns rows colors chars-per-pixel */
"250 70 33 1 ",
"  c #7E7D7D",
". c #817F7F",
"X c #858383",
"o c #888787",
"O c #8D8B8B",
"+ c #918E8E",
"@ c #949393",
"# c #989696",
"$ c #9C9A9A",
"% c #A19F9F",
"& c #A4A2A2",
"* c #A9A6A6",
"= c #ACAAAA",
"- c #B1AEAE",
"; c #B5B2B2",
": c #B9B6B6",
"> c #BDBBBB",
", c #C1BEBE",
"< c #C7C4C4",
"1 c #C8C5C5",
"2 c #CCCBCB",
"3 c #D1CFCF",
"4 c #D4D3D3",
"5 c #D9D7D7",
"6 c #DEDDDD",
"7 c #E0DFDF",
"8 c #E3E2E2",
"9 c #E8E7E7",
"0 c #ECECEC",
"q c #F0EFEF",
"w c #F3F3F3",
"e c #FFFFFF",
"r c None",
/* pixels */
"rrrrrrrrrrrrrrrrrrrrrrrrrrrrr11112<<<<<<<<<<<<1<<<<<<<<<<<<<1<<<1<<<<<<<<<<<<<<<<<<<<<<<<1<<<<<<1<<1<<<<<<<<<<<<<1<<<<<<1<<<1<<<<<<<<<<<<<<<<<<<<<<<<1<<<<<<<<<<<<<<<<<<<<<<<1<<<<<<<<<<<<<<<<<1<<1<<<<<<<<<<<<<<1<<<<<111111rrrrrrrrrrrrrrrrrrrrrrrrrrrrr",
"rrrrrrrrrrrrrrrrrrrrrrrrr1<<<<<<<<<<<<<<<<<<<<<<<<<<<<<<<<<<<<<<<<<<<<1<<<<1<<<<<<<<1<<<<<<<<<<<<<<<<<<<<<<<<<<<<<<<<<<<<<<<<<<<<1<<<<<<<<<1<<<<1<<<<<<<1<<<<<<<<<1<<<<<<<<<<<<<<<<1<<<<<<<<<<<<<<<<<<<<<<<<1<<<<<<<<<<<1<<<<<<<1rrrrrrrrrrrrrrrrrrrrrrrrr",
"rrrrrrrrrrrrrrrrrrrrrr<<<<<<<<<<<<<<<<<<<<<<<<<<<<<1<<<<<<<1<<<<<<<<<<<<<<<<<<<<<<<<<<<<<<<<<<<<<<<<1<<<<<<<1<<<<<<<<<<1<<<<<<<<<<<<<1<<<<<<<<<<<<<<<<<<<<<<<<1<<<<<<<<<1<<<<<<<<<<1<<<1<<1<<<<<<<<<1<<<<<<<<<<<<<<<<<<1<<<<<<1<<<<<rrrrrrrrrrrrrrrrrrrrrr",
"rrrrrrrrrrrrrrrrrrrr<<<<<1<<<<1<<<<<<<<<<<<<<<<<<<<<<<<1<<<<<<<<1<<<<<<<<<<<<<<2<1<<<<<<<<<<<<<1<<<<<<<<1<<<<<<<<<<<<<<<<<<<1<<<<<<<<<<<<<<<<1<<<<<<<<<<<<<<<<<<<<<<1<<<<<<<<<<<<<<<<<<<<<<<<<<1<<<<<<<<<1<<<<<<<<<<<<<<<<<<<<<<<<<<11rrrrrrrrrrrrrrrrrrrr",
"rrrrrrrrrrrrrrrrrr1<<<<<<1<<<<<<<<<<<<<<<<<<<<<<<1<<<<<<<<<<<<<<<<1<<<<<<<<<<<<<<<<<<<1<<<<<<1<<<<<<<<<<<<<<<<1<<<<<<<<<<<<<<<<<<<<<<1<<<<<<<<<<<<<<<<<<<<<<1<<<<<<<<<<<<<<<<1<<<<<<<<<<<<<<<1<<<<<<<<<<<<<<<<1<<<<<<1<<<<<<<<<<<1<<<<11rrrrrrrrrrrrrrrrrr",
"rrrrrrrrrrrrrrrr1<<<<<<<<<<<<<<<<<1<<<<<<<1<<<1<<<<<<<<<<<<<<<<<<<<<<<1<<<<<<<<<<<<<<<<<<1<<<<<<<<<<<<<<<<<<<<<<1<<<<1<<<<<<<<<<1<<<<<<<<<<<<<<<<<<<<1<<1<<<<<<<<<<<<<<<<<<<<<<<<<<<<1<<<<<<<<<<<<<<<<<<<<<<<<<<<1<<<<<<<<1<<<1<<<<<<<<<11rrrrrrrrrrrrrrrr",
"rrrrrrrrrrrrrrr1<<1<<<1<<<<<<<<<<<<<<<<<<<<<<<<<<<<<<<<<<<1<<<1<<<<<<<<<<<<<<<<<<<<<<<<<<<<<<<<<<1<<1<<<1<<<<<<<<<<<<<<<<<<<1<<<<<<<<<<<<<<<<<<<<<<<<<<<<<<<<<<<<<<<<<<<<<1<<<<<<<<<<<<<<<<<<<<<1<<<<1<<<<<<<<<<<<<<<<<<<<<<<<<<<<<<<<<<<<1rrrrrrrrrrrrrrr",
"rrrrrrrrrrrrr1<<<<<<<<<<<<<<<<<1<<<<<<<<<<<<<<<<<<<<<<<1<<<<<<<<<<<<<<<<<<<<<<<<1<<<<<<<<<<<<<<<<<<<<<<<<<<<<<<<<<<<<<<<<1<<<<<<<<<<<<<<<1<<1<<<<<1<<<<<<<<<<<<<<1<<<1<<<<<<<<<<1<<<<<<<1<<<<<<<<<<<<<<<1<<<<<<<<<<<<<<<<<<<<<<<<<<<1<<<<<<<1rrrrrrrrrrrrr",
"rrrrrrrrrrrr1<<<<<<<<<<1<<<<<<<<<<<<<<<<<<<<<<<<<<<<<<<<<<<1<<<<<<<1<<1<<<<<<<<<<<<<<<<<1<<<<<<<<<<<1<<<<<<<<<<<<<<<<<<<<<<<<<<<<1<<<<<<<<<<<<<<<<<<<<<<<<<<<1<<<1<<<<<<<1<<<<<<<<<<<<<<<<<<<<<1<<<<<<<<<<<<<<<<<<<<<<<<<<<<<<<1<<1<<<<<<<<<<1rrrrrrrrrrrr",
"rrrrrrrrrrr<<<<<<<<1<<<<<<<<<<<<<<<<<<<<<<<<<<<<<<<<<<<<<<<<<<<<<<<<<<<<<<<<<<<<<<<<<<<<<<<<1<<<<<<<<<<<<<<<<<<<<1<<1<<<<<1<<<<<<<<<<<<<<<<<<<<<1<<<<<<1<<<<<<<<<<<<<<<<<<<<1<<<<<<1<<<<<<<<<<<<<<<<1<<<<<<<<<<<<<<<<<<<<<<<<<<<<<<<<<<<<<<<<11rrrrrrrrrrr",
"rrrrrrrrrr1<<1<<<<<<<<<<<<<<<<1<<<<<<<<<<<1<<<<1<<1<1<<<<<<<<<<<<<<<<<<<<<<<<<<<<1<<<<<<<<<<<<<<<<<<<<<<<<<1<1<<<<<<<<<<<<<<<<<<<<<<<<<<<<<<<<<<<<<<<<<<<1<<<<<<<<<<1<<<<<<<<<<<<<1<<<<1<<1<<<<<<<<<<<<<<<<11<<<<<1<<<1<<<<<<<<<<<<<<<1<1<<<<<<<rrrrrrrrrr",
"rrrrrrrrr<<<<<<<<<<<<<<<<<1<<<<<<<<<<<<<<<<<<<<<<<<<<<<<<<<<<<1<<<<<<<<<<<<<<<<<<<<<<1<<<<<<<<<<<1<<<<<<<<<<<<<<<<<<<<<<<<<<<<1<<<<<<<<1<1<<<1<<<<<<<<<<<<<<<<<<<<<<<<<<<<<<<<<<<<<<<<<<<1<<<<<<<<1<<<<<<<<<<<<<<<<<<<<<<1<<<<<<<<<<<<<<<<<<1<<<1rrrrrrrrr",
"rrrrrrrr1<<<<<<<<<1<<<<<<<1<<<<<<<<<<<<<<<<<<<<<<<<<<<<<<<<<<<<<<<1<<<<<<<<<<<<<<<<<<<<<<<<<<1<<<<<<<<<<<<<<<<<<<<<1<<<<<<<1<<<<<1<<<<<<<<<<<<<<1<<1<<1<<<<<<<<<<<<1<<<<<<<<1<<<<<<<<<<<<<<<<<<<<<<<<<<<<<<<<<<<<<<<<<<<<<<<<<1<<<<1<<<1<<<<<<<<<1rrrrrrrr",
"rrrrrrr1<<<<<<<<<<<<<<<<<<<<<<1<<<<<<<<<1<<<<<<<<<<<<<<<<<<<<<<<<<<<<<<<<<1<<<<<<1<<<1<<<<<<<<<<<<<<<<<<<<<<<<<<<<<<<<<1<<<<<<<<<<<<<<<<<<<<<<<<<<<<<<<<<<<1<<<<<<<<<<<1<<<<<<<<<<<<<1<<<<<<<1<<<<<<<<<<<<<<<<<<1<<<<<<<<<<1<<<<<<<<<<<<<<<<1<<<<<1rrrrrrr",
"rrrrrrr<<<1<<1<<<<<<1<<<<<<<<<<<<<<<<<<<<<<<<<<<<<1<<1<<<<<<1<<<<<<<<1<<<<<<<<1<<<<<<<<<<<<1<<<<<<<1<<<1<<1<<<1<<<<<<<1<<<<<<<1<<<<<1<<<<1<<<<<<<<<<<<<<<<<<<<<1<<<<<<<<<<<<<<<<<<<<<<<<<<<<<<<<<<<1<<<<<<1<<1<<<<<<<<<<<<<<<<<<<<1<<<<<<<1<<<<<1<<rrrrrrr",
"rrrrrr1<<<<<<<<<<<<<<<<<<<<<<<<<<<<2<<1<<<<<<1<<<<<<<<<<1<<<<<<<<<<<<<<<<<<<<<<<<<<<<<<<<<<<<<<<<<<<<<<<<<<<<<<<<<<<<<<<<<<<<<<<<<<<<<<<<<<<<<<<<<<<<<<<<<<<<<<<<<<<<<<<<1<<1<<<1<<<<<<<<<1<<<<<<<<<<<<1<<<<<<<<<<<<<<1<<<<<<<<<<<<<<<<<<<<<<<<<<<<1rrrrrr",
"rrrrr1<<<<1<<1<<<1<<<<<<1<<1<<<<<<<<<<<<<<<<<<<<<<<<<<<1<<<<<<<<<<<<<1<<<<<<<<<<<<<<<<<<<<<<<<<<<<<<<<<<<<<<<<<<<<<<<<<<<<<<<1<<<<<<<<<<<<<<<<<<<<<<<<<<<<<<<<<<<<<1<<<<<<<<<<<<<<<<<<<1<<<1<<<<<<<<<<<<<<<<<<<<1<<<<<<<<<<<<<<<<<<<1<<<<<<<<<1<<<<<1rrrrr",
"rrrrr<<<<<<<<<<<<<<<<<<<<<<<<<<<<1<<<<<<<<1<<<<<<<<1<<<<<<1<<1<<<<<<<<<<1<<<<<<<<<<<<<1<<<<<<<<1<<<<<<<<<<<<<<<<<1<<<<<<<<<<<<<<<<1<<<<1<<<<<<<<<<<<<<<<<<<<<<<<<1<<<<<<<<<<<<<1<<<<<<<<<<<<<<<<1<<<<<<<1<<<<<<<<<<<<<1<<<<1<<<<<<<<<<<1<<<<<<<<<<<<1rrrrr",
"rrrr11<<<<<<<<<<<<<<<<<1<<<<1<<<<<<<<1<<<<<<<<<<<<<<<<<<<<<<<<<<1<<<<<<<<<<<<<1<<<1<<<<<<<<<<<<<<1<<<<<<<<<<<<<<1<<<<<<<<<<<<<<<<<<<<<<<<<<<<<<<<<<<<<<<<<<<<<<<<<<<<<<<<<<<<<<<<<<<<<<<<<1<<<<1<<<<<<<<<<<<<<<<<<<<<<<<<<<<<<<<<<<<<<<<<<<1<<<<<<<1<1rrrr",
"rrrr<<<<<<<<<<<<<<<<<<<<<<<<<<<<<<<<<<<<<<<<<1<<<<<<<<<<<<<<<<<<<<<<<<<<<<<<<<<<<<<<<<<<<<<<<<<<<<1<<<<<<<<<<<<<<<<<<<<<<<<<<<<<<<<<<<<<<<1<<<<<<<1<<<1<<<<<<<<<<<<<<1<<<<<<<<<<<<1<<<<<<<<<<<<<<<<<<11<<<<<<11<1<<<<<<<<<<<<1<<<<1<<<<<<<<<<<<<<<<<<<rrrr",
"rrr1<<1<<<<<<<1<<<<<<1<<<<<<<<<<<<<<<1<<<<<<<<<<<1<<<<<<<<<<<<<<<<<<<<<<1<<<<<<<<<1<<<<<<<<<<<<<<<<,<<,<<<<<<<<<<<<<<<<<<<<<<<<<<<<1<<<<<<<<<<<<1<<<<<<<<<<<<<<<<<<<<<<<<<<<<<<<<<<<<<<<<<<<<<<<<<<<<<<<<<<<<<<<<<<1<<1<1<<<<<<<<<<<<1<<<<<<<<<11<<<<<1rrr",
"rrr1<<<<<1<<<<<<<1<<<<<<<<<<<<<<1<<<<<<<<<<<<<<<<<<<<<<<<<<1<<<<<<<<<1<<<<<<1<<<<<<<<<<1<<<<<<<<<,,,,>,,,,,<<<<<<<<<<>,<,<,<<<,<<<,,,<,<,<<<,,<,<,,<<<,,,<,,,<,<<,<<<1<<<<<<<<<<<<<<<1<<<<<<<1<<<<<<<<<<<<<<<<<<<<<<<<<<<<<<<<<<<<<<<<<<<<<<1<<<<<<<<1<rrr",
"rr<<<<<<<<<<<<<<<<<<<<<<<1<<1<<<<<<<<<<<<<<<<<<<<<<<<<<<<<<<<<<<<<<<<<<<<<<<<<<<<<<<<<<<<<<<<,,,346754,:>>><<<<<<<><>>>>>>>,,<,<,>>>>>>>,,>>>>>>>>>>>>>:>>>:>>:>:::>><<,<<<<<<<<1<<<<<<<<<<<<<<<<<1<<<<<<<1<<<<<<<<<<<<<<<<<<<<<1<<<<<<<<<<<<<<<<1<<<<<<rr",
"rr<<<<<<1<<<<<<<<<<<<<<<<<<<<<<<<<<<<<<<<1<<1<<<<<<<1<<<<<<<<<<<<<1<<<<<<<<<<<<<<<<<<<<<<<<,<<8eeeeeeeeq2;::><,<1<weeeeeeq;:>>9eeeeeee:;0eeeeeee3:eeeeeeeeeeeeeeee0::>><<<<<<<<<<<<<1<<<1<<<<<<<<<<<<1<<<<<<1<<<<<<<<<<<<<<<<<1<<<<<<<<<<1<<<<<<<<<<<<<<rr",
"rr<<<1<<<<<<<<<1<<1<<1<<<<<<<<<<<<<<<<<<<<<<<<<<<<<<<<<<<<<<<<<<<<<<<<<<<<<<<<<<<<<1<<<<<<<,4weeeeeeeeeee9;=:>,<<<weeeeee0*-;>9eeeeeee==9eeeeeee1*eeeeeeeeeeeeeeee9=-;,,<<<<<<<<<<<<<<1<<<<<<1<<<<<<<<<<<1<<<<<<<<<1<<1<<<<<<<<<<<<<1<<<<<<<<<1<<<<<<<<<rr",
"r<<<<<<<<<<<1<<<<<<<<<<<<<<1<<<<<<<<<<<<<<<<<<<<<1<<<1<<<<<<<<<<1<<<<<2<<<<<<<<<<<<<<<<<<,<9eeeeeee0eeeeeee<=;>,>,weeewee0#&-;8eewweee$$9eeeweee>#eeeqqqq0w00wq0ee9$&-:,<<<<<<<<<<<<<<<<<<<<<<<<<<<<1<<<<<<<<<<<<<<<<<<<<<<<<<<<<<<<<<<1<<<<<<<<<<<<<<<1<r",
"r11<<<<<1<<<<<<<<<<<<<<<<<<<<<<1<<<<<<<<2<<<<<<<<<<<<<<<<<<<<<<<<<<<<<<<<<<<<<<<<<<<<<<<1,weeee6;#O$O$;0eeee2*;:>>wee7*ee9O$*-8ee1<eeeOO9ee0$eee:Oee9*&&&&o***&&ee8O$*:><<<<<<<<<<1<<<<<<<1<<<<<1<<<1<<<<<<<<<1<<<<<<<<<<<<<<<<1<<<<<<<<<<<1<<<<<<<<<<<<1r",
"r<<<<<<<<<<<<<<<<<<<<<<<<<<<<<<<<<<<<<<1<<<<<1<<<<<<<<<<<<<<<<<<<<<<<<<<<<<<<<<<<<<<<<<<,6eeew;$5weee9<o1eeee=*=::wee7&ee9o@&=7ee,1eeeOO8ee0#eee=Xeeeeeeew+eeeeeee8o#&;,,<<<<<<<<<<<<<<<<<<<<<<<<<<<<<<<<<<<<<<<<<<<<<<<<<<1<<<<<<1<<<<<<<<<<<<<<<<1<<<<<r",
"r1<<1<<<<<<<<<<<<1<<<<1<<<<<<<<<<<<<<<<<<<<<<<<1<<<<<<<<<<<<<2<<1<<1<<<1<<<<<<<<<<<<<<<,2eee9#1eeeeeeeeq&$eee9$*-;wee7&ee9.@%=8ee>1eeeXo6ee0@eee= eeeeeeewOeeeeeee8o@&;><<<<<<<<<<<<<<<1<<<<<<<1<<<<<<<<<<<<<<<<<<1<<<<<<<<<<<<<<<<<<1<<1<<<<<<<<<<<<1<<<r",
"<<<<<<<<1<<<<<<<<<<<<<<<<<<<<<<1<<<<<<<<<<<<<<<<<<<<1<<<<<<<<<<<<<<<<<<<<<<<<<<<<<<<1<<<weee$6eeeeeeeeeee=:eee1$*=wee6&ee9X+%=7ee>,eee.X8ee0@eee- *==&4eewOeee<$$%$O$*:>,<<<<<<<<<<<<1<<<<<<<1<<<<1<<<<<<<<1<<<1<<<<<<<<<<1<<<<<<<<<<<<<<<<<1<<<<<<<<<<<<1",
"1<<<<1<<<<<<1<<<<<<<<<<<<<<1<<<<<<<<<<<<<<<<<<<<<<<<<<<<<<<<<<<<<<<<<<<<<<<<<<<<1<<<<<<4eee,:eeeq=OX#<eeewO8eee#$*wee7%ee9X+%=7ee<<eeeXX8ee0#eee-Xo+@O2eewOeee* .XO#%=:,<<<<<<<<<<<<<<<<<<<<<<<<<<<<<<<<<<<1<<<<<<<<<1<<<<<<<<1<1<<<<<<<<1<<<<<<<1<<<<<<<<",
"1<<<<<<<<<<<<<<<1<<<<<<1<<<<<<<<<<<<<<<<<<<<<<<1<<<1<<<<<<<<<<<<<<<<<<<<<<<<<<<<<<<<<<<0ee0#eee6X .Xoo&wee6#eee;#%qee6&ee9X@%*8ee><eeeXo7ee0@eee=XO#$#4eewOeee* oO#%=;><<<<<<<<<1<<<<<<<1<<<<<<<<<<<<<1<<<<<<<<<<<<<<<<<<<<<<<<<<<<<<<<<<<<<<<<<<<<1<<<<<<",
"1<<<<<<<<<<<<<1<<<<<<<<<<<<<<<<<<<<<<<<<<<<<<<<1<<<1<<1<<<<<<1<<<<<<<<<<<<<<<<<<<<<<<<,eee4:eewo XO@##@>eeeoeee4O#qee6&ee9X@$=6ee,<eeeoX7ee0@eee=o@$**4eewOeee*X+#&=:>><<<<<<<<<<<<<<<<1<<<<<<<<<<1<<<<<<<<<<<<<<<<<<<<<<<<<<<<<<<<1<<<<<<<<<<<<<<1<<<<<<1",
"1<<<<<<<<<<<<<<<<<1<<<<1<<<<1<<<<<<<<<<<<<<<<<<<<<<<<<<<<<<<<<<<<<<1<<<1<<1<<<1<<<<<<<<eee:4ee1 XO#%&**$wee&6ee8O@0ee7&ee8X@&=8ee,<eeeXX7ee0#eee;o@&=-5eewOeee*o@%=:>,,,<<<<<<<<<<<1<<<<<<1<<1<<<<<<<<<<<<<<1<<<<<<<<<<<<<<<<<<<<<<<<<<<<<<<<<<<<<<<<<<<<1",
"1<<<1<<<<<<<<<<<1<11<<<<<<<<<<<<<<<11<<<<<<<<<<<<<<<<<<<1<<<<<<<<<<<<<<<<<<<<<<<<<<<<,2eee$0ee=Xo#*=::;*9ee:<ee0o+qee7%ee9o+%*7ee,,eeeXX8ee0@eee=o#&;:6eewOeee=o@&;>,<<<<<<<<<<<<<<<<<<<<<<<<<<<<<<<<1<<1<<<1<<<<<<<<<<<<<<<<<<<<<<<<<<2<<<<<<<<<<<<<<<<11",
"1<<<<<<<1<<<<<<<1111<<<<<<1<<<<<<<<<<<<<<1<<<<<<<<<1<<<<<<<<<<<<<<<<<<<<<<<<<<<<<<<<<,1eee$0ee=XO$=:>>:;9ee<,ee0XO0ee6&ee9X@%=8ee,1eeeXX6ee0#eee;o#*;:6eew+eee=o#=;><<<<<<<<<<<<<<<<<<<<<<<<<<<<<<<<<<<<<<<<<<<<<<<<<<<<<<<<1<<<<<<<<<<<<<<<<<<<<<<<<<1<11",
"11<<<<<<<<<<<<1<<<<1<<<1<<<<<<<<<<<<<<<<<<<<<<1<<<<<<<<<<<<<<<<<<1<<<<<<<<<<<<<<<<<<<><eee;4ee1o@%;><<>:wee*4ee6.O0ee8&ee9X@%=7ee,1eeeoX8ee0#eee-o#*;>7eew+eee=o#=:,<<<<<<<<<<<<<1<<<<<<<<<<<<<<<11<<<<<<<<<<<<<<<<<<<<<<<<<<<<<<<<<<<<<<<<<<<<<<<<1<<1<<1",
"1<<<<<<<<<<<<<<<<<<1<<<<<<<<<<<<<<<<<<<<<<<<<<<<<<<<<<<<<<1<<<<1<<<<<<<<<<<1<1<<<<<<<<:eee1:eew@+&;>><>4eeeO0ee2.O0ee6&ee9X+%=7ee,<eeeXX8ee0#eee-o#*;:6eew+eee=O#*:,<<<<<<<<<<<<<<<<<<<<<<<1<1<<<<<<<<<<<<1<<<<<<<<<<<<<<<<<<<<<<<<<1<<<<<<<<<<<<<<<<<<<11",
"1<<<<1<<<<<1<<<<<<<1<<<<<<<1<<<<<<1<<1<<<<<1<<<<<<<1<<<<<<<<<<<<<<<<<<<<<<<<<<<<<<<<<,:9ee0Owee6@$=:>>1eee8&eee=XO9ee9$eeeX+$*0ee:2eeeXX6ee0@eee-o#*::7eewOeee*o#*:,<<<<<<<<<<<<<<<<1<<<<<<<<<<<<<<<<<<1<<<<<<<<<<<<<<<<<1<<<<<<1<<<<<<<<<<<<<<<<<<<<<<<<<",
"1<<<<<<<<<<<<<<<<<<<<<<<<<<<<<<1<<<<<<<<<<<<<<<<<<<<<<1<<<<<<<<<<<<<1<<<<<<<<<<<<<<<<<>3eee:;eeeq>==<5eeee#5eewXXO4eeeoeee*O$=eee*8ee9 o8ee0@eee-o#*;:6eewOeee=o#*:,<<<<<<<<<<<<<<<<<<<<<<<<<<<<<<<<<<<<<<<<<<<1<<<<<<<<<<<<<1<<<<<<<<<<1<<<<<<<<<1<<<<<<<",
"<<1<<1<<1<<<<<<<<1<<<<<<<<<<<<<<<<<<<<<<<<<<<<<<<<<<<<<<<<1<<<<<<<<<<<<<<<<<<<<<<<<<<<>;weeeO6eeeeeeeeeee:;eee7&$O<eee+9eee55eeewOwee4.o8ee0#eee-o#*::7eew+eee=O#*:,1<<1<<<<<<<<<<<<<<<<1<<<<<<<1<<<<<<<<<<<<<<<<<<<<<<<<<<<<<<<1<<<<<<<<<<1<<<<<<1<<<<<<1",
"r<<<<<<<<<1<<<<<<<<<<<<<1<<<<<<<<<<<<<<<1<<<<1<<<<<<<1<<<<<<<<<<<1<<1<<<<<<<<<<<<<<<<<,:>eee8o<eeeeeeeew=*eeeeee;O;eee4$eeeeeeee::eee> O8ee0#eee-O#*;:7eew+eee=o#*:,11<<<<<<<<<<1<<<<1<<<<<<<<<<<<<<<<<<<<<<1<<<<<<<<<<<<<<<<<<<<<<<1<<<<<<<<<<<<<<<<<<<<r",
"r<<<<<<<<<<<<<<1<<<<<<1<<<<<<<1<<<<<<<<<<<<<<<<<<<<<<<<<<<<<<<<<<<<<<<<<<<<<<<<<<<<<<<,>-4eeew*$6weee02@>eeeeee9XO$eeee=#8eeeeq=$eeee$XO8ee0@eee-o#*;:6eewOeee=O$*:,,<<<<<<<<<<<<<<<<<<<<<<<<<<<<<<<<1<<1<<<1<<<<<<<<<<<1<<<<1<<<<<<<<<<<<<<1<<<<<<<<<<<<r",
"r1<<<<<<<<<<<<<<<<<<<<<<<<<<<1<<<1<<<1<<<<<<<<<<<<1<<<<<<<<<<<<<<<<<<<<<<<<<<<1<<<<<<<<>:=0eeee4*OO$o X#=-==;ee*X+#<eeee4+o#$O@1eeee1 o+8ee0@eee-X#*::7eewOeee*o#*:,<<<<<<<<<<<<<<<<<<<<<<<<<<1<<<<<<<1<<<<<<<<<<<<<<<<<<<<<<<<<<<<<<<<<<<<<<<<<<<<<<<1<1r",
"r11<<<1<<<<<<<<<<<<<<<<1<<<<<<<<<<<<<<<1<<<<<<<<<<<<<<<<<<<1<<<<<<<<<<<<<<<<<<<<<<<<<<<,>-=6eeeeeew8887888879e9 o@$&8eeeeee99eeeeee9.XO#8eeeweee-o#*;:7eeeweee*o#*:,<111<<<<<<<<<<<<<<<<<1<<<<<<<<<<<<<<<<<<<<<<1<<<<<<<<<<<<<<<<<<<<<1<<<<<<<<<<<<1<<1<1r",
"rr<<<<<<<<<<<<<1<<<1<<<<<<<<<<<<<<<<<<<<<<<<1<<<<<<<<<<1<<<<<<<<<<<<1<<<<<<<<<<<<<<<<<<,,:-&:weeeeeeeeeeeeeeee& O#&*=6eeeeeeeeeeee6@.o@%9eeeeeee=o#*:>6eeeeeee=O#*:,,1<1<<<<<<<<<<<<1<<<<<<<1<<<<<1<<<<<<<1<<<<<<<<<1<<<<<<<<<<1<<<<<<<<<<<<<<<<<<<<<<<<rr",
"rr<<<<<<<<<1<<<<<<<1<<<<<<1<<<<<<1<<<<<<<<<<<<<<<<<<<<<<<<<<<<<<<<<<<<<<<<<<<<<<<<<<<<<<,,:-&$3weeeeeeeeeeeee9 o@%=;=&=8eeeeeeee0& Xo@%*9eeeeeee;O#=::7eeeeeee=O$=:,,<<<<<<<<<<<<<<<<<<<<<<<<<<<1111<<<<<<<<<<<<<<<<<<<<<<<<<<<<<<<1<<<<1<<<<1<<<<<<<<<<rr",
"rr<<<<<1<<<<<<<<<<<<<<<<<<<<1<<<<<<<<<<1<<1<<<<<<<1<<<<<<<<<<<<<1<<1<<<<<<<<<<<<<<<<<<<<<,>;-&%+*:<<;&OooooXoXo@$=;::=&#$&;,1;%O..XO#%=--*$OX. .o@%=:>:=$+o. .o@%->,<<<<<<<<1<<1<<<1<<<<<<<<<<<<1111<1<<<<<<<<<1<<<<<<<<<1<<<<<<<<<<<<<<<<<<<<<<<<1<<<<<rr",
"rrr1<<<<<<1<<<<<<<<<<<<<<1<<<<<<<<<<<<<<<<<<<1<<<1<<<<<<<<<<<<<<<<<<<<1<<<<<<<<<<<<<<<<<<,,,:-*%@+OOOoOO+++++@#%=;>>,:-&%@+OOOooO+@$&=:::=&$+OO+@$*;>>:;*$@OO+#$*;>1,11<<<<<<<<<<<<<1<<1<<<<<<1<<<<<<<<<<<1<<<<<<<<<<<<<<<<1<<<1<<<<<<<<<<<<<11<<<<<<<<rrr",
"rrr1<<<<<<<<<<<<<<<<<1<<<<<<<<<<<<<1<<<<<<<<<<<<<<<<<<<<<<<<<<<<<<<<<<<<<<<1<<<<<<<<<<<<<<1,,,;-&%%$##$%%%%%%&&-;:><,>:;=&%$###$$%&*;:>>>:=*&&%%&=;:,,,:-*&%%%&=;:,,<<11<<<<<<<1<<<<<<<<<<<<<<<<<<<<<<<1<<<<<<<<<<<<<<<<<<<<<<<<<<<<<<<<<<<<<<<<<<<<<<1rrr",
"rrrr<<<<<<<<<<1<<<<<<<<<<<<<<<1<<<<<<<<<<<1<<<<<<<<<<<<<<<<<<<<<<<<<<<<<<<<<<<<<<<<<<<<<<<<<,,,,:--*&*==-=-----:>><<<,,>:;--**&*=--:>><,,>::----;:>,,<,>::;---;;>>,1<<<<<<<<<<<<<<<<<<<<1<<<<<<<<1<<<<<<<<<<<<<1<<<<<<<1<<<<<<<<<<<<<<1<<<<<<<<<<<<1<1rrrr",
"rrrr1<<1<<<<<<<<1<<<1<<<<<<<<<<<<<<<<<1<<<<<<<<<<<<<<<<<<<<<<<<<1<<<<<<<<<<<<<1<1<<<1<<<<<<<1,,,,,::::::::>:,,,,,<,<<<,,,,>::::::>>,,1<,<,<>>>>:>>,,,<1,,,>>>>>>,,<1<1<<<1<<<<<<<<<1<<<<<<<<<<<<<<<<<<<<<<<<<<<<<<<1<<<<<<<1<<<<<<1<<<<<<1<<<<<<<<<<<1rrrr",
"rrrrr1<<<<<1<<<1<<<<<<<<<<<<<<<11<<<<<<<<<<<<<<<<<<<<<<<<<<<1<<<<<1<<<<<<1<<<<<<<<<<<<<<<<<<<<<,,,,,,,,,,,,<,<,<<<<<<<<<<,,,,,,,,<,,,<<<<<,<><,<<,1,<,1,1,,,,<,<1,1111<<<<<<<<<1<<<<<<<<<<1<<<<<<<<<<<<1<<1<<<<<<<<<<<<<<<<<<<<<<<<<<<<<<<<<<<<<<1<<<rrrrr",
"rrrrr1<<<<<<<<<<<1<<<<<<<<<1<<<<<<<<<<<<<<<<<<<<<<<<<<<<<2<<<<<<<<<<<<1<<<<<<<<<<<<<<<1<<<1<<<<<,111,<<,1<<<<<11<<<<<<<<<<<<<<<,,<111<<<<<<<<<<<1111<<111111<<1<<<<<11<<<<<1<<<<<<<<<<<<<<<<<<1<<<<1<<<<<<<<<<<<<1<<<<<<<<<<<<<<<<1<<<1<<1<<1<<<<<<<1rrrrr",
"rrrrrr1<<<1<<<<<<<<<<<<<<<1<<<<<<<<<<<<<<<<<<<<1<<<<<<<<<<<<<<<<<<<<<<<<<<<<<<<<1<<<<<<<<<<<<<<<1111<<<<<<<<<<<1<<<<<<<<<<<<<<<<<<<<1<<<<<<<<<<<<111<<<<<111<<<<<<<<<<<<<<<<<<<<<<<1<<1<<<<<<<<<<<<<<<<<<<<<<1<<<<<<<<<1<<<1<<<<<<<<<<<<<<<<<<<<<<<1rrrrrr",
"rrrrrrr<<<<<<<<<<<<<<1<<<<<<<<<<<<<<<<1<<<1<<<<<<<<<<<<<<<<<<<<<<<<<<<<<<<<<<<<1<<<<<<<<<<<<<<<<1,11<<<<1<<<<<<<<<<<<<<<<<<<<<<<<<<<1<<<<<<<<<<<<111<<<<1111<<<<<<<<1<<<<<<<<<<<<<<<<<<<<<<<<<<<<<<<<<<<<<<<<<<<<<<<<<<<<<<<<<1<<<<<<<<<<<<<<<<<<<1rrrrrrr",
"rrrrrrr1<<<<<<<<<<<1<<<<<<<1<<<<<<<<<<<<<<<<<<<<<<<<<<<<<<<<1<<<<<<<<<<1<<<<<<<<<<<<<<<<<<<<<<<<11<<1<<<<<<<<<<<<<<<<<<<<<<<<<<<<<<<1<<1<<<<<<<<<<<<<<<<<<1<<<<<<<<<<<<<<<<<<1<<<<<<<<<<<<1<<<<<<<1<<<<<<<<<<<<<<<<<<<<<<<1<<<<<<<<<<<<<<<<<<<<<<1<rrrrrrr",
"rrrrrrrr1<<<1<<<<<<<<1<<<<<<<1<<<<<<<<<<<<<1<<<<<<<<<<1<<<<<<<<<<<<1<<<<<<<<<<<<<1<<<<<<1<<<<<<<<1<<<<<<<<<<<<<<1<<<<<<<<<<<<<<<<<<<<<<<<<<<<<<1<<<<<<1<<<<<<<<<<<<<<<<<<<<<<<<<<<<<1<<<<<<<<<1<<<<<<<<<1<<<<<<1<<1<<<<<<<<<<<<<<<<1<<<<<<<<<<<1<1rrrrrrrr",
"rrrrrrrrr1<<<<<<<<<<<<<<<<<<<<<<<<<1<1<<<<<<<<<<<<<<<<<<<<<<<<<<<<<<<<<<<<<<<<1<<<<<<<1<<<<<1<<<<<<<<<<<<1<<1<<<<<<<1<<<<<<<<<<<<<<<<<<<<<<1<<<<<<1<<<<<<<<<<<<1<<<<<<<<1<<<<<<<<<<<<<<<<<<<<<<<<<<<<<<1<<<<<<<<<<<<<<<<<<<<<<1<<<<<<<<<<<<<<<111rrrrrrrrr",
"rrrrrrrrrr11<<<<<<<<<<<<<<<<<<<<<<<<<<<<<<<<<1<<<<<<<<<<<1<<<<<<<<<<<<<<<<1<<<<<<<<<<<<<<<<<<<<<<<<<1<<<<<<<<<<<<<<<<<<<<<<<1<<<<<<1<<<<<<<<<<<<<<<<<<<<<<<<<<<<<1<<1<<1<<<<<<<<<<1<<<<<<<<<<<<<<<<<<<<<<<<<<<<<<<<<1<<<<<<<<<<<<<<<<<<<<<<<<<11rrrrrrrrrr",
"rrrrrrrrrrr1<<<<<<<1<<<<<<<1<<<<<<<<<<<<<<<<<<<<<<<<<<<<<<<<<<<<<<1<<<<<<<<<<<<<<<<<1<<<<<<<<<<<<<<<<<<<<<<<1<<<<<<<<<<<<<<<<<<<<<<<<<<<<<<<<<<<<<<1<<<<<<1<<<<<<<<<<<<<<<<<<<<<<<<<<<<1<<<<<<<<<<<<<<<<1<<1<<<1<<<<<<<<<<<<<<<<<<<<<<<<<<1<<<1rrrrrrrrrrr",
"rrrrrrrrrrrr1<<<<1<<<<<<<1<<<<<<<<<<<<<<<<<<<<<<<<<<<<<<<<<1<<<<<<<<<<<<<<1<<<1<1<<<<<<<<<<<<<1<<<<<<<<<1<<<<<<<<<<<<<1<<<<<<<<<<<<<<<<<<1<<<<<<<<<<<<<1<<<<<<<<<<<<<<<<<<<<<1<<<<<<<<<<<<<1<1<<1<<<<1<<<<<<<<<<<<<<<<<<<<<<1<<<<<<<<<<<<<11<1rrrrrrrrrrrr",
"rrrrrrrrrrrrr1<<<<<<<<<1<<<<<<<1<<<<<<1<<<<<<<<<<<<<<<<<<<<<<<<1<<<<1<<<<<<<<<<<<<<<<<<<<<<<<<<<<1<<1<<<<<<<<<<<<<<<<<<<<1<<1<<<<<<1<<1<<<<<<<<<<<<<<<<<<<<<<1<<1<<<<<<1<<<<<<<<<<<<<<<<<<<<<<<<<<<<<<<<<<<<<<<<<1<<<<<<1<<<<<<<<<<<<<<<<<<11rrrrrrrrrrrrr",
"rrrrrrrrrrrrrrr1<<<<<<<<<<<<<<<<<<1<<<<<<1<<1<<<<<<<<<<<<<<<<<<<<<<<<<<<<<<<<<<<<<<<<<<<<<<1<<<<<<<<<<<<<<<<<<<<<<<1<<<<<<<<<<<<<<<<<<<<<<<<1<<<<<<<<<<<<<<<<<<<<<<<<<<<<<1<<<<<<1<<<<<<<<<<<<<<<<<<<<<<<<<<<<<<<<<<<1<<<<<<<<<<2<<<<<<<<<1rrrrrrrrrrrrrrr",
"rrrrrrrrrrrrrrrr11<<<<<<<<<1<<<<<<<<<<<<<<<<<<<<<<<1<<<<<<<<<<<1<1<<<<<<<1<<1<<<<<<<<<<<<<<<<<<<1<<<<<<<<<<<<<<<<<<<<<<<<<<<<<<<<<<1<<<<<<<<<<<1<<<<<<<<<<1<<<<<<<<1<<1<<<<<<<<1<1<<<<<<<<<<<<<<<<<<<<<<<<<<<<<<<<<<<<<<<<<1<<<<<<<<<<<<11rrrrrrrrrrrrrrrr",
"rrrrrrrrrrrrrrrrrr1<<1<<<<<<<1<<1<<<<<<<<1<<1<<<<<<<<1<<<<<<<<<<<<<<<<<<<<<<<<<<<<1<<<<1<<<<<<<<<<1<<<<<<<1<<<<<<<1<<<1<<<<<<<1<<<<<<<<1<<<<<<<<<<<1<<<<<<<<<<<<<<<<<<<<<<<<<<<<<<<<<<<<<<<<<1<<<<<1<<1<<<<<<<<11<<<<<<<<<<<<1<<<1<<<<<1rrrrrrrrrrrrrrrrrr",
"rrrrrrrrrrrrrrrrrrrr1<<<<<<<<<<<<<<<<<<<<<<<<<<<<<<<<<<<<<1<<<<<<<<<<<<1<<<<<<<<<<<<<<<<<<<<<<<<<<<<<<<<<<<<<<<<<<<<<<<<<<<<<<<<<<1<<<<<<<<1<<1<<<<<<<<1<<<<<<1<<<<<<<<<<<1<<<<<<<11<<<1<<<<<<<<<<<<<<<<<<<<<<<<<<<<<<<<<<<<<<<<<<<<11rrrrrrrrrrrrrrrrrrrr",
"rrrrrrrrrrrrrrrrrrrrrr<<<<<<<<<<<<<<<11<<<<<<<<<<<<<<<<<<1<<<<<<<<<<<<<<<<<<1<<<<<<<<<<<<<<1<1<<<<<<<<<1<<<1<<<1<<<<<<<1<<<1<<<<<<<<<<<<<<<<<<<<<<<<<<<<<<<<<<<<<<<<<<<<<<<<<<<<<<11<<<<<<<1<<<<<<<<<<<<<11<<<<<<<<<<11<<<<<<<<<<<<<rrrrrrrrrrrrrrrrrrrrrr",
"rrrrrrrrrrrrrrrrrrrrrrrrr<11<<1<<1<<<<<<<<<1<<<<<<<<<1<<<<<<<<<<<<<<<<<<<<<<<<<<<<<<<<<<<<<1<<<<<<<<<<<<<<<<<<<<<<<<<<<<<<<<<1<<<<<<1<<<<<<<<<<<<<<<<<<1<<<1<<1<<<<<<<<1<<<<<<<<<111<<<<<<<<<1<<<<<<1<<<<<<<<<<<<<<<<<<<<1<<<<<1<rrrrrrrrrrrrrrrrrrrrrrrrr",
"rrrrrrrrrrrrrrrrrrrrrrrrrrrrr<<<111<<<<<<<<<<<<1<1<<<<<<<<<<<1<<<1<<<<<<1<<<<<<<<<<1<<<<<<<<<<<<<<<<<<1<<<<<<1<<1<<<<<<<<<<<<<<<<<<<<<<<<<1<<<<<<<<<<<<<<<<<<<<<<1<<<<<<1<<<<1<<<<11<<<<<<<<<<<<1<<<<<<<<<<<<<<<<<1<<<<1111<1rrrrrrrrrrrrrrrrrrrrrrrrrrrrr"
};
