/* XPM */
static char *result[] = {
/* columns rows colors chars-per-pixel */
"150 88 48 1 ",
"  c #000000",
". c #0C0100",
"X c #140100",
"o c #1B0201",
"O c #240302",
"+ c #2A0503",
"@ c #2B0806",
"# c #310705",
"$ c #340906",
"% c #3C0A07",
"& c #3C0B08",
"* c #410A06",
"= c #4B0C07",
"- c #450E09",
"; c #4B0E0A",
": c #4E100B",
"> c #54110C",
", c #5B130D",
"< c #631510",
"1 c #6B1711",
"2 c #6F1812",
"3 c #731912",
"4 c #7C1C15",
"5 c #841D16",
"6 c #8B1F18",
"7 c #901F17",
"8 c #8D2018",
"9 c #932017",
"0 c #942219",
"q c #9C241C",
"w c #A2261D",
"e c #A9271E",
"r c #A7281E",
"t c #AB281F",
"y c #B0291F",
"u c #B42B21",
"i c #BA2D22",
"p c #C32F24",
"a c #C63025",
"s c #CE3226",
"d c #D33327",
"f c #D53428",
"g c #DB3529",
"h c #E2372A",
"j c #E6382B",
"k c #EB392C",
"l c #F13A2D",
"z c #F83D2F",
/* pixels */
"                                                                                                                                                      ",
"                                                                                                                                                      ",
"                                                                                                                                                      ",
"                                                                                                                                                      ",
"                                                                                                                                                      ",
"                                                                                                                                                      ",
"                                                                                                                                                      ",
"                                                                                                                                                      ",
"                                                                                                                                                      ",
"                                                                                                                                                      ",
"                                                                                                                                                      ",
"                                                                                                                                                      ",
"                                                                                                                                                      ",
"                                                                                                                                                      ",
"                                                                                                                                                      ",
"                                                                                                                                                      ",
"                                                                                                                                                      ",
"                                                                                                                                                      ",
"                                                                                                                                                      ",
"                        .   .                     .                                                                                                   ",
"                     XX..X.X.X               .X.XX.XXX                                                                                                ",
"                   X                        .          .                                                                                              ",
"                    qiiiiiuiiq .           X 3iiiiiiuit.                                                                                              ",
"                  o 8zkllkllzl1 X          . szkllkllzq o                                                                                             ",
"                   X akkkkkkjlp o         o 5kkkkkkkks                                                                                                ",
"                   X 1kkkkkkkkk3 X       .. akkkkkkkk4 o                                                                                              ",
"                    o ikkkkkkkla o       o 4kkkkkkkka X                                                                                               ",
"                    . -hkkkkkkkk4 o      X slkkkkkkk, X                                                                                               ",
"                     o qlkkkkkkla .     o 5kkkkkkkkt o           .XoXoXooXXX                   .oXXXXXXXXo.                                           ",
"                     . .fkkkkkkkl4 o      alkkkkklg& .         .o           oo               .O            o                                          ",
"                      o 5kkkkkkkld X.  X 4lkkkkkkk0 O        .o   19tiffir8<  XX            o  #38iafgsi93  .X                                        ",
"                       X aljkkkkkk5 o  o alkkkkkld .        .. @wdkllllklllhp8  o          X ;tfllllklkklkd0  o                                       ",
"                       o 1kkkkkkkls . o 4lkkkkkkk8 o       X  0glkkkkkkkkkkkllp, o          9hlkkkkkkkkkkkkks> o                                      ",
"                        o ulkkkkkkl8 o. alkkkkkki X       X  ilkkkkkkkkkkkkkkklh3 o      X tkkkkkkkkkkkkkkkklg, X                                     ",
"                        . :gkkkkkkldX. 4lkkkkkkk< X      . Xazkkkkkkkkkkkkkkkkjlk4 o    o 9lkkkkkkkkllkkkkkkkkg$ .                                    ",
"                         o wlkkkkkkl0  alkkkkklt o      .X ikkkkkkkklkgjlkkkkkkklg- X  . &hkkkkkkkkduakkkkkkkkli o                                    ",
"                         . .flkkkkkkg 3kkkkkkkg& .      o wlkkkkkkkgw3&1qgkkkkkkkla  . o qkkkkkkkk8   ,fkkkkkkkk> X                                   ",
"                          o 8lkkkkkkkwalkkkkkk0 o      X :hkkkkkkla&     #alkkkkkkk4 o o alkkkkkli ooO <kkkkkkkke O                                   ",
"                           X alkkkkkkkkkkkkkld  .      o tlkkkkkkh; +X.XO -hkkkkkkla o.  alkkkkkzy +  + pzkkkkkza X                                   ",
"                           o 1kkkkkkkkkkkkkkl4 o      . :gkkkkkkkq O     O wlkkkkkkk2 o @dlkkkkkla  O X 1q0000905o                                    ",
"                            o ulkkkkkkkkkkkli o       X 4lkkkkkkk: ooXoXoO 3kkkkkkklq O. skkkkkkkki   Xo                                              ",
"                            X :hkkkkkkkkkkkk< o       o ikkkkkkls           flkkkkklu Xo alkkkkkkkld0@   ++oooooX                                     ",
"                             o rljkkkkkkkkly o        o.dkkkkkklsqwwwwwwwqwwgkkkkkkkgo o 0kkkkkkkkklkgi61   Xo                                        ",
"                             . ogkkkkkkkkkg& .          flkkkkkkklllllklllllkkkkkkkkh$ .  dlkkkkkkkkkllljaw:  o                                       ",
"                              o 8kkkkkkkklq o        . &glkkkkkkkkkkkkkkkkkkkkkkkkkkj% .X <jkkkkkkkkkkkkklkkp1 ..                                     ",
"                               X skkkkkklg           X >gkkkkkkkkkkkkkkkkjjkkkjkkkjkh-   o 1flkkkkkkkkkkkkkkkkr  .                                    ",
"                               X ulkkkkklf X         X :glkkkkkkkkllllklllllllllllllk% .  o +ehlklkkkkkkkkkkkklu o                                    ",
"                               X ulkkkkklf .         . @gkkkkkkkgddddddddddddddddddds#     X  ;5aglllkkkkkkkkkkl8 o                                   ",
"                               X ulkkkkklg .          X fkkkkkkl0                           .o   -9ygklkkkkkkkkkg# .                                  ",
"                               X ulkkkkkkg .          o dlkkkkklt Oooooooooo         .  ooooooOOO   O1ijkkkkkkkkk3 X                                  ",
"                               X ulkkkkkkg .          X ekkkkkkls  .      . ><<<<<<1-            Xoo   3glkkkkkkk0 X                                  ",
"                               X ulkkkkkkg .          X 2kkkkkkkk, .     X :glkkkkkl8 oOtuuuuyui1 X  XO 3kkkkkkklu o                                  ",
"                               X ulkkkkkkg .          . *gkkkkkkli OX. .X+ wlkkkkkkg$ X hzllllkza O    .@hkkkkkklu o                                  ",
"                               X ulkkkkklf .           o wzkkkkkkk8   X.  4klkkkkklu oX ukkkkkkkk4 +oXO $jkkkkkkl0 o                                  ",
"                               X ulkkkkjlg .           . @glkkkkkkkr<o  >rjkkkkkkkh; .o 3kkkkkkkkh5     ulkkkkkkk3 X                                  ",
"                               X ukkkkkkkg X            o 9kkjkkkkklhdsshlkkkkkkkl0 o  X plkkkkkkkksu9yfkkkkkkkkfo .                                  ",
"                               X ulkkkkkkg .             o rzkkkkkkkklllkkkkkkkkli X   X >hkjkkkkkkllkllkkkkkkkl8 o                                   ",
"                               X ulkkkkklg .              X elkkkkkkkkkkkkkkkkkli  .    o 3klkkkkkkkkkkkkkkkkkkt o                                    ",
"                               X ulkkkkkkd .               X 8hlkkkkkkkkkkkkllg0  .      X <dllkkkkkkkkkkkklkkq X                                     ",
"                               o izlllllzh .               .X -eglllkkkkkkllgu; X.        o  0fkllkkkkkklllgi, X                                      ",
"                                 107777775                   o  &6rsgjjjkar8$  o           X   4qigjjhjhst0;  o                                       ",
"                                .                             .o    +#$#O    o.              oX   O#$&#+    oX                                        ",
"                                 oooOoOoOo                      Xoo       oo.                  ooX       ooX                                          ",
"                                                                    . . .                           . .                                               ",
"                                                                                                                                                      ",
"                                                                                                                                                      ",
"                                                                                                                                                      ",
"                                                                                                                                                      ",
"                                                                                                                                                      ",
"                      .    .  . . . .      .  . . . .      .  .      ..   .    ..    .  .    ..   .    ..    .  .    ..                               ",
"                   .oXXXXXXXXXXXXXXXXXXXXXXXXXXXXXXXXXXXXXXXXXXXoXXXXXXXoXXXXXXXXXXXXXXXXXXXXXXXoXXXXXXXXXXXXXXXXXXXXXXX                              ",
"                  X                                                                                                                                   ",
"                . oifsssssddsssssdsdssssssddssdssddssssssdsdsssssssddssdsddssssddssssdsdsddssssdsdsssdssssssssdssssssdda$                             ",
"                . .fzkkzlkkllllllklklllllklkllkllllklllllkkllllllllklllklllkllkllkllkllklklklllklllllklllllllklllllllllk% .                           ",
"                . Xdkkkkkkkkkkkjkkkkkkkkkkkkkkkkkjkkkkkkkkkkkkkjkkkkkkkkkkjkkkkkkkkkkkkkkkkkkkkkkjkkkkkkkkkkkkkkkkkkkkkj% .                           ",
"                . .skkkkkkkkkkkkkkkkkkkkkkkkkkkjkkkkjkkkkkkkkkkkkkkjkkkkkkkkkkkkkkkkkkkkkkkkkkkkkkkkkkkkjkkkkkkkkkjkkkkj&                             ",
"                   *::;;===============================================================================================;X                             ",
"                                                                                                                                                      ",
"                   .....................................................................................................                              ",
"                                                                                                                                                      ",
"                                                                                                                                                      ",
"                                                                                                                                                      ",
"                                                                                                                                                      ",
"                                                                                                                                                      ",
"                                                                                                                                                      ",
"                                                                                                                                                      ",
"                                                                                                                                                      ",
"                                                                                                                                                      "
};
