/* XPM */
static char *result[] = {
/* columns rows colors chars-per-pixel */
"150 88 39 1 ",
"  c #000000",
". c #070807",
"X c #0B0B0B",
"o c #141414",
"O c #1B1B1B",
"+ c #232323",
"@ c #2B2B2B",
"# c #313131",
"$ c #3C3C3C",
"% c #444444",
"& c #474748",
"* c #4C4C4C",
"= c #545454",
"- c #5C5C5C",
"; c #636363",
": c #6B6B6B",
"> c #6F706F",
", c #747474",
"< c #7A7A7A",
"1 c #838383",
"2 c #8A8A8A",
"3 c #949494",
"4 c #989798",
"5 c #9C9C9C",
"6 c #A3A3A3",
"7 c #ACACAC",
"8 c #B4B4B4",
"9 c #BCBCBC",
"0 c #BFC0BF",
"q c #C4C5C4",
"w c #CBCBCB",
"e c #D4D4D4",
"r c #DBDBDB",
"t c #E0E0DF",
"y c #E4E4E4",
"u c #ECECEC",
"i c #EFF0EF",
"p c #F4F4F4",
"a c #FEFEFE",
/* pixels */
"                                                                                                                                                      ",
"                                                                                                                                                      ",
"                                                                                                                                                      ",
"                                                                                                                                                      ",
"                                                                                                                                                      ",
"                                                                                                                                                      ",
"                                                                                                                                                      ",
"                                                                                                                                                      ",
"                                                                                                                                                      ",
"                                                                                                                                                      ",
"                                                                                                                                                      ",
"                                                                                                                                                      ",
"                                                                                                                                                      ",
"                                                                                                                                                      ",
"                                                                                                                                                      ",
"                                                                                                                                                      ",
"                                                                                                                                                      ",
"                                                                                                                                                      ",
"                                                                                                                                                      ",
"                    X XXX XXX                 X.XX XXX                                                                                                ",
"                     XXXXXXXXo               XXXXXXXXX                                                                                                ",
"                   X# X  X  o o             X XX .X X @o                                                                                              ",
"                   X7wqwwwqww7             o <wqqwwqqq8+                                                                                              ",
"                  O 4aaaaaaaaa< O            raaaaaaaa7 o                                                                                             ",
"                  XX eaaaaaaaae +         O 3aaaaaaaae@ X                                                                                             ",
"                   + <paaaaaaap2 +       XO raaaaaaaa2 +                                                                                              ",
"                    + qaaaaaaaae +X      @ 3aaaaaaaaw oX                                                                                              ",
"                    O -uaaaaaaaa3 +     oO eaaaaaaap, +                 X                            X                                                ",
"                     @ 8aaaaaaaaeOoX    + 3aaaaaaaaq @           XOOoOOOOOOo                   XOOOOOOOOOO                                            ",
"                     oOoyaaaaaaaa3 +   XX+eaaaaaaau& O         oO           oO               o+            +X                                         ",
"                      O 3aaaaaaaar# X  + 2aaaaaaaa6 +        XO  +<59eyyw84:   O           XO  $14qruurq5<#  O                                        ",
"                       o eaaaaaaaa3 O XX#eaaaaaaar          +  %8raaaaaaaaaae3  +         Oo -9yaaaaaaaaaat6# +                                       ",
"                       O <aaaaaaaayO  O 2aaaaaaaa2 O       +  6uaaaaaaaaaaaaaae> +       O  5iaaaaaaaaaaaaaar: O                                      ",
"                        O 9aaaaaaaa5 O  eaaaaaaaw XX      o Owaaaaaaaaaaaaaaaaau2 @     XX 8aaaaaaaaaaaaaaaaau: O                                     ",
"                        O :uaaaaaaay#@ 2aaaaaaap< +      o #eaaaaaaaaaaaaaaaaaaap2 +    o 5aaaaaaaaaaaaaaaaaaay= O                                    ",
"                         @ 7aaaaaaaa6  raaaaaaa9 +      XO waaaaaaaaapppaaaaaaaaau; O  X %paaaaaaaayqrpaaaaaaaaq +X                                   ",
"                         o $yaaaaaaauo2aaaaaaau= O      @ 7aaaaaaaau8<&<7uaaaaaaaaeo o O 7aaaaaaaa6 + ,uaaaaaaau: O                                   ",
"                          @ 3aaaaaaaa7waaaaaaa6 @      O :uaaaaaaar%     %eaaaaaaaa3 + + raaaaaaaw Oo+ <paaaaaaa9 @                                   ",
"                          X+ raaaaaaaaaaaaaaay@+o      + 9aaaaaaau- #OXO@ =paaaaaaawOXoo raaaaaaa9 #  @ eaaaaaaaw oX                                  ",
"                           O <aaaaaaaaaaaaaaa2 O      O :uaaaaaaa7 @     + 8aaaaaaaa< OX#yaaaaaaar+ @ o <75666662# X                                  ",
"                            o qaaaaaaaaaaaaaw o       + 2aaaaaaaa= Oooooo+ 1aaaaaaaa6 Oo raaaaaaaawX   O                                              ",
"                            o -paaaaaaaaaaaa: O       OXqaaaaaaar          #raaaaaaaq X+ raaaaaaaaay5%+  +##@O++O                                     ",
"                             + 8aaaaaaaaaaa9 +       X %raaaaaaay77787777777uaaaaaaau+ O 5aaaaaaaaaaapw4,+  ++                                        ",
"                             o &yaaaaaaaaau= O       o %yaaaaaaaaaaaaaaaaaaaaaaaaaaaa$ X Xyaaaaaaaaaaaaaae7,  @                                       ",
"                              + 5aaaaaaaaa7 +        o *yaaaaaaaaaaaaaaaaaaaaaaaaaaap%  o ,paaaaaaaaaaaaaaaie1 OX                                     ",
"                              oOOraaaaaaay% O        o ;paaaaaaaaaaaaaaaaaaaaaaaaaaaa% X O <yaaaaaaaaaaaaaaaap8 Oo                                    ",
"                              .+ qaaaaaaay@Oo        o -uaaaaaaaaaaaaaaaaaaaaaaaaaaaa% X  O &8paaaaaaaaaaaaaaaa0 +X                                   ",
"                              X+ qaaaaaaay#oo        o %yaaaaaaauryyyyyyyyyyyyyyyyyyy#     O  -3ruaaaaaaaaaaaaaa6 +                                   ",
"                              X+ qaaaaaaay#oo        X %raaaaaaa5                           XO   =79ypaaaaaaaaaay= o                                  ",
"                              X+ qaaaaaaay#oo        XX$raaaaaaa8 ++++O++O++        XX  O+O++O@@@   =2qpaaaaaaaaa2 +                                  ",
"                              XO qaaaaaaay#oo         O 8aaaaaaayX  . X . Xo:<,,,,,<= X          O@@   2uaaaaaaaa6 O                                  ",
"                              X+ qaaaaaaay@oo         + 2aaaaaaaa; O     O -upapappa3 o$8q9qq9qq< O O++ 1aaaaaaaaq O                                  ",
"                              XO qaaaaaaay#oo         O ;uaaaaaaaw #+oXX+@ 7aaaaaaau* O%uaaaaaaae @O  X @paaaaaaaq O                                  ",
"                              X+ qaaaaaaay#oo          + 8aaaaaaaa5  o+o  2aaaaaaaa9 ++ qaaaaaaaa3 @@O@ %paaaaaaa6 O                                  ",
"                              X+ qaaaaaaay#oo          O *uaaaaaaap9,# o:9paaaaaaau: O+ 2aaaaaaaap4     qaaaaaaaa2 +                                  ",
"                              X+ qaaaaaaay#oo           @ 5aaaaaaaaapyryuaaaaaaaaa7 +  + eaaaaaaaaarq69yaaaaaaaay% o                                  ",
"                              XO qaaaaaaay@oo            + 8aaaaaaaaaaaaaaaaaaaaaq OX  o -paaaaaaaaaaaaaaaaaaaaa4 +                                   ",
"                              X+ qaaaaaaay#oo             X 9aaaaaaaaaaaaaaaaaaaq XO    O 2paaaaaaaaaaaaaaaaaaa8 +X                                   ",
"                              X+ qaaaaaaay#oo             Xo 6uaaaaaaaaaaaaaaau7 Xo      O ,raaaaaaaaaaaaaaaap7 OX                                    ",
"                              X+ waaaaaaau#oO               O -9yaaaaaaaaaaay9: oo        + @7raaaaaaaaaaaauq, O                                      ",
"                               o <64555562OX                 @  -48ruppppr84=  @           +X $27qupppppr95:  @                                       ",
"                                                              +@   %-----$   ++             o@   o=;----$   ++                                        ",
"                                 O+++++++O                      O+o       O+oX                o+OX       OOOX                                         ",
"                                                                   XXooXXX                        XXoXoXX                                             ",
"                                                                                                                                                      ",
"                                                                                                                                                      ",
"                                                                                                                                                      ",
"                                                                                                                                                      ",
"                                                                                                                                                      ",
"                                                                                                                                                      ",
"                                                                                                                                                      ",
"                                                                                                                                                      ",
"                                                                                                                                                      ",
"                                                                                                                                                      ",
"                                                                                                                                                      ",
"                                                                                                                                                      ",
"                                                                                                                                                      ",
"                                                                                                                                                      ",
"                                                                                                                                                      ",
"                                                                                                                                                      ",
"                                                                                                                                                      ",
"                                                                                                                                                      ",
"                                                                                                                                                      ",
"                                                                                                                                                      ",
"                                                                                                                                                      ",
"                                                                                                                                                      ",
"                                                                                                                                                      ",
"                                                                                                                                                      "
};
