/* XPM */
static char *result[] = {
/* columns rows colors chars-per-pixel */
"150 88 49 1 ",
"  c #000000",
". c #0C0100",
"X c #0C0C0C",
"o c #140000",
"O c #1A0504",
"+ c #141414",
"@ c #1B1B1B",
"# c #340806",
"$ c #3B0A07",
"% c #222222",
"& c #2B2B2B",
"* c #343434",
"= c #3B3B3B",
"- c #410A06",
"; c #4B0C07",
": c #4C0D08",
"> c #434343",
", c #4C4C4C",
"< c #535353",
"1 c #5D5D5D",
"2 c #636363",
"3 c #6B6B6B",
"4 c #737373",
"5 c #7B7C7B",
"6 c #B82C22",
"7 c #CF3226",
"8 c #D23327",
"9 c #D43328",
"0 c #E6382B",
"q c #EA392C",
"w c #F13A2D",
"e c #848484",
"r c #8B8B8B",
"t c #939393",
"y c #9C9C9C",
"u c #A3A3A3",
"i c #ADACAD",
"p c #B4B4B4",
"a c #BBBBBB",
"s c #C4C4C4",
"d c #CACACA",
"f c #D4D4D4",
"g c #D8D7D8",
"h c #DCDCDC",
"j c #E4E5E4",
"k c #EBEBEB",
"l c #F0EFF0",
"z c #F4F4F4",
"x c #FEFEFE",
/* pixels */
"                                                                                                                                                      ",
"                                                                                                                                                      ",
"                                                                                                                                                      ",
"                                                                                                                                                      ",
"                                                                                                                                                      ",
"                                                                                                                                                      ",
"                                                                                                                                                      ",
"                                                                                                                                                      ",
"                                                                                                                                                      ",
"                                                                                                                                                      ",
"                                                                                                                                                      ",
"                                                                                                                                                      ",
"                                                                                                                                                      ",
"                                                                                                                                                      ",
"                                                                                                                                                      ",
"                                                                                                                                                      ",
"                                                                                                                                                      ",
"                                                                                                                                                      ",
"                                                                                                                                                      ",
"                     X   X XX                   X   X X                                                                                               ",
"                     +++++++X@               X++++++++                                                                                                ",
"                   +                        X          X                                                                                              ",
"                  X iddddddddi X           + 5ddddddddpX X                                                                                            ",
"                  @ yxxxxxxxxx4 +          + jxxxxxxxxi @                                                                                             ",
"                   @ fxxxxxxxxd @         @ rxxxxxxxxh XX                                                                                             ",
"                   + 3xxxxxxxxx5 @       X+ gxxxxxxxxe +                                                                                              ",
"                    @ sxxxxxxxxg @       @ rxxxxxxxxf @                                                                                               ",
"                    + ,zxxxxxxxxr @      + hxxxxxxxz2 +                                                                                               ",
"                     % ixxxxxxxxg XX    % rxxxxxxxxa @           X@@+@+@@+@+X                  X@@@+++@@@+X                                           ",
"                     X Xjxxxxxxxxr @   XX gxxxxxxxz= +         X%           @@               X%            %                                          ",
"                      % txxxxxxxxj +X  @ rxxxxxxxxu %        X@   4yafjkdpt2  +@            @  *5ydgjkhdy5  ++                                        ",
"                       + gxxxxxxxxt @  @ hxxxxxxxj X        XX &phxxxxxxxxxxgt  @         X+ ,akxxxxxxxxxxju  @                                       ",
"                       @ 4xxxxxxxxj X % rxxxxxxxxr @       +  uzxxxxxxxxxxxxxxg2 @       X  yzxxxxxxxxxxxxxxh< @                                      ",
"                        % sxxxxxxxxy @+ gxxxxxxxf @       +  dxxxxxxxxxxxxxxxxxze @      + axxxxxxxxxxxxxxxxxz1 @                                     ",
"                        X <zxxxxxxxjX+ exxxxxxxx2 +      + +gxxxxxxxxxxxxxxxxxxxxe %    @ yxxxxxxxxxxxxxxxxxxxk= +                                    ",
"                         % ixxxxxxxxu  gxxxxxxxa %      X+ fxxxxxxxxxxkxxxxxxxxxxz, +  X =zxxxxxxxxjdgxxxxxxxxxd @                                    ",
"                         X +jxxxxxxxk exxxxxxxz= X      @ ixxxxxxxxki5>4ikxxxxxxxxg XX @ ixxxxxxxxy   2kxxxxxxxx1 +                                   ",
"                          @ txxxxxxxxifxxxxxxxu @      + <zxxxxxxxg=     *gxxxxxxxxr @ % gxxxxxxxd %@% 4xxxxxxxxp %                                   ",
"                          X+ hxxxxxxxxxxxxxxxj  X      % axxxxxxxz, &@X@& ,zxxxxxxxg @XX hxxxxxxxa &  & gxxxxxxxf +                                   ",
"                           + 4xxxxxxxxxxxxxxxr @      + <zxxxxxxxi &     % pxxxxxxxz4 @ &jxxxxxxxh  & + 4uuuuyuut@ X                                  ",
"                            @ dxxxxxxxxxxxxxd @       + rxxxxxxxx< @@@@@@% exxxxxxxxu %X hxxxxxxxxd   +%                                              ",
"                            + <zxxxxxxxxxxxx3 @       @ dxxxxxxxh           jxxxxxxxd @% gxxxxxxxxxju&   &&%@@@@@                                     ",
"                             % pxxxxxxxxxxxs %        @ jxxxxxxxjiiiiiiiiiiizxxxxxxxk% @ yxxxxxxxxxxxzdy4   +@                                        ",
"                             X %kxxxxxxxxxz= X       X  jxxxxxxxxxxxxxxxxxxxxxxxxxxxx= X  jxxxxxxxxxxxxxzgp<  %                                       ",
"                              % txxxxxxxxxu %        X >kxxxxxxxxxxxxxxxxxxxxxxxxxxxx> X@ 3zxxxxxxxxxxxxxxxxf4 +X                                     ",
"                               + hxxxxxxxk X         + 1zxxxxxxxxxxxxxxxxxxxxxxxxxxxz> X @ 4jxxxxxxxxxxxxxxxxxp X                                     ",
"                               @ sxxxxxxxk +         + <kxxxxxxxxxxxxxxxxxxxxxxxxxxxx= X  @ &azxxxxxxxxxxxxxxxxs @                                    ",
"                               + dxxxxxxxk X         X &kxxxxxxxkjjjjjjjjjjjjjjjjjjkh* X   @  <tgzxxxxxxxxxxxxxxy %                                   ",
"                               + dxxxxxxxk X         XX jxxxxxxxu                         X X%   ,uakxxxxxxxxxxxk* X                                  ",
"                               @ sxxxxxxxk X          @ jxxxxxxxp &@@@@@@@@%         X  @%@@@@%&%   %4dxxxxxxxxxx5 +                                  ",
"                               + sxxxxxxxk XX         @ axxxxxxxj  X    X X 13333334, X          @%@   5lxxxxxxxxu @                                  ",
"                               + dxxxxxxxk +          + 4xxxxxxxx1 X     + <zxxxxxxxy @%pdasssas4 X X+& 5xxxxxxxxd @                                  ",
"                               @ sxxxxxxxk X          + ,kxxxxxxxd &@X X+& pxxxxxxxk= + zxxxxxxxg &   XX*zxxxxxxxs @                                  ",
"                               + dxxxxxxxk X           % pxxxxxxxxt   @X  rzxxxxxxxs @+ sxxxxxxxxr %%@% =zxxxxxxxu @                                  ",
"                               + dxxxxxxxk X           X *zxxxxxxxxp2@  2pxxxxxxxxz< +@ 5xxxxxxxxzt     dxxxxxxxx5 +                                  ",
"                               + sxxxxxxxk XX           @ yxxxxxxxxxxjhjzxxxxxxxxxu @ X+ gxxxxxxxxxhauajxxxxxxxxj% X                                  ",
"                               @ sxxxxxxxk X             @ pxxxxxxxxxxxxxxxxxxxxxd +   + 1zxxxxxxxxxxxxxxxxxxxxxt @                                   ",
"                               + dxxxxxxxk X             X@ axxxxxxxxxxxxxxxxxxxd  X    @ rzxxxxxxxxxxxxxxxxxxxa @                                    ",
"                               + sxxxxxxxj X              X+ yzxxxxxxxxxxxxxxxzu  +      @ 3jxxxxxxxxxxxxxxxxxu +X                                    ",
"                               + dxxxxxxxz +                @ ,akxxxxxxxxxxxks, +X        @  ujxxxxxxxxxxxxzd2 +X                                     ",
"                               X 5uyyyyyur                   @  >yphzxzxxgpy=  @           @   ridzzxxzzhay<  @                                       ",
"                                X         X                   X%    &*=*&    %X             X@+   @**==&    %+                                        ",
"                                 @%%%%%%%%                      X%@       @%+                 X@%+       @%+                                          ",
"                                                                   X XXX X                        X X XXX                                             ",
"                                                                                                                                                      ",
"                                                                                                                                                      ",
"                                                                                                                                                      ",
"                                                                                                                                                      ",
"                                                                                                                                                      ",
"                    .      .  .  .  .      .  .  .  .      .  .    ..   .  . .  .    .  .    ..   .    ..    .  .    ..                               ",
"                   ooooooooooooooooooooooooooooooooooooooooooooooooooooooooooooooooooooooooooooooooooooooooooooooooooooo                              ",
"                  o                                                                                                                                   ",
"                . O69977777777888878777777777787888777777777777777777777777777777778778777777777888788777877777777777787#                             ",
"                . .9wwwwwwwwwwwqwwwwwwwwwwwwwqwwwwwwwwwwwwwwwwwwwwwwwwwwwwwwwwwwwwwwqwwwwwwwwwwwwwwqwwwwqwwwwwwwwwwwwwwq$ .                           ",
"                . O7wqqqqqqqqqqqqqqqqqqqqqqqqqqqqqqqqqqqqqqqqqqqqqqqqqqqqqqqqqqqqqqqqqqqqqqqqqqqqqqqqqqqqqqqqqqqqqqqqqq0$ .                           ",
"                  .7wqqqqqqqqqqqqqqqqqqqqqqqqqqqqqqqqqqqqqqqqqqqqqqqqqqqqqqqqqqqqqqqqqqqqqqqqqqqqqqqqqqqqqqqqqqqqqqqqqq0$ .                           ",
"                   -::::;;;;;;;;;;;;;;;;;;;;;;;;;;;;;;;;;;;;;;;;;;;;;;;;;;;;;;;;;;;;;;;;;;;;;;;;;;;;;;;;;;;;;;;;;;;;;;:;.                             ",
"                                                                                                                                                      ",
"                   .....................................................................................................                              ",
"                                                                                                                                                      ",
"                                                                                                                                                      ",
"                                                                                                                                                      ",
"                                                                                                                                                      ",
"                                                                                                                                                      ",
"                                                                                                                                                      ",
"                                                                                                                                                      ",
"                                                                                                                                                      ",
"                                                                                                                                                      "
};
