/* XPM */
static char *nuke[] = {
/* columns rows colors chars-per-pixel */
"100 100 65 1 ",
"  c #000000",
". c #080600",
"X c #0D0A01",
"o c #110E01",
"O c #151101",
"+ c #1A1502",
"@ c #1F1903",
"# c #241D04",
"$ c #272005",
"% c #302606",
"& c #322807",
"* c #362B08",
"= c #3C3009",
"- c #42350A",
"; c #46380A",
": c #4B3C0B",
"> c #54430C",
", c #5E4B0E",
"< c #634F0E",
"1 c #65510F",
"2 c #6B560F",
"3 c #6D5710",
"4 c #6E5810",
"5 c #745C11",
"6 c #7C6312",
"7 c #806612",
"8 c #866B13",
"9 c #8A6E14",
"0 c #8F7214",
"q c #937515",
"w c #977916",
"e c #9B7B16",
"r c #A38217",
"t c #A68418",
"y c #AC8918",
"u c #AF8B19",
"i c #B28E19",
"p c #B7921A",
"a c #B8921A",
"s c #BC961B",
"d c #C19A1B",
"f c #C89F1C",
"g c #C8A01C",
"h c #CBA11D",
"j c #CBA21D",
"k c #CDA31D",
"l c #D0A61D",
"z c #D1A71E",
"x c #D3A81E",
"c c #D6AA1E",
"v c #D9AD1F",
"b c #DBAE1F",
"n c #DFB11F",
"m c #DFB21F",
"M c #E0B21F",
"N c #E1B31F",
"B c #E0B220",
"V c #E1B420",
"C c #E3B420",
"Z c #E3B520",
"A c #E4B520",
"S c #E8B921",
"D c #E9BA21",
"F c #EABA21",
"G c #ECBC21",
/* pixels */
"VVVVVMVVVMVMVMAVVBVAVBVBVVVBVBVVVBVVVBABVVVBABVBVAVBVBVAVBVBVVVBVBAVVBVBVBVBVBVBVBVBVVVVVBVBABVVVAVB",
"VVVVVVVVVVVVVVAMVAVBVBVBVBVAVVVBVAVBVVVVVBVVVVVAVBVBVAVBVBVBVBVAVVVBVVABVVVVABVVVVVAVBABVBVVVVVVVBVB",
"VnVVVMVnVVVVBAAVVBVVVVVAVVVBVBVVVBAVABVBVVABVVVBVAVVVBVVVVVAVVVBVBBAVBAVABVBVVVBVAVBVVVBVVABVAVBVAVB",
"VVVVVVVVVMVMBAVAVBVBVVVBVBABABVVVBVBVBVVVBVBVBVBVBVVVBVBVVVBVBABABBBVBVBVBVAVVVVVBVBVBVVVBVVVBVBVBVV",
"VVVVVnVVVBVBABABVBAVABABVBVBVVVBVVVBVVVBVBVAVBVAVBVBABVBVAVBVVVVBBBBAVAVVBVBVBVBVBVAVBABVBVVVBVAVBVB",
"VVVVVVVnVBVABBBBVVVBVBBBVVVBABVBVBVVVBVAVVVBVBVBVBVBVVVAVBVAVBABABABAAAAVVVAVVABVBVBVBVVVAVBVBVBABVV",
"VVVnVnVVVBBBBBABVBVVVBABVBAVVVVAVBVBVVVBVBVAVVVBVVVAVVVBVBVBVVVBBBBABBVnVVVBVBAVVBVVVBVBVBVAVBVVVVVV",
"VnVVVVVVVVBABABBABVBVBBBVVVBVBVBVAABVVVBVBVBVVVAVBVBVBVVVBVBVBVVABBBBVVVVBVVVBVBVVVVVBVAVBVBVVVVVBVB",
"VVVBABVVVBVVVBABAVAAVBABVVVVVVVmVBABBBABABABVBVBABVVVVVBVVVBVAVBVVVVVMVVVVVVVVVmVAVBVBVAVBVVVBVBABVV",
"VVVVVBVBVAVBVVVVAnVAABBBVVVVVVVVVBVVBABBBBVVVBVVVBVBVBVAVVVVVBABVVVnVAVnVVVmVVVVVBABVAVBVBVVABVVVBVB",
"VBVBVBVBVBAVABVBVVVVBBBBVbVVVmVVABVBBBBAABVBVVABVBVVVVVBVAVBVVVBVMVMVVVAnVVVVmVVVVVBVBVVVBVBVVABVBVB",
"VAABVVVAVBVBVBVVAnVVBABAVVbVVVVVVVVVBABVVBVVVBVVVVVBABVBVBVBVBVVVVVVnVVnVVVmVVVmVBVVVBVBVBVAVBVVVVVA",
"VBVBVVVBVVVBVVVBVnAnVVVVMVVMVVVVBVVVVVVnVBVBVBVVVAVBVBVAVBVAVBABVMVMVVVVnVVnVVmVVVVBABVBVBVBVBVBVAVB",
"VBVVVBVVVBVVVBVAVAVVVMVVVMMGbbVVBVVVVVVVVVVVVAVBVBVBVVVBVBVBVVVVVVVVVVbbGnnVVVVVABVBVVVAVVVAVVVBVBVB",
"ABVBVVABVBVBVVVBVnVVVMVVMVVi qGVVVVVVVVVVAVBVBAVVAVVVBVAVVVVABVBVVVVMGq iVAnmVVVBBVAVVVBVAVBVBAVVAVV",
"VBVAVBVBVAABVVVBVVVMVVVVVb4  okmVVVVVVVVVBVBVBVBVBVVVBVBVVVBVBVVbVVVVxo  4bGnVVVBVVBVBVVVBVBVVVBVBVV",
"VBVBVVVBVVVVVnVAVAVVVVnAa% O@ 6GnVVVVbVVVVABVBVVVBVBVBVBVBVBVVVVVVVMV5 #+ %iGnnVBABAAVVVVVVBVBABVBVB",
"VVVAVBABVVVnVAAABAVVnVAe  +  o aAnVVVVVVVBVVVVVBVBVVABVVVVVAVBABVVnVd O  +  eGmMABBBBnVVVBVABBBBVBVB",
"VVVBVAVBVnVnVVVABABBVV8 oo   + >AAVVVVVVVBVBVBVBABVBVVVBVAVBVBBVVVVM> +   oo 6VVVVBBBBVVVVVBVBABVVVA",
"VBVVVBVVVVVVVnVnVBnVV3 #X     + yAbVVVVVVVABVVVBVBVAVVVVVBVBVVBVVnGt +     X# 1MVVABBAVVABVBVABBVBVB",
"ABVAVBVVVVVVVVVVVVVV< #       o *BVVVVVVVBABBABAVBVBVBVBVVVVBVBBMMb* o       + 1VVVVVVVVVBVBABBBABVV",
"VBVBVBVVVVVnVVVVVVV3 #         + 9AnVVVVVVVVBBBBVVVAVVABVVVVAVBAMS9 +         @ 4BVVVVVVBVVVBBBAVVVB",
"VBVVVBVBVnVVVVVVVV6 @             xVVVBVABVBBABBVVVBVBAVVVVVVVVVGk             @ 7AVVVVVABVBABAVVBVB",
"VVVBVBVAVVVnVVVVGe +            + 4AVABVVBVVBBABVBVVVBVBVVVVVVVVV5 +            + wGVVVBBBVABBAAVVVA",
"VVVVVBVVVBABVVbVa oX             + aGVVVnVVVVVBAAVVMVVVVVVABABbAa O             XX aGVVVVVMAVnAVVVVB",
"VBABVAVBVVVVVVVb# o              o :VVVVVVVVVnBBAAAVVMVVVVAnBBAA: O              o %bVbVVVAnVVAnVBAB",
"VVVBVBVABVVBVVG3 +                + eAnVVVVVVnAAVVVMVMVbVVVVVVGe +                + 3VVVMVVVVAVAVAVB",
"VBVVVBVBAVBVVAy +                 o #xVVVVVVVVABBAVVVVVVbVVVVVx# X                 + yGbVVMVVnVnVBVV",
"VBVBVVVVBVVVVb% o                  + 5GVVVVVVVBABBBAVVVVVVVVVA5 +                  o *xVVVVVVVVVVBVB",
"ABVBVVVBVVVAG9 +                    + iGVVVVBBVBABBBVVVMVVVbVd +                    + 9GVAMVMnVVVBVB",
"VVVAVABVBBVAk  X                    + :VAVBAVBBBBABAVMbVVVVVV: o                    X  kAAMVVVVnVVVA",
"VBVBVBVBAVVV6 +                      + eAVABVVABBBBBVVVVVVVGe #                      + 7VMVMVVVVVVVB",
"VnVVVVVVVVGk                         X OkSnVVVnVVnVVVMVVVMVxo .                        .kVMVVVVnVVVB",
"VVVnVnVVVmS0 +                        + 5GnVVVVVVVVVVVVMVMG5 +                        + qGMVVVVVVBVA",
"VVVVVVVnmVb* O                         O pGMVnVVVnVnVVVVMAa +                         o *bVMVVVnVVVB",
"VVVVnVVVmGi +                          o :nVVVVVVVVVVMVVVM: o                          O iGMVnVVABVB",
"VVVVVVnVVG5 O                           + wGVVVVnVVnVVAMGq +                           + 5GMVVVMVVVB",
"VnVnVVVMVx$ X                           o +kVmVVnVVVVVAAkO X                           X #bVMVVVVBVV",
"VMVVVVMnSi +                             # 5VMVVVVVVnMMV5 #                             + aVnVVVBVVB",
"VVVMVVVMS9 +                           .o 5xVMVVMnnVVVVVx3 +.                           + 9GnVVVABAB",
"VVVVVMVAn> O                           O 0SVVMnmnGSGVnMnSS0 o                           o >VVVVVBBVB",
"VVVMVVMAx# X                          + qGMMVmGbsiidnGVnVVSq +                          X #xVVVVVVAB",
"VVVVVVMAa X.                         O 3GMMMGb9*    *9bGVVVG3 +                         .o aVVVVBBVV",
"VMVMVVVGr +                         X #xmnnGa$  O++o  $aVVnVx+ o                         + rGmVVABVB",
"AVVAVVMG9 +                         + qGVMGp  +X    o+  pGnnGq +                         + 0GmVVVVVB",
"AAAVVVVV5 +                        . XkVMVx$ +        + $xVMSkX                          + 5VVVVBBVA",
"BVVMMAAA, O                        o 1GnMS9 #          + 9GnMV1 +                        O ,VVVVABVB",
"BBVVVMVV> +XXXXXXXXXXXXXXX.XX .    # qSVVn* X          o *bVMGq +  .  . .X XXXXXXXXXXXXXX+ >VVVVVBVV",
"ABABVBAV*                          O iGbGd o            o sMMGy +.                         *VABVBBVB",
"BBBBVVAV<%-*==*****%%***%####+OoX  X pSbGi +            O pGMGp      Xoo+####%*********--;*<VVVVBAVA",
"BBABVBABVVbVbbVbbbbbbbbbbxxxxxkxxkxkkbVMAi +            O pGmVnkxfxfkkxkkxbbnbbbbxbbnbbbbVnbVVBABVVB",
"BABBVBBVVVVVVVVVVVVVVVVVmGVVMSMVGMVGVVVMGd o            o dMmmnSVABVVGVGVVVmVVMVVVAAAVAAVVVVVVVBAVVB",
"ABVBVVBVVVVVVVVVVVVVVVVVVMMMMMMMVMMnMVVnVb* .          X *nVVVVVVnBVVVVVVVVVMMnVVVVVABBBVVVVBVBABVVB",
"BBVBABVBBAVVVVVVVVVVVVVVVVVVVVVVVVVVVVVVMG9 #          @ 9SMVVVVVVVVVVVVVVVVVVVVVVVVBAABVVVVVVVBVBVB",
"ABAVVVVABAVnVVVVVVVVVVVBVVVVVVVVVnVVVVVVnGx# +        + #bVMVnVVVVVVVVVVVVVVVMVVVVVVVVVVVnVBVBVVVVVA",
"VBVBVBVBBBVVVnVVVVVVVVABVVVVVVVVVVVVVVVVMMGa  +o    o@  pGnVVVVVVVVVVVVBVVVVVVVVVVVVVnVVVVVVABVVVBVB",
"VVABABVABABBVABBVBVBABVVBABABAABVVVVVVVVVVbGd#  oO+O  %pSMVVnVnVVBVBVBVBVBVAVVVBVnABBBVBVBVVVBVBABVV",
"VBVVVBVBBBABVBVVVBVVVVVVBBBBBBBBVVVVVnVnVmVVVx9*    *9kGMVVVVVVVABVVVVVAVBVBVBVAAVBBBAABVAVBABVBVVVB",
"VBVVVBVBBBBBABVBVVABVAVBVBBBBAVAVVVnVVVVVVmVVVGndiisbGVVVVnnVVVnVVVBVAVBVVVVVBVBVVBBVVVBVBVVVVVAVBVB",
"VVVBVVVVABABVBVAVBVVVBVBVVABBBAAVnVVVnVVmVVVVnnVSGSGVmbVVVVVVMVVVVVBVBVBVVVBABVVBVBAVBVVVVVBVBVBVVVA",
"VBABVBVBVVABVVVBVBVVVBVAVBABVMVVVVVMVnVVVVVmGVVmmbmbmmVSMVVVMVMVVBVAVVVBVAVBVBVVVBVAVBABVBAVVAVVVVVB",
"VBVVABVVVBVVVBVVVAVBVBVBVBVVVVAAVVVVVVVMVmV39kSGGSSSGGx95AAAVVVMVAVBVBVAVBVBVAVBVBVBVBVVVVVBVBVVVBAB",
"VBVBVVVBVBVBVVVVVBVAVBVVVBVBVVVAVMVMVMMVVGy  o1qyppiq1o  iVMVVVVBBVVVVVBVAVBVBVAVBVVVBVBVBVVVBVBVAVB",
"VBVAVVVBVAVBVBABVBVBVVVVVBVAVMVMVVVVVVVVVm* #          # -MAVMVVVBVBABVBVBVVVBVBVVVVVBVAABVBVBVBVBVV",
"VVVBVAVBVBVBVVVBVAVBVBVAVBVBAVVBVnVMVVAMGe + .++Ooo++O  + eGVVVVVVVnVVVnVBVVVBVBVVVBVBVVVBVBVBABVBVA",
"VVVVVBABABVVVVVVVBABVVVBABVVVBVVVVVVVnAAx+ .      X     X +xVMVVVnVVVVVVVAVBABVBVVVAVVVVVAABVVVVVVVB",
"VAVBVVVBVVABVAVBVVVBVBVAVVVVVVVBVVVVVVMV6 +              + 7GMVVVVVVVMVMVBVVVVVAVVVBVBVBVBVVABVBVBVA",
"VBVBVBVVVBVBVBVBVBVVVBVBVBVBVBABVnVVVMVf o                X sGMVnVVnVVVVVVVBVBVBVBVBABVAVBVBVVVVVBVB",
"VBVAVBABVBVVABVAVVVBABVVVAVBVAVBVVVnVnV< +                + 1VVVMVVVVVVMVBAVVAVVVBVVVVVBVVVBVVVBVBVV",
"VBVBVVVVVAVBVBVBABVBVVVVVBVVVBVBVnVVMGi +                  + iGbAVMVVMVVVVVBVBVVVAVBABVBVVVVVBVVVVVV",
"VVVVABVBVBVVVBVBVVVVVAVBVBVBVAVVVVVVVM; o                  o :mVVMVVVMVVVBVVVBVBVBAVVVVVVBVBVVVBVBVB",
"VVVBVBVVVVVBVVVVVBVBVBVBABVBVBVVVVVMGe +                    + rGnAMVVVVMABVBVBVBVBVBVBVBVAABVBABABVA",
"VAVBVVVAVBVBVBVBABABABAVVBVBVVBVVVMmb# o                    o $xAVVnVVVVVBABVBVAVAVBVVABVBVBAVVBVBVB",
"VBVBVVVBVBVVABVVBBBBBBBVVVVAVBABVVMG9 +                      + 9GnAVVnAVVBBBVAVBVBVAVBVVVBVBVBVVVBVV",
"VAVBVBVAABVBVVVBVBABBBVnVVVBABVVVMGf .                        . kAnAVVnVBBABVBVVVBVBVBVVVVVAVVVVVVAB",
"VBVVVBVBVBVAVVVVVABBBAVVVBVVBVVBVnm3 +                        + 4AnVVVVVBABBVBVBVBVBVVVBVBVBVBABVBVV",
"VBVBABVBVBVBVBVBVBVVVVVVVnVVVBVVVGp O                          O dGmVVVnABVBABVBVVVBVBAVVAVVVVVBVBVV",
"ABVVVVVAVVVAVVABVBVVVVVVVVVVVVBVVn> O                          O >VnVVVVBBVBVVVAVVVAVVVBVBVVVBABVAVB",
"VVVVVVVBVVVBVBAVVBVBVbVVVVVVVVAVSr +                            # rGVVVnABVAVVVBVVVBVBVVVBVBVAVBVBVA",
"VBVBVBVBVBVVVBVBVBVAVVVVVVVVVVAAb* o                            . *bVVVVBBBBVBVVVBVBABVBVBVBVBVVVBVB",
"ABVVVVVBVVVBVVABVVVBVBVVVBVVVVVA0 +                              + qGVVVBVABVAVVVAVBVBVAVBVBAVVBVBVV",
"VBVBVBVAVBVAVBVVVBVAVVVBVAVVVVAx  .                              .  xVVVVVBBVBVVVBABVVVBABVVVBVVVVVB",
"VBVVVVVBVBVBVBVBVVVBVBVVVBABVVA7 +                                + 5VVVVVBAVBVBVVVBVBVAVVVVVVVBVBVV",
"VVVBABVBABVVVVABVBABABVVVBBVVAd O                                 .o dVVBVVBVBVBVBVVVBVBVBVBVBABABVV",
"VAVBVBVAVVVBVBVVVBVBVVVBVVVVVV< O                                  + <AVAVVVVBVAVVVBABVVVAVBVAVBVBVB",
"VBVBVVVBVBVAVVVBVVVBABVBbVVVVy #                                    # yAVVVVVAVBABVBVVVVVBVVVBVBABVV",
"VAVVVBVAVVVBVBVVVBAVVVVAVVVVVe   +o                              o+   wVVVVVVBVVVVVVVAVBVBVBVAVVVVAB",
"VBVVVBVBVVVBABVVVVVBVBVBVVVVVGk6   OOX                        X+O   5xAVVVVVVBVBVBVBVBVBABVBVBVVVBVB",
"VBVBAVVBVBVVVBVBABVVVAVBVVVVVMVGk0*   ++oX.              .Xo+O   *qkGVVVVVBBABVBVBVAVAVBVBVBVVVBVBVV",
"VBVBVBVVVAVBABVBVVVBVBVVVVVbMVVMVGMi5#    o++++ooXXooO++#o    #5ibGVmVmVBVABVVVAVBVBVBVAVVVAVBABVAVB",
"VVVAVVVVVBVVVVVAVBVVVBVBVBVVVVVVnnVGGxi9>#                #>9ybVGVVbVbVVVBVAVVVBVBVVVBVBVVVBVAVBVBVV",
"VBVBVBABVVVBVBVBVVVBABVBVVVVVMVnVVVnVVGSMxar951>-==->,59eaxVSGVVmVVVVVVmVBVBVBVVVVVVVBVBVBVVVBVVVVVB",
"VAVVVVVBVBAVVAVVVVVBVBVAABABVVVMVVVVVVnnVVGGVGVAbbbVVVGGAAAVVVVVVVVVVVVVVBVVVVVBVAVBVBVVABVAVBVVVBAV",
"VBVVVBABVVVBVBVVVBABABVBBBBBVnVAVnVnVVVVVVnnMMVVVVVVVVVmBnVVVVVVnVVnVVVbVVVVVBVAVBABVAVBVBVBVBVVVVVB",
"VBVBVAVBVBVVVBVBVAVBVBABBBBAAAVnVVVnVnVVVVVVVVVVVVbVVmVVVVVVVVVVVVVVVVVVVBVVVBVBVVVBVBVVVBVVVBVBVBVV",
"VBVBVBVVABVBVBVBVBVVBBBBBABAVVAAVVVVVVVnVVVVVVVMVVVVVVVVVVVVVVVBAnVVVVVVABVBABVVVBVVVVVBVVVBVBVAABVB",
"VVVBVBVVVBVBVVVBVBVVVVVBAVVBVBVAVBABVBAVVBVBVBVBVBAVVBVBVBVVVBAVVnVVBABABBBABVVBVVVAVBVBAVVBVBVAVBVV",
"VBVAVAVBABVBVVVAVAVBABVBVBVAVVVBVBVVVVVBVAABVVVVVVVBVVABVVVVVVVBVVVVBABBABBBVBVVVVVBVBVBVBVVVAVBVBVV",
"VVVBVBVVVVVAVVVBVBVAVVVVVVVBVBVAABVBVBVVVBVVABVBVVVVVBAVVBVBVBVVVAVnABAABABAVVVBVBVAVVVAVVVVVBVVVBVB",
"VBABVVVBVBVBVBVBVBVBVBVBVVVBVBVBVVVVVBVBVBVVVBVAVBVBVBVBVBVAABVBVnVAVAAnBBBBVBABVBVBVBVBVBABVBVBVBVA"
};
