/* XPM */
static char *de_dust2_material_2[] = {
/* columns rows colors chars-per-pixel */
"64 64 215 2 ",
"   c #010000",
".  c #0A0501",
"X  c #030907",
"o  c #060804",
"O  c #0B0A06",
"+  c #0D0D09",
"@  c #110C09",
"#  c #140F0A",
"$  c #11110D",
"%  c #15110C",
"&  c #14140E",
"*  c #1C120C",
"=  c #1B160F",
"-  c #141713",
";  c #191813",
":  c #1E1812",
">  c #1D1C15",
",  c #171C19",
"<  c #1A1F19",
"1  c #20150E",
"2  c #2F190F",
"3  c #211810",
"4  c #221C13",
"5  c #271C13",
"6  c #2B1B12",
"7  c #2E1F14",
"8  c #331C12",
"9  c #292016",
"0  c #2C2116",
"q  c #272018",
"w  c #26261D",
"e  c #362015",
"r  c #322418",
"t  c #33261A",
"y  c #3A2418",
"u  c #3B2719",
"i  c #32281D",
"p  c #362A1E",
"a  c #3A2A1E",
"s  c #362220",
"d  c #312B20",
"f  c #352F22",
"g  c #322D26",
"h  c #3C2F20",
"j  c #3A3024",
"k  c #3B362A",
"l  c #3E3C30",
"z  c #432316",
"x  c #412818",
"c  c #47291A",
"v  c #432C1D",
"b  c #412E1F",
"n  c #502E1C",
"m  c #4C301D",
"M  c #50321E",
"N  c #56321D",
"B  c #412E29",
"V  c #463020",
"C  c #453323",
"Z  c #403426",
"A  c #4F3421",
"S  c #4F3525",
"D  c #4A362E",
"F  c #45392A",
"G  c #43382F",
"H  c #4B3A28",
"J  c #4E3E2D",
"K  c #573822",
"L  c #523924",
"P  c #553826",
"I  c #583C26",
"U  c #5F3C26",
"Y  c #563D2B",
"T  c #4F3F37",
"R  c #493F3A",
"E  c #603621",
"W  c #663D25",
"Q  c #6F3D23",
"!  c #52422F",
"~  c #594029",
"^  c #5E412B",
"/  c #494030",
"(  c #564734",
")  c #5B4337",
"_  c #5E4A33",
"`  c #514D3C",
"'  c #5C4A39",
"]  c #674127",
"[  c #604128",
"{  c #6C472A",
"}  c #6E432D",
"|  c #64482B",
" . c #69492E",
".. c #744529",
"X. c #77432E",
"o. c #7C472B",
"O. c #704A2C",
"+. c #774B2F",
"@. c #664D32",
"#. c #614D36",
"$. c #6C4D30",
"%. c #684C39",
"&. c #714A33",
"*. c #6A5035",
"=. c #60503A",
"-. c #68513B",
";. c #6F593C",
":. c #735535",
">. c #795030",
",. c #785637",
"<. c #7F5936",
"1. c #74533B",
"2. c #7E5339",
"3. c #755A3E",
"4. c #7B5C3B",
"5. c #574640",
"6. c #5E4B43",
"7. c #595042",
"8. c #645443",
"9. c #6C5846",
"0. c #6B5B4D",
"q. c #705B43",
"w. c #785E42",
"e. c #7F5E43",
"r. c #725F4D",
"t. c #625555",
"y. c #776047",
"u. c #7D6447",
"i. c #786751",
"p. c #74685F",
"a. c #854E2C",
"s. c #8D502E",
"d. c #985128",
"f. c #815233",
"g. c #875A35",
"h. c #86563A",
"j. c #81593B",
"k. c #815F3B",
"l. c #8D5F3C",
"z. c #925C36",
"x. c #9C5D36",
"c. c #83643F",
"v. c #AD6637",
"b. c #A06A3D",
"n. c #B66D3E",
"m. c #B2733C",
"M. c #825E40",
"N. c #856644",
"B. c #896142",
"V. c #876349",
"C. c #81684B",
"Z. c #896B49",
"A. c #896D4F",
"S. c #936440",
"D. c #926844",
"F. c #916D4B",
"G. c #997048",
"H. c #9F724B",
"J. c #847157",
"K. c #8C7256",
"L. c #947051",
"P. c #917750",
"I. c #9C7853",
"U. c #947A59",
"Y. c #977E5F",
"T. c #A06D45",
"R. c #AD7645",
"E. c #AC7B4F",
"W. c #A47750",
"Q. c #887969",
"!. c #BF8248",
"~. c #AA8057",
"^. c #A1815D",
"/. c #AD865D",
"(. c #B48052",
"). c #B68956",
"_. c #BE8F59",
"`. c #988369",
"'. c #AD8C64",
"]. c #A48B6B",
"[. c #B58B61",
"{. c #B89161",
"}. c #BF9160",
"|. c #B1906B",
" X c #BB9369",
".X c #B8986C",
"XX c #A2917B",
"oX c #AF9C7E",
"OX c #B89B75",
"+X c #BEA17A",
"@X c #C88A53",
"#X c #CD965A",
"$X c #C29861",
"%X c #CA9A64",
"&X c #C29969",
"*X c #C19F6F",
"=X c #C99F6E",
"-X c #C8A36C",
";X c #DAA262",
":X c #D3A16B",
">X c #CDA872",
",X c #CCA976",
"<X c #C7A478",
"1X c #D5A772",
"2X c #D4AC78",
"3X c #D9B27F",
"4X c #E7B670",
"5X c #BDA689",
"6X c #BAAB95",
"7X c #C7AF83",
"8X c #D3B88E",
"9X c #D2BA98",
"0X c #E3BC85",
"qX c #E1CAA7",
"wX c #F6EACB",
/* pixels */
"! T Y ) C ^ 3.w.3.A.%.u.3.r.-.$.w.0.9.A.p.Z.p.0.;.) 9.3.y.0.0.u.i.u.6.8.r.t.r.9.Q.i.0.p.-.' 0.` r.p.6.6.t.7.8.` j D H k / / p.p.",
"k.^ ! ) C J A 3.3.w.;.w. .V.V.^ w.N.w.w.3.K.N.A.y.c.Z.u.w.V.U.Z.i.p.r.N.c ( A.Z.U.K.`.^.5XQ.`.i.Z.Q.oXXX5XXX`.].qX9X6X6X9XOX5XQ.",
"w 8 c W M.3.$.6.Z Y 9./ D k 7./ d d k 7.` l k w q < & : , w - - > d w # < +   X   X , , + , , , w w 5 w , w ; ; < q `.y.9.J j %.",
"h L L B.Z.Y N.Z w.' w.%.` =.-._ ` ( 0.w.q.*.k j y.' h b ^ ( Y _ w.:.#.:.W.N.Y 3.V.3._ Z D d w Z ( / p g T G T l i k p.9.Q.K.6.( ",
"j &.k.|.W.Y L.OX^.OX+XOX'.).L.].E.F.c.P.k.k.] | ( u.&.[ V.XX^ W.I.F.:.3.U.w.%.Z.i.L.N.M.V.M.3.u.L.i.Y %.A.3.w.A ` i.i.i.p.J.Q.u.",
"( } X.[.].k.I.|.7X7X}.1X.X&X.X1X8X,XR.R.W.T.c.N.4.H.T.L.9X`.W S.l.&.B.Z.E.OXW.].W.|.E.Y.A.'.E.S.c.Z.M.N.{ &.U.%.%.J l g 5 ' w.L.",
"' W N.E.'.W.i.W.E.'.E.Z.E.I.f.g.~.E.b.W.R.T.R.z.f.b.W.U.5X).c.k.U.[..X.X}.|.$X,X>X&X7XqXqX<X-XOX_.$XE.{.T.T.T.S.A A ) y.C S.W.A.",
"3.X.G.7XOXS.w.Y..XE.#XE.-X$XT.b.E.#XD.B.@X=X&X(.E.1X9XU.<X'.w.].qX5X8X|.`.'.2X-XE.E.R._._.].'.~.S.(.H.z.v.x.R.W.A %.3.A.Y S.W.r.",
"Z.X.b.k.|.H._ J.A.%.*.A.8.' y.A.3.9.;.J.].u.*.3.3.u.U.6.k ! D i.l . 5 -.8.8.Z.3.L _ _ y.y.y.L.i.Y w.;.Y #.J _ u.u.T V.B.~.^.(.w.",
"S.h.E.c.~.D.5 &       O   O       . , . # + # O     & & &   & .   +   X O O O O O & O - > O &   + . &             . w.~.~..X$XF.",
"A.a.R.-.{.W.p a w + t t a t 5 > 5 L _ #.#.3.g.c y  .W [ I I t 8 8 r t C H 8 u 9 8 [ %.9.! c [ 8 p a #.a t t & + 2 p %.V.k._.OX'.",
"%.a.R.-.'.H.p # # = p ! 8.( C 5 t { :.Z.N.<.&. .c W.O.+.f.$.y P t 5 5 Y Y u u a c :.i.U.y.L L 5 C L 9.Y j 5 5 # L k.3.E.[.[.R.l.",
"-.g._.w.OX.Xa . # , h k 0.C C ; 5 *.k.Z.g.c.g.| c 2.] ~ k.W c c 5 = = M Y Y H a m ;.;.;.^ C c = J c 3.a 5 5 5 = A 2.M.).E.@Xd.l.",
"L.z.R.N.|.(.a : 5 5 Z > ( h 9 1 # :.N.w.I.I.c.M H g.O.W +.W $.c = & : a ! m m 9 c y.-._ _ a n = A J #.H D 7 = & c N.[.%XR.x.m.h.",
"I.s.).l.}.-Xr r w . a %.' C d t > H | N.A.G.| m 8 +.a.W g.+.N O.= # ; y ~ L a r p I ! 8.9.L L 5 J L Y h V 5 # - c w.[.9XwX#XT.c ",
"L.s.E.B.}.1X5 r t > a J -.t 8 = h ^ [ P.c.N.X.I a +.z.O.%.{ I  .5 @ 8 r c ! u 8 w #.! y.*.L a & D c %.( h 7 # # V B.w.x.OX).'.h ",
"V.s.~.|.,X}.9 9 9 - = r 3.r 9 & M D.N.D.D.c.O.] C g.a.O.g. .W f.5 @ 5 t C c c 9 j *.( ! ^ Y t 9 C x ~  .L c = @ 8 N.c.d.d.s.<X|.",
"L.z.}.|.}.{.7 8 8 & @ x U.L r < t I *.<.H.O.<.2.c :.Q +.4.a.P W 5 @ 5 a L L I r p *.| *.#.L b : J H y.-.Y r = & 2 k.).@Xm.#Xb.Z.",
"E.2.W.<X_.OX9 t a = 9 ( A.c a q a 3.H.u.c.a.c.U 9 c.P { g.l.n c q & 5 p L a c r p  .8.3.*.m  .9 ) O.A._ ^ : : & a k.,Xm._.#XR.2.",
"2.E.#X'.$X#Xt v r & 1 _ L a c w 2 H.H.^.w.f.c.~ 9 B.X.g.{ 4.A c 5 = q A A b m u a =.w.9.( ;.#.q !  .N._ _ 5 8 & c  .&X@X$X@Xh.{ ",
"<.R.W.{._.).7 7 a = = _ a a t 5 a g.A.U.w.l.w.<.9 C  .f.W :.W x = = y r a c ^ r C ;.;.i.J.u.] i _ I Z._ N.C u 5 c k.E.m.!.l.#.Y ",
"4.m.H.-X~.$Xf u a O 5 H L a a 5 9 O.`.5Xu.<.{ g.9 c I O.[ W { u & & 1 5 a a C 9 t  .#.8.y.*.c q 3.] `.3.;.! 8 - t l.<X#X%X5XT X ",
"I.z.~.8X.X}.t u t = 2 ) :.A a ; r >.u.u.K.c.<.g.; 1 c M Y L m c & & 5 c C A [ c 9 | #.*.*. .a w *.u N.~ _ Y 8 X c l.F.;XW.V.w.[ ",
"H.T.'.9X>X#X7 u t & 9 ' 3.m Y 5 p g.J.`.A.c.g.:.5 c c W N P W X.= 5 w c L A ] a 9 3.y.8.:.~ c p A.~ K.^ ;.! c O y Q F.;X@X7X|.U.",
" .(.8X9X8XE.c r 8 # 5 _ $.t ^ 2 > -.K.U.<.<.{ | 5 M W c c P Y W = & 5 r L a I c 9 *.*.r.i.M W C Z.] 9.3.3.%.5 X c A.).#X&X8X[.|.",
"3.%X7X7X8XT.h w r 5 t ( #.u V ; 5 ^.XX`.`. . . .5 M I I L A c c # = > c [ a D L 9 3.! J *.m L J y.*.^.9.#.C r X n w..XR.@X9X+XR.",
"f.&XqXqX7XR.t 2 d 5 t %.-.r t # h b.].7X7Xc.l.f.9 c O.{ m #.A M 5 @ 5 r ] u L a 5 ;.! 9 ( [ L C P.&.u.#.%.Y 8 + c I E.;X}.,X(.~.",
"h..X7X6X-XE.d h d & 5 =._ r a = H '..XqX7Xc.g.{ a M ] n W A ; x 1 @ 5 r L u ~ a q | D > _ _ ^ A 9.] ;.3.V.Y 5 # t $.*X@X,X<X@X'.",
"k.qX7XY.OX#X5 t a > 5 u.( = C = > :.J.7X`.:.{ I H I W L Q O p L # # 4 u ! m H b 8 | H 9 !  .m p #.Z.J. .;.Y 5   y m >X#X$X1X-X~.",
"T.6X5X[.+X(.h 5 H = w _ 5 5 5 . H ;.u..XK.c.O.&.c m O.~ c @ A M @ : : u ^ b m m : *.! & !  .a 5 $.N.XXoXY ^ t   x :.0X1X8Xv.v.H.",
"z.XXI.[.).R.w w a & 3 5 J a 5 # 5 ! -.K.N._ { I a L  .L M O 9 j # : # h ~ H b p : | M q  .u.$.p Q.Q.`.oXw.M.c   c #.;X|.OXI.m f.",
"X.7X'.I.#X&X5 t 9 > d h Y a = & & M J.y.3.] W ] L I X.{ I 8 t c # O : t H D  .b 9 *.H 9 ! O.#.9 D 8.U.9.u.N.c # u T.-XOXOX<XN.#.",
"k.W.OXOX-X-X4 8 h X j ` _ 9 c = 5 L J.;.w.N.g.| L m ~ { { M c ] O # 5 p H h M a 9 *.M h H E c & ! u.*.*./.A.m = 2 c.#XR.@X0X9X*.",
"T.).F.'.>X>X7 * M & q   *.h u O =  .J.OXA.-.| { H ] O.X.<.H ] c : # 7 c H m L c 9 *.H H L I p & c Z.y.`.^.P.m X 1 I.1X@X{.-X8X6X",
"S.E.'.,X-X>X5 = C p ! i C ! r & > $. .<.U.S.g.[ L M  .c.:.O.<.! 4 # : p ~ h m a q _ m H ] L c & q 9.y.U.K.L.m O c g.:X{.-X-XW.'.",
"T.E.5X{.OX-X* * a p ! Q.`.j 9 & 5 A m *.K.U.c.3.a M ] :. .<.4.f.4 O 5 u ~ ~ ~ a : @.a H ^ c L : 9 ^ ;.3.| *.c + 8  .1X:X$X-X[.U.",
"S.W.|.<XE.,X4 * r 9 : Q.K.q 5 9 p W L w.`.Z.l.D.] t  .g. .~ $.<.# O : j  . .b u 5 ~ b -.m ~ ~ & p 3.y.y.:. .c & c H.0X-X8X:X).^.",
"I.'.OX<X).,X4 : c & 9 p b h a 5 & ! ;.Y P. .*.O.H c g.3.Z.{ ~ 3.* = # c *.! b b q H H _ M M ~ : p 3.*.-.J  .I & 8 N.:X2X#X&X>X^.",
"L.$X[..X@X9X= = a & : f U.j p p h l.H.( U.*.4. .m u <.c.3.H.g.~ 5 # & a ~ ~ m u 5 b ) H k ^ N & p *.3.;.| *.m & 8 O.qX2X#X}.).I.",
"S.~.OXE.'.4X> > c > + J #.H 5 > 5 { { `.^.U.c.:.j c ~ c.9.<. . .: * & h :. .m a k 9 c.7.! H a > p 3.;.<.! ^ h O c  .6X2X+X!.b.K.",
"c.R.~.'.}..X> ; t # 9 _ ;.H c i 5 } <.J.Z. .*.! h t ] g.*.L  .;.& * @ b  .J L c j D ! ( D _ m : J ' ' *.Y ^ { O 8 3.R.<X,X#XW.N.",
"h.W.].|.,X,X= = h # & 9 -.| *.k & 3.;.'.'.Y <.^ p c  .<.3.L ^ <.* # 5 ~ *.L L m = p j _ ^ H a 5 ! ^ w.y.;.! L & 8 +.@X1X9X@X}.L.",
"W.E.].].$XOX* * p # : j 8.a u O 5 l.3.9X9.*.c.^ a r m  . .C b ~ 5 : * m %.c L c 5 H j 3. .! H ; D L ) 3.J J c = = Q v.1X>X{..XN.",
"Z.E.5X'.$X@X= 1 t # : 9 p 9 c & ; M #.Z.Y  .#.^ b u H ~ _  .]  .2 # # h :.! ] a = 9 _ i.~ ^ a & ! ! ;.L.! a 5 # t  .T.E..X1X.XN.",
"O.W.qX|.[.=X5 5 r # # a a t 9 & 9 3.^.| -.^  . .A u c ~ ! ~ W ] : O # ^ #.H N b 5 r 3.;.a J D O ! M #.) H 5 5 & 8 W k.).%X#X(.u.",
"S.R.J.B.z.-X8 1 9 # : 9 ~ H 9 : 5 L i.! ! H I ^ r u ! m ! M W O.# : b ]  .I L c = u 3.A.a 5 w = f H L J J p 9 & 5 W X.R.(.@XR.'.",
"W.R.9X.XR..X1 = r # q 9 b h : # O H u._ ~ H ]  .p 9 m H  .<.c W 9 4 7 L :.[ O.c = 2 ;.u.t O h 5 9 h -.! _ *.c ; u M F.9X&X!.(.U.",
"H.H.Y.Y.@X&X1 ; r & : h M a 9 # & a  .~ H ^ H ! 9 r W <._ | c M a 4   L l.*.O.M & x 4.u.a & 9 > 9 C #.! ! _ W # c ..P.+X}.m.).Z.",
"H.Y.S.W.{.<X- 1 r ; = A a a r : > @ c -.^ ~ ~ _ : c m |  .] u W p O   c >.H M M 7 a y.U.L 5 5 5 9 h _ *.#.( H 9 7 O.T.qX3X!._.I.",
"M.E.Y.(.}.<X5 ; a 3 = t 9 J r & p j 5 _ _ ^  .^ 9 u m  . .~ M ..9 O O ] +.X.X.c : c y.A.c = a = a j _ -.*.#.a & 2 O.X.k.@X@X.XI.",
"H.[.L.~.}.<X5 5 a & = y 5  .c X = 9 q ^ *. .$. .h u m  .I ~ N W 9 & O c ] I  .I 4 b u.J.c q u 5 H ! =._ ! u.b : 5 ! g.z.v.#X|.Z.",
"W.W.OX|.<X_.5 p r # 5 a - *.U.: & 9 5 ! :.| M j H N M D b  .] ] x & : r :.s.M W 9 N U.U.L 9 a = / D *.9.^ _ a + 2 { 3.W.(.&X'.W.",
"W.l.>X[.~.'.t a t + = 5 b 8.=.q O 9 C _ $. .A J q u ~ ~ M c.] W = 2 & u $.A L M * a.P.*.^ c t = k D ! ! H d r 2 > A Y [.:X9X+XE.",
"~.(.9X|.).[.p 5 r # 5 5 *.-.$.9   t c ( '  .Y A 1 7 M ~ ]  .n M = 5 & M g.] X.c # :.Z.*.-.y 2 = H t ! D h ~ h # 2 %.l l.$X+X|.OX",
"D.W.[.H.OX,X5 8 r . - t y.;.:.5 + 9 u ! $.m c A 5 r m L :.2.m  .& O   a L I M a j Q.y.*.Y t d # k p p ! ( _ r # = P  .s.I.W.u.7.",
"^.~.+X].W.[.! C ) ( _ ( _ _ 9.` ( :.F.A.( p C J ! M h h L J j J w q D M ! C ! Y j p j *.y T %.( !  .x._.G.c.~ L A O.G.k.5XqX].k ",
"6XE.E.V.@Xc.#.T ;.S.I.y.J u.%./ %.N.3.{ P y Y W O.A c X.O.W W E s.x.x.b.s.v.s.R.R.d.T.;XE.4X;X!.n.R.R.@X#XR.T.x.s.g.I.6X5X`.'.U.",
"u.l.E.c.^.A.V.I.Y.y.'.OXE.W.F.W.E.h.W W.T.X.k.X.z._.E.).*X<X%X%X:X:X2X:X#X}.!.@X@XR.1XR.1XwXwX2X1X:X#X0X8X#X1X:X#XE.|.qX|.L.+X`.",
"L.z.@XE.~.F.w.L.W.~.[.E.H.)._.k.M.F..XE.$XE.E.E.@X|.E.[.E.E.[.*X-X,X<X>X&X}.(.(.8X@XE.#X.X@X_.2X<X#X#X7X#X:X:X=X@Xs.W.|.z.~.[.:.",
"E.$X7X7XR.Z.c.T.E.0.7X<X<X<X@XR.@X<X0X2X>X0X9X2X<X7X2X8X[.OX[.2XqXqX1X8X9X,X1XwXqX0X0X8X0X-X&X0X8X#X@X8X1XR.E.%X4Xl.V.X.z.:XW.H ",
"w.J.L.w.+.A..X&XE.$X9X,X%X:XR.R.;X@XR.#X@X@X;X;X#X#X%X:X#X@X@X;X,X9X:X0X0XqXwXwX4X9XqX#X#X#X;X;X;X!.4X:X0X;XR.v.@XR.[ W.*.]..X5 ",
":.F.M.M.c.A.E.I.W.<X*XE.W.L.T.).2.2.M.h.L.I.M.h.M.M.X.h.+.w.2.&.2.0.A 3.^ ] %.y.M.M.X.E W h.3.0.X.[.L.S.`.L.L.X.W W C Y ! B.D.a ",
"B Y T ' Y ) 5.5.D J A ' #.%.6.9.#.A _ 6.8.9.r.p.r.6.6.r.p.r.r.) p.Q.t.0.T T Z ( t.p.6.6.t.t.D g B R 5.6.J s a s 5 5.R g T h / 3.",
"#.8.V.M.y.8.A.V.A.A.Z.u.} %.%.%.;.9.A.A.9.w.r.u.w.Z.Z.w.A.w.A.Z.3.].5XL.3.U.].oX|.K.L.OX9XI.].].].L.I.OXqXXXK.i.5XwX].K.OX5X].'."
};
