/* XPM */
static char *de_dust2_material_33[] = {
/* columns rows colors chars-per-pixel */
"64 64 184 2 ",
"   c #1B1C21",
".  c #25282B",
"X  c #262C33",
"o  c #292E37",
"O  c #2C3333",
"+  c #2E333B",
"@  c #333434",
"#  c #393837",
"$  c #32353C",
"%  c #353B3B",
"&  c #403F3E",
"*  c #38403F",
"=  c #41403F",
"-  c #2F3C42",
";  c #353C43",
":  c #393F45",
">  c #363F48",
",  c #374345",
"<  c #3C4243",
"1  c #3B444B",
"2  c #3E4D4D",
"3  c #3C4A53",
"4  c #444242",
"5  c #484646",
"6  c #424844",
"7  c #414649",
"8  c #434A4A",
"9  c #4B4C4C",
"0  c #444D52",
"q  c #494E52",
"w  c #434E58",
"e  c #445354",
"r  c #4B5354",
"t  c #495857",
"y  c #4C545B",
"u  c #465B5E",
"i  c #4E5A5C",
"p  c #525655",
"a  c #535B5B",
"s  c #5B5E5E",
"d  c #51605F",
"f  c #58605F",
"g  c #4E5B62",
"h  c #545D64",
"j  c #476164",
"k  c #566464",
"l  c #596565",
"z  c #576769",
"x  c #5B636A",
"c  c #546B6E",
"v  c #5D6A6A",
"b  c #5D706F",
"n  c #5C6C72",
"m  c #5E7173",
"M  c #616364",
"N  c #616D6D",
"B  c #64706F",
"V  c #646D74",
"C  c #657575",
"Z  c #6A7475",
"A  c #677877",
"S  c #687977",
"D  c #64757B",
"F  c #6B747A",
"G  c #67797B",
"H  c #6A7B7A",
"J  c #727B7C",
"K  c #6E807F",
"L  c #667E82",
"P  c #6C7E83",
"I  c #737C84",
"U  c #6E8183",
"Y  c #6A868B",
"T  c #6C848A",
"R  c #728383",
"E  c #7A8585",
"W  c #798887",
"Q  c #74858C",
"!  c #7B848D",
"~  c #768989",
"^  c #7F908F",
"/  c #758791",
"(  c #7C8791",
")  c #758D92",
"_  c #7A8B94",
"`  c #7D9091",
"'  c #7C9299",
"]  c #7B97A0",
"[  c #838B8B",
"{  c #81908F",
"}  c #828C94",
"|  c #878F99",
" . c #849596",
".. c #8B9494",
"X. c #85959A",
"o. c #89949B",
"O. c #85999B",
"+. c #8B9B9C",
"@. c #939C9D",
"#. c #839CA4",
"$. c #8C9EA2",
"%. c #8A9DA6",
"&. c #8C9EA8",
"*. c #919EA2",
"=. c #919FA9",
"-. c #8AA1A4",
";. c #96A5A5",
":. c #9AA4A4",
">. c #95A5AA",
",. c #99A6AA",
"<. c #96AAAA",
"1. c #9BAAAC",
"2. c #96A7B0",
"3. c #96ACB3",
"4. c #9CACB0",
"5. c #9FB2B4",
"6. c #A1ABAB",
"7. c #A2AEB1",
"8. c #A5B4B5",
"9. c #A6B7B9",
"0. c #A6B8BA",
"q. c #ADBABC",
"w. c #B1B4B6",
"e. c #B2BEBE",
"r. c #AFBEC0",
"t. c #B2BDC2",
"y. c #B1BEC8",
"u. c #ADC3C2",
"i. c #B4C2C3",
"p. c #BAC3C5",
"a. c #B4C5C8",
"s. c #BDC8CA",
"d. c #BDD2D1",
"f. c #C2C3C3",
"g. c #C6C6C9",
"h. c #C3CCCD",
"j. c #CACACA",
"k. c #C4CED0",
"l. c #CACDD5",
"z. c #C8CDD9",
"x. c #C6D1D2",
"c. c #CBD3D4",
"v. c #CCD5DB",
"b. c #C4D9D9",
"n. c #CED9DA",
"m. c #D2D5D5",
"M. c #D8D7D7",
"N. c #D4D7D8",
"B. c #D4DADB",
"V. c #E0DFDF",
"C. c #DFE1DF",
"Z. c #CCDDE2",
"A. c #D0D5E0",
"S. c #D6DCE3",
"D. c #DADEE2",
"F. c #DBDEE9",
"G. c #D5E1E1",
"H. c #DEE1EA",
"J. c #D7EAEA",
"K. c #DEE9E9",
"L. c #DFEDF2",
"P. c #E2E3E3",
"I. c #E8E7E7",
"U. c #E2ECE3",
"Y. c #E2E3EB",
"T. c #E3ECEC",
"R. c #EBEBEC",
"E. c #F1EFEF",
"W. c #E6F0EE",
"Q. c #EBF2EA",
"!. c #E5EAF0",
"~. c #ECECF1",
"^. c #F3EEF6",
"/. c #E5F1F1",
"(. c #EDF3F3",
"). c #EFF8F7",
"_. c #EFF7F8",
"`. c #EDF9F9",
"'. c #F3F3F3",
"]. c #F8F7F7",
"[. c #F7F8F6",
"{. c #F4F4F8",
"}. c #FEF5FE",
"|. c #FDFDFD",
/* pixels */
"5 5 5 8 < : : # 4 < 4 4 4 4 2 8 7 8 1 6 8 6 7 6 1 4 & 6 4 = = = = = < 4 4 6 8 1 6 2 4 8 6 2 6 8 8 6 8 1 6 7 6 < 4 < 4 4 4 8 5 5 ",
"4 4 q s n F P R P R R R R R R U R R H R R R R R R R K K H F G G D H G H U U K R R U U R R I K K R R K R R R R U U H C v s 8 6 4 ",
"4 5 5 r y h h x M M s p 5 # # # % < 4 4 4 < 4 # # # * 6 q g h k l l s r 4 # @ @ # # # # # * * * : # # # $ % % , 2 2 e 8 0 5 5 5 ",
"4 = 4 1 1 3 3 w y h x F ~ ^ O.O.&.$.$.&.$.&.$.&.$.$.' R n y 0 8 8 e i k n D P R ` ` O.O.$.$.$.+.+.O.' _ P L c g 0 , $ $ # < 4 4 ",
"# # # 1 1 3 3 1 > : 1 r h v D K R  . .O.$.+.+.o.| ( I V h w 1 1 8 8 r p i s l C H Q ~  .O.$.+.o.o.| } I F N k t 2 , , % < 4 < 4 ",
"# = 4 8 u u u 0 > $ $ $ < 0 y x V F I ! ~ _ _ / Q P D v h y 8 8 q r r 4 8 8 r h v C Q Q ' ' X.X. .~ ~ R R H C n z g u 0 q 5 5 5 ",
"5 5 5 i h m G P E [ @.6.i.s.x.x.s.i.q.8.8.1.:.*.+.o.[ E F M k i i h N I ..,.q.i.g.c.M.h.p.i.t.t.s.p.t.q.6.;.X.` U G m k s 5 4 4 ",
"4 4 r s v F ~  .+.,.e.c.T.].|.|.|.|.(.T.B.x.h.h.c.c.s.8...Z s e e a B [ 6.e.j.P.^.|.|.~.B.s.s.l.K.R.I.j.8...P H U ~ H B h r 4 4 ",
"4 4 r i N H ~  .+.,.q.c.T.].|.|.'.Q.R.M.M.f.f.g.j.M.j.w...Z i e e f C ~ :.8.j.M.'.|.|.R.c.a.t.s.m.P.M.j.w.@.[ E ~ ~ H B f r 4 4 ",
"= 4 5 s v H ~ +.>.9.s.B.R.|.|.|.|.~.P.B.B.f.f.h.M.M.j.8...C i e e i Z ~ :.e.c.K.'.|.|.Q.N.s.s.k.G.T.U.l.e.@.[ E W R H B f 5 4 4 ",
"4 4 r s v A ~ @.1.q.k.D.R.|.|.|.|.{.T.D.B.x.k.c.B.G.n.e.@.Z i 2 3 i B [ :.w.c.H.'.|.|.~.B.h.y.k.D.Y.K.l.w.@.[ W W ~ H B l 5 4 4 ",
"4 4 5 s l A ~ ;.8.p.n.Y.(.|.|.|.|.].'.R.M.M.c.m.K.K.n.e.@.Z i 8 e s Z [ 1.p.v.K.'.|.|.~.N.j.y.h.B.P.M.j.e.:. .^ ~ ~ H B s r 4 4 ",
"4 4 5 f l A ~ ;.8.p.c.K.(.|.|.|.|.].^.R.H.S.A.D.G.K.c.e.@.Z i e u c Q ;.q.v.L.`.|.|.|.T.B.s.p.h.M.P.B.c.t.7.*. .^ W H N s 5 4 4 ",
"= 5 r s v S ~ @.1.e.k.D.R.|.|.|.|.|.].^.R.P.H.P.K.K.n.e.+.Z i e u c R <.i.C./.[.|.|.|.R.c.i.e.s.m.Y.M.M.t.7.@.o.` ~ H N s r 4 4 ",
"4 4 5 s v A ~ $.8.p.n.K.(.|.|.|.|.|.|.'.R.P.B.P.R.P.B.f.;.R c j g c U ;.a.C./.[.|.|.|.Y.c.i.u.s.B.P.P.M.s.q.1.@. .~ H v f 5 4 4 ",
"= 4 8 s v H ~ ;.8.s.n.P.~.|.|.|.|.|.|.^.R.I.C.U.T.W.G.p.<.R c j j c R <.p.H.).[.|.|.|.T.c.s.r.s.M.M.D.M.s.q.1.-. .~ H v s r 4 4 ",
"4 4 r a l S ~ ;.8.p.n.K.~.|.|.|.|.|.|.'.R.P.V.P.R./.K.p.1.R c j j c R ;.a.J.`.].|.|.|.R.N.g.p.h.N.B.M.M.g.q.<.$.X.~ S N s q 4 4 ",
"4 4 8 s l C [ :.t.z.F.~.(.|.|.|.|.|.|.'.E.P.P.P.T.W.G.h.1.^ A b b A ^ 5.d.J.`.].|.|.].R.B.h.t.h.B.T.M.M.s.q.<.$. .~ H N s 5 4 4 ",
"4 4 5 r k A ` <.u.b.J./.{.].|.|.|.|.|.'.R.P.P.P.R.W.K.h.7.[ H m m P  .8.x.K.].].|.|.|.T.c.k.p.h.M.P.T.m.c.i.8.1.+.~ H v s p 4 4 ",
"= 5 p s k A ^ 1.i.c.K.(.].|.|.|.|.|.|.'.R.P.P.P.R.R.K.j.8. .U D C U O.9.x.L.).|.|.|.|.Y.c.a.t.p.M.V.V.B.x.p.0.<.+.~ H v s 5 4 4 ",
"= = 9 a l A ^ 1.i.c.T.~.].|.|.|.|.|.|.'.R.P.P.I.R.'.P.h.7. .Y L Y ) -.u.v.L.[.|.|.|.|.T.c.a.r.s.c.T.P.B.c.i.9.1.+.~ G v s 5 4 4 ",
"5 = 9 a k C { 6.p.M.Q.E.].|.|.|.|.|.|.'.R.P.M.R.(.`.T.B.r.-.) Y Y Y -.q.b.L.].].|.|.|.R.B.s.p.h.M.m.M.B.c.h.i.6.;.~ C v i 8 4 4 ",
"= 5 9 a f C { 6.f.M.R.'.].|.|.|.|.|.|.'.R.P.P.T.(.'.!.Z.a.3.#.] ] #.3.u.n.L.].|.|.|.].R.B.s.p.h.N.B.P.K.B.n.a.9.;.~ H l s p 5 4 ",
"= = r i k C ^ 6.p.M.T.'.].|.|.|.|.|.|.'.R.P.V.R.(.`./.n.a.3.#.' ] #.3.a.B.R.|.|.|.|.|.~.G.x.x.x.B.H.C.B.S.c.s.0.:.~ C k s 5 4 4 ",
"5 = 9 s k A ^ 6.f.m.Q.'.'.|.|.|.|.|.|.'.I.P.V.R.(.)./.B.s.4.;.+.$.$.7.p.B.Q.|.|.|.|.|.(.D.l.s.x.n.M.C.B.n.v.p.0.;.~ A v a 9 = = ",
"= 5 5 a f C ^ 1.f.m.Q.'.|.|.|.|.|.|.|.'.Q.P.P.P.(.(./.G.p.4.$.+.+.*.8.i.B.!.).|.|.|.|.R.G.c.h.c.B.K.H.K.K.K.b.a.1. .C v i 9 5 = ",
"4 4 r a k A ~ 6.e.M.I.E.'.|.|.|.|.|.|.'.R.P.V.Y.(.`./.n.p.8.@.O.o.;.4.p.Z.L.].].|.|.|.(.K.x.s.c.n.C.C.P.K.K.n.p.1.^ A k a 9 5 = ",
"= 5 5 a l S { 6.f.M.Q.^.|.|.|.|.|.|.|.'.R.P.P.T.(.`.W.S.p.7.$.O. .X.;.e.v.L.].].|.|.|.'.T.C.G.S.K.P.H.K.K.K.n.i.1.{ A f a 9 5 = ",
"5 4 p a k C { 6.f.M.I.'.'.|.|.|.|.|.|.].'.R.R.Q.(.`.T.n.i.;.O.^ `  .;.e.n.L.`.|.|.|.|.{.R.P.C.P.P.T.T.K.U.K.n.p.6.{ C l a 9 5 = ",
"= 4 5 y k C { 6.p.M.R.'.|.|.|.|.|.|.|.'.'.R.R.~.`.[.W.n.i.;.` ^ `  .;.e.n.W.`.|.|.|.|.].'.Y.F.H.Y.T.K.T.K.J.n.i.1.~ C l a 5 5 5 ",
"5 4 5 p k C ^ 6.f.M.R.E.'.|.|.|.|.|.|.|.'.E.Q.Q.'.`.T.n.i.;.O.^ `  .;.i.Z.L.[.].|.|.].].~.Y.H.H.T.K.T.K.K.K.v.p.1.{ C l s 9 = = ",
"& 5 r s k A { 6.e.M.R.'.|.|.|.|.|.|.|.[.Q.U.V.Q.`.`.T.B.i.;.O.^ `  .;.i.v.L.].].|.|.|.].^.H.F.K.K.T.T.T.Q.K.n.p.1.{ C l a 9 = 5 ",
"4 4 5 i k C [ 6.p.M.I.'.|.|.|.|.|.|.|.{.R.P.H.Y.Q.`.W.n.i.;.` ^ `  .<.e.n.U.).].|.|.|.'.E.P.V.P.I.I.R.R.T.K.c.i.1.` A k a r = = ",
"= 4 r a k A ^ 6.f.M.R.E.'.|.|.|.|.|.|.{.~.Y.H.!.`.`.W.n.i.;.O.^ `  .<.e.c.Q.].].|.|.|.'.R.I.C.P.I.R.R.R.T.K.n.i.1. .B v a 4 5 = ",
"= 5 r a k A { 6.f.M.R.'.|.|.|.|.|.|.].{.~.Y.Y.!.(.).W.v.i.;.O.^ `  .<.e.Z.L.).].|.|.|.'.(.T.T.K.K.T.T.T.T.K.n.p.1.[ G k a p 5 = ",
"= 5 4 i k C ^ 6.f.M.R.'.'.|.|.|.|.|.].].~.Y.Y.Y._.).Q.n.i.;.O.^ `  .<.u.v.L.].].|.|.|.|.'.E.R.T.T.T.T.H.K.K.n.p.1.^ A k a 5 5 = ",
"= 5 9 a k H { 6.f.M.U.^.'.|.|.|.|.|.|.{.~.Y.Y.~.(._.T.n.i.;.O.^ ^  .;.i.v.L.`.].|.|.|.|.'.R.T.U.T.U.K.U.K.K.c.a.1.{ C k a r 5 = ",
"5 = 9 a k C { 6.i.M.Q.'.|.|.|.|.|.|.|.{.~.Y.H.Y._._.!.n.i.;.{ ^ ^ O.;.e.n.Q.].].|.|.|.'.E.I.M.C.P.U.U.V.K.K.n.s.1.{ C l p 5 5 4 ",
"= 5 9 a k C [ 6.t.M.I.^.'.|.|.|.|.|.|.{.~.Y.F.!._.).W.n.i.;.X.` ^ ` ;.i.B.R.].|.|.|.|.~.P.M.c.M.M.C.P.K.K.C.d.u.1.^ C l f p 4 = ",
"5 5 5 a k C [ 6.f.M.Q.E.|.|.|.|.|.|.|.{.~.Y.Y.!.(.)./.n.i.<.X.` ^ O.:.i.B.R.|.|.|.|.|.'.U.K.B.C.P.C.P.K.K.S.z.i.1.^ C k p 5 5 = ",
"& 5 9 a l C { 6.f.M.U.'.'.|.|.|.|.|.|.{.!.Y.Y.Y.(._./.K.i.4.&.X.` ' <.i.B.Q.|.|.|.|.|.(.P.M.c.c.B.C.K.G.n.v.s.q.;.~ C v s r 4 = ",
"& 4 9 a l C { 6.p.M.R.^.].|.|.|.|.|.|.{.~.Y.Y.!.(._.T.n.i.3.#.] ' -.3.i.n.!.[.[.{.|.'.Y.B.x.h.c.B.V.D.M.B.v.p.8.:.~ C v i 5 5 = ",
"5 4 5 a k C { 6.f.M.T.'.].|.|.|.|.|.|.].(.T.T.!.`.`./.n.u.3.#.] ] ] 3.a.n.~.|.|.|.|.'.R.M.j.f.f.h.m.c.l.k.h.e.7.@.~ H v s 9 4 = ",
"& 5 r y k A [ 6.p.M.I.'.].|.|.|.|.|.|.].(.T.T./.`.{./.Z.a.3.#.] ] -.4.i.B.R.|.|.|.|.|.R.M.j.f.f.z.N.A.c.c.s.t.7.;.~ S v s 5 4 5 ",
"= = 9 a k C { 6.p.B.R.'.|.|.|.|.|.].'.'.R.R.R.R.^.^.Y.v.u.3.] $.$.-.8.i.n.!.|.'.|.|.|.^.C.x.k.c.M.P.M.D.c.h.e.7.;.~ C v s 5 6 4 ",
"5 = 9 a k A ^ 1.i.n.K.(.'.|.|.|.|.|.|.'.'.R.R.R.^.R.P.c.u.3.-.] &.-.7.p.n.T.(.'.|.|.'.R.m.g.f.j.M.P.P.B.c.a.0.>.+.~ S v s 8 4 4 ",
"= 5 9 a k A ^ ;.u.b.J./.].].|.|.|.|.|.|.'.R.R.R.R.'.P.c.y.3.-.' O.$.7.p.n./.|.|.|.|.|.R.M.j.f.j.M.K.C.B.x.p.q.1.+.R H v s 9 4 4 ",
"= = 9 i v A ^ ;.u.b.J./.{.|.|.|.|.|.|.'.'.R.R.R.(./.K.x.q.;.O.O.X.$.7.p.n./.(.|.|.|.|.R.M.j.f.j.M.P.M.M.p.q.1.-...~ H v s q 4 4 ",
"5 = 9 s v A ~ ;.9.j.M.U.E.|.|.|.|.|.|.'.'.R.T.R.R./.K.k.q.;.O.' ' &.3.r.x.J.`.).|.|.'.E.M.g.f.j.M.V.M.B.p.q.,.$.X.~ H v s r 4 4 ",
"= 5 5 s v S ^ @.8.p.c.K.'.|.|.|.|.|.|.|.'.E.R.R.(.T.G.k.9.-.) ~ ) O.-.q.x.G./.].|.|.|.Q.M.j.f.j.M.P.D.M.s.q.,.$. .~ Z N s 5 4 4 ",
"4 4 r a v S ~ ;.8.p.v.K.(.|.|.|.|.|.|.'.R.P.P.P.T.~.K.x.9.$.) Y Y ) $.9.d.G./.].|.|.|.E.M.j.f.j.M.M.M.B.s.q.1.*. .~ H N s r 4 4 ",
"4 6 5 s M H ~ +.1.e.h.H.R.|.|.|.|.].'.Y.M.M.c.M.P.U.M.p.6. .Y L Y ) -.9.s.K./.].|.|.].R.M.j.f.j.M.K.C.M.s.q.1.$. .~ H N s 5 4 4 ",
"= 5 r s v A ^ +.1.q.k.D.R.|.|.|.|.].'.U.B.x.k.B.C.P.M.h.7...U G G U  .1.a.J.K.).|.|.|.R.M.j.f.j.M.P.V.c.p.6.*. . .~ H v s r 4 4 ",
"= 4 5 s v A ~ +.1.e.k.D.R.|.|.|.|.].'.P.B.x.x.c.K.P.M.h.6. .U G G P  .1.i.v.K.(.|.|.|.R.M.j.f.j.M.P.M.c.p.7.*. .^ W H N s 8 4 = ",
"5 4 5 s v A ~ +.>.8.s.n.T.|.|.|.|.].(.Y.B.x.d.x.B.K.n.p.6. .I L Y ) -.5.s.n.K.(.|.|.|.R.M.j.f.j.M.P.V.l.t.7.*.X.^ ~ H N f r 4 4 ",
"= 5 9 f v A ~ +.>.9.s.B.R.|.|.|.|.].'.U.S.x.x.c.B.G.n.s.1. .U P U ) -.5.a.n.K.(.].|.|.R.M.j.f.j.V.P.M.M.p.6.*. .^ ~ H N s 5 4 4 ",
"4 4 5 s N S ~ O.;.8.s.B.!.|.|.|.|.|.'.T.B.c.d.c.G.G.B.p.1. .U G G U ..1.i.v.U.(.|.|.|.R.M.g.f.c.K.T.T.v.i.;. .Q U G c k i 5 8 5 ",
"= = r s N H ~  .+.>.t.c.T.|.|.|.'.^.P.M.c.x.x.B.K.T.K.x.8. .P F G H [ 6.e.m.T.(.|.|.|.R.M.j.f.j.c.G.n.g.8.@.[ I Z v s i r 5 4 5 ",
"9 4 9 r l v v n x h x V J ! [ ..| ............ . .O.^ ~ I F V F I H R F N x x V H ~ { ~ ~ ~ ~ _ _ _ ( / Q Q P V k 8 4 < 4 r 5 5 ",
"4 9 9 r e i u 0 2 ; 1 y h n D P I / ' ' ' _ _ ! ~ R K G n v k k v N M s 0 1 1 e k C H Q ~ _ | _ } } } } } [ I V g 3 - ; < 5 5 5 ",
"5 5 9 8 0 e 3 2 - - < 5 s v F E _ &.$.>.2.>.>.>.$.X.! I V k y 8 8 8 < * # # 2 q h V F ! | *.=.,.>.,.>.&.$.X.! F h 0 ; $ < 5 5 5 ",
"4 9 5 r l l z g 0 , ; o X X X + ; 1 1 1 7 8 1 < % % % # 8 8 r s f f f r : .     . O O % # : < < > 1 > > ; < 1 0 y f i s r 5 5 5 ",
"= = 9 l C H R E R I R R U R U R R R R R R R R R I R P R ~ R U U R R U R K I R R R R R I R R R R R I R R ^ P R R U ~ K C l p 8 4 ",
"9 9 5 9 4 4 4 4 # 4 = 5 4 9 4 9 5 5 5 5 5 8 5 5 6 5 9 8 5 5 6 4 4 4 4 4 4 9 4 9 5 5 6 9 4 9 4 9 5 7 9 9 5 5 4 9 4 6 5 5 8 5 5 5 "
};
