/* XPM */
static char *de_dust2_material_31[] = {
/* columns rows colors chars-per-pixel */
"64 64 256 2 ",
"   c black",
".  c #000900",
"X  c #020204",
"o  c #070706",
"O  c #080101",
"+  c #0C0100",
"@  c #0C0E0C",
"#  c #0C1205",
"$  c #0F0A03",
"%  c #110000",
"&  c #150C03",
"*  c #160000",
"=  c #18130C",
"-  c #181713",
";  c #1A0000",
":  c #1C1C1E",
">  c #1E0000",
",  c #1E1D0F",
"<  c #222B16",
"1  c #232115",
"2  c #24180C",
"3  c #252419",
"4  c #26230B",
"5  c #262B1B",
"6  c #28321B",
"7  c #292D00",
"8  c #2A2C24",
"9  c #2B2800",
"0  c #2B2C12",
"q  c #2C2D1B",
"w  c #2D3623",
"e  c #2E2313",
"r  c #2F3100",
"t  c #30342A",
"y  c #322B1A",
"u  c #323221",
"i  c #343600",
"p  c #34372D",
"a  c #343E3C",
"s  c #362A23",
"d  c #363B26",
"f  c #37341B",
"g  c #393A00",
"h  c #393C33",
"j  c #3B220E",
"k  c #3B372B",
"l  c #3C3E00",
"z  c #3C432B",
"x  c #3D3421",
"c  c #3D3D23",
"v  c #3D3D2A",
"b  c #414133",
"n  c #414637",
"m  c #434500",
"M  c #463927",
"N  c #46432C",
"B  c #464A32",
"V  c #464E37",
"C  c #494D43",
"Z  c #495336",
"A  c #4B483C",
"S  c #4B5400",
"D  c #4C4332",
"F  c #4C4C33",
"G  c #4C4E00",
"H  c #4D4900",
"J  c #4D5539",
"K  c #4D5F41",
"L  c #505037",
"P  c #515500",
"I  c #515540",
"U  c #516000",
"Y  c #534F00",
"T  c #53543C",
"R  c #544B41",
"E  c #54502A",
"W  c #545900",
"Q  c #54593D",
"!  c #54613C",
"~  c #55492E",
"^  c #554C37",
"/  c #555B41",
"(  c #55614E",
")  c #575500",
"_  c #576345",
"`  c #58594C",
"'  c #595145",
"]  c #59543D",
"[  c #5A5B00",
"{  c #5B5430",
"}  c #5C593F",
"|  c #5C5C43",
" . c #5C5F48",
".. c #5C6100",
"X. c #5D613D",
"o. c #5D6449",
"O. c #5E5600",
"+. c #5F684F",
"@. c #616146",
"#. c #61644C",
"$. c #636157",
"%. c #636300",
"&. c #636A00",
"*. c #645946",
"=. c #646451",
"-. c #646848",
";. c #646C50",
":. c #664936",
">. c #66704C",
",. c #677259",
"<. c #677754",
"1. c #686D58",
"2. c #686E53",
"3. c #69614D",
"4. c #696B00",
"5. c #696C4E",
"6. c #6A6E46",
"7. c #6A7958",
"8. c #6C7155",
"9. c #6D7359",
"0. c #6D7761",
"q. c #6E5F45",
"w. c #6E6654",
"e. c #6E6E59",
"r. c #6E6F00",
"t. c #6E7C5C",
"y. c #707353",
"u. c #707D4E",
"i. c #716C55",
"p. c #71726E",
"a. c #71755C",
"s. c #717757",
"d. c #717D61",
"f. c #726700",
"g. c #727500",
"h. c #73694E",
"j. c #737B59",
"k. c #738161",
"l. c #757761",
"z. c #75795E",
"x. c #758767",
"c. c #777C69",
"v. c #77825D",
"b. c #778369",
"n. c #797C61",
"m. c #798B75",
"M. c #7B715D",
"N. c #7B7C77",
"B. c #7B7E64",
"V. c #7C7561",
"C. c #7C7C5D",
"Z. c #7C8261",
"A. c #7C8866",
"S. c #7D6E55",
"D. c #7D8266",
"F. c #7D8369",
"G. c #7E7667",
"H. c #7E7A00",
"J. c #7E7E69",
"K. c #7E886A",
"L. c #808F72",
"P. c #818867",
"I. c #818B68",
"U. c #828364",
"Y. c #828369",
"T. c #828371",
"R. c #82886D",
"E. c #837C63",
"W. c #838F6C",
"Q. c #839273",
"!. c #858500",
"~. c #868A6E",
"^. c #868D71",
"/. c #878969",
"(. c #878D6B",
"). c #888766",
"_. c #88916D",
"`. c #889277",
"'. c #8A836C",
"]. c #8A8A6D",
"[. c #8A8E69",
"{. c #8A8E6F",
"}. c #8A9073",
"|. c #8B8D76",
" X c #8B9270",
".X c #8C9583",
"XX c #8D8164",
"oX c #8D886A",
"OX c #8D8C6E",
"+X c #8D9277",
"@X c #8D997B",
"#X c #8E9070",
"$X c #8E9371",
"%X c #8E9575",
"&X c #8F8D69",
"*X c #8F9876",
"=X c #8FA07F",
"-X c #908F00",
";X c #918E6E",
":X c #919171",
">X c #919479",
",X c #929472",
"<X c #929575",
"1X c #929B76",
"2X c #938300",
"3X c #938C73",
"4X c #93947E",
"5X c #939979",
"6X c #939B82",
"7X c #949D00",
"8X c #959279",
"9X c #959476",
"0X c #959572",
"qX c #95997E",
"wX c #95A088",
"eX c #969071",
"rX c #96967E",
"tX c #969E79",
"yX c #979878",
"uX c #989D7E",
"iX c #999200",
"pX c #999D93",
"aX c #9A8F89",
"sX c #9A9476",
"dX c #9A9A75",
"fX c #9AA37F",
"gX c #9B9981",
"hX c #9B9E00",
"jX c #9C9B7C",
"kX c #9C9E82",
"lX c #9C9F86",
"zX c #9EA38B",
"xX c #A1A200",
"cX c #A39C78",
"vX c #A6A800",
"bX c #A6A995",
"nX c #A79D00",
"mX c #A7A787",
"MX c #A99F86",
"NX c #ACAF00",
"BX c #B0B39C",
"VX c #B2A88C",
"CX c #B3B600",
"ZX c #B4AA00",
"AX c #B5AB95",
"SX c #B9B900",
"DX c #B9B9A3",
"FX c #BEB790",
"GX c #C1C000",
"HX c #C1C0AA",
"JX c #CBCA00",
"KX c #CBCABC",
"LX c #CDB500",
"PX c #CDB5A8",
"IX c #E5E200",
"UX c #E5E2D3",
/* pixels */
"b.k.  C C   6Xt.0.mXOX9X#XuX>X6XzX~.9.Q a.C 1.b $X^.kX5XkXkXjXrXgXqXkXlX>X~.T.^.+.c.8 x 3.5.mXAXzXrXgXzXbX(.x.c.=X3 -     h 7.k.",
"b.b.1.BXpXh @Xt.t.dXrXqXyXjX4XK.+XR.a.I J.z =.v {.P.qX*X5X>X9XgXrX8XrXqXF.9.2.n.I l.t q w.3.kXmXgXrXlXgX>Xv.k.b.Q.wXKXm.a ( x.d.",
"b.7.$., . c.K.d.d.K.|.uXrXzXqXQ.%X~.l.Q J.p 1.z  XP.qX>X<X9X9X8X>X8X8X>X~.2.#.J.V l.u y M.@.kXzXqXuXuXuXR.<.A.I.Q.wXK z # =Xd.d.",
"Q.k.x.bXwX`.^.Q.L.m.R.jXrXbXlX`. XR.B.Q M.w w.v }.Y.qXuXqX9X:X#X#X#X X>X^.Y.R.F.I T.p f E.@.lXfXuX5XqXqXB.t.=X=X=X=XwXVXKXBXL.m.",
"I J Z J ! / _  .o._ ,.fXlX|.+Xb.5.5.e.I S.w V.B ^.P.qXzXlXyX,X:X/.OXOX^.R.~.}.J.I .Xp y 4X-.kXgXyXrXyX<Xz.8.Z.t.v.j.[.FXVX&X>.o.",
"3 1 1 1 1 3 , 1 4 , o.+XlXlXzX+XOX~.n.T M.w G.I /.Z.*XkXzX>X$X]./.).#X^.Y.R.{.F.V `.t 0 8X@.yXjX:XsXsXOX,.q y 4 4 4 4 j e y 0 1 ",
"3 3 5 q y y 3 q 0 4 #.K.|.|.R.9.@.@.V.T i.< V.T P.j.*X1X4X>X X{. X<X5X|.}.+X}.d.B c.8 4 V.*.+X+XsXqX>XK.+.q e y e < 0 0 e q q q ",
"_ ! _ o._ o.o.o.7.6 x.x.K.}.^.~.J.Z.z.n a.1 c.D P.n.<X%X.X X_.>X(.*X5X+X>XqXW.j.n d.3 v '.=.W.I.#X|.P.Z.<.d X.( Q ! ! X._ K K Q ",
"d z d w d v d d n B >.P.A.P.Z.~.F.v.n.b l.1 n.d B.D.^.j.9.z.2.>X9.0.9.b.`.d.+.8.n 0.8 w n.Z <.t.k.B.7.b.t.>.f V z z z z z z B d ",
"+.+.o._ _ o.2./ A.  a 1XW.A.F.D.B.Z.y.b a.1 B.d K.>XqX+X+XqXqXlX6X@X^.@X6X9.9.2.n 0.w < c.V 2.7.9.t.8.<.d.+.2.o.+.+.( / o.+.2.8.",
"7.2.t.,.o.o.8.K. X8   5 6X`.Q.B.n.t.9.b 9.q a.w P.^.}.D.8.a.+Xz.k.K. Xs.b.9.2.o.V c.p < J.V 8.t.7.t.d.t.F.  6 v.t.t.7._ 2.t.t.t.",
"t.k.x.9.>.>.v.v.F.*Xd.  6 6X`.0.t.2.+.v 0.u e.z K.{.^.^.~.^.+X+X1X1X_.Z.0.2.9.+.V c.h < J.L a.a.t.d.7.k.e.  ( v.t.t.t.<.t.v.t.d.",
"F.Q.^.K.t.d.d.k.d.~.qX{.    A.u.l.t.=.N 9.w e.v R.+X>X^.$X_. X1XQ.=X}.lXQ.A.k.<.V 0.t < T.I 7.k.j.7.d. X- 8 _.x.k.d.t.b.A.x.k.d.",
"W.}.:X;XF.B.K.R.9.P.{.5X.X. T.b.9.l.2.F a.q e.N R.R.>X+X_._.(. XQ.6X+X>XQ.t.t.t.Z 0.8 < |.T z.t.j.Z.+X^.  +XtXQ.K.A.K.^.^.+X+XQ.",
"~.:XOX~.P.5X5X%X%X}.%X*XmX6X9.C _ u #.J 7.q T.B K.z.B.}./.*X5XtX4XgXqXsX`.z.9.9.J K.t < |.Q P.D.P._.lX- - zXA.@X+XK._.{.:X;XeX X",
";X).(.J.y.Z.[./.1XtXtXtXwXwXT.,.,.0.e.o.;.5 |.B D.z.Z.}._.Z.I.(.|.~.].V.d.9.5.8.J L.p < G.| R.~.~.,XqX  D.v.! b.@XK.K.~.oXoXU.,X",
"OXOX].Z.,.k.>X^.B.R.~.{.).uX+Xb.Z.t.+.| +.3 |.' A.z.z.^.Y.|.n.rXT.R.Z.,XC.<.o.=.J T.t < Y.*.C.(.9.n.k.W.X.7.B <.1XW.I./.(.OXoX#X",
"OX$XOXZ.7.z.^.~.^.n.qXR.Z.$XF.L.Z.t.o.L o., l.N D.k.z.K.B.z.lXD.D.rX*X5X,X7.+.5.J c.t 6 '.| v.j.2./.j.+X_. XW.k.*X_.I.(.I.(.oX:X",
"OX9X#XP.d.z.B.F.z.lXn.B.yX XD.L.Z.t.+.I | 3 a.N D.z.D.9.D.+XF.Y.yXfXzXlX0Xk.+.] I l.p 5 E.@.Z.P.).#X5XI./.v.j.t._.*X_.I.A.I.].9X",
"].,XOXP.t.F.8.Y.+XB.~.4XfX5XQ.L.z.t.+. ./ 5 e.N F.a.qX2.Y.e.J J.,Xv.+XI dXI.+.#.J c.p w S.3.j.P.)./.#X$XU.*Xk.t.j.*X+XW.W._.].:X",
"].9XyX/.9.$X5.).e.T B.+Xi.lXuX^.U.s.+.| / q e.b v.s.,X5X5X-.-.P.1X9.`   D.F.2._ / F.h w q.3.,XQ.;X5XP.s.A.I.A._ [.qXuX6X@X%X#X,X",
"#XyX9X(.7. X1X9Xo.2.Y.qX5.lX+XR.(.n.2. .| u a.N Z.y.$X X%XuXfXyXfXkXVXmXlX(.7.o.Q T.p w S.5.sX9XOX5XP.W.I.(. X7.,XfXkXlXqX+X{.9X",
"9XyX<XU.<.(.#X,XkXgXuXqXgXlX>XD.P.n.e./  .u l.d Z.y.#X{.%X$X,X1XrXyXfXdX4X~.s._ / T.p w i.@.C.C.C.{.s.>.>.U.Z.,XuXtX Xn.k.D.U.eX",
"8XyX#XY.2.(.{.,X#X<X>X1XqXlXqXK./.Y.9.T =.q c.u U.y.#X{. X<X+X1X9X8XjXlXqXK.d._ | N.t d S.} s.>.].j.-.A.5.P.C.$X$X_.$X^.K.z.).sX",
"qXyX4XK.8. X X{.%X%XyX0X4XbX6XQ.$X~.B.Z *.6 J.k P.s.{. X#X$X9XsXrXrX8XrXeX/.a.o.} n.p d i.*.>X4XqXkXB.B.<XmXtX;XQ.+X=XzX(._.<XsX",
">XqXqXR.5.{.{.$X%X<X:XsXrX|.+XF.-. .=.J *.6 '.k Z.s.(.$X{.<X9XsX>XrXrXrX0XY.a.#._ a.h d i.F 2.@.Q n.2.>X5.8./.U.2.a.9.K.s.s.9XyX",
"uX#X~.Y.y.(.$X{.<X,X9XeXrX6XzXQ.OXU.e.Q *.5 '.A Z.s.(. X(.#X;X9X>XrXgXlX0X/.z.#.| l.h d M.| rXkXlXlXlX>XyX:X5X#XlX6XzX+XfX X<XyX",
"qX^.{.F.s.(.$X_.#XeXsXeX6X|.^.9.h.3.i.| 3.6 T.A Z.s.{. X X,X9XeX4XgXqXrX0XY.n.o.| F.b d '.D i.i.9.R.2.F./.P.D.j.a.a.~.;. X*X,XyX",
">X:X>Xz.8. XOX;X:X<X,X,XgXrX~.R.9.s.9.I e.8 B.R U.y.:X#X#XyX%X#XyX5X5X5XsX].n.#.o.J.n d sX] OXt.C.C.OXE.OXZ.U.E.v.Z.+XU.1X XOXyX",
"3XOX{.n.8.$X,X#XyXyXOXyXgXuXU.|.~.v.s.I i.5 a.R P.y. X X,X<X<X%X<X5XjXtXdX~.B.#. .B.n d sX^ /.;.).C.U.sXC.U./.U.P.{. X/.*X X{.9X",
"~.'.n.n.5.$X#X:X,X<X9X,XgX>XY.Y.F.Z.8.I e.q 1.D Z.-.,X X:X0X9XsXyXyXyXjXyX].D.o.o.1.n z sX| 9XqXsXjXjXjX9XkXjXkXuXuX5XtX1X X(.9X",
"U.D.n.z.+.*X#X,X:X:XyXyXrXrX+X~.F./.9./ a.5 e.v Z.y.#X(.eXeXsXeXsXjXeXsXdX].D.o.#.9.b z '.*.sX8XyXkXjX0XyXyXyXsX1X5X<X5X1X{.U./.",
"#X:X{.D.a.[.OXeX,X9X9X9XgX5XqXD.P.B.l.T i.5 e.b U.y.(.%XeX9X9XjXrXrXgXqXlX{.n.#.@.1.h B T.} &X3XsXsXjXsX5XyXyXyX%X<X#X9X<X<X]./.",
"9X>X,X>XU.{.OX3X<X<XyX0XqX+X>XD.U.U.a.J i.8 2.b U.@.z.U.:XyX,XsXrXuXrXgXqXY.5.|  .=.h z G.] &X;XeXsXeX9XyXyX9X9X<X$X:X,X<X9X:X#X",
"yXyX9XqX+XR.U.OXyX,XyXyXlXF.~.~./.B.l.F 3.u =.k U.@.j.Z.sXjX9X9XrX4XyXrX4Xn.+.F #.=.b c J.~ XX3X9XeXOXOX#XOX#X#X XY.:X9XyX:X9XyX",
"#X9X9XuX~.B.B.3XyXyX9XjX>X{.}.B.P.B.l.L | w ;.k P.s.z.(.9X9X:X0X>X>X>XrX>XR.5.Q @.=.h c T.L ).OXoXoXOXXXP.<X/./.P.Z.].9X9XOX9X<X",
"yX,X<X+X~.U.Y.#X:X:X<X,XrX3X{.n.Y.Z.a.V *.3 w.k ).;X;X#X#XOX#X:X#X].;XOX}.].D.D.2.=.h z '.^ ).].]./.;X].OXOX{.#XP.#X$X,X$XOX,XyX",
"9X:X{.~.Y././.,X:X<X:X:X3X].Y.z.B.Z.y.A 3.3 3.A E.oX).(.OX].].#X#X/.].[.P.Y.D.n.=.a.h B T.^ &X8X,X,XOX#X9X:X{.(. X X{.(.}.#X,X9X",
"].OX/.'.n.C./.]././.].,X].Y.z.Z.J.j.8.A w.w ] A E.).Z.P.)./.[.OX/.]./.OXD.B.U.n.1.;.b F '.F eX|.;X:XOXOXeX:X{.#X_.%X(. XW.(.:X;X",
"oXOX/.).U.C.U./.Z.y.U.C.Y.z.9.t.z.C.y.n } w D b C.Z.Z.Z.C.Z.U.U.U.U.).oXz.B.z.j.=. .p J V.F &X#X;X).:X).oX'.[.(.(.,X{.<X(./.oXoX",
"l.l.V.V.n.z.z.B.B.z.E.B.k.l.;.9.8.e.;.Z 2 q 4 8 h.M.z.a.a.a.z.C.n.l.B.B.z.a.9.9.5.d 3 F & *.XXF.Y.J.Y.J.E.V.B.F.Y.J.F.~.{.E.D.J.",
"; ; ; %.SXCXSX%.; ; ; %.vXvXhXG * * % l ..P g.W ; ; * %.NXCXvX%.* * * [ 7XhX7XG % % % i H.nXZX%.; ; * %.CXCXCX%.; ; ; %.SXCXSXDX",
"+ + r &.%.&.i + + + g r.&.&.l + % % g &.&.&.m % % % l r.4.r.l % % % l g.r.&.g + + % g 4.f.f.g + % % l 4.&.r.l + + + i 4.g.&.i +.",
"+ 7 S S S 7 + + + 7 ....W r + + + 7 S S S r + + + r S U ..r + + + 7 W W Y 7 + + O 7 P W Y 9 + + + r W W U 7 + + + 7 S U U 7 O J ",
"H.IXIXIXr.; * * %.SXGXSX%.; ; * P xX-X-XP * * * W vXxXNX..* * * [ xXvXvXP * * * S 7XNXvXO.* ; * ..CXSXSX4.; > > r.JXJXJXH.> > UX",
"Y O.%.i % % % m !.g.r.g % % % H !.iXhX%.; > > f.GXSXSX4.> > > r.JXIXJXr.> > * %.LXZXSX4.; ; * Y 2X2X2XH % % % l f.f.Y 9 + + + R ",
"SXGX4.> > > r.JXIXJXH.* > ; ..SXnXiXY * % % l r.H.O.i % % + l [ ) Y 9 O + + r O.%.%.i + % % g !.!.!.G * * * W -XvXNXH.> ; > 4.HX",
"nXY * ; % G xXvXCXm * * ; %.NXhXnXY * ; * %.vXvXiXY * * * Y -X-X!.G * % * S iXiXvXW * ; ; ) hXvXiXY * * * 4.7X7XiXP * * * P iXeX",
"[ * * ; [ nXxXGXO.* * * W hXNXhX[ * * * ) xXnXxXP * * * ) hXxXhXP * * * P -XiXnX[ * * * ..nXZXNXO.; ; * O.IXvXNX[ ; * * ..NXvXVX",
"  & O   + O + o & 2 1 1 1 , , 3 1 q k d x x f d k f x :.s x f b b d b v B v M M b u y N k s M k e 3 , , = 2 # & & O         $   ",
"=   & @ = = = @ 1 & & $ = & = 2 1 $ + + + $ = $ + j PXXX  & S.O & $ $ & $ $ & $ $ $ $ $ & & = = = = = & & = = = = = - , = 2 y = ",
"k 3 f B s q d w x y s 3Xy d s s R V.x y N } c 0 3 j UXPX= XXM ` u y u u y v q 5 y q u y y 6 u x x x f f f x f z c c @.N d :.M.u ",
"S.u F a.*.~ F B F F c ] N 3.z z N L N c sXUXS.D N f UXKXx { *.h.N B F D B N v v c c c c M N L N N B D B D N F L F L @.Q E AXVXx ",
"T ^ ] T ^ ] F e.F Q L T ^ }  ./ *.OX} M :.DXD } } f PX4XA X.A @.L L T L V V T T L } | Q } ] ^ ] I I J I L T @.} | @.-.@.#.h.} z ",
"T ] L #. .T L {.L } | / ] T / Q *.KXM.| MXgXMXM.UX`.VX3.L -.  N V L T T / B / / | 2.;.o.| } } / Q |  .Q } #.5.-.-.-.5.-.5.3.] L ",
"#.T  ./ ;.+./ M.|  .o.*./ / _ J T M.o.2.gX'.cXKXUXwX*. .X.2.  L s.#.+.2.` #.+.1.+.Q T / / I  . .@.Q Q #.y.y.S.y.y.y.y.OX>.>.5. .",
"B.#.-.2.8.C.].z.>.S.i.a.2.6.y..Xj.<.>.j.T.4X|.G.aX9.1.1.6.N.  R _ #.n.+.+.d.1.+.2.e.z.7.y.y.s.5.s.U.U.).Y.U.].).[.U.0X[.S._. X].",
"^ 1 M ^ ^ R A R { i.w. .^ E.).).C.C.E.z.E.jXBXsXC.sXMXMXcXE.N X.b ^ M.! T / Q L _ ;.U.C.E.;XoX@.h.i.3.h.6.6.-.@.3.3.w.3.q.h.XX^ ",
"& b e 2 = & $ & = &       N N N R ' R ' '.E.C.} e.h.:.s 1 = : = $ & E.2.J.T.G.e.K ( | *.*.w.D $ , 2 s ,         & & $ $ & 2 4 + ",
"d ` #.! I V I v n F x S.D                           :             O - p.pXpX.XbX: o           o - @       : t , B Z T T J cX=.I ",
"J / +._ _ _ / Z K ( < :.M   X                                                 X                     3 @ # e ~ f _ Z K _ Q BX9.Z ",
"B M w.| 1.,.;.z h.#.q 2 s   X O                                                             X X       o n ^ :.^ E } X.o.j.HXC./ ",
"3 1 y 2 3 # o   j e D } O     O             o                                   X     X             o o O 2 KXV.$ - , 1 3 2 = , ",
"^ T.w.x 8 - o @ e x y $   o @ = - : o @ -   : o @ @ - - - @ - - = 3 p h t - @ o @ @   - = - - : , 1 - # X - f sXw.^ A G.|.| *.' "
};
