/* XPM */
static char *de_dust2_material_9[] = {
/* columns rows colors chars-per-pixel */
"64 64 256 2 ",
"   c #030201",
".  c #2A221A",
"X  c #45392C",
"o  c #5A4635",
"O  c #5D3F29",
"+  c #5E5442",
"@  c #674B3D",
"#  c #695544",
"$  c #6A5B4A",
"%  c #6E4D36",
"&  c #715349",
"*  c #716452",
"=  c #735640",
"-  c #746248",
";  c #754E41",
":  c #76653D",
">  c #775A42",
",  c #775B49",
"<  c #775E54",
"1  c #784429",
"2  c #797366",
"3  c #7A543C",
"4  c #7A554B",
"5  c #7A684F",
"6  c #7D604C",
"7  c #7D705B",
"8  c #7F4D35",
"9  c #7F5D42",
"0  c #805643",
"q  c #806A5B",
"w  c #81644D",
"e  c #826247",
"r  c #827A5B",
"t  c #836A4C",
"y  c #836B52",
"u  c #85725A",
"i  c #866550",
"p  c #867152",
"a  c #876A55",
"s  c #877874",
"d  c #885D4A",
"f  c #887865",
"g  c #89634C",
"h  c #8A583A",
"j  c #8A6645",
"k  c #8B6B4B",
"l  c #8B735F",
"z  c #8B7A5E",
"x  c #8C6144",
"c  c #8C6A56",
"v  c #8C714D",
"b  c #8C7159",
"n  c #8D8067",
"m  c #8E6B51",
"M  c #8E7858",
"N  c #8E8372",
"B  c #8F6351",
"V  c #8F7255",
"C  c #906D5B",
"Z  c #91664A",
"A  c #917661",
"S  c #917B68",
"D  c #925F41",
"F  c #927D61",
"G  c #936B47",
"H  c #947455",
"J  c #956D4C",
"K  c #95735B",
"L  c #967A55",
"P  c #967B5C",
"I  c #968063",
"U  c #976B54",
"Y  c #97826B",
"T  c #97886D",
"R  c #979781",
"E  c #98734E",
"W  c #99644B",
"Q  c #99947A",
"!  c #9A5F38",
"~  c #9A825D",
"^  c #9B7353",
"/  c #9B745A",
"(  c #9B7A55",
")  c #9B7B63",
"_  c #9B8976",
"`  c #9C8363",
"'  c #9C856B",
"]  c #9D6940",
"[  c #9D6C4C",
"{  c #9E7660",
"}  c #9E7D5B",
"|  c #9E7E69",
" . c #9E8B70",
".. c #A08965",
"X. c #A17350",
"o. c #A26D54",
"O. c #A27657",
"+. c #A28670",
"@. c #A28E6C",
"#. c #A37B63",
"$. c #A37C52",
"%. c #A39273",
"&. c #A47B5C",
"*. c #A48269",
"=. c #A48C77",
"-. c #A4937B",
";. c #A57F4C",
":. c #A58059",
">. c #A58261",
",. c #A5865B",
"<. c #A59A80",
"1. c #A59E93",
"2. c #A66B44",
"3. c #A68A70",
"4. c #A68B67",
"5. c #A69878",
"6. c #A78961",
"7. c #A8754B",
"8. c #A97957",
"9. c #A97D5D",
"0. c #A99071",
"q. c #A9A589",
"w. c #AA7F54",
"e. c #AA8768",
"r. c #AA926A",
"t. c #AB8463",
"y. c #AB876F",
"u. c #AB8C6B",
"i. c #AB8C76",
"p. c #AB8E85",
"a. c #AB9473",
"s. c #AB947B",
"d. c #AB9B84",
"f. c #AC9974",
"g. c #AC9C7D",
"h. c #ACA28F",
"j. c #AD825C",
"k. c #AD8B64",
"l. c #B0755C",
"z. c #B08B5E",
"x. c #B08E70",
"c. c #B17145",
"v. c #B1856A",
"b. c #B18D68",
"n. c #B1976F",
"m. c #B1A484",
"M. c #B1AC8C",
"N. c #B28657",
"B. c #B29475",
"V. c #B2987D",
"C. c #B37B57",
"Z. c #B38360",
"A. c #B38A63",
"S. c #B3A07C",
"D. c #B3A38B",
"F. c #B4804F",
"G. c #B49267",
"H. c #B4926E",
"J. c #B59B74",
"K. c #B59C83",
"L. c #B68667",
"P. c #B6B297",
"I. c #B79C6B",
"U. c #B7A478",
"Y. c #B7A883",
"T. c #B89272",
"R. c #B89778",
"E. c #BA8C63",
"W. c #BA8E6B",
"Q. c #BA9567",
"!. c #BAA283",
"~. c #BB855A",
"^. c #BB956C",
"/. c #BB9B74",
"(. c #BB9E7B",
"). c #BBA98D",
"_. c #BCB28D",
"`. c #BD834C",
"'. c #BDA28A",
"]. c #BDAE94",
"[. c #BDB4A0",
"{. c #BE8F5D",
"}. c #BE9970",
"|. c #BEA47D",
" X c #BF9071",
".X c #BF9979",
"XX c #BFA984",
"oX c #C08F67",
"OX c #C09571",
"+X c #C1A16E",
"@X c #C28154",
"#X c #C2A176",
"$X c #C39C7B",
"%X c #C3A07F",
"&X c #C3A88B",
"*X c #C3AE8A",
"=X c #C3B39C",
"-X c #C3BB9D",
";X c #C48B57",
":X c #C48E62",
">X c #C49A75",
",X c #C4A485",
"<X c #C4AB91",
"1X c #C5A67D",
"2X c #C5BA95",
"3X c #C6AB85",
"4X c #C6B295",
"5X c #C6B587",
"6X c #C7956A",
"7X c #C89C73",
"8X c #C89E68",
"9X c #C9B58F",
"0X c #CA945F",
"qX c #CA9D79",
"wX c #CAAA72",
"eX c #CBA27E",
"rX c #CBA372",
"tX c #CBBE9D",
"yX c #CCA882",
"uX c #CCB69D",
"iX c #CCC3A7",
"pX c #CDAE89",
"aX c #CDB184",
"sX c #CDBD97",
"dX c #CEA789",
"fX c #CF996C",
"gX c #CFA87C",
"hX c #CFB296",
"jX c #D09D5A",
"kX c #D0B58F",
"lX c #D29E76",
"zX c #D3AD8E",
"xX c #D3B789",
"cX c #D3BD9D",
"vX c #D4BA95",
"bX c #D5B07F",
"nX c #D68E52",
"mX c #D6A16E",
"MX c #D79964",
"NX c #D7C7A0",
"BX c #D7C8AD",
"VX c #D9A777",
"CX c #D9AC84",
"ZX c #D9B593",
"AX c #D9C094",
"SX c #DCB998",
"DX c #E0C29A",
"FX c #E1B58A",
"GX c #E2D2AD",
"HX c #E3C8A4",
"JX c #E4A063",
"KX c #EDAE71",
"LX c #F0DDBA",
"PX c #F2CB95",
"IX c #FCA15D",
"UX c #FFF9E6",
/* pixels */
"*X1X>.*.e.%X<Xa.).iXg.).=._._ _ S.MXJXKXjXW.T.7.F.:X6Xj.;X0XfXbXNXGXeXSXHX.Xd.0.vXCX8XJ.t.G U % 3 8.b.T.) ; | b l Z.X.T BX/.oX/.",
"3X$Xe.-.).-XD.K.M.uX).).l *X%.*.Y.{.IXnX2.:X:X9.{.fXQ.qXVX+XwXvXvXGXqXkXHXN.T <X3XE.mX%X6.D j.X . bXaXk.x.3 C e l M G | <XOX7X|.",
"kX(.g.P.M.<.=X].].tX].%.o (.k.i.R.k.nX8   MX~.@X~.0XE.{.7X>XPXDXyXGXlXbXkXA.Y n.kX/.lX$X*.W .XX   wXVXoXb.8 ` j m 4.F V hX3X$X3X",
"!.'.K.0.X   D.&X(.XX4X%.  0.:X| B.W.MXh   :X@X;X`.0XVXFXz   CXPXeXHX+XmX4X&X*   XXeXv.(.b.D &.i . FX6XoX,.3 >.J C ,X+   cXpXeXkX",
"g.].0.K.z X ).(.B.'.4XQ   @.8X) +X^.nXc.% MX`.0Xl.C.>XDXe . ZXHXpXPXjX(.uX'.r + 9XQ.bXzXE.D W c X pXt.fX}.8 o.Z o.,Xr . LX'.eXvX",
"(.*X3.S...+ xX4XV.*X(.pX  #X{.! nX{.@X2.O 0XW.~.Z.b.xXgXt.X FXDXyXHX7XB.3XR.l # 7X>XCXbX7XD o.S . CX>XVXwX1 l.H 9 v.v _ GXE.,XkX",
"J.kXB.H.e - AX<XJ.XXn.OX. OXfXc.nX6XoX2.O {.e.Z.C.W.cX#XJ.% VXFX1XpXzX(.pXi.f f CXJ.1X7X6Xh D  .5 CXfXeX+XD E.S x E.F d.ZXR.xXAX",
"!.sXV.d.z 5 4X).V.].B.X.X 6XfXF.`.:X#XE 1 MXrX~.N.G.aXxXd., 7XaX,XAXaX(.pXa.S K.HXvX1X6X>Xh D S.# /.$XdX:XD 6X+.c.+X=.B.ZX7XDXkX",
"<XuXu.].V.6 4X4XV.XX(.s.O E.:X@X{.~.$XE 8 KX8XF.A..XgX'.K.- 1XNXyXSXpX.X3Xs.[.cXcXqXFX0X/.h U Y t G.OXmXfXW eXI.{.4.(.vXSXrXSXpX",
"T.'.K.q.5.5 D.K.f.pX.X].= x.C.~.~.Z.%Xe 9 VX:X^.e. X XwX+X9 k.kXxXUXLXK.,X0.iX).yXlXFX+XOXd { 7 T T.;XmX`.]  X`.hXK.qXDXrXpXZXHX",
"OX!.&Xq.F u @.S } 1XJ.5X9 =.t.:X~.6.(.F > 6XE.Z.}.gX:X8X^.{ 6.aXpXGXLXhXhXX.).<.BXlXyX>X>Xd l q k OX{.6Xc.! v.eXyXx.0.yXeXdXFXSX",
"z.&Xm.].=.` 4.Y b.(.|.SX3 ' 9.OXZ.G..Xa g @XQ.a.#XgX#X0.u.i.H.tXHXS.<.[.<X#.].[.cXeXSX'.4Xl ~ l P Q.G.6X;Xh t.dX` } e..X$X|.,XSX",
"t.y.i.d.-.B.+.K T.J.E.kXK <.&.7X4.oXU.^ Z {.}.|.I.J.T.e.@...&.e.#X+X*XS.[.K.GXBXiXH.dX[.R.V a.) r.rX&X>X~.D .X7Xf.,.Z.| %.rX&.eX",
"L.s.>.' z ,.9.C a.n.j.<Xg !.:.#X' z.G.w.m N.gX#X/.I.+XJ.e.^ ^ 9.u.u.*Xg.'.&X[.iXiXx..XK.k.S }.M :.MXyXfX^.j C.lXS.*.) C =XQ.Z.L.",
"l.J.a. .Y } 8.5 +.U.Z.,X..r.J G.J.#.9.v.L E.eX*X,X/.xXsX*.^ O.T.f...,XQ !.D. .d.).gXZX.XG.z ) d e.gX,.L.k.j h fXn...V.o r.L.8Xx.",
"j.XXOXo C J.J.u A a.u.J.( R.B h G.} ( ^.H ~.fXH.H./.|.9XU.k W k.f.u.V.).4X_ 7 ].xXKX(.).:.< _ w b.aX9.o.Z , & ( u.J.5X  + mX0X0.",
"} #Xe.  o gXR.i.5.) n.(./ W.{ 1 j ( l G.x ~.jXA.x.A.VXf.r.[ o.0Xb.| s.9X*X'.].-XcX}.0.d.b = b - { #Xk.9 / > m P XX|.#X  * n.^ { ",
"` H.>X. + gX` e ] h L A g 9.O.8 [ ;.- o.] `.mX6Xn.L.CXz...X.] 0X^.( M z ).'.].iXsXdX XR.S $ - u Y +Xw.9 A t e *.9XeXJ.X 7 z u ..",
"H.3.9.X - r.=.u.M ) d.<.) ..^ h 2.F.E c.[ ;XnXyXbX0X6XgXJ...J :.b.6.H._ D.K.d.].NXeX/.d.M 3 @ A { .Xo.U ` % a d.&XR.vX9  .z y S ",
"( 3.Z.X > k./ ) q.i.d.q.-.V.x.8 2.c.o.F.J `.w.Z.|.N.`.gXT.|.6.9.J./.yX<.M.I y.uXBXyXG.d.:Xx - i.j.B.O.O.I % c 3.V.I J.M -. .J.0.",
"%.k.y.@ L g.5.0.V.-.K.).Y.a.*.1 ] @XJ X.] ~.;.7.r.6X`.aX<X|.r.n.K.XXkX-.<.5 !.tXcX;Xv.*.@XD = M.<Xb.v o.*.e +.P ` P ) u ..3.6.a.",
".Xb.Z.3 ..%.I d.g.-.-.-.B.0.r.B ] F.E ;.w.N.~.JX' MXt.9XxX(.4.'.%X|.B.<.+.H P.P.pXF.6.1X{.x > 9XNXSX[ J =.^ *.g *X' 4.@.w r.~ ..",
").a.b.p <.%.Y s.V.A +. .-.+.(.' x ^ / :.nX`.6XPX~ `.Q.5XrXzXj.^.*X,X!.pX0.> iX].J.{.yXgX`.D ) hXAX}.Z d +.K S.V 3Xa.x.#XS f.J.M ",
"NX5.4.F m.d.k.R.J.~ ` a.4XP J.T j ( [ Q.`.~.0XPXe.N.G.AX~.CX+XU.pXxXXXR.i.J P.q.,.{.u.:.@X] ^ <X!.:.9.9 A ' J.L t.' m.5XD.=.0. .",
"kX<.k 8.0Xy.J.!.r.4.{ XXY.I H.A x } q a.7.9.:XKXF.JXMXbXE.eXu.J.yXbXyXQ.` #.P.Q @.( p V @X] ^ =XSXrXj.9 4.e.*XB 9 y B.S.S.5 I b.",
"%X0.D 9.j.8.}.|. .m.Y.u.S.&.v.o.j E a | w.Z.G.fXz.gX8.rXwXbXv.X.x.(.x./.>Xl.[.Q *.K ~ b @X] j iXDX8X$.; O./ 9Xz V t t S L >.m S.",
"gX5.g B...` T.U.E.,XiXr.6.>.9.j.[ E U { I F.t.W.7XaXj.rXeX4Xn.j.x.<XU.a.v.! V.M.Y e A l X.2.t.iX3X~.7., &.~ r.L y.F F g.. % k D.",
"pXV.m |.r.i.uXf.~.9XcXB.E ~ b.%X/ ^ ..3.) 7.A.gXgXaXA.xXwX.XE.N.,.*X!.K.l.h ^ F n b M ..B Z F =.yXQ.! O y.%.v.u.m.F | tX  . V i.",
"3XY.L :.k.Y ).-.R.NXpX/.z f.W.B.| ^ Y.A { t.( T.qXbX$.,X,XZ.{.F.N.,X).!.#.g <.V &.6X~ z 0 m u s.AXR.J O 3.Y.'.s.B.K.@.sXX 5 e g.",
"}.9XA , #Xf T.NXSXDX.XGX` M.~ u.) x m.s.,.,.L t.VXVX;XDXPX{.Q.X.4.&XiXH.;.9 q.<.r.7.C.U h d K =XsX/.F.@ +.U.BX].g.'.u ).X y I d.",
"|.].u . E ' *XxXLXHXAXLX( ) b ..Y h / +.J.) b.NXmXmX0XxX9XW.H.( I n.DXe.E m | s.<.z 0 C.2.Z Z NXhXbX@X@ b J.hX|.2X-X7 d.X A v 3.",
"#XU.`     K Y.9XDXaXgXHXP d C 4.p 0 c 0.3.} zXLX;X8X:XCX!.,.z.2.x H.1Xb.J 3 l Q ..0.` >.! ! h 6X.X+X9.o i :.3XXX'.].5 g.T - t u.",
"u.u.b.o O G.1XHXGXaXn.HXs.Y a ..K h C 1Xn.t.^ ( 4.OX;XoX9Xf.w.7.j 3.T.v.V % l B.S.W.8.V % % x J.H.E.Q.8 g F a.!.5.5X5 a ' F Y '.",
"b.(.V.5 O Y.m.HXLXcXXXiXd.-.@.I.{ o.B gXR.W.N.n.4.oXjXz.*X!.#.$.W b.1XE.E 9 N ~ n..X8./ % @ U 3Xb.Z.:X- d d.z P A x.% 6 A B - r ",
"H.|.}.t 3 i.T tXGXHX<XNX3.K.'.4.x.L 0 A.r.{.{.^.E.W.mXI.9XU.G.8.x $./.H.Z 3 T P v.3.T.' 1 % c BXNX9.X.@ 4 m.M 6 & w 6 =.%.: u o ",
"r.(.(.I 5 | D.*XGXHXhXvX4.(.kXk k.7XD G.*.6XZ.j.A.#XJX8XB.Z.1XN.[ L.k.%XG % f ~ ..j.j. .> 9 , sXBX*X8.% ; 9X@.8 o = _ ..n.a $ w ",
"~ (.9X` r..XU.B.GXNXzXNX|.#.aX0.,.t.^ +XS.Q.E.j.W.T.JX@XN.^ 1XQ.[ E ^.yXP O - _ (.{.E.z 6 @ @ kXAXpX:.3 @ hX+.= > % 6 w ) w 6 g ",
"..pXxXz.} :X,.r.sXGXkXGX(./ xX#Xw.:.o.L.V.|.E.U R.$.JX0Xz.(  XT.,.( %Xb.A 0 = s.!.W.>X) m % ; AXhX*Xb.g o | w = y 0 B = >.5 9 j ",
"x.dXbXE. .6XJ.u.vXHX3XDXsXJ.MXN.`.2.O.z.(.6.{.[ (.` L.`.N.t...B.j.N.$XS.) ; 4 ~ 5X}.qXe.i % e (.LXNXj.8 # s.a % p g U - &.^ h J ",
"u.cXDXH.g.^.*X<.).AX9XUXUXvXw.>.9.8.j X.rXG.~.[ |./.a.X.o.} X.A.Q.8..Xn.A w b >.,.~.gXe.k = g OX$XZ.E.d 5 5.H e 6 b 9 9 J X.h U ",
"..'.NXH.2X*.1XhXuXNX5XNX=X%X.Xs.W.).2.O./.k.;XE '.0.a.*.m 8.>.9.^.E./.V.A > Y 3.!.G >.} ( % h m 0.DXyXk 5 s.- 0 I vX .9 E H G k ",
"B.=.BX4.=Xi.3X-X*X2X!.kX6.&.u.` OXpXP F.OX@.w.,.(.k.~ +.y G { &.W.^.k.).Y % Q S ).T.8.Z J % 6 b (.xXI.V , i.- x.B.DXQ k G d 8.:.",
"_.F GX,XD. .(.BXiXtX_.DXR.e.a.&...e.*.{.J l :.L S.r.H.A B E ^ 7.`.Z.$Xs.u & f ' H.[ ] 2.i @ < ~ H.kXkX,.; C c +.F '.X . b.6 h 8.",
"cXX   S.=X .!.UXM.0.m.*X*X_.Y.%.=.0.) w.Z.I A.X.S.u.( T V X.J 8.{. Xb.Y.n < 6 J v.{ h t b % w y | DXkXn.} A x.* o m . o A.^ X.p ",
"DX5 X &XtXi.BX5XM.s.d.tX9X(.BXg.S s.@.) B.k.t.W (.V.0.*.3.6.W G.A.{ !./.z y y A d.P H M , o , w 4 V.,X3X0.2X%.6 # *.X @ r...O.M ",
"sXr 2 XXtX%XiXD.-.m.M.tXGXK.BXU.T d.<.s.!.r.M [ 5Xg.K.F F i.O.^.>X~.S.y.%.$ @ a A k V y , & i M # a !.xXR.d.o 4 ; e.O @ ) I w (.",
".XXXT tX-X9X-X'.Y g.).iXiX].-X@. .BXP.h._.h.+ t ].tXg.S.P ) ^.#X@.^.!.K K @ @ a @.t m ( 4 < P a @ = ) AX^.w % J x }.5 ; ) b H |.",
"%XY.I AXP./.R |  .a.].tXhXD.iX[.T ' d.<.Q s 2 n hXB.9.K.S.4.(.).n { B.g.F g f ) f...o.k 5 w c c & w ; ZX#XH Z C. XDX0.3 ~ t ) zX",
"x.S.S *X<.~ Q ` ' n._.5X_.K.NXm.b Y f f N 2 f o.6Xk.*.d.%.k.B.m.Y.| NXM.' g.N =.!.r.^ H k V V &.V H , y.0.+.[ J ^.DX*XJ Z.m =.1X",
"/.XXs.J.r.b.1.Q S k.4X=X4Xf.2Xa._ ' I q c m c m :Xn.A -.' ` 4.} P *.(.@.P b o A K.a.V C y ~ } b.j.8.e >.} V.>.j b.zXa.G  XH P uX",
">XXX!.G.oXH.h.<.u .._.].m.m.Y.|.g.) $.&.L @.V.5.$.DX=.' ` ) !.NX0.u.+.a.P < O I ).r.E ^ = y j.b.,.oXm e.a 0./.I :.eX*.^ e.~ r.cX",
"1X9X*X>XoX|.M. ._ _.Y.P.!.G.hXY.I K t.f.+._ y.-.) OXM.Q Y | |.BXr.r.' 8.} < @ y.kXz./ b a t / ^.x.t.| F , |.%X+.A e.z ) a.r.,XcX",
"R.qX+X$ e ,XK.N A tX-XXX&XU.sXS.%.T ` +.| _ I P <.w.dXD.r.#.e.K./ #.' / #.y % e.*X1X>.| A A i 9.y.C @.n A a.b.L V z X #.U.J.SX4X",
"R.VXx.$ : %XK.R -.sXY.Y.<XY.hX9X<.M J.Y Y z 3.M Y =.x.B.n.V }  .F A )  .b w > } uXkXN...M i 6 [ ^ y n.P Q @ W.,X'.'.o >.J.j XXK.",
"%XaXP z ` M.V.-.D.-X*X9X..*.tXiXD.z | n ) _ 0.#.Y +.|.k.5.V +.-. .m ( x.~ S 6 ~ XX#Xu.*.b , , E U A OXz.0.@ eX1XaXB.+ E = L #XV.",
"0.R.> X aXq.<.3.sX4XXXcXJ.|.5X_.J.K.` A K P %.A ) A 5.!.t.^ D.2XL [ z.k.z 6 = } !.9Xu.b.U = g g ) C fXn.u.} R.4.z.*.X ^ # ) v ` ",
"a.|.X   4._.q._.).sXS.y DX).(.S.>.).l A y A I s V +.K.M.i.} e...&.X.j.R.l - a e _.NX6.+X^ > x C V c VXxXR.f.0.` ) H.. :XG I / a.",
"#XpX<.  5 ).D.GX'.AX_.  z xXn.!.n.=XK.5 X _ I p. .4.y.0.m.m C.9./ E L.H.g < m.X 5.PXn.A.e.6 d i.LXo FX9XJ.pX'.K #.F   yXa *.&.$X",
"T +.AX  . a.V.GX2X4XtX  T PX/.).XXBXDX+   y | } _ } 8.A.I.  O 6Xj.T.t.G.m < ).  $ LX|.}.%.e C | 4XO PX3X|.2XvX~ K i   %.p &.O.g.",
"Q p.pX  + R Y -Xd.sXXX. AXDXR.m.,XcXtX# . 3.M P S / }.B.eX  X lXF.eX/.A.F < &X. b LX7XrX4.d +.B P   |.|.kXaXtX-.0.!.. ` m F 7 F ",
"a.'.%XX - tXP.Q S cXsX5 kXNXI.XX5XcXuXS + S i } ..B R.!.aX4 = Z./ v.L.X.g i BX7 n LXE.H.H.d T L dX. vXu.cXaX<XK.9X5Xo F p #.y K ",
"5 .XxX@ b sXq.4XBX_.sX* kXBXG j._.*X*XS # Y B x F A +.r.yX= b +X4.}.x.U G W GXF M GXi.Q.k.K A u.yXpXT.e.cX%X<X).).S.: >.V V > K ",
"m G.kX, ) _.<.&X_.!.vX@.vXGX* d *XtX_.P.r b c e M X.#.x.1X>.A.8XK eX2XY ` D AXD.!.sX,XCXj.C #.%Xj.b.../.vX(.J.J.&Xf.= m d F S f.",
"y.R.k.O.n.5._ * Y %XvX,XNXsXI b.).tXD.iXY w g Z } A.G.>XlXeXhXH.+.).2X'.I w *X].4XXXt.dXA.u e.|.fX#XB.x.&X<Xb.3X3XU.9 e j P I g."
};
