/* XPM */
static char *de_dust2_material_0[] = {
/* columns rows colors chars-per-pixel */
"64 64 255 2 ",
"   c #000000",
".  c #090104",
"X  c #180101",
"o  c #020315",
"O  c #150614",
"+  c #1C1718",
"@  c #280301",
"#  c #390704",
"$  c #2B130B",
"%  c #391807",
"&  c #281B17",
"*  c #371B16",
"=  c #26211D",
"-  c #39241B",
";  c #0F1B24",
":  c #1E242C",
">  c #292424",
",  c #392925",
"<  c #342F31",
"1  c #3A3735",
"2  c #461705",
"3  c #521203",
"4  c #471C16",
"5  c #562C0F",
"6  c #462519",
"7  c #572A1A",
"8  c #6B2E0E",
"9  c #663419",
"0  c #462C24",
"q  c #532E23",
"w  c #49352A",
"e  c #573527",
"r  c #5C3B2D",
"t  c #473936",
"y  c #4B3A34",
"u  c #533C34",
"i  c #583C34",
"p  c #663B28",
"a  c #703B25",
"s  c #653C32",
"d  c #6B431C",
"f  c #48433B",
"g  c #594536",
"h  c #5C4831",
"j  c #55443B",
"k  c #5B443B",
"l  c #67432D",
"z  c #78452D",
"x  c #7E542C",
"c  c #634334",
"v  c #6B4433",
"b  c #674937",
"n  c #644B3C",
"m  c #6C4B3C",
"M  c #774C35",
"N  c #734D3B",
"B  c #6C523A",
"V  c #78533B",
"C  c #4A4848",
"Z  c #584B44",
"A  c #5D5348",
"S  c #5B5957",
"D  c #634D44",
"F  c #684942",
"G  c #734F41",
"H  c #655447",
"J  c #6C5344",
"K  c #6C554B",
"L  c #6C594D",
"P  c #735445",
"I  c #7B5543",
"U  c #7C5A44",
"Y  c #745848",
"T  c #745A4C",
"R  c #7C5C4B",
"E  c #695C54",
"W  c #735D53",
"Q  c #7B5D51",
"!  c #6E6B4E",
"~  c #7A604A",
"^  c #7D624C",
"/  c #6B6358",
"(  c #7D6354",
")  c #74645B",
"_  c #7A6658",
"`  c #5B6562",
"'  c #776B64",
"]  c #7B6C63",
"[  c #716C6C",
"{  c #7B7168",
"}  c #8A4A2D",
"|  c #9E5222",
" . c #86563B",
".. c #975636",
"X. c #A4582E",
"o. c #A46334",
"O. c #C1753C",
"+. c #835B44",
"@. c #8B5D45",
"#. c #835D4B",
"$. c #965E44",
"%. c #83624C",
"&. c #886448",
"*. c #8B644C",
"=. c #94674A",
"-. c #9B724E",
";. c #846452",
":. c #896654",
">. c #846954",
",. c #8C6B53",
"<. c #846B5B",
"1. c #8C6D5B",
"2. c #936B53",
"3. c #966D56",
"4. c #8B745B",
"5. c #93735C",
"6. c #987658",
"7. c #9C745C",
"8. c #A86A46",
"9. c #AD704A",
"0. c #A57859",
"q. c #B67A55",
"w. c #846D62",
"e. c #837165",
"r. c #8C7364",
"t. c #897969",
"y. c #947562",
"u. c #977667",
"i. c #947A64",
"p. c #9C7B64",
"a. c #947B6B",
"s. c #9B7D6A",
"d. c #867A73",
"f. c #8C7C73",
"g. c #967E71",
"h. c #A47D66",
"j. c #7C817B",
"k. c #94845E",
"l. c #A6835D",
"z. c #B8835B",
"x. c #8B8A6D",
"c. c #97836A",
"v. c #9C826C",
"b. c #8C8476",
"n. c #948274",
"m. c #9B8474",
"M. c #99887A",
"N. c #AC8364",
"B. c #A3846B",
"V. c #AB856B",
"C. c #A8886A",
"Z. c #B88965",
"A. c #B48B6D",
"S. c #B9936B",
"D. c #A48673",
"F. c #A58A74",
"G. c #AA8B74",
"H. c #A38C7B",
"J. c #AB8E7A",
"K. c #B58E74",
"L. c #AA937B",
"P. c #B49374",
"I. c #B4947B",
"U. c #B9977A",
"Y. c #B8A67B",
"T. c #C68B5C",
"R. c #D18851",
"E. c #DD9F5C",
"W. c #C99067",
"Q. c #C89669",
"!. c #D59A69",
"~. c #C59A77",
"^. c #CAA37A",
"/. c #DAA871",
"(. c #D7A778",
"). c #E5AB77",
"_. c #EBB274",
"`. c #787B80",
"'. c #8F8D8C",
"]. c #988C83",
"[. c #9C9588",
"{. c #AB9482",
"}. c #A89887",
"|. c #AA978A",
" X c #B49B84",
".X c #B69986",
"XX c #BB9C83",
"oX c #B49D8B",
"OX c #A79C93",
"+X c #BAA389",
"@X c #BCA38C",
"#X c #ABA395",
"$X c #B9A796",
"%X c #B1A892",
"&X c #A09FA3",
"*X c #B7ADA5",
"=X c #B0ADAB",
"-X c #BCB4A6",
";X c #C59E81",
":X c #C3A385",
">X c #C8A787",
",X c #C3A48B",
"<X c #CBAA8B",
"1X c #D3AB86",
"2X c #CBB28B",
"3X c #D8B389",
"4X c #C3AB93",
"5X c #C8AD97",
"6X c #D3AE93",
"7X c #CCB294",
"8X c #CCB39C",
"9X c #C7B89B",
"0X c #D4B494",
"qX c #D7B999",
"wX c #E6B88A",
"eX c #F1B986",
"rX c #E4BC95",
"tX c #C9B8A6",
"yX c #CAB7A8",
"uX c #D6BCA4",
"iX c #C7BCB4",
"pX c #CFC797",
"aX c #D8C498",
"sX c #E8C49A",
"dX c #F2CC94",
"fX c #F7CA99",
"gX c #DDC2A4",
"hX c #D8C6AA",
"jX c #C9C5B7",
"kX c #D4CCB1",
"lX c #D7C8B4",
"zX c #E6C9A7",
"xX c #F6CBA0",
"cX c #E9D5AA",
"vX c #F6D7AB",
"bX c #E6CDB2",
"nX c #E9D7B7",
"mX c #E5D3BA",
"MX c #F6DAB7",
"NX c #F7E7B3",
"BX c #FBE4BA",
"VX c #CBC8C4",
"CX c #D6CCC7",
"ZX c #D9D6C7",
"AX c #D7D5D4",
"SX c #E6D8C4",
"DX c #E9DCCD",
"FX c #F8E7C8",
"GX c #F3EBC8",
"HX c #E9E5D8",
"JX c #F9ECD7",
"KX c #FEF5D8",
"LX c #F2ECE3",
"PX c #FDFAE9",
"IX c #FFFFF7",
/* pixels */
"I.uXyXV.0.5Xh.s J =.h.h.,X.X{.;XXXq. .Q..XuXU.>XlX~..XXX4X$X=.I.5XU.5XXXyX5X,XmXzXG.P.I.h.6X8X1XXX.X$X$X5X3..XzX1X8XoX$XyXbX4XI.",
"I.5XyXh.-.8Xa.v Y 7.h.h.,X.X.X,XI.0.N K.XXyXV.U.yXN.oXXX+X.X0.;X5X~.yXXX5X*X.XbXhXh.K.I.h.>X;XU.P.J.+X$X$X1.A.7XU.4XXXoXyX8XXXs.",
"I.p.4Xs.z hXa.Y Y H.h.:.<X.X,X4XF.=.m I.XX8X=.h.hX*.|..Xh.n.U.qX<X>X8X<X5X4XV.zXhX1.Z.G.2.A.p.1.1.B.oX{.J.Y u.U.+.U.G.L.oXD.I D ",
"u.G {.a.p tXw.( ;.H.u.G {.g.M.|._ m u a.G..Xv @.5Xv M.g.I Y G.7XV.I.7XU.|..Xa.XXoX+.7.4.Q 0.M l V 3.H.a.a.Y Y c.r a.a.c.g.G 2 - ",
"k F p.r.b H.( F a.g.Y 0 :.w.F K w , & k ;.R e Y m.- W _ e k W B.Y <.A.1.H w.w.W K Y M L b %.c 0 Y Y ] Y a.W Y 1.i n Y <._ t * 0 ",
"O u Y L H ( Z i ) ;.y $ r Z & u . & >   e , , g c t A u e t w K w i %.r y K D t & g * 0 w m , w c Z A w Q K k B w , h D Z & $ , ",
"  + 0 + A u , < > 0     , $ < E $ < j   & & < , X / A & W q O X , > w   / Y @ E <   . . o -   D - , c X ,     , . y k , t     O ",
"V     A E k , E <   E / X   b.] $ y -.-   [ x.  < [.E t g.[.  C m.Y   C OXY < E [.+ < b.w   ! K < w f.S   ` S   1 t.w 1 [ {   + ",
"(.#   ,Xu.w.j ,X]   9XhX  ; AX_   k !.V   jXkX  j.kX) w.}.LX  OXKXY.  L.kXE f.Z LXA [ LX>.  0XB D Y hX&X  VXkX  b.yXX ^ *XHX  y ",
"dX9 f hX1.5X<.<X.XX nXnX6 E DXL d.n /.7.  HXNXq -XuX{ -Xb.IXE -XIX2Xf zXtX'.tXi IXb.&XIXN./ zXe #X4.jXAX% LXnX@ %X%Xf S.#XPXg _ ",
"2X=.[.aXD HX.Xc.pXs zXaX>.S.F.< HX! B.P.b KXMXU.DXa.j.JXh LX8X].nXS.tXBXB jXPX5 VX=X-XPXG.8X.X  KXc.OXIXt.HX8XG.2Xj b.dXt nXM..X",
"Y.=.uX.XS PX~.K cXU >X^.k.sX3 ` IXV ] qXV nXuXhXKX5 &XPX2 AXFXW hXc.ZXFX  AXPX8 &X=X#XZX4.MX( C IXc.' IX#XjXF.^.^.  $XdX  pX9Xm.",
"S.w sXV `.FX9.r dX! L.L.V fXX -XJX3 w.NXq OXm.jXJXX =XJX8 ZXNX# SXt.*XDX  AXJX8 &X*XA 5Xy 8Xw OXIXl.n KX-X.XA G.z.  dXdX# hXcX> ",
"N.  3X# &XnX| 4 eX! x.x.K vX  ZXMX3 _ BXw ]._ jXZX  CXSX8 jXNXX SXt.&XCX  AXFX9 [.OX$ ,X  +X. jXPX-.$ FX$Xc.= B.=.o NX_.q ,X2X  ",
"0.> Z.# jXMX| , dX=.[.x.{ kX  ZXfX3 A GX^ -Xt.iXyX  LXbX3 M.BXK kXx.-XiX  HXFXp { '.E yX  9X@ VXKX+.  zX+X.X, XXV : FXdXg 4.-.  ",
"-.1 -.% HXNXo.- 3X0.&Xb.'.iX  AX_.5 , BXk.%Xg.tX<X  PXuX3 H BX;.hXr.iX#X  DXbXm D f.d.iX  $X@ AXBXv   pXF.$Xt 5Xe ` PXdXb d  .o ",
"7.Z c.- PXDX=.- U.h.}.x.&X-X  ZX/.2 O nXl.[.<.kX.X  KX3X2 f MXV tXa.uX|.  nX6XY u M.[.kX  %X$ ZXBXV # pX4.oXS 6X% [.KXwXF r z.  ",
"r.E M.& JXBX=.& B.h.L.c.*X#X  ZX/.#   cXS.t._ 9XF.o KX3Xp w nXU %Xx.yXH.  bX>XQ 4 .X[.tX  H.- kXxXm * 0X#.#X' 3X@ -XKX^.u r ^., ",
"4._ H.  bXeX .& D.6.m.c.tXH.  mX).%   bXP.e.4.B.2.; KXzXz y SX4.%X[.kXb.  nX>XY 2 $X[.$X  <.r cXsXj   S.*.%X] 9X  jXGXN., y 3Xv ",
"~ ~ m.  1X)...> M.6.a.c.4X2.  mXwX7   hXC.] t.-.V : KXbX .j nXr.}.H.tXf.  mX;XQ % tX[.oXX D g dX(.t   B.*.%X<.+X  kXBX .& 1 wXV ",
"N H Y   1X/.$.0 H.B.6.a.^.U   mXrXr   hX5./ F.2.z > KXzX-.k 8Xr.a.a.|.e.  gXG.+.% jXb.H.$ t k cX1Xi   >.#.#XW P.  hXdX# & w 3XB ",
"i i p   ~.!.*.0 M.G.( _ S.B   mX0Xe   pX&.j ].-.M + FXhXh.H +Xr.5.6.c.;.  0Xh.1.- jXb.m.& & A vXU.c - Y U H.D h.  9XwX# w , ^.k ",
"e u e & ).~.*.0 t.h.n ! M.B   ZX<X$   2XU y 7.>.@.  MXgX~.F XX5.r.B.w.<.  qXI.7.< 4X] D.& X ) BX0.Y p >.U m.K 7.  {.3XN v - N., ",
"- , s & ~.Q.3.4 Y 2.j D t.^   kXG.    ,XB w 4.>.1.  hXuXK.Z $X3.n.J.1.K 1 uXJ.p.& I.e.H., @ ' MX*.D s r.Y ( j ;.  t.qX1.L $ %.o ",
"  + Z o A.Q.@.* e e f L u.%.  ,XY     .Xi y t.;.1.  uX8X;.1 jXY L.+X3.0 S hXp.w.  D.b.[.t > A zXv 1 X b.' , > s   / SX;.Z   s   ",
"6 e +.K U.Z.:.k q 4 ^ -.Z.0.t 1XI r h +X>.r.oXA.G.k 8X,X1.W tX@.L.2X,XY b.lX=.3.A K.J.{.;.2.c.fX3.g e U.a.2 4 p 3 ( SX2.I w a w ",
"} ..q.1XsXq.2.1.V B T.~.wXS.A.zXU.q.~.wX1XqXMXzX6X1X0XU.~.q.;Xq.Z.W.GX6X1XzXq.V.>X6XW.Q.Z.wXzXfXwXo.-.wXQ...} | | O.eXq.q.0.o.0.",
"| ..q.(.rX@.;.u.D n q.!.(.S.>X0XA.T.^./.>X3XMXrX1XwXU.p.6XT.T.q.9.9.nX4X~.1X8.Z.0X6XW.R.z.wXsX(.1X8.z.).!.8.} | | O.T.9.q.h.o.9.",
"8 8 p @.=., 0 W - & p .. .1.N.;.y  .+...c 8.Z.=.*.0.#.Y .X@.Z.0.} z a.:.@.U 2 7.A.I.z...s 2.N.#.#.$.-.-.*.+.p p 9 z M v M V 7 p ",
"} # t q 9 o , _ K > e 7 s ^ 2.6   p 6 }   ..X.4 I *.u D M.r.,XG.=.5 2 k e 4 y 2.u.h.1X;.X F I @ , #.1._ W g.W Y > Y , k k c $ h ",
"7.> ] s V u H t.XX/ h.9 5.c.a.J , B j A.e I.z.c m.s.D ( a.-XmX4X~.9 j ) v c ].r.M.D.DXOX< d.] , C / t.H.m.uX].s.$ H.f ( E K n a.",
".X< ] k 1.;.K t.7X<.U.v .XH.n.1.g L t.<Xs XX~.) .XH.Y a.w.ZXSXuX0X3 S { %.>.OX( g.s.JX#Xy ].[ i Z E t.|.{.zX[.[., L._ e._ ) Y F.",
"4XC j y p.g.y ] oXE I.%.$XG.M.8.F E $XqX- G.~.g..X.X .H.Z DXnX+X~.# { [ H.B.].k <.K bX{.t |.' M t j _ M.oXuXw.b.C _ P.f.] ' _ 7.",
",XD t ] +X,X- W {.W L.m.4XJ.|.W.*.E lX0Xk F.<X{..X,Xh.5Xt.ZXqXXXK.p d.{ XX<Xf.w K D 0Xc.t [.a.D._ F _ g.4X<XW d.E F 8XM.] ' L l.",
"G.E A $XzXuX0 _ {.] F.J..XJ.8XrX8._ kXU.r.%XgXg.{.5XuXGXyXjX<X+Xz.3.g.<.~.zX] e F ( 0X4.t g.I.iX+Xr.W f.yX,XE M._ Y SX].t.E l U.",
"u.] ] tXcX0XF ( .Xf.a.+XXXJ.hXrXo.K -XZ..X*XuXs.D.8XiXSXyXoX,X8XZ.0.d.^ ~.gXt.B k t.>Xw.u a.>XkX$X.XE d.iX<X{ g.a.p.FX{.n.f l +X",
"p.w.d.oXU.B.6.Q %Xm.>.,X<X{.zX.X9 g w.>X,X.X1XB.h.oXg..XY ] 8XzX>X3.t.k A.U.M.<.e M..Xs.l a.8X+Xp.uXE ] 5XuXg.t.p.<XFX9X.X, L J.",
"h.;.|.]._ v 1.K $XB.^ 7X8X{.cX;.$ - D 5XK.G.;XV.h.$XD p   L tXhX3XY ' k S.+.t.e.< ]..Xg.g a.hX*.D yXW w.$XyXM.w.s.,X5X#XF., _ M.",
"B./ XXH.j $ y Z 4X2.<.8XhX{.qXH @ = K tXa.p.+XH.p.VXC @   n.tXyXwXV H Y $XX f L , g.,Xg.c a.iX$ O F.] t.$X4Xf.f.s.<.f n n n K c.",
"G.{ oXc.< j * W XX6.4.4XkX.X6XD E O t.lX1.1.,X{.3.AXA D C OX%X$X1XN ! G.pX  y L u t.4Xf.Y a.iX  j W [.M.oX|.t.g.L.n   ,   r.K G.",
"I.w.J.:.t I.g m.I.m.7..XtX%X!.:.{.X {.ZXp.*.;XoX0.AX] Y.|.#X[.*X^.M k.2X-Xf ] _ L e.+Xd.w.h.9X$ +Xu *X|..XH.t.H.^.4.' t.  -Xn C.",
"J.t.A.K.Z <XY $XG.}.B.+X$X*X/.7.pXx hXkX1.:.6XoX+XZXw.hXCXiX{.OXU.M c.sX+X) +X.Xm.( +Xt.t.U.9X> rX( jX].+XM.t.oXdXx.b.%X7 kXg F.",
"].M.^.FXK ;X=.5Xh.|.G.kXH.iXeX2.-XE.NX*Xs u.qXoXcXFX) hXHXHX+Xd.I.z x.1Xc.u.fXmX$Xb H.<.a.sXpXO 3X5XtX<.tX{.a.$XFX{ j.nXN.hXf c.",
"m.m.^.SXZ 4X0.,Xc.|.B.bXH.VXwX1.jX_.cXH.q s.bXoXGXhXE kXJXSX{.' G.x b.>Xc a.dXkXtXe n.m.e.2XY.* ^.0XoXY yXb.m.$XNX! x.NXS.:Xh { ",
"a.a.c.M.. 8XG.W F.OX1.zXOXVX>.^ HXT.h.e.e {.mX,XDX1.t ZXzXB.) f.M.M [.}.  ^ Q.b.}.r M.+XW <.f e Q.%._ <.XX( OXP.+X  a.1XM >.^ 6.",
"-.0.w.1   lXc.e J.[.*.0X7XVX< u.KX9.I W Y h.FX4XAX# b SXsX.._ #Xc.>.%X[.  4.9.b M.c 6.-X;.y   s.P.p u r.c.E *XB.<.  {.W.M f >.1.",
"N.z.r.  X SXW K {.[.-.2X3XZXC .XKXq.h.] u.p.JXgXCX  -.MXzXZ.M.mXb.F.$X#X  U.q.*.e.s p jXJ.Z # jXP.R u p.>.h jX4.e.  kXz.l.h  .l ",
"Q.^.G.  R HXK U J.P.Z.^._.SXA 0XFXo.G.M.u.V.MX0XjX  U.vXzX~.N.zXc.P.+XM.Z cXz.B <.=.8 hX.Xj ^ KX+X^ r h.&.*.$XP./ / GXQ.p.&.0.~ ",
"sXsXU.  2XKX5.V ^.S.rX1X^.dXE qXeXo.e.%XY ~.~.V.4X  cXdXMX.X=.C.Z.z.G._ H.KXN.6 m.Q.=.+XP., U.PXaXg p N.B.Q.9.zXH %XKX3Xg P.~.+X",
").0Xc.  fXBX5.^ 1X2.fXQ.c.Q.k 3XE.9 ] 9Xr 1X..V p.O BX_.aXb.9.v W.o.U 7 %XKXc.h C.W.-.p.1.@ 8XKXXX< -.0.S.Q.8 rXy 8XFX>Xf 3XS.,X",
"%.R > # fXrXs { 9X6 eX@.w e   ^.R.  c.S.q !.} $ y @ fX!.b Z S.# W.d =   L.FX<.5.-.&.#.b ,   8XhX0 6 W.h l. .# ^   ~.zXi t.pXg G.",
"v 6 1 D.fXW.w .XhXf wX-., Z g /.W.o Y.Z.#./.@.O h k.fXR.@ _ sX>.).a - / +XsX3.^.P.-.U w X 9 zX>X2 4.sXU ^.>.C B L Q.wX# +XhX7 N.",
">.Y }.GXdXQ.Y rXnXJ.zX>Xx.8X1XeXsXm.cX/.1XwX;XN Q.NXNX_.} aXKXcXfXX. .NXgX~.Z.eXcX^. .U a T.MX0X0.cXNX3XBX-X.X+XqX!.gX7.cXBX-.~.",
"4.#.9XFX(.S.Y 3XzX1X0X^.{.zXsXwX0XU.pXE.1X;X,X1.Q.NXsX/.8.zXGXcXaX..>.FXuX&.z.).zX~.-.7. .W.fX.XN.nXvXwXbXiX%X0XsXT.5Xh.aXnXh.Z.",
"Y M p..X=.-.%.%.N.Z.Z.1.L.Q.z.P.A.>.;.N +.R V.Y U C.4.V 1.<XF.7.>.7 z 4.a.r  .0.a.Y B.Z.+.N h.D V U.G.I.n.n.G.~.7.0.N.G B.,X@.+.",
"V v  .V e &.V r  .2.=.B G.0.%.>.:.r # # # 4 :.Y e p u * >.I.a # @ $ 5 4 Y * Y Y e w F.Z.Q e N   q 1.e w.m %.-.V.N @.=.v I 2.c p ",
"c r s l m ^ e *.v +.=.#.1.2.( R v 6 e r $ p Y G N N W q 1..XR 4 4 4 # g u.r F.Y I 1.a.1.N I Q * e ;.6 ( ;.3.Y G.2.%.*.;.+.+.0 e ",
"r c p v %.;.c 2.v v $.*. . .Y s 6 * e l 0 v F R #.#.;.s :.g.;.s 4 7 # m a.v F.L @.s.1.Y u #.Q k v %.* Y r.6.F r.6.U N #.G v & r ",
"6 V v 2.c.7.2.0.@.e  .=.p z V q % e u a e r Y 4.1.p.;.Y ;.2.$.Y # s 2 N Y M ~ b ;.1.#.s 4 N Q ;.V 1.0 G u.3.e s +. .p r N w * v ",
"$ M r ;.5.1.2.2. .z  ...v z M s 4 s q 7 e q #.2.;.h.w.W F } +.$.@ v v p l Y b m ;.;.#.p 6 I :.1.N  .y R 3.$.p 9 v  .e 4 m 7 4 p ",
"  # @ e s q z N 8 =.2. . .+. .:.6 p @ # 4 # a v 5 +.u.#.7 8 7 +.@ p 1.9 5 V V  .M W u.u n 1.c.;.3 q i #.@.9 N  .p %.z 4 N q # 2 ",
"v B b c 9 G ;.r.#.~.U.B.h.G.B.P.u.a.U M  .I =.*.3.h.K.7.G :.;.h.m +.I.*.e.G.0.N.2.h.I.#.-.N..X-.#.M 2.G.h.#.A..X6.I.J.Y p.6.%.Y ",
"S.Q.~.G.$.~.5XyX,XzXuX8XqXuX1X0XgXqX1XW.W.(.6X>XzXbXgX~..X>X5XhXS.Q.0X>XiXuX6XqX>X^.3XW.O.~.~.>XqX!.!.qX,X1XzXSXqXmXmX;X6X0X0X>X",
").eXwX^.9.wXzXSXuXMXbXbXMXMXaXzXMXnXfX).).fXsXrXJXFXMX~.5XzXMXFX1X(.sXrXSXbXsXvXrXwXeXE.R.)./.wXBXeX_.bX6XfXGXJXvXJXJX0XzXvXvXrX"
};
