/* XPM */
static char *de_dust2_material_32[] = {
/* columns rows colors chars-per-pixel */
"64 64 91 1 ",
"  c #210800",
". c #211000",
"X c #211008",
"o c #211010",
"O c #211808",
"+ c #211810",
"@ c #291008",
"# c #291010",
"$ c #291808",
"% c #291810",
"& c #292110",
"* c #292118",
"= c #311000",
"- c #311010",
"; c #311808",
": c #311810",
"> c #311818",
", c #312108",
"< c #312110",
"1 c #312118",
"2 c #312121",
"3 c #312921",
"4 c #391008",
"5 c #391808",
"6 c #391810",
"7 c #391818",
"8 c #392110",
"9 c #392118",
"0 c #392121",
"q c #392910",
"w c #392918",
"e c #392921",
"r c #392929",
"t c #421818",
"y c #422110",
"u c #422118",
"i c #422121",
"p c #422910",
"a c #422918",
"s c #422921",
"d c #422929",
"f c #423121",
"g c #423129",
"h c #4A2118",
"j c #4A2121",
"k c #4A2918",
"l c #4A2921",
"z c #4A2929",
"x c #4A3121",
"c c #4A3129",
"v c #4A3131",
"b c #4A3921",
"n c #4A3931",
"m c #521810",
"M c #522118",
"N c #522921",
"B c #522929",
"V c #523118",
"C c #523121",
"Z c #523129",
"A c #523131",
"S c #523921",
"D c #523929",
"F c #523931",
"G c #523939",
"H c #5A2921",
"J c #5A3129",
"K c #5A3131",
"L c #5A3921",
"P c #5A3929",
"I c #5A3931",
"U c #5A3939",
"Y c #5A4239",
"T c #633121",
"R c #633129",
"E c #633131",
"W c #633921",
"Q c #633929",
"! c #633931",
"~ c #633939",
"^ c #634231",
"/ c #634239",
"( c #6B3129",
") c #6B3131",
"_ c #6B3921",
"` c #6B3929",
"' c #6B3931",
"] c #6B4229",
"[ c #6B4231",
"{ c #733129",
"} c #733929",
/* pixels */
"FzBZgzsgsdcFGAFz1lisgdssdse8:ecgsz168Bh:1ew91w99w<%::%<1%<:<9%dF",
"c1scFF9sfsdZKE~~IAZjs<10eg9<9wcgs9:%<19<1<9ee99ww:$%%%%$<899<8en",
"wsceZFsescss1cK!Zci:%::<sce:<:21ic&%:@%<<:1sa8<u9<18<<%%<8999<9d",
"98sszAe18gv9<9dcdZce9;<1191<:9&%9Jsac999<99w9:8w8<<&&<e<91<9gf98",
"aegvcwsgsec<%99egs9%&:8es8:e9e9<e^ZSPcz988919<:8<%%O<<8scd<%wg99",
"e9scAssfFz99%<sue9$kC9es96ae1dFFFGwass919<08<896:;;::81cAFl<ecgc",
"s:9assgcvJZsz9ss99&C]`Jv98se9gIYFF9sZw09w99<6<9865;<9<<wvw8essgc",
"s1sssecUJZUZz9ssse<6b`{Ze9e919scn9lNJce1s98ew88:5,;%1sug~l9vw9se",
"csascgn)NZIKzwsg99xlCV_l9eeww9sNslE)Jdssfs:es<:<<8<%>iZA!leF919g",
"d9wescZv9scsssdg9uP/^Lkkjscxxwsd1lYIl11a8<<9s8<<:89es9zKg9ss989e",
"deesssAz88gs1ecd1sP'c<,Chicxxesw:slB<%9u:<:999a6<:9sd<icz1ad1:w9",
"<1sdseAc6wAd99e90aQ'f&<ay9cacvx:9999<:198<8999858<1909e9eylZ1:<1",
"919esc98HJZs8991<1asFCsa89efIUc:9BN&11:%<80<9<;5<9119190u(Jsu<:1",
"1<$iNseZ}Ke999assZZDFsqPx1edcs1<<u<:1$$%<98<18110e9ee99<sRI1%<%9",
"cs9slss('Ucs9wugG~/FGfwCDZBee09:<:$%%%%10w<:::199117<999<:119sse",
"fs9fl9sQ(Z09899ezIUIIIwwxlese<1;:&%<$199ee99:&::19i91999s1<<8ssZ",
"sexz9qT[J9989es<1A/IIIcx9910911:;<<<:<s8<18ee>90:li1u11w98<:<w1u",
"98cInaCPl%88989<eGUDccs<8u9ee<1<11:61e9%<010degczze999<988<;91:<",
";:9asw&<1:<99:99cFZs&w<sa9011&9<%<10su<$%0w0cgvss1<<:9:;1911<1<:",
"<%&%<&%$:1e98<1s99<&%81whie%%O><<19998;&us2:1911<8:898<:999::9&;",
"%99aw<<:%%<1::9se1%$&sa6mh&%OX%%:e18<:%%u+X.@&19:<1gs8098<09<1<%",
"9cnIxa8%u916<<sZcn98<&&y%$X&2$h1&:;::;%$X+XXX$;:891e9181%$<9181<",
"scvYs<w9de::1ssssnZlca$l990cciBl:&;&<$:%$X XOo$:9<929e1$%&99<9&&",
"9eu9891:ee8;:<&O9I!u:w1:0ssrss1N0%%:1$$+O@.X+X@<sd1ess91<:1sgs%%",
"18<69esesw6$$+<auuEi%190i11s911zl%O*%@XO+%X$::1ee991de%<s;avns9%",
"<8<<:8w9<9:1>:9xJsudgsdd9esgs%0e<:%%%OX.X:1<9wwe9<<1d1X9a:6ssss1",
":&:<<9w91:9seel:1909gsgzesss1:9sezuX*%XX@$9s699a9<%:%79asw9eecvs",
"$%9>%19<e9e1sZA091eaeeccsse:%%1>%hh%+%$$$:9959p8<<<110sxe&8sggc9",
"<91:&*1:ssr90sncssss999099l9e%>&:t9%X+++%<889a5;;:1<99sPf::9s9<%",
"::91&s99ZZ9%%::9918:wsse119ds9119N%X+%%$+$$:86<68<<>1%&<888sg8:&",
"19911v1wNBg1%-::1816:<01:11ee19396#+%%<$X+$%:<:<6&:6$%$&<wewse&&",
"9e9w9e189ee:$%-1118:$%11O%11<1:%1:%%<:1%$%%:&$;<%;5<%%%9se919w1<",
":9f9seu9ess91%%9:::<%%0001<si9g1e7<11:%<:<:<%<::<;;%$$%%axs<<19:",
"sfI9ssa8sgvg9:>t1&<::;0dr20vAgcs0>%:9e<<<19<<<<184=$%XO:pCf;:<:9",
"dDl<scwlGsc9$eis%*>&:<:1vedcc019*:#$:1:<911:<<:<:;<;$%$%9ae9ws9e",
"1x91sccnGfc9:1cd%se10::9wsee9w<:::>1&111998<9<<%9l9<99$$wssss9ge",
"<69seescndcs%0z09Kc0w1:wegesees1::1s9919:<<8<<:%<Ni<<::<<<9e9scs",
"cZ9evsldcfFs>sg91dce9sd0ssgs9<1:%:%<9ee1%%:<<<<<991<8<9<99sggcGv",
"GUssYZsgccvcczs19wgs9eewgvc91s:%899189s911:9<99198asf<89<1esFGcc",
"GFnscsesg9gvnci16gce9199sFIfaPs9110w999111<1<989<:wf1$:1%%9<wszg",
"IIgs9ecdaivccswssvcgg0euscZxwwclsls9es<<<%%<18999<:8<$%9%es%%<sc",
"Zs9wscdsAGgscgevse9cdscsccd9svss99s0es98:$9ew9999e<,8%:9is9;$1iZ",
"9990cAFgscdesGgg9:1scgessdges9>1%egceds9<:<eaww9<1%:891<sj6&%%99",
"e90zegscwsxssgg:&;9ees9sdwsde<%9ssswe199819819<9:<<<p98<%1<:<191",
"<1il%9ewssgg99wus1869wsve:eAIs%:09e9299w998<999<11<:58<1%92;%:<8",
"<<%99%e9ws99w9awza69w99s9<lRJccl099gs:9:1<9<:<9819<<8a9zs191;$<9",
"09:1s<:egs1<s9l1sssas9cs::9lKcsHBe9gs0w:1s<<<889<1<1axCFvs199<9d",
"g1gs9i%1sw9999sseaas99s<;&9fd9:Mj11sgd01991186<8888<91usw0<<escd",
"cee9ss9%$9u8asw9989s<98<1:<9<<1ls1>ee99<19s9189<99<91usAs211:9cF",
"c<e9ws9%:9w199889<9w19998<8<9sscs9<e11l8ess<%0s9991<<slade:%<llA",
"c9esee1ud<%<9<98<5xs0e9w96899scx1:<:09f1909:<ese9<911<<<ews91lHJ",
"Gw1ee9<es<1199:88adxZssa98:<<9&8u1::lge99:<:1sssw<9Fw19dcsdw:szc",
"Uf19<e9cc091ew:<8Fga98w998:$%<$uldlBs9<<19<>%ls9v9sF<119sss*:<hI",
"!d1919scg1<19999989<8899<6;:&$:9esds19u:99119u9&991w98w9sNdeJJl~",
"U~ews<e:sc0e91ee9<86<88<6&:<$%%e9ss999s9991><18%&CZwIxxwss1l`'Fc",
"UUnc1<1<<eg9$11es1:<99<1<$<99%<899e<;9sw111<:9sasIDaSkxece<lQ(vc",
"I!gd91<9<$%;;%%<1:%91:<1<:91999899::<:<es991%sI~YYc<xal1sw9Q!lsv",
"sUc19e9e<:::<%&:11:1:%:%<868<68:99<96<9sc0de9ec/IYIspsPuscaWD1se",
"Ac191<91:1&<:$:$%:<1%191998989<88;8958899se91s9cDUYIfl`Csxqwzsee",
"91:w1:9<<$:;;:$:,:<<990e9we9w<989889a81:<9<99e8%9cP^/Cwus9cFPx19",
"1%1s9es1:$<<%:<16<<009e9:ee199898699<::<9<9w998w98xcxa<xlseu9<<9",
"<19essgs<:90:$<981091w1:;999e9999<<<1%%:<1a99aesw91:w<<as1;:$;%:",
"10gs0es999gs1<<<91191%:<:;<<1<es<<:%9%%:%9091aa9911:%<9w9<<:&:%9",
"ccAZ0szecscse0<0:1:191<0889111sw0<$697919<<><sew9<:%<1<<9899<;99"
};
