/* XPM */
static char *de_dust2_material_2[] = {
/* columns rows colors chars-per-pixel */
"64 64 256 2 ",
"   c #010000",
".  c #020806",
"X  c #030A0B",
"o  c #050603",
"O  c #0A0401",
"+  c #0B0905",
"@  c #0C120B",
"#  c #0E0E08",
"$  c #14110A",
"%  c #150D08",
"&  c #16150F",
"*  c #1A120A",
"=  c #1A1911",
"-  c #1A1E18",
";  c #1B150D",
":  c #1E2521",
">  c #1F1B11",
",  c #20170E",
"<  c #212018",
"1  c #232921",
"2  c #241C12",
"3  c #26170D",
"4  c #27251B",
"5  c #282016",
"6  c #2B1C11",
"7  c #2C2014",
"8  c #2D2A1F",
"9  c #2E2519",
"0  c #30150B",
"q  c #302216",
"w  c #333227",
"e  c #342113",
"r  c #342519",
"t  c #342A20",
"y  c #362A1C",
"u  c #38271A",
"i  c #392416",
"p  c #3A2C1D",
"a  c #3A2D20",
"s  c #3D291A",
"d  c #3E2212",
"f  c #3E3023",
"g  c #3F2E1E",
"h  c #40382A",
"j  c #412B1C",
"k  c #413B32",
"l  c #423020",
"z  c #423526",
"x  c #432616",
"c  c #433323",
"v  c #442F1F",
"b  c #453D2D",
"n  c #462B1B",
"m  c #463120",
"M  c #463828",
"N  c #472E2B",
"B  c #473422",
"V  c #483625",
"C  c #4B301F",
"Z  c #4B3828",
"A  c #4B3F30",
"S  c #4C3421",
"D  c #4C4638",
"F  c #4D3D2B",
"G  c #4E3625",
"H  c #4F3A27",
"J  c #4F4C3F",
"K  c #523723",
"L  c #524332",
"P  c #53351F",
"I  c #533D29",
"U  c #533D36",
"Y  c #552F1C",
"T  c #553A26",
"R  c #55483E",
"E  c #57422E",
"W  c #574937",
"Q  c #583F2A",
"!  c #5A3722",
"~  c #5A3C26",
"^  c #5A4633",
"/  c #5B504B",
"(  c #5B513F",
")  c #5C4C39",
"_  c #5D432C",
"`  c #5D463C",
"'  c #5D4730",
"]  c #5E4A35",
"[  c #5F3F26",
"{  c #614F3B",
"}  c #62442C",
"|  c #624531",
" . c #625047",
".. c #634228",
"X. c #634B35",
"o. c #643D25",
"O. c #645F4D",
"+. c #654930",
"@. c #65533E",
"#. c #67442C",
"$. c #675036",
"%. c #694832",
"&. c #695944",
"*. c #6A4227",
"=. c #6A4E39",
"-. c #6A5851",
";. c #6B482D",
":. c #6B533C",
">. c #6C4D32",
",. c #6C6254",
"<. c #6D5136",
"1. c #6E5740",
"2. c #6F5547",
"3. c #705C49",
"4. c #725339",
"5. c #725C42",
"6. c #725E55",
"7. c #734D32",
"8. c #73573A",
"9. c #74472C",
"0. c #745335",
"q. c #74624B",
"w. c #755F46",
"e. c #766868",
"r. c #775A3D",
"t. c #785A39",
"y. c #786755",
"u. c #795539",
"i. c #7A4E31",
"p. c #7A5F41",
"a. c #7B5334",
"s. c #7C5F49",
"d. c #7C644C",
"f. c #7D5B3C",
"g. c #7E6345",
"h. c #7F6850",
"j. c #7F6E60",
"k. c #805937",
"l. c #805F3F",
"z. c #806B58",
"x. c #82553B",
"c. c #82674A",
"v. c #834F2E",
"b. c #835434",
"n. c #836C4D",
"m. c #845C3A",
"M. c #846344",
"N. c #846E54",
"B. c #855D42",
"V. c #85725F",
"C. c #876845",
"Z. c #877B72",
"A. c #885736",
"S. c #88664C",
"D. c #896442",
"F. c #896D4F",
"G. c #8A7359",
"H. c #8B563C",
"J. c #8B5E3D",
"K. c #8B7153",
"L. c #8B7A64",
"P. c #8C6947",
"I. c #8D633F",
"U. c #8E6F4B",
"Y. c #905A38",
"T. c #90755E",
"R. c #907759",
"E. c #916649",
"W. c #926C46",
"Q. c #927154",
"!. c #946542",
"~. c #946C4C",
"^. c #94724B",
"/. c #947B5D",
"(. c #957151",
"). c #967750",
"_. c #97846A",
"`. c #986139",
"'. c #987956",
"]. c #99694A",
"[. c #9A6D45",
"{. c #9A765B",
"}. c #9A8C7C",
"|. c #9B7E5B",
" X c #9B8062",
".X c #9C7453",
"XX c #9E8569",
"oX c #9F724C",
"OX c #A0633C",
"+X c #A3805D",
"@X c #A38963",
"#X c #A46F46",
"$X c #A47B56",
"%X c #A57751",
"&X c #A58C6C",
"*X c #A68364",
"=X c #A89072",
"-X c #A9957C",
";X c #AA6535",
":X c #AA835A",
">X c #AD7145",
",X c #AD8B66",
"<X c #B0855D",
"1X c #B17D4E",
"2X c #B18057",
"3X c #B19370",
"4X c #B2A28E",
"5X c #B48A62",
"6X c #B49C7E",
"7X c #B9926A",
"8X c #BB8E61",
"9X c #BC7A46",
"0X c #BC8957",
"qX c #BC9870",
"wX c #BC9D77",
"eX c #BDAC90",
"rX c #BFA17E",
"tX c #C1864C",
"yX c #C29264",
"uX c #C39C74",
"iX c #C4814F",
"pX c #C49A69",
"aX c #C5A274",
"sX c #C5A87F",
"dX c #C5AB88",
"fX c #C7B9A6",
"gX c #C8A47C",
"hX c #C9B59B",
"jX c #CAB08D",
"kX c #CBA06C",
"lX c #CBA273",
"zX c #CC945A",
"xX c #CDAE82",
"cX c #CEA874",
"vX c #CEA97C",
"bX c #D2B38B",
"nX c #D2BC95",
"mX c #D39C65",
"MX c #D3B27F",
"NX c #D4AE81",
"BX c #D5AA77",
"VX c #D6B789",
"CX c #D7A66D",
"ZX c #D7B685",
"AX c #D8B790",
"SX c #DBC6A8",
"DX c #DCB07E",
"FX c #DCC49F",
"GX c #DDBA8B",
"HX c #DEB585",
"JX c #E1BF91",
"KX c #E2B175",
"LX c #E7D3B6",
"PX c #E9C797",
"IX c #EDC283",
"UX c #F8EED5",
/* pixels */
"@. .=.2.^ 4.d.K.S. Xs.R.S.G.d.s.G.h.G._._. XZ.z.d.3.z.d.V.z.V.V.L.T.6.z.j.e.V.z.}.L.j.Z.d.2.j.,.j.Z.,.-.e.y.y.-.R R R R / / Z.Z.",
"^.4.:.2.E { X.U.U.K.n.F.l.|./.0.F.'.K.N.h. X'./.|.(.|.|.K.'.@X@XL.Z.V.).[ <./. X&XXX-X3XeX}.-X/. X}.eX4XeX4X-X6XLXSXhXfXSXdX4X_.",
"w n ! 7.(.n.f.,.R X.z.( R D O.( k k D ,.O.J D 8 8 1 = < : w - - 4 h w = 1 @ . .   . 1 - & 1 - : w w 8 w 1 w < < : t =XG.z.:.@.s.",
"A %.+..X|.u.(.L N.w.G.d.3.w.h.5.O.&.z.V.N.s.D W V.q.A L 1.1.$.5.(.C.r.M.<X'.=.F.|.F.@.^ ( A w D @. .M h ( ( ( W b D Z.j.}.XX,.5.",
"A B.W.rX3X;.*XsX3XdXjXdXwXuX*X3X7X+X).@X(.~.u.5.:.{.B.u.'.4X4.<X,X+XM.F.&XQ.s.+XT.*X'..X{.Q.S.{.*X/.%.s. Xc.Q.W 3.L.L.V.Z._.}.R.",
"{ x.H.wX6X~.,XrXnXnXlXZXvXvXxXGXJXZX0X0X:X2X%XoX].:X<X*XSX-Xa.%X%XB..X+X7XdX3X3X3XrX7X&X XwX7X$X~.+X.X.XH.B.&Xw.d.) J k w 2.F.+X",
"q.i.oXpXqX3XR.3X7XqX7X$X7X,X!.[.7X8X1X5X0X2X0X#X!.1X<X&XhXpX[.(.&XwXsXsXaXgXaXVXxXvXnXLXLXbXxXsXaXlX8XaX<X2X<XoX%._ 3.L.^ $X3X X",
"F.H.2XhXjX%XF.=XgXyXCX8XvXlX2X1XyXkX$X%XlXMXcXyXyXZXFX=XjXwXG.6XLXhXFXrX=XwXGXMX8X8XzXkXkX3XwXqX$XpX<X#X9X>X0X5X} g.S. X%.%X:XQ.",
"|.H.1X.XrX<X5._. Xp.g./.N.3.V./.h.N.h._.6XR.c.F.S.R.&X,.J ( J L.J O w q.y.y. Xh.<.5.5.T.T.T.XXV.{ G.c.=.p.) 5.G.R.W {..X7X3XqXE.",
"$X!.yX~.7X$Xr =       +   +       o : + ; + $ O   o $ * * O % O   +   O % $ O + O & $ - 4 O *   & O $           O + K.7XqXgXaX+X",
"/.Y.0Xd.aX5XM A t # c c V Z t 5 i >.5.w.p.U.W.H S f.0.u.7.7.n j s s v Q ' u C g x 1.q.h.:.I 0.s V K w.F l c > + e z B.{.~.pXxXwX",
"d.`.0Xd.wX<XM % ; > M @.y.:.I y g m.M.|.).W.I.l.[ :Xx.J.!.l.C 9.B u u %.=.B C Z P C./.&XK.+.>.q E ;.N.] L u f & ;.~.F.7XaXuX0X%X",
"S.[.kXK.xXvXF O ; 8 M L j.^ I 5 r M.^.|.U.^.[.p.T !.a.u.W.u.T ! p , 7 Q <.$.+.V [ n.n.n.1.Q T 6 ] } F.V t q r 2 *.U.{.yXyXkX;X#X",
"*X#X0X'.rXyXz 3 7 < W 9 &.F f 7 % C.'.K.,X,X^.} ' [.A.7.I.7.f.~ 2 ; 2 G <._ _ u I K.d.&.5.G } 7 ^ +.w.] ^ r 2 ; ..).qXBX0X>XtXE.",
",XOXpXoXaXNXc j s # F y.1.E z g 5 ] l.'.|.:Xm._ s Y.`.i.[.J.7.k.3 ; 5 B <.| G m c $.1.y.N.} >.7 W >.=.F E p , & P Q.uXSXUXCX2X! ",
"*XOX8X.XaXGXu j g 4 H ) h.l p > V =.u.@X).+Xu.7.V I.#Xm.M.k.| k.9 * s m Q <.B u v w.{ G.d.%.S ; ^ ~ s.&.H v % & P '.~.>XdXqXrXF ",
"/.OX8XrXVXcXu i p - 6 l h.m u = _ $X'.$X$XoXm.0.E [.`.m.P.A.7.!.9 $ q v I Q I i I g.&.$.<.=.l t L P :.s.X.T 3 $ n '.oX;X;X`.bXsX",
"*X#XcXrXcXuXp d s & * K &X$.l 8 v 7.M.^.:XJ.W.D.I D.v.J.~.!.*.a.y ; 5 H %.+.>.v B g.q.c.p.X.Q < ] >.R.w.4.s 2 # d (.qXmXtXCX1X{.",
"7X`.5XbXkXvXz j B 2 s &. XH B 8 S ^.:X(.(.[.^.u.p (.9.m.W.oX..o.y * q V >.G Q v V p.y.n.M.Q l.8 :.m. X5.1.6 7 = C (.ZXzXkXCX0XE.",
"E.8XcXwXcXcXz T B & 6 w.>.H I y r :X,X3XK.P.W.4.a '.A.I.m.W.+.Y q 2 g E Q T } n S q.N.N.1.h.f.t { m. X1.p.e j = [ f.cXzXcXkX].x.",
"!.0X7XuXkXpXj i B , 5 5.G V B 5 P W. X=XK.$XW.D.f L m.W.7.I.r.Y 2 6 H g G H 4.v E c.n.L._.K.0.h 5.7.XXw.).E C 5 [ E.8XtXzX%Xs.:.",
"].0X<XMXqXcXM S H $ 7 ) <.G V y s I.=XeXR.^.m.!.y I *.A.u.a.u.Y > ; 7 r G I Q u B p.p.y.R.g.~ a n.u.=Xc.c.] n > j %XNXCXBXeX .X ",
",X#X8XFXsXcXc C l , r 1.c.} Z 5 g I././.XX).W.^.2 e ! *.>.#.#.Y ; , 7 I Q _ 4.T g r.q.q.g.f.S f g.T T.r.s.<.e . K .X@XKX<X{.Q.t.",
":X1XwXSXMXcXg S v = l q.c.[ 4.q z ^._.-X X).[.P.5 T ~ 7.9.+.7.A.2 7 g Q ;.} 7.G s U.G.y.c.0.K b '.0.XX:.h.4.~ @ C Y.XXKXzXAXrX&X",
"B.pXFXSXFXyXF j j = c @.w.C 8.e 8 q.XX&XU.W.k.t.u #.9.! o.| 7.a.2 ; u c +.Z >.T r c.w.V._...7.E  X7.G.c.d.g.s X P +XuXCXvXFXuXrX",
"S.BXnXnXFX1Xc j l 8 c { 5.G Q 2 q 3X4X-X=Xf.m.f.q ;.>.;.#.Q H ! , , 7 I 8.I ' Q v F.:.) 3.[ ;.X.R.C.=XN.s.Q s . o.F.gXtXkXFXvX8X",
"!.vXLXLXnX0XM i m t M q.c.v v = I 1X6XnXnX).%XW.p ~ m.k.o.p.E *.r * q g 8.C >.G e n.) f 1.0.;.E +XD.R.w.d.=.j # [ ;.qXKXcXnXpX7X",
"E.xXhXfXMXyXV B V > 9 q.3.v Z , ' wXsXLXnX).W.a.Z | a.o.i.^ 9 ! 7 * q l $.m >.H y p.W < 3.p.0.E N.4.c.F.|.=.e # v f.vXkXZXMXkXwX",
"[.LXnX=XxXlXl g Z 4 p G.@.6 E 2 7 P._.nX3XC.k.7.' 7.7.#.v.% h #., ; q B $._ | Q s p.] t @.r.[ F r.|._.r.c.=.i   C *.NXCXBXAXBX7X",
"<XfXhXwXxXpXc y ] 5 y 1.f 7 7 O ] h.R.sXXX).m.B.H [ k.u.[ % _ ..$ , 6 S $.' _ ~ 3 g.@.* @.p.! q g.R.4XeX=.4.m . P P.PXGXJX9X9X:X",
"#X4X-XaXpX0Xt y F & < y ' S 9 ; 9 { d.XXR.p.k.>.G %.a.%.Q % f F ; , > H $.X.T V 6 p.$.q p.^.p.z }.}.-XeXK.Q.T . P l.KXrXeX,X*.E.",
"Y.AX3X,XcXBXf g f 4 h F 1.Z 7 = 2 X._.T.c.u.i.a.+.>.k.x.7.e v H * # 2 B X.' r.I r g.E p =.M.p.g W y.&XN.R.(.! $ C 2XBXdXdXAX(.5.",
"[.,XdXdXMXMXf j H o L O.&.p I > 6 ;._.h.K.Q.W.f.X.} 0.k.k...E 7.$ , r Z X.Q _ H u p.X.F %.9.T = @.R.g.p.wX/...> d .XCX0XkXPXSXg.",
"2XlX$XrXVXZXr * _ & a   q.F K # 7 f._.dX XM.f.a.| u.J.f.C.;.a.~ , * r H ] _ +.T g g.| ^ #.>.K = H @XG.=X3X@X[ + 0 ,XHXmXkXMXFXfX",
"%X8XwXbXMXVXq 3 Q z @.z E :.v ; 5 M.l.P.&X$XW.8.} #.b.).C.J.C.7.9 % 7 H <.F Q K 9 5.' X.:.+.T ; y N.G.&XXX+X..# Y W.DXkXMXMX5X6X",
"2X7XhXrXvXMX3 3 G M ( }.-XF r , 5 +...c.XX@X.XF.m #.a.M.l.W.U.!.7 % 7 Z 1.$.$.G 6 5.Q ' 4.[ #.2 a 1.h.K.r.l.~ @ d D.HXZXBXMXuX=X",
"%X<XsXbX8XZXr 3 m 8 5 }.XXf 7 p z :.;.U.-X'.|.$X<.S a.U.C.0.l.U.% # 3 M t.t._ S 9 $.Q d._ >.7., c c.K.R.C.l.P & Y *XPXMXJXDXuX3X",
"<XwXdXbXpXVXe 6 I = t V E F H q 2 :.d.<.@Xf.D.m.X.! W.^.'.u.>.F.3 3 3 E g.<.T I 9 X.] 5.X.} <.2 Z K.s.d.' f.0.$ n oXDXGXBXcXxX3X",
":XaXwXsXcXFX6 3 H > 9 b &XF B M F %X<X:.&Xg.^.f.^ C W.).U.:XW.u.q * , H 8.$._ C 5 E 1.L L $.} * V g.U.n.p.g._ ; x I.LXGXCXcXuX,X",
"%XqXdX8XqXPX7 3 I 5 ; W q.' 9 9 a f.m.-X3X@X).C.F K u.).K.W.r.r., 3 ; H C.8._ G D l ).y. .' I 4 H n.h.K.=.<.I + Y l.fXGXxXzX1XXX",
"oX5XwXwXkXxX2 3 l = y &.h.+.T h 4 a.W._.XXt.M.<.F v u.W.g.;.f.c.2 3 $ I r.X.} T b W $.&.) 4.+.5 X.3.3.c.$.<.r.+ x U.0XNXnXCX5X+X",
"!.5X3XsXZXbX3 3 Z > ; a d.r.g.D ; P.c.wXwX$.W.4.Z T J.U.n.+.0.K.7 * 6 <.g.>.;._ 2 z L 5.1.X.H 9 { :.N.G.n.:.%.$ i J.zXVXFXkXkX*X",
"5X7X3X6XcXgX, 3 c > 2 F y.V S + u oXc.FXN.g.).4.V j } t.r._ ! <.q , 2 ' p._ +.I q E L N.p.<.] 5 X.=.5.K.$.:.[ > 6 A.9XGXVXkXsX'.",
"+X7XeXdXlXvX, e v & 2 f M s T ; 5 } w._.{ p.p.4.E C } $.w.t.i.f.u % * Q c.<.0.S 2 j 5.L.$.=.H & 1.$.d.*X{ F r ; j x.2XyXxXZXgX{.",
"J.<XLXrXaXNXe e s = ; M Z V p > y U.3Xq.q.8.m.r.X.S ~ <.@.$.i.8.5 % % <.g.' ;.T 7 C F.c.I ] ) + ( | 5.1.] y r $ s i.].pXBXkXyX/.",
"$X0X_..X%XNXp 3 u & 5 a $._ g < 5 X./.@.:.' 7.4.f C <.' :.+.i.k., 2 Q u.p.>.9.m 7 C F./.H 9 w > A ' $.) ) M j = i i.A.0XyXmX0XwX",
":X8XSXsX8XgX7 3 g > 7 a F I 2 ; # ] K.8.$.' 0.r.c s ..+.t.U.! i.y e u #.M.4.A.~ > i h.R.c # A y f I w.{ 5.g.T 5 C *.*XSXcXzXyX&X",
"<X2X=X3XkXvX6 6 c 5 , V X.Z u > $ Z D.$.] 4.$.$.y j i.U.r.t.Y *.I 5   +.$XM.b.#.> ! K./.H = y 5 t E d.@.@.w.7.> P A.:XdXaXtXuX|.",
":X,X$X5XaXMX6 6 g 4 3 ' F E l > 5 * Q q.<.<.$.8.5 T *.t.l.0.x 0.V +   K I.%.*._ 9 ! G.&X=.q p q a F 5.q.q.&.+.9 i A.2XLXJXzXaX,X",
"%XqX&XqXaXbXr 6 I < 2 c 8 ' m $ M F q 5.5.8.t.8.p K #.5.t.0.9.A.p + + 4.J.u.Y.Q 2 P R./.K 2 H 6 z F w.d.w.5.G , e J.H..XzXkXxX,X",
"2XaX*X7XaXbXu e B & 7 B 9 u.Q + 5 a f :.M.t.l.r.F S [ t.>.$.7.i.p % * Q a.7.a.7.a ! R._.T q m q W $.w.5.@.|.~ 2 e 0.].#X9XBXrX+X",
"<X<XdXrXVXuXa l g = 7 Q < g.&X2 ; t 6 :.C.l.#.H E ;.*.' [ r.i.a.K , 3 l D.!.o.7.a ;.@X=XX.c H 2 ) W d.N.1.&.H & n u.S.5XpXcXwX<X",
"5XoXjXuXqXqXf A v & 6 q E y.q.f # p Q 5.C.r._ +.r P >.$.#.^.a.i.2 e , S B.} 7.#.* E.@Xg.<.H S 6 R ^ @.@.^ b m 5 e _  .uXDXSXjXqX",
"7XpXSXgXpXaXB s m @ u 7 g.,.s.i o v K @.p.t.0.' , j #.>.7.D.o.o.2 e ; _ [.0.b.[ * D.|.g.g.G i 3 L H :.) E @.Q * d t.J %XkXjXrXdX",
"$X5XuX<XdXAXi d v o 6 l G.h.D.7 # u P :.r.} [ Q r x ..;.D.U.*.A.* + o K >.%.9.P b }.G.g.] j h = J z z @.&.&.c $ e ;.1.OX<X3XR.,.",
"3XqXjX3X5XuX) ^ 5.@.w.&.&.w.K.O.&.n.+X|.&.w ) ) @.X.A A { W b W w w ' E X.L { X.L h A g.K 1.w.:.) J.>XkX2X^.0.X.' B.2X%XeXLX6XF ",
"fX5XqX.XkX$Xw.( h.|.,XG.] G.d.{ w.).U.f.;.K 0.7.b.9.P Y.m.a.7.9.OX>X>X1XOX9XOX0XiX;X2XKXyXIXKXzXiXiXiXCXCXiX1X>XOX[.,XfXhX-X6X=X",
"T.#X<XoX7X X{.,X=XT.wXdX7X7X$X<XyXE.u.<X2XY.I.J.%XuX8XyXvXbXBXBXGXDXGXGXCXkXzXmXkXzXHX0XVXUXUXGXHXHXBXJXJXCXHXDXCX8XrXLXrX*XjX3X",
"*X#XkX7X7X+XK.*X5X7XuX5X<XuXkX[.].+XwXyXgXyX<XyXkXuXpXuX7X7XlXvXvXVXbXZXvXlXyXyXFXpXpXlXgXpXlXHXbXcXcXAXvXDXNXNXmXOX5XrX#XqXaXM.",
"8XlXnXAX0X|.~.<X8XV.AXbXVXbXkX0XkXbXPXJXAXPXSXHXbXAXAXJXuXsXuXAXLXLXHXJXSXZXGXUXLXJXPXJXPXNXvXPXJXCXmXFXGXiXyXBXIXoX{.b.#XGX<X] ",
"U._.&XS.I.'.gXvX7XlXJXNXBXDXiXiXKXmXiXCXmXmXKXKXCXCXBXDXCXmXmXKXAXSXHXPXPXLXUXUXIXJXLXCXCXCXKXKXKXzXIXDXPXKXiX9XmXiXf.5Xl.6XgX9 ",
"C.+X.X(.$X X7X,X5XAXjXqX5X*X<XuXE.!..X].+X3X(.E.(..XJ.!.!.W.P.m.!.j.| S.0.7.s.V.).{.J.9.x.E.S.S.c.uX*X$X-X*X XB.=.7...;.7.'.$Xz ",
"U :.2.2.=.:.-.-.^ ] | 3.3.s.6.z.d.` 3.,.y.N.V.Z.j.6.6.j.Z.j.j.-.Z.}.e.j. . .` =.e.Z.6.6.e.e.R k U / -.6.2.N I N f -./ k / U  .h.",
"3.h.T.R.V.z. X'. X X|.G.l.s.p.s.d.K. X/.h.G.K.T.F. X XG. XT. X XQ.3XhX*XF.&X6XeXwXXX@XdXSX3X6X6X6X*X=XdXLX4XXXXX4XUX6XXXjXeX6XrX"
};
