/* XPM */
static char *de_dust2_material_21[] = {
/* columns rows colors chars-per-pixel */
"64 64 256 2 ",
"   c black",
".  c #000301",
"X  c #000302",
"o  c #000700",
"O  c #040C00",
"+  c #0D0800",
"@  c #120F00",
"#  c #181717",
"$  c #1C160B",
"%  c #1E240F",
"&  c #252A19",
"*  c #271D13",
"=  c #27250C",
"-  c #27321C",
";  c #2A2C22",
":  c #2C3723",
">  c #303322",
",  c #312F17",
"<  c #31342B",
"1  c #35392E",
"2  c #353C27",
"3  c #36361D",
"4  c #36403E",
"5  c #383827",
"6  c #3A3F34",
"7  c #3A4022",
"8  c #3C372D",
"9  c #3C3F2A",
"0  c #3D422F",
"q  c #41402B",
"w  c #42452D",
"e  c #454734",
"r  c #45502E",
"t  c #484E38",
"y  c #494D44",
"u  c #4B533A",
"i  c #4E5641",
"p  c #515039",
"a  c #524B2D",
"s  c #534C16",
"d  c #53573E",
"f  c #544E40",
"g  c #585C43",
"h  c #59613A",
"j  c #5B6348",
"k  c #5C6951",
"l  c #5E6948",
"z  c #615A3C",
"x  c #616147",
"c  c #62634C",
"v  c #627257",
"b  c #635C45",
"n  c #63694E",
"m  c #646653",
"M  c #64714E",
"N  c #666B53",
"B  c #667353",
"V  c #677853",
"C  c #687A5E",
"Z  c #695F48",
"A  c #697158",
"S  c #6A6C4F",
"D  c #6A715D",
"F  c #6B6D53",
"G  c #6B7460",
"H  c #6B7758",
"J  c #6B7B55",
"K  c #6C664E",
"L  c #6C6C59",
"P  c #6C7254",
"I  c #6D6755",
"U  c #6D7B5B",
"Y  c #6E7259",
"T  c #6E7559",
"R  c #6E7763",
"E  c #6F715C",
"W  c #6F765E",
"Q  c #717555",
"!  c #717833",
"~  c #71795E",
"^  c #717A5A",
"/  c #717D4E",
"(  c #717E5F",
")  c #71805C",
"_  c #72755D",
"`  c #737568",
"'  c #737957",
"]  c #738262",
"[  c #747763",
"{  c #74795E",
"}  c #747D5B",
"|  c #747D62",
" . c #756C57",
".. c #75886B",
"X. c #758F7F",
"o. c #767B6B",
"O. c #768469",
"+. c #77705F",
"@. c #777C5F",
"#. c #778863",
"$. c #787959",
"%. c #797155",
"&. c #797D64",
"*. c #798065",
"=. c #798268",
"-. c #7A7662",
";. c #7A856A",
":. c #7A9163",
">. c #7B815F",
",. c #7B8262",
"<. c #7B8467",
"1. c #7B8661",
"2. c #7B8A66",
"3. c #7C715C",
"4. c #7C7D5D",
"5. c #7C7E69",
"6. c #7C8670",
"7. c #7D8266",
"8. c #7E8061",
"9. c #7E816D",
"0. c #7E8269",
"q. c #7E8461",
"w. c #7E8567",
"e. c #7E896C",
"r. c #7E8C72",
"t. c #7F8669",
"y. c #7F876D",
"u. c #807767",
"i. c #808A65",
"p. c #818565",
"a. c #828671",
"s. c #82886A",
"d. c #82896D",
"f. c #828C69",
"g. c #838569",
"h. c #83876D",
"j. c #838E6F",
"k. c #847D6B",
"l. c #848D76",
"z. c #849473",
"x. c #858A6E",
"c. c #858E69",
"v. c #868969",
"b. c #868C71",
"n. c #878C6D",
"m. c #878D79",
"M. c #87926D",
"N. c #87987A",
"B. c #888A75",
"V. c #888C6A",
"C. c #889179",
"Z. c #898565",
"A. c #89896A",
"S. c #898970",
"D. c #898B6C",
"F. c #898E72",
"G. c #899175",
"H. c #899571",
"J. c #8A816B",
"K. c #8A8E6E",
"L. c #8A8E74",
"P. c #8A9171",
"I. c #8A9577",
"U. c #8B8675",
"Y. c #8C8C70",
"T. c #8C8E79",
"R. c #8C9070",
"E. c #8C9072",
"W. c #8C9270",
"Q. c #8C9273",
"!. c #8D896B",
"~. c #8D8E6E",
"^. c #8D8E71",
"/. c #8D8F75",
"(. c #8D9277",
"). c #8D947A",
"_. c #8D9587",
"`. c #8D9E7E",
"'. c #8E8B6D",
"]. c #8E9572",
"[. c #8E9575",
"{. c #8E987A",
"}. c #8F8F71",
"|. c #8F9172",
" X c #8F9273",
".X c #8F9353",
"XX c #8F9370",
"oX c #8F9A76",
"OX c #8FA47E",
"+X c #908C6A",
"@X c #90927C",
"#X c #909474",
"$X c #909477",
"%X c #909677",
"&X c #918B6E",
"*X c #919279",
"=X c #919473",
"-X c #91957A",
";X c #919675",
":X c #91996E",
">X c #919C82",
",X c #929172",
"<X c #929175",
"1X c #92967D",
"2X c #92997D",
"3X c #938E72",
"4X c #939475",
"5X c #939477",
"6X c #939775",
"7X c #939777",
"8X c #939979",
"9X c #939C74",
"0X c #939E7C",
"qX c #949473",
"wX c #94A288",
"eX c #959275",
"rX c #95937A",
"tX c #959679",
"yX c #959A7E",
"uX c #959E7A",
"iX c #969072",
"pX c #96907D",
"aX c #969576",
"sX c #96967D",
"dX c #969979",
"fX c #969D7F",
"gX c #979480",
"hX c #989880",
"jX c #989C7C",
"kX c #999376",
"lX c #999578",
"zX c #99997A",
"xX c #99997D",
"cX c #999A80",
"vX c #99A086",
"bX c #9A9A77",
"nX c #9A9E7D",
"mX c #9A9E82",
"MX c #9C9A7F",
"NX c #9C9B81",
"BX c #9CA088",
"VX c #9D9779",
"CX c #9D9C84",
"ZX c #9D9F81",
"AX c #9DA07E",
"SX c #9DA277",
"DX c #9EA086",
"FX c #9EA488",
"GX c #A3A386",
"HX c #A49B76",
"JX c #A5A47C",
"KX c #AAAC91",
"LX c #C3D0B8",
"PX c #C9CD79",
"IX c #DDECB4",
"UX c #FDFFD6",
/* pixels */
"e.O.  y y   _.^ C JX'.rX}.nX-X>XFXb.Y d E y L w Q.b.mX8XmXmXMXhXcXxXCXBX-Xx.a.b.m o.> 3 c K GXKXGXsXNXGXKX{ ..*.OX; * X   6 U ;.",
"O.l.D KX_.4 ).H C AXhXdXzXAX-Xy.(.x._ d 5.0 m 9 F.s.yX%X7X5XaXhXsXrXsXyX0.Y N &.i ` > , I Z CXKXMXgXCXCXT.) ] ;.z._.LXX.4 l z.O.",
"  ` j % O R =.W C s.b.nXsXFXyXl.%Xn.{ d 5.1 N q E.s.fX-X$X5XaX*X*XrXrX-Xx.F n 5.t [ < , +.b MXDXxXnXjXnXh.B #.#.r.wXu w % C.D   ",
"y KX& KXl.r.OXLXKXr.6.AXgXKXvXC.P.h.&.d 3.2 I q Q.t.yXfXyX4XqXE.Y.^.}.T.b.0.y.0.i a.1 3 k.b mXDXjX8XyX8X| J 7Xh.j.I.F.+.KX- KXy ",
"y _.o l.KXj.j g h j v vXBXB.T.=.S S Y i 3.: +.e n.t.yXDX1XR.4X,Xv.~.~./.Y.b.L.9.d C.< , pXx xXmXdXsXtX#XY P KXKXLXKX2XU l.o _.y ",
"X 4 R r.IX$ * > @ 7 j [.BXBXFXN.'.x.@.p 3.- u.d v.7.7XdX$XD.<X~.D.D.iXlXkX<X(.5.t C.< , pXx dXxX,XaXlXD.A i.KXJXJXKXGXH.;.` 4 X ",
">X).O.r.J $ PXZ = 7 j y./.B.a.H Z x -.p +.& -.f p.} 8X7X Xn.}.~.E.}.3XeXlXzXdX*.t | ; = 3.b Q.#XlXcX*X0.k w 3 = = = @ J ..;.)._.",
"( ^ ~ >Xn & %.i V : ] ..e.L.b.x.5.>.@.e E % 5.e p.>.tXzX=XK.~.}.R.~.4X#XdXjXdXt.r R & q J.m j.v.R.L.w.,.M > * $ z UXHX1.6.~ U ^ ",
"C R C KX) $ , J i t M i.1.s.,.n.0.>.@.0 [ & -.5 ,.w.L.5X;X#XK.'.|.n.#X;XE.7X[.,.e G ; : &.u B U | *.^ <.C 3 h e t h ! #.a.R R C ",
"JXXXe.r.l 7 r - r   4 9Xj.<.w.0.5.,.Q e +.% 5.2 t.).1X-X8X5XzX}.#X^. XaXeXrXsXt.t G ; % 5.t B H H U H H ] l r n g h = g ..e.6XJX",
"'.xXF.6.v j j ] M <   & >XI.l.&.@.^ A e D , E > t.F.F.x.}.}.4X,XtX/.W.}.eXlX-X=.t o.1 & 5.t P ~ H U | ( j . > r i e g v 6.L.xX'.",
"rXxXAXAX0Xn.y...i.9XR   - >XC.G ( B n 8 G > Y 0 t.F.b.b.(. XaXVXaXzX$X4XeXeX*X{ t o.1 & k.p Y _ ~ | H #.m   1 i.r.d.%XvXnXnXxXtX",
"~.zXcX@X;.*.| O.,.b.2XK.    t./ R ~ n w T > L q d.).).b.W.W.<XkXlXVXaXaXsX5Xt.B t R < & 9.u H | ) H ( H.# ; H.2.2.r.*X1X).-XxX~.",
"nXZXDX-X*.| w.e.T g.P.8X_.O 6.<.G _ F t T - E q d.s.{.(.M.P.K.4X7XdXtXsXsXL.~ H t G ; & T.d @.( } >.[.b.X ).0Xz.F.t.e.e.b.yXZXMX",
"1X2X4Xg.t.%X8XQ.[.I.7XyXFXfXG y j > x p T ; h.e t.~ 0.L.K.$X$X[.4XaXxXsXmXb.T P u 6.< & U.d g.7.s.M.DX# # FXi.I.G.;.j.n.R.<X1X1X",
">Xd.D.7.Q 8.K.V.;XzXlXbXmXvXy.D D W Y j B & B.e 7.&.}.zX,X<XE. X,XeXlXkXlXA.F M u l.< & 5.g h.b.x.:XdX  0.} h O.I.e.y.h.!.D.d.>X",
"FX$XK.,.H x.xX X,X5XtXeXqX7XF.O.q.^ N g n & T.d <.,.}.<XtX1XsX/.F.K.aXaXbXn.n c u a.< & p.b 4.c.E @.| z.h ' r C 9XM.f.V.~.}.Q.FX",
"b.x.Y.p.^ 4XMXzXaXtXMXdXaX}.w.r.q.( j p x % -.e 7.p.}.aXzXrX X XP.#X;X8XzX[.B c u 5.< - J.b >.' F x.^ I.K.H.M.#.0XH.M.M.M.b.h.b.",
"Y W &.7.w.,XeX}.nXcXjX7XdXK.w.r.,.U k f g & _ q <.,.Y.kXkXkX|.p.g.,X#X%XnXdXP d d [ 1 & p.x >.i.Z.R.7Xc.n.1.1.) M.n.s.w.7.| _ E ",
"d d d d d d p 9 p MXNXcXxXv.x.6.@.U n x g & E q <.@.5X|.aXqX|.V.v.eXiXrXNXmX^ c u 5.1 : %.Z $.w.Z.A.XX=Xi.c.e < 0 p p d d d d d ",
"E 5.5.3.3.3. .B.KXbXxXxXlXY.F.b.q.T n g d ; L w >.^ 8X7XQ.7X=XR.~.|.iXeXxXcX{ j d 9.1 : Z K XXz.}.8Xs.^ f.f.u c 0.3.+. .3.5.5.E ",
"y 0 9 : 2 e j u 8.zXhXcX<X^.b.d.n.@.N x g > _ w >.'  X;X4XzXdX7X#X4XeXrXhXsX@.l d a.1 : %.K lX4X~.8Xs.j.c.oXT u w : - : : 1 0 y ",
"L m m I +.-.L 5.sXmXsXtXtXtX-XF.R.t.E d x > -.5 >.Q R.R.<X#X;X8X4X4XiXzXxX(.H j d a.1 >  .x 8.$.4.K.Q M P w.& 1 L +.u.+.I N m L ",
"w 9 q q e f t p x dXdXxXsXxXlXkXxX*X[ d c ; 5.> q.Q W.K.R.7X[.oXeX%X%XxXtXx.( h j o.< 2  .z Q M !.$.l 1.S K.>.c c g f e q q 9 w ",
"Q.P.P.P.n.f.q.p.P.].7X=X5XzXaXlXNXmXx.u b - k.5 p.Q K.W.}. X,XkXsXtX5XhXqXg.T c g _ 1 9  .g <X2X8XcX7.5.;XGXAX;X{.oX%XH.P.P.P.Q.",
"x.s.s.t.t.,.} v.K.R.~.aX*X X4XtXsX<X@.t Z & k.9 q.' n.].^.6XeXkX*XhXsXhXqXg._ n x L 6 w k.e $.S n g.' *X$.8.D.p.{ @.7.t.t.s.s.x.",
"mXyXyXyX2X%XR.<X}.,X|.,XrX%X XtXrX/.@.t Z & u.y q.' n.P.D.|.}.kX*XsXxXcX^.g.&.T n _ 6 t J.p kXxXzXtXaX$XlX,XR.E.8X7X-X2XyXyXyXmX",
"8X%X-XfXFXmXK.^.}.|.4X,X/.<X}.w.0.8.Y t Z &  .w Z.4.R.P.R.#XeXiXrXcXxXaX|.h.7.&.N I 6 q J.p Z.S.D.!.~.!.'.~.D.R.W.;XjXvXfX-X%X8X",
"mX8X;XxXBXFXm.}.;XdXaX~.p.v.g.@.7.8.[ p b ; N 8 g.' g.K.#X5X=X}.8XdXtXtX$Xh.S d x m 6 7 k.p Z.&X!.!.!.J.p.4Xv.A.F.K.$XtXyX%X7XmX",
"mX7X5X5XtX-XK.Y.|.qX5XD.K.D.D.^.A.*._ t Z > m 8 p.x $.p.aXxXaX=X1X5XtXtX-X&.n p x m 6 7 k.a Z.3XeX3X&X&XXX~.}.}.F.v.D.}.4X5X5XmX",
"MXaXaX,X=X XK.&X}.4XzX}.x.,X4X^.v.7._ u  .; m e q.x @.p.,XdXeXaXrXxXsXhXyXg.S g x m 6 w k.p +X3XiXlXiXkX7XtX4X,X#X|.<X<X,XaXaXMX",
"hXhXrXE.,XD.D.eX#XtXbX XY. XaXK.D.&.[ d  .& L e p.Q V. X,XaXaXzXgXsXcXhXmXL.@.x x L 6 w k.z +X3XVXlXVXlXdXdXtXzX#X}.~.,XE.rXhXhX",
"MXsX*X^.v.D.R.XXR.=XdXdXS.3XdX<Xh.i.P g E & Y 8 q.P ~.K.iX3XVXiXlXVXiXkXbXD.7.c c G 6 w J.x rXlXaXZXxXeXtXdXzXaX%X7XK.A.K.*XsXcX",
"cX-XrX}.~.v.W.|.}.4XaX#X/.}.,X^.x.q.P d L ; F e q.n =XR.,XiXeXlXlXtXzXzXbXD.7.j j Y 6 9 kXb eXhXzXZXVXzX4XGXnXzXfX8X=X,XQ.rXrXcX",
"CXsXsX}.'.|.;X}.4XzX}.aX<XeX#X;X X'.@.d F ; _ f p.Q R.R.#X7X%X#X4X8XjXjXzXS.*.c j 5.e 2 pXa A.N Z.4.p.lX4.8.A.g.v.K.|.V. X1XrXCX",
"BXyX-X(.B.b.L.E.^.4X4X=X<X3XE.7XaXVXa.d I ; &.f p.Q  X|. X7X;XR.dXdX8XdXaXD.@.c j o.e 7 pXz K.~ 4.$.&X8.~.8.p.p.q.p.4Xv.%X-X2XBX",
").g.x.b.h.g.L.H.}.iXkXkX/.D.K. XeXVX<Xg Z - k.y q.Q K.P.R. XeXiXrXhXxXhXqXg.@.c j 0.6 2 J.e  .F T h.F 0.v.p.q.4.| &.F._ P.b.0.).",
"x.L F 0.x.h.L.Q.|.4XaXiXT.R.#X X4XnXY.d b - U.e q.' n.P.D.|.}.kX*XtXhXDXqXv.{ c g -.6 9 +.b lXNXDXDXDX-XdX=X7X,XmXcXDX/.%X{ Y x.",
"y.m n 0.0.n.x.d.P.7XqXbXT.S.R.Y.&X<X&.t b - J.8 q.' n.].^.7XeXkX*XsXsXsXqXg.~ c j _ 1 2  .e F x d &.F -XS P K.v.U *.*.b.,.n N a.",
"*XF./.b.} Q.n.c.[.;XdXqXpXFX$X^.=X Xg.p b & k.5 q.Q K.W.|. X,XkXsXsXrXhXiXg._ j h &.1 2  .c 5X2XyXmX&.*.qXKXZXaX{.{.2X2X0.5.[ b.",
"E F N F l } 4.p.~.7XtXdXsXBXyXx.R.K.5.d m ; &.> p.Q W.K.P.6X[.oXaXrXMXCX2Xy.~ j g 9.1 2 %.z Q M '.$.l 1.P V.n T S j j g u t i m ",
"` G E 9.m.l.D C.FXDXmXyXNXDX%X=.p.g.{ g x > [ 5 >.Q W.K.[.Q.#X8XsXdXAXSX1Xx.T j d a.< >  .b 8.$.4.K.' M S i.i i k R m.T.a.[ ` o.",
"; > < < < < & & i Q g.xXn DX(.d.v.&.N j g > [ w >.Q W.W.[.nXAXdXnXnXKXGXDXn.H l d a.1 : %.K lXaX~.8Xs.n.f.].AXy # ; < 1 < < < > ",
"3 , , 3 , = = > 0 g 5.T.Q DXyXb.q.T n g d ; E w >.Q #XdX7Xl n i.9XW g   7.w.M j d 6.1 > Z K XXz.}.8Xs.^ 2.M.t t 7 = , , 3 , , 3 ",
"Z I +.k.gXpX3.KX^.g.b.2XAX8XG.r.@.U n x g & E q t.W 2XF 9.Y p 5.:X@.T.i bXe.n c u 5.1 : %.Z $.w.Z.A.XXXXp.uXB u f u.pXpXk.+.I Z ",
"S K c K S n b b j FX&.&.dXP.=.l.,.U k p g & +.q w.{ w.T 7.(.w.g.dXZXFXBX6X#.l g d [ 1 & g.x >.i.Z.R.8Xc.n.1.#.l I S S S K n K K ",
"GXZXMXK.] t.L.j.t.*.yXh.q.[.0.r.q.( j p c % -.e <.&.{ s.*.{ DX*.0.yX7X8X,XU n S u o.< - J.b 4.' F x.^ G.M.].M.] uXoXH.].H.6XxXKX",
"KXGXR.,.H *.@XF.&.h.Y.F.v.fXG.;.q.U n g n & T.d <.^ @.b.g.F.&.1Xa.y.8.:X8.V l m u a.> & k.z 4.c.Y @.( z.h ' r J uXM.f.V.K.~.<XKX",
"GXMXK.5.Q 4.M.v.oXuXuXuXvXvX6.D D W Y x N & B.e w.{ *.G.M.>.i.c.T.S.S.-.@.Y N P u l.< & 5.g x.b.x.:XxX  9.} h O.{.e.y.x.!.Z.Z.NX",
"hXhX=Xg.s.oX8X[.[.Q.[.6XFXfXW y j > c u T ; a.e s.{ *.G.f.;X8XjX1XcXcXlXG.{ T P u 6.< & U.g g.7.y.M.DX# $ FX2.N.).e.j.P. X&X}.-X",
"NXCXjX X<.&.t.s.Y s.K.8X_.o 6.=.C _ F t _ - E q d.d.-X).K.P.c.K.z.mX/.*Xz.U ( U u R ; & T.p @.( } >.).j.X {.0X;.e.t.e.j.b.F.b.%X",
"GXCXnX[.<.*.*.,.| b.2XK.  . t./ [ ~ n w T > L q d.).-Xb.].K.W.7Xz.>X/.BXz.2.] V t R < & 9.d H ] } H ( H.# ; M.2.,.<.*.t.2.O.( (.",
"KX@Xb.*.~ A k J C 9X~   - yXC.G } B n 9 G > Y 9 t.F.F.b.b.b.(.(.oXoXM.1.W A T n t o.6 % 9.p _ { U ( H #.L   k ( J v H ~ | <.d.FX",
"{ H M ) ' 2 u H c.; X & fXC.G.&.| ^ A e D & _ > t.P.G.7.P ~ (.{ *.s.H.^ =.H A l t o.1 & 0.t Q ~ H ~ ( ^ a.  ; B 3 2 7 T ) B ) w.",
"e.] #.OXK.$ 3 d T   4 9Xj.<.<.7.5.,.Q e _ = &.2 t.-X2X).(.2XyXvX>X{.b.{.>XH T B 0 R : % o.t B H H U H H ( k M 7 l * $ >.OX2.] ;.",
"*.;.w.FXM.+ * g M t S i.w.f.*.n.0.>.@.0 +.& &.5 ,.w.b.^ T { F $XG ~ D ;.I.| k A e R ; : &.u B U | &.U *.C M , :.i * * :.FXw.;.*.",
"OXz.j.OXc.% * i V - ] ..t.Q.b.x.5.>.@.e E % 5.e p.@.$X#X>XP.M.{.c.oX8X%X-X2Xd.^ e | & 9 J.m j.f.|.L.p.,.V 7 h i t q a :XOXj.z.OX",
"& wXwXN.1.! .X; % 3 l y.G.B.d.H Z x -.p +.& -.f i.' 7X;X1X%XW.Y.R.4X7Xm.G.(.G.| t R ; = 3.b Q. XlXhX*X0.k 7 & * 5 PX= :XFXwX_.& ",
"# LXu GXIXs .X& + - j $XBXBXFX).'.x.@.p 3.- u.f c.,.%XvXFX-X XD.A.v.}.B.g.h.F.=.t C.< , pXx dXxX,XaXlX~.A 2 * $ h 7 @ IXOXt LX# ",
"X X.0 U.UXKXg j j g k FXBXL.).;.S S Y d 3.: +.e n.g.2XFXDXtX=X,XA.~.~.b.h.x.L.9.i ).1 , @XZ ZXNXtXzXtX;X{ P >./ q.SXUXIXF 0 X.X ",
"  4 % KX>XKX`.>X`...G AXgXKXvXl.P.d.&.d 3.: L q Q.t.yXfXyXaX=X^.^.}.R.(.F.0.h.9.i a.1 3 k.x DXvXjX8XyX8X*.) OXfXN.FXOXP KX% 6   ",
"6 k H % X G O.~ R *.| AXxXDXyXl.%Xx.{ d 0.1 I 0 E.s.yX-X5X5XaX*X*XrXrX-Xx.F n 5.t [ < , +.b AXFXyXnXjXnXx.M 2.t.M.wXu 0 % FXk 6 ",
"U z.G KX_.6 ).^ ( bXh.jXzXAX-Xy.(.h.~ d 5.0 m 9 F.s.yX%X8X7XaXhXsXrXsXxXg.Y N &.i ` > , I Z MXKXNXsXCXCX*XU ] ;.z.wXLXX.4 j z.U ",
";.O.X y y . _.H C bXu.dX}.nX-X>XFXb.Y d E y L w Q.b.mX8XmXmXMXhXMXxXCXBX-Xx.a.b.m o.> 3 Z S GXKXGXsXNXFXKXs...*.OX& # X   2 j.=."
};
