/* XPM */
static char *result[] = {
/* columns rows colors chars-per-pixel */
"30 30 145 2 ",
"   c #954900",
".  c #945600",
"X  c #9C5600",
"o  c #995D00",
"O  c #9C6500",
"+  c #9E6800",
"@  c #A36500",
"#  c #A36D00",
"$  c #A67200",
"%  c #AC7B01",
"&  c #A47209",
"*  c #AD7E0D",
"=  c #B17400",
"-  c #B17B00",
";  c #AE7F1F",
":  c #AC7E22",
">  c #AE800C",
",  c #BD8900",
"<  c #B08116",
"1  c #B08118",
"2  c #B78B27",
"3  c #BA8D25",
"4  c #B98F2E",
"5  c #BC912E",
"6  c #BE9937",
"7  c #C08A00",
"8  c #CA8A00",
"9  c #C08D0B",
"0  c #C79500",
"q  c #CF9000",
"w  c #D49200",
"e  c #DC9400",
"r  c #D19900",
"t  c #DC9B00",
"y  c #C08E11",
"u  c #CD9815",
"i  c #CD9918",
"p  c #DDA000",
"a  c #F2AF00",
"s  c #F5B200",
"d  c #F8B700",
"f  c #FABA03",
"g  c #F8B809",
"h  c #CD9B24",
"j  c #C2942C",
"k  c #D49E22",
"l  c #C09536",
"z  c #CD9D32",
"x  c #CC9E38",
"c  c #D4A023",
"v  c #D5A533",
"b  c #D7A43E",
"n  c #F8BE36",
"m  c #F7BF3E",
"M  c #F8BF3B",
"N  c #FAC13D",
"B  c #FBCB3A",
"V  c #BE9D4E",
"C  c #C19A44",
"Z  c #C39853",
"A  c #D9B557",
"S  c #D4B25A",
"D  c #D9B558",
"F  c #DCB95C",
"G  c #E8BF47",
"H  c #E7BD4D",
"J  c #E6BD51",
"K  c #E6BE5E",
"L  c #E9BF5A",
"P  c #C19F61",
"I  c #CEA56B",
"U  c #D4B461",
"Y  c #C4A17C",
"T  c #FCC543",
"R  c #FEC846",
"E  c #F7C44C",
"W  c #F9C449",
"Q  c #FECB4E",
"!  c #E7C35F",
"~  c #EDC55F",
"^  c #F9C652",
"/  c #FECD51",
"(  c #FBCD5B",
")  c #FFD15D",
"_  c #FFD85E",
"`  c #EBC563",
"'  c #EFC865",
"]  c #E4C469",
"[  c #E9C76B",
"{  c #EDCB6D",
"}  c #F6CB60",
"|  c #FACE61",
" . c #F1CE6E",
".. c #F7D267",
"X. c #FCD265",
"o. c #F6D36D",
"O. c #FAD56D",
"+. c #EDCD72",
"@. c #F2CF70",
"#. c #F4D271",
"$. c #FAD775",
"%. c #FFDB74",
"&. c #F7D778",
"*. c #FDD47C",
"=. c #F7DB7F",
"-. c #FCDD7B",
";. c #FFE17D",
":. c #C3AB8F",
">. c #D3B88C",
",. c #C3AC94",
"<. c #C3AF9C",
"1. c #CEB89F",
"2. c #CFBFAE",
"3. c #F9D180",
"4. c #FCDF81",
"5. c #F8DC8D",
"6. c #EAD198",
"7. c #FEE183",
"8. c #FCE18D",
"9. c #FEE59D",
"0. c #D3C1AD",
"q. c #D3C0B0",
"w. c #D8C8B7",
"e. c #D4C7BA",
"r. c #D6C8BB",
"t. c #EAD3A0",
"y. c #E8D7C4",
"u. c #EBDAC5",
"i. c #EADBCA",
"p. c #E8DED5",
"a. c #FFE7C7",
"s. c #FFE7C9",
"d. c #FFE8CB",
"f. c #FFEAD2",
"g. c #F0E5DA",
"h. c #F6E8DB",
"j. c #FAEADA",
"k. c #FFF6D9",
"l. c #FFFDDF",
"z. c #EFEAE7",
"x. c #FDF7ED",
"c. c #FDF8EE",
"v. c #FEFBF3",
"b. c #FFFFFE",
"n. c None",
/* pixels */
"n.n.n.n.n.n.n.n.n.n.n.n.n.n.n.n.n.n.n.n.n.n.n.n.n.n.n.n.n.n.",
"n.n.n.n.n.n.n.n.n.n.n.n.n.n.n.n.n.n.n.n.n.n.n.n.n.n.n.n.n.n.",
"n.n.n.n.n.n.n.n.n.n.n.n.n.n.n.n.n.n.n.n.n.n.n.n.n.n.n.n.n.n.",
"n.n.n.n.n.n.n.n.n.n.n.n.$ $ $ $ $ $ % n.n.n.n.n.n.n.n.n.n.n.",
"n.n.n.n.n.n.n.n.n.n.O 5 #. . . .{ #.j O % n.n.n.n.n.n.n.n.n.",
"n.n.n.n.n.n.n.n.n.6  .` Q / / / / Q ` [ z $ n.n.n.n.n.n.n.n.",
"n.n.n.n.n.n.n.n.5 #.-.T s 7 8 8 8 s R -.+.j # n.n.n.n.n.n.n.",
"n.n.n.n.n.n.n.C $.-.T s i U S S U u s N &.+.x % n.n.n.n.n.n.",
"n.n.n.n.n.n.  H ;.N s h S X.-.-.( S z a N %.S = < n.n.n.n.n.",
"n.n.n.n.n.n.<.6.B a k S ( d | &.E ( v r a ( [ 5 % n.n.n.n.n.",
"n.n.n.n.n.X h.v.*.t V %.s f d | 4.E f , p ( 7.F - > n.n.n.n.",
"n.n.n.n.n.X u.b.d.t C ..m s f d ( =./ 9 p ( 4.A - > n.n.n.n.",
"n.n.n.n.n.X i.b.a.e I 9...N d g d | -.C t ( 4.D - * n.n.n.n.",
"n.n.n.n.n.X u.b.s.w <.v.5.o.n d f s ..V t ( 7.A - * n.n.n.n.",
"n.n.n.n.n.X i.b.s.e :.b.c.5.O.n f d g y p ( 4.A - * n.n.n.n.",
"n.n.n.n.n.X u.b.s.e ,.b.b.c.5.#.N f f , p ( 4.A - * n.n.n.n.",
"n.n.n.n.n.+ H k.f.e ,.b.b.b.v.5.o.n f 9 t ( 7.A - * n.n.n.n.",
"n.n.n.n.n.+ J 8.*.t ,.b.b.b.b.v.5.o.N 7 p ( 7.A - * n.n.n.n.",
"n.n.n.n.n.+ K -.( t :.b.b.b.b.b.v.5.X.C t ( -.D - > n.n.n.n.",
"n.n.n.n.n.+ ` 7.X.e ,.b.v.b.b.b.b.x.9.6 t ( 7.F - > n.n.n.n.",
"n.n.n.n.n.n.5 ] | a b r.b.b.b.b.b.b.>.w s ..] 3 % n.n.n.n.n.",
"n.n.n.n.n.n.. L ;.W s r e.b.b.b.b.0.r.j.3._ S = 1 n.n.n.n.n.",
"n.n.n.n.n.n.n.l #.-.^ a k 2.2.1.1.w.v.b.v.t.0 : n.n.n.n.n.n.",
"n.n.n.n.n.n.n.n.3  .-./ s 8 w q.2.b.b.b.z.Y # n.n.n.n.n.n.n.",
"n.n.n.n.n.n.n.n.n.5 } ` ( ) O.l.b.b.p.i.I @ n.n.n.n.n.n.n.n.",
"n.n.n.n.n.n.n.n.n.n.o 2 { [ ` G u.g.Z   ; n.n.n.n.n.n.n.n.n.",
"n.n.n.n.n.n.n.n.n.n.n.n.# $ # & # @ % n.n.n.n.n.n.n.n.n.n.n.",
"n.n.n.n.n.n.n.n.n.n.n.n.n.n.n.n.n.n.n.n.n.n.n.n.n.n.n.n.n.n.",
"n.n.n.n.n.n.n.n.n.n.n.n.n.n.n.n.n.n.n.n.n.n.n.n.n.n.n.n.n.n.",
"n.n.n.n.n.n.n.n.n.n.n.n.n.n.n.n.n.n.n.n.n.n.n.n.n.n.n.n.n.n."
};
