/* XPM */
static char *_1934dbac2e34bcfe3ed105eef029611[] = {
/* columns rows colors chars-per-pixel */
"199 76 50 1 ",
"  c #000000",
". c #0D0600",
"X c #100700",
"o c #140A00",
"O c #1C0E00",
"+ c #1E1001",
"@ c #220F01",
"# c #231001",
"$ c #2D1501",
"% c #2F1902",
"& c #321702",
"* c #391702",
"= c #331A03",
"- c #3B1C03",
"; c #38170B",
": c #371808",
"> c #391A0B",
", c #3D2002",
"< c #421600",
"1 c #481600",
"2 c #411F02",
"3 c #4C1D00",
"4 c #401D08",
"5 c #442202",
"6 c #482402",
"7 c #4A2803",
"8 c #452108",
"9 c #462A09",
"0 c #482C0C",
"q c #552604",
"w c #502A0C",
"e c #5D2E0A",
"r c #5A340D",
"t c #573411",
"y c #5C3413",
"u c #673F16",
"i c #633D1E",
"p c #674011",
"a c #6B4612",
"s c #6D4B1A",
"d c #704617",
"f c #6B4222",
"g c #6E492A",
"h c #7A4E26",
"j c #7D5333",
"k c #845D2E",
"l c #80593B",
"z c #846137",
"x c #896732",
"c c #916D3E",
/* pixels */
"=%==%%%%==%%%>%===%========%=%,==,=-=-==-=-&=&&--*----&-*-&---4-->****-**4----***-=:---->-------=---**-*--4*<-2-22-*--24-22-25-5222,2---2225252222<5556657,55555555665626626666666567666763666655666566",
"==%==,:==%%>>%==%=========,%%,=,-=-==,,---------*-=-=-**&---><*4<-*4-*----=--->>-=--=->,,=-=--->---=-*<------4--4-2<<---<--2-25-22-5525--25-2222<22225555555555,555555663656666666666666666666667665666",
"%==%==%%=%%=%===%=%=======,%%,,==,=--=,->*-**>-*=*>---*>--=--*<--<<-*---:**-->--*-=-->-=>*=--=---,-------<----<-242-2--4--2-2--52-2,-5---2-5225<22622-555,55,555555556665666625666666566666666777765266",
"%==%=%,%=%%%%========%,===%===,=-=,>=-=>-*=-=*---*-==-=-*-:-*4-**-*--=-=*-*>=----:-*-*--,,,-,>=-=>----<--2-<<----24---<-5--2--5-2-225--52-2-2222265225,5,7555555655683626656665656676356676666666666666",
"%=%%%%:%=%%=%>===%===========,==-=,==-=-=-*=*--&--**--*--=-*****-*-**---*==-,>,==---=,>->---=-=--->-*-<-----<-2-222-2>2--2-22-5-22255-5-2--22<222222555555555555556635666665666666666655676766655665666",
"==%:%%%%=%%=%%>%==%============,=,=,=-=--=-&&----->&-=*=---*--**<>-<*-->*---------=------==---,>>----*--<-2--4--2>2-42222-2--2-5-22-25-5222-2222<2522555555,5555565665563566355556666566566676666665663",
"===%%%%:=%%%=====%===========,,=-==----=*-&---&*&----=**>--*<-*4-4**4:-**>--->-=*>--=-=-,-=>-**--,*-<--<*<------------2--2----5--22----522---222555222255,,75555566665565556666663662656666555666666665",
"==%%=%%%=========%%%%>===,====,=-=,=,==-=*-**&*&&==---->*:**-**--**4*-**--=--=--*-&=---->-,-=->--=-------*-<-2<-<-<--<-22252225-2--2-2-52-22<2222222225255555555555656655655676666226666666666666666552",
"%%%%=%==%===%%==%%%,%=====%,==,===,-,==->**--*-***-=-:-=-=--:*<-*-;-----=-:-*-*-***---->=->--->*-=--*-<-<*-<<----2<*--2-22-5252--2--5-2-2--2<2222222225255566555626556666562666666626666665666666666665",
"%%%=%=%==%%=====%%%%=,=====,===,,>=--=-=-*=-=-&=*-*--=*-*-**----*-<**-=>-----=-=--=>=--=----==-->,-----------2-2----42-25-222-2-2-22-22-2-5-2<222262252555655555265526866562266666656665566656676766666",
"%%=%$=$======%%=,%%%==%===,%===,===,,-,--==***----*>---=--**<--*-<<---**=&-=-=**-&--->-----=--=--->--<--*-*<--<-<----<<,---2252--2-55-2--252-22223222252,5555555653566655556556666566636565666767666552",
":%%:%========%==%==%==,%======,=,--====>-----==-=-=-=---=->-4*;<->-*-*=----*--=*--=--*=->*--=---------<-<---2-----<----4-222-2222-22-5-5-2-<22222222252255555565626226556662636255662656366666666666566",
"%%$&&&&&%====%=====%=,%%%=====,==-=---=*=&*---&>-----&------*-*--*<---:*->-&&&--=**=&-=----,=---=-=---2-----<--2<-2--2-42--555---2-2-2-22--25-25522522255585-555626626655362666265665556666526656565656",
"%%$:=&&$%===%:===============,=,,=,===-----=*-**-&=---=>*=**-*--*4-*-**--*-*-*&--*>-*---=--=--------2----22--------22-2---2--5222-2-2-2,2--22<552252625255525285556266635626566656666656666566356665263",
"%;$&&&&&%%%=%%==============%,,==-=,-==-*-&--=---*>-**>---=-4-4-4**4-*-&=----&-*=-=--*,=-=---=-==-----------2<-<---<-<-,22-55--25--2-2225-<,22585232222555552855562326265562666666666655666662665655666",
"%%$:=&&&%:===========%%==%%=%==,,=->=,--=*&--=->**-=*=-->-*-*4*<*4**-*---=&-*-&------>>--------------<-<<-<-----<2--2-2-<-52222--22-2--2-22522562555232852522566655566665552666666666655566656666556626",
"&&$&%%%%=%=%%%=%==>==%9%%9%9%%9%,=>-=,-=-*=---***&-=->--=>*-444-4***4--:&--&*-&*-*---,=--,=-=----=---2-<---2<-<--<---<-2---22--522--2---225552256262232225585555626566666555666256562663566665566665566",
"&$&&%%::==%=0>%%====%=%%%%%%%%,,=,,=-=-==-=*=**=>---=-=--**-***--<4-*--*-**--=---=-=>->->-----=---*------<---------22--222-222---222---525-222252222222682225555628626526665566632666666356665662666666",
"&$&&:%%%%%%=+=%%====%=%9%9%%%,%,-==-=-=-&-*-&-&----*-=*>-=*-*<<--4*-*-*-*=&--=-**-*-->--,--=--------<-2-2------2---4---2---22-22--2-2----55535222225252252252555226665656565566556566665666666656666665",
"$:&$:%%=%==%%%0%====%%%%%%%%%=,=-=,=---=-*-&-*-----=-----**---**-**<-*-&-&-**-*==**>,,=-=--,=,=---------<-<--2---<--<---2222222-22-222225-5-22228322225222552255355626556655565556665666662557665666566",
"$$&&%%%=>%%>%=====0+=%%%==%===,=-=,-=>=-*=-*-&-=>-=--=-=&*--*4*4***-*&-*-*--=--&-*--=>,-----,=---&---<---<----2<<-<----<---2--225----55-25-522222222252222355555526665555656575762666666556566666566666",
"&&&&%%=%%%%%=%%=======%9=%,=%==,=-==---=-*&-&----==->*----*-*--*--***-*=&-&--*--&-&----=>-------=------<--2--<-------2--255-22-55-225-555-5522222225222222225555553635556655657556766666366653665666666",
"&&&&=>%>%%%=0+>%====%9%%======,=-=,==,=-==-=---==----*-==-**<-*4<>-**---*=->*-=*-**==-->-=---,-------2-4-2-22-2-22--2-22-52522-5-5-5-,-2--5-2225<222525-,555,5556562556665,7577565555665565665666666656",
"&&&&%=%%%==%%%%==%%===%%%,%,=,%,=-=--=,>--=--==--=-*=------>*4**--*-*-&---=**=--&--&--=,--=-=,-,,--2-<----<--2-22-22-22-5--2--2-5-5-522255,2222<226225255556755,566258666655555765556666566666266665665",
"&&&&&&&&%%>===%=%%%%%%%%=,%%%%,%-=--=-,=-===,=,=-=---*-=----*-*444****--:=****>=-=--&-->----=,---->--2---<--2-2-2--52-,52,-2--5--5--522--55522<22222255555655557626266255556575,66556556666565666363556",
"&&&&&&=$%=%%====%9%%%9%%9%9%9%=,=,===-,=-=,,--=---=-=---=-=*4*-**4--*&&--->*=----***--**-=-=-,>,-,5----<4--2-2-2--55--252--55252,522522252,-2252225222555655555,265626635666,75765576666566666666565565",
"&$&&&&&&%=====%%%%%,%%9%%=9%=%,=-==--,=-=-=-=,,===*---*==-*****---*<*-=--=---*-=*-*==--------,=------<---2-<4-2-2-2-2-2-22-5-55-5-5---5--5-52222255222555,55555753666626655655,755555666666665656656565",
"&:=&&&&==%==%====%%%%,%%%%%%=,%,=,>=-=-=-=-=-=>=--*>=>**-->**4<-***-------=--=-->,->--=,--=---,,,------2-2-4<--2-22-222-2-2-2,52-5-5,2-2-55<22223552252256-55755526226666655575557,75665266265666662556",
"=&===&&==%===%=%=%=%%,%%%,,==%%,--=,,=-==-=,=,=--&=--*-=>,--<**-<--**-*>&-=------,---==>=,---=--=-----2<--2-2-2-2-2--222225---525---522255-5-2555252525256-26552552623265565557,57,75756666666666662626",
"&&&&=&=$======%===%=%,%,==%==9,==,,==-=>-=-=-=,==-->-=*-->----444>>24-,>-*>-=--=->>----->-,=-,------2-2,<--2-2-2-22522-2--52525--555-222---525255555555625555555556568665555575555756566366665532666656",
"&&$&=====%%=%=%%%9==%%%9====%,=,-=-=-===--=--,=--&**-=-=-*---***-4--4*--,>,---->==-=--->-,=----=----4--22--2<-2-2-2-2-222-,25-5--555,-2,5-22225855225-262-555555656555625256555755756655566665666666626",
"====&:===+0%%%%%%==%%%%====,%%.+=,=-=,,=,=,==>-O  &-*-*---:*-4--*-*<-*    >->--------&**----=--,---- @-44-2--5-2--222O  -255-5-525--25--555-2555255555555,555552552655655565555575,75666656666566666666",
":=====::=%%%===%0+%%=====%====. +,,,=,=,=>==>=+   ------*-=---2------*    --->*--=---->*--------=---  #22-2--2--2--2O   -52-2-555-225-5-2-25585225222252565525555556555655,755,756665656366656566666666",
"=%==:=%===:%========+0%=0%0%=,.  +:%=%,==,,,,O    =--=--=-&----------4----*--->---*-----&----2-----2   @--222252-52O    2-,2-55--55-2---5---52222222552225522552532223225575775555566666966666652666656",
":&&=&==:==:,%===%=%>===+%%+%==    +%=,=>=>,=+     ----*-------=----=>,--*-<--*---=----4----2-5-252--    #--5-<,225O     --2555-52,525,25555222253222552222225585665256697775,77557966675666666656626566",
"=&&=====,=%%=====+0%===0%%0=>>     +=,===,,O      =--&-$X      o=-----    -22<    $.   o---2--22--2-     #5-2--2-O      55-25-o      O-5-222    =.  .o222322    5565    55,755,797666675625658666626366",
"=$&:====>==%=%>%0%%%%0=%==0+==      +====>O       -=--&          =---=    426<    .      ----5--2-2-      #5-2-2@       -22-=          =----    X      -2222    2266    5555755755777557356657572656666",
"=&&====:==%>=>%%%%%=%%==%%=+==..     +,=-O        ----o .%&-%.   o=---    <wir    .%$.   o-2222--2-2       #2-2O        2-52o   X==.   O555-    X=&X   o2252    6666    76555,5555757557869775553666266",
"=&====:===%%====%=>%%===0==0==..+     +=+    +    =---  $&---$    *---    <9gj    &*-=    2--2-22---  O     @2O    O    2552    =-5&    5-5-    =<2=   .2222    2626    75757777955,5555655555555566656",
"===&$===>=>=====+0%%>%%=+=====..=O     X    O>    ------*--*-&    =-><    *2yl    2--,    -<2-55222-  -#     X    O5    5-25    2225    -5-5    5522    5252    6266    6755,7577775,755555555656565665",
"====>=====%%%=%=%=%%0+0+>>==,%  ==O        O=-    --------=---    ----    -<3f    <<--    --5-2---2-  --+        @5-    -5-2    22,5    -55-    5252    5552    2626    556655555555,97,97,,7,756666655",
"===%%%%=>=%0==0==%%>====%=%==,  ===+      O--=    =----=o         ----    >2*q    1<5-    5-5-5-22--  255O      O---    2-5-            5-52    5252    2222    2366    5566555555557,,7,9,7,7756566656",
"=====%=>9%%===+%===+%+==%%====  ====+    O-==-    =---&           --**    -*<<    e32-    ,--2252-2-  -2-5O    O2555    -255            -52-    5225    3222    8565    555555555555,7,7,,,,,,756555656",
">%==%>==%%=%===%%=%0=0========  =====O  O==,-=    --=-X   .%--    ----    ==2-    he<<    5,5--,-2--  <-222O  O52--5    ----    ,,5-5-5,225-    5522    2222    5655    25665555555,,9,,7,75,7,55556565",
"%%%%%==%=%0%%==%=%%%==========..==,=%=Oo,=,===    -=-,    %---    ,---    ----    kkq3    ,,,,-,,--2  42-222OO-2--2-    ,=--    ,-,525-5--5-    5-5,    5222    5566    ,552555555557,5557,,55555655555",
"%>==>=====+==%+0=%>%%========>..==,=,%,==-=---    =,--    $--%    >---    ----    kcd3    ,,-,,,,,,-  -2---2242--225    ,,,,    =-5-2=  555,    5555    2522.   =95=    5522,5,575557,55555755555655256",
"====%%====%=%=============%>=%..%%%==,=,-=-=,=    =,-,o   .%%.    -,--    ----    pxcu    ,-=,,,-,--  2-224--<-2-222    -,,,O   .=22=o O25-5    55--    5225o   X-=X    55555555577555,7,5,75755555,555",
"===%>=%====%%===%=========%%%>..,,%,=,===,-==-    -=,==      .    ----    ---=    7acz    =--,=,,,,-  -2442<4-2-2-2-    -,,-=          ---5-    -555    2523-      .    55,55555,,55,55,755555555555255",
"=====%%:%=========+===%==%0%>%..%%,=,=====-=,=    -,=,==o   .$    -,-=    --==    57sk    --,=,,-,--  ---<222------2    ,,,,,=X      X=5--5-    -555    25225-O   .%    5225655557,57,,555555565555,555",
"==>%%>:%=+===%==%%0%%=%==%%%%=======%==,,-=,->-=-==-=-=,=,,-==---->-----,--=,->>>>227tt84-,5,,-,-,---4222----22252525-2-,,,,,,,5,-25585,5555525-55--5222222525555522225522555555575575,7557522555,555,5",
"%==%%:%==0=%=%=+%===%=0+%%==%==============,,,=,-=-==-,-,----=-----=---,---,=-->;>:--<24>>,909,-,----22-----<-2225-55222,,,,,,,,,,-55,5,4,,525-555552222222325356222265222555555555577,55,,55552555,552",
"===%%==%%===%%%0=%%===%===%=0+==========,-=-==-==,=,,=,==,=----=--=--=-==------=*:;:-----*,,90,-,=--4--<-2<--222--2--5-,,,-,,,,,,,5--558555-,5555--552226222252525255222685555,555555555555555225555,55",
"=%:%===%====%%>%%+%===%=%%>+===========-,=-=>==,==,=-=,-=,=--------=------=--=--==:>=,,=*>=,59,,-=,-4-<---<-4-2-2-5--2-2,,-,,,,,,,58-555,58-555-55,55,52222325222222552555555,5565555655555552255556555",
"%==%%:%%+0=%0%%%=0%=%=%===%0======&======-,=,,==-,,,,=,=,>,=-----=------,-----=,,,>>*=,,,,,,,,,=-,------4----2-2-2--2-2-,,,,,,,,,5-55,-,52,55,,5,55555252228252222528255555555,755555655575522525655555",
":======%=>%%%%%%=%=%==>0======================,%=,-==,===,-==,>,-=--,=-==-=,,==--=,>>,,,,---==,,-,,--2-<-2<2------2<--22-5-5,----2,2-2-8-5-5--5,55,55,5,55525,5562255555,55-555555555685555663225555555",
"========%%%>%%%00===%=%+======%=============%,%,,=,=--=--=,--,,,---,-,,,,==,--,==,=,>=>==,-----------2-4--2-2<-2224-222--55-25-52-25-5225-5-5558,5,55,5555-55,555225555,555555,58222553676522625568525,",
"%%=====%=%>=%0+=+=%=0+==0=%=%==>===&==:=====,====,==--=-=,==----,>,-=,,,,,-=,=,--=-=>,>,=--=-=--,----2-2-2-<-----22-2-5-,25-25---2--52-2-554-5,88,55,,5,52555,5-5-55555--525252525226556835655585585352",
"===%========>%=%==%=====+=0%=====&========-===,====>=-,=,->,---,,,-->,,,=,,,=,,=,==,,=,=----------,---<--<4--2<--244-2--5--22--2,-522252--525,5555-885552,-5555255,-,-555,25522555223652566555555755225",
"%===>========%%0=%%==%>===+=>%====&======&&=====,--=-==-=,,------,--,,,=,--==,-==,,==,=,,=-*=---,,-------4-------25224-5-2-25-22-522-5--55-5,555,5,5-,-55555,,,2,5555-225522535585258855525655855855252",
"===========%%%%%=%%=+0%%=%==%=========:=======-====-=-=-==,------,,--=,-===,,=,-=,>,,>,=,-*-&---->--42-2-2-<*<2--4-<4-<22--222-2522,5-255-5-5--58,,555-5-5,5555,,552,55,-52552522253555525558525,555225",
"=%=====%%==%%%=%====%%==%%%0+%==============&-=====-=--=>,=--=--=----,==-=-==,=-,===-=--=-=-&--&-------2<-------<-2--24----2--2252-2-2-2,22255-,-52225-55-5-,55-555,55,52225285222225225222585-22225555",
"==%===%%%===%==+>%%==%%=%>%=%===:=:=:====&&=&==-==,==,=--=----*----==---=-=,-=,=-=>,--===--=----*&--<-----2---<2-24-2--25222-22--22-2-252--2-5555-52-55--52555555--5,55,222225555225-55,555255525228552",
"%%==%==%%%=%==>0%%==%==%%>0====%=&===:&============-=--=,-,=--=------==--=-==-=-=,=-,==-=-=--=-=-=----<--42-242--4<--22-2-2---2--5-2-22--552-5-2---2-2-5-5-5-5,25-55,5,522522252222,555555525,552555855",
"===%==>%%=====%%0+==0+=%%%+=%==>=:===============,,=,==-===-=*-&---=--=-=,-=,=,=-=,-==-=-*=**---*----<---2-2-<--<-2-<--2-5-22-22252-2--2,-545-55-22-2-5-5-55,55,55,555522223222222255-,,5,5,5,558255659",
"%%=%====%%=%%=:=%%==%=:%=%%:%%===&=:==============,-=--&>=,===,%=-&---=-=---=-=-=--==-=-=-=--=---=--------4-222---444-<-<-22--2222-2-2222--2-22-2-----52-5255555,55--555-5,5-5-52225,,,,,,,,,5555558666",
"=:=:%&&&&==%==%==:&&==%======:&=&===:==*-=>****=-==--=-===%,,%:%==>=&===========-==-=-=,-==-,=-==-=--=-222-<4-2-2--<---22--<2-2---2-4-4--22-2-22255522-5555-5,5--5,555,25-855585,582-5859,5955852558222",
"===&&&&$&=&:=&&&==&&:===:%===:=&&======:=->==***=-,==-=-=>==:,,>>===&==========-&-&---=-=,-==-=,--=-------2----222-<5----<--224282--4--2-2-4-2-525-2-25-5-5--5-55-55,2-5-5-5-5,5-58-58,85,,55-255832222",
"===&=&&&&====&=:===%==&&======&========:*=*:=:=**==-=--==-=%:===================-=--=--=-=--,=->-=,=----<--<<-<--2--<-2-2---22>2-22<-<2-2--<2-2--22-2-25-5-55-5---2,52-252-2525-55,5855,555,55255522222",
"===&=&&&&&:%&&=&=>==:%&==$==&==&&&=======*&*=*=:=-=--=-==-&=,=:%,=&&=:=======-==-=-&,=,==,=>,=,==--==*=-<--*--4--45---4<-5-<>--4-22-4-2--2-222-22-2--2222222222222-25,22,5,58,5-58,5,555,85,85282222222",
"&&&&&&&&&=====&:===&======&&&==&:====:&==:*&:*=:*>,==-=-=-====,:==$&===========-=-=-=-=--=,=,==---=---*-*-*-<<-22---<4-44-5-22-<-<-4<4-24--55-2-2--222--2--2-2-----552,22-55,558,55-88,8,55,,9822222222",
"$=:%=&=&=$&&&&==:&=$&=&&&&&&&===:=$=&===*==:*==*=-===--&-&-=:==:===&============-==----===--==,=,==------4-2-2--4<---2---2<--2222------44----2222-5-2-2--2-2-2-22225--22-55-58,55,,8,55,5585,2522252252",
"=&&==&===&&&&$=%===&&=&&$&&&&$===&&====*=**&:=*==-=-&-&-=-=====================-==-=-=-=,=,=--=,=,--&&-*-<4-42-<---<2--2----4-4--2-<---5<--<2--2-5-522-22-2-2-2--22--52,2,5-----,85,85,5,8,95,222222225",
"=&&&===%=&$&&&&:===&$&&&&&&&&&=:=$&==:%==:**=*=-*>-===-==-&=======&=&-=========-=-=-=-=-=,-==,=,,=,=&-**-2<-----2--<2-2-<--<-<------<-2-2-<-22-22-52-2-2-2-2-2-2-222-5-5-55>555-58,8958,55-558523522252",
"=&=$&:===&&&&&===&=&&&&&&&&&$&&===&==&&=*:=*:=>*=--==*&--=-====:====&=====&-====-=-&=--==-=,>=-=>,>=-----2--<-2----4-2-<--4----25-2----<<----2---55-<-2-2-2-2-2--5-22-522-255--5-5588,52,-5455252252266",
"&&&&==&=%&&=&&=====&&=&&&&&&====&&&=&&==:*&-*=*==-=--&&--*-======&=&===========-=-=-----=--=,=-->,,=-&=---2--2---<2-4-4-<-2--<2--<-42<-*-2222----2----2-<--2-2-2225--52,2-----25-555,2,2>8,555225522552",
"&====:$==:&$=&&&&$&&&&&&&&&&&&&=&==&&:====*==:=>-===&-&======&===%=&===========&=-==&====,=,=->=,=,--=--*-4--<2<----<--2---2-2-4--<-------22--<22-2222----2-222--22-5-24525255-555--5,2255252,588562258"
};
