/* XPM */
static char *map_editor_new_map_title[] = {
/* columns rows colors chars-per-pixel */
"210 53 4 1 ",
"  c None",
". c gray89",
"X c #E4E4E4",
"o c gray90",
/* pixels */
"                                                                                                                                                                                                                  ",
"                                                                                                                                                                                                                  ",
"                                                                                                                                                                                                                  ",
"                                                                                                                                                                                                                  ",
"                                                                                                                                                                                                                  ",
"                                                                                                                                                                                                                  ",
"                                                                                                                                                                                                                  ",
"                                                                                                                                                                                                                  ",
"                                                                                                                                                                                                                  ",
"                                                                                                                                                                                                                  ",
"    .                    ...                                                                                       .                              ...                                                             ",
"    ..                   ...                                                                                       .o                            ....o                                                            ",
"    ...                  ...                                                                                       ..o                          .....o                                                            ",
"    ....                 ...                                                                                       ....                        .......                                                            ",
"    ......               ...                                                                                       .....                      ........                                                            ",
"    .......              ...                                                                                       .....o                    o.......o                                                            ",
"    ........             ...                                                                                       .......                  o.........                                                            ",
"    .........            ...              .o.oo.               o.o.oo        ..o.oo        ..o.oo                  ........                ..........o              o..o.o               o.oo.o    o.o            ",
"    .........o           ...          ..............           ......        .......       .......                 .........              o..........o          .............o           ...... ..........        ",
"    ...........          ...         ...............o          ......        ......o       ......o                 ..........            .............         ................          .................o       ",
"    ............         ...        ..................         ......        ......o       ......o                 ...........          o.............        .................o         ..................o      ",
"    .............        ...       o.......    ........        ......        .......       .......                 ............        ..............o       .....       ........        ........    ........     ",
"    ..............       ...       .......      o......        ......        ......o       ......o                 .............      o...............       ....         .......        .......      .......     ",
"    ................     ...       ......o      .......        ......        .......       .......                 ... ..........    o........o......o       ...          .......        ......o      .......     ",
"    .................    ...       .......      .......        ......        .......       .......                 ...  ..........  ........o  .......       .o.          .......        .......      .......     ",
"    ... .............o   ...       ......        .......       ......        ......o       ......o                 ...   ..........o.......o   ......o                     ......o       ......        .......    ",
"    ...  ..............  ...       ......        ......o       ......        .......       ......o                 ...    .................    .......                     ......o       ......        .......    ",
"    ...   ..................       .......       .......       ......        ......o       .......                 ...     ...............     ......o                     .......       ......        ......o    ",
"    ...    .................       ....................o       ......        ......o       ......o                 ...      ............o      .......           oo...............       ......        ......o    ",
"    ...      ...............       .....................       ......        .......       .......                 ...       ..........o       ......o         ..................o       ......        .......    ",
"    ...       ..............       ....................o       ......        ......o       ......                  ...        .........        .......        o..................o       ......        .......    ",
"    ...        o............       ......o                     ......        .......       ......                  ...         .......         ......o        ........o...........       ......        ......o    ",
"    ...         o...........       ......                      ......        ......o       ......                  ...          .....          .......       .......o      ......o       ......        ......o    ",
"    ...          ...........       ......                      ......        .......       ......                  ...           ..o           ......o       .......       .......       ......        .......    ",
"    ...           ..........       ......                      ......        ......o       ......                  ...            o            .......       ......o       .......       ......        .......    ",
"    ...            o........       .......          .o.        ......       ........      o.....                   ...                         ......o       .......      .......o       ......       .......     ",
"    ...             ........       .......          ...        ......       ........      ......                   ...                         .......       .......      .......o       ......       o......     ",
"    ...              o......       o......o        o...        ......      o.......o     .....o                    ...                         ......o       o.......    o........       ......      ........     ",
"    ...                .....        .........oo.......         ........o.o...........ooo......                     ...                         .......        .......o.o.........o       .......o.oo........      ",
"    ...                 ....        .................o         ..............................                      ...                         ......o        ....................       ..................o      ",
"    ...                  o..         .o..............          .............o.............o                        ...                         .......         ........... .......       .................o       ",
"    ...                   ..           .........o..            ........o.o.  ..........o.                          ...                         ......o           .o......  ......o       ................         ",
"                                                                                                                                                                                         ......                   ",
"                                                                                                                                                                                         ......                   ",
"                                                                                                                                                                                         ......                   ",
"                                                                                                                                                                                         ......                   ",
"                                                                                                                                                                                         ......                   ",
"                                                                                                                                                                                         ......                   ",
"                                                                                                                                                                                         .o.o.o                   ",
"                                                                                                                                                                                                                  ",
"                                                                                                                                                                                                                  ",
"                                                                                                                                                                                                                  ",
"                                                                                                                                                                                                                  "
};
