/* XPM */
static char *map_editor_new_map_title[] = {
/* columns rows colors chars-per-pixel */
"245 53 18 1 ",
"  c None",
". c #063BB0",
"X c #073BB0",
"o c #063BB1",
"O c #073BB1",
"+ c #063CB0",
"@ c #073CB0",
"# c #063CB1",
"$ c #073CB1",
"% c #063DB1",
"& c #073DB1",
"* c #063CB2",
"= c #073CB2",
"- c #083BB0",
"; c #083BB2",
": c #083CB1",
"> c #083DB1",
", c #083CB2",
/* pixels */
"                                                                                                                                                                                                                                                     ",
"                                                                                                                                                                                                                                                     ",
"                                                                                                                                                                                                                                                     ",
"                                                                                                                                                                                                                                                     ",
"                                                                                                                                                                                                                                                     ",
"                                                                                                                                                                                                                                                     ",
"                                                                                                                                                                                                                                                     ",
"                                                                                                                                                                                                                                                     ",
"                                                                                                                                                                                                                                                     ",
"                                                                                                                                                                                                                                                     ",
"    ,                    ,,,                                                                                       ,                              ,,,                                                                                                ",
"    ..                   ...                                                                                       ..                            ,+++,                                                                                               ",
"    ...                  ...                                                                                       ...                          .....,                                                                                               ",
"    ....                 ...                                                                                       ....                        .....+-                                                                                               ",
"    ......               ...                                                                                       .....                      XX....+-                                                                                               ",
"    .......              ...                                                                                       ......                    XXX....+-                                                                                               ",
"    ........             ...                                                                                       .......                  XXXXXXXX+-                                                                                               ",
"    .........            ...              ,,,,,,               ,,,-,,        ,,,,,,        ,,,-,,                  ........                ,XXXXXXXX+,              ,,,,,,               ,,,,,,    ,,,                                               ",
"    .........,           ...          ..++++.......%           .++++.        ...%++,       .++++.,                 .........              ..XXXXXXXX+-          ,++X++++.....,           ...+++ %...%....,                                           ",
"    ...........          ...         ...++++.........          .++++.        ...+++-       .++++.,                 ..........            ,..XXXXXX+++-         .++++++++......%          ...++++...........                                          ",
"    ............         ...        ....++...........%         ......        ...+++>       ......-                 ...........          ......++XXXX+-        ......+...........         ...++++............                                         ",
"    .............        ...       ,....X+.    .......,        ......        ...+++,       ......,                 ............        .......++XXXX+-       .....       %.......        ...++++%    ........                                        ",
"    ..............       ...       .....X.      .......        ......        ...+++,       .....+-                 .............      .......+.+XXXX+-       .++.         .......        .XX++++      .......                                        ",
"    ...............,     ...       .....X.      ,......        ......        ...+++,       .....+,                 ... ..........    ........,,+XXXX+,       +++          .......        XXX+++,      .......                                        ",
"    ...,.............    .++       .....+,      ,+.....        ......        ...++X+       .....+-                 ...  ........X+  .........  .XXXXXX       ,,,          ,......        ......,      ,+XXXXX                                        ",
"    ... .............,   .++       .....+        +....+,       ......        ...+++,       .....+-                 ...   .......XX..........   .XXXXXX                     ......,       ......        +XXXX..                                       ",
"    ...  ,.............  +++       .....+        ...+++,       ......        ...X++-       .....+-                 ...    ......XXXX......,    .XXXX+-                     .....%,       ......        .XXXX..                                       ",
"    ...   ..............,+++       ......,       ...+++,       ......        ...X++,       .....+-                 ...     .....XXXX....+,     .XXXX+,                     .....+,       ......        .XXXX..                                       ",
"    ...    .................       .................+++-       ......        ...XX..       .....+-                 ...      ....XXXX....+      .XXXX+-           ...............+>       ......        .XXXX+,                                       ",
"    ...      ...............       .................+++,       ......        ...XX..       .....+,                 ...       ...XXXX....       .XXXX+-         ,................+>       ......        .X+XX+,                                       ",
"    ...       ..............       ...................+-       ......        ...XXX.       .....+                  ...        ..XX++..,        XXX+++-        ..................+,       ......        .+++++,                                       ",
"    ...        .............       .......                     ......        ...XXX+       ......                  ...         .X++++,         XXX+++,        .......,.,,,,.....+-       ......        .+++++-                                       ",
"    ...         ,...........       ......                      ......        ...+++>       ......                  ...          .....          ......,       ...++++%      .....+,       ......        ......,                                       ",
"    ...          ...........       ......                      ......        ...+++>       ......                  ...           ..,           ......,       ...++++       .....+,       ......        ......,                                       ",
"    ...           ..........       ......                      ......        ...+++,       ......                  ...            .            .....+-       ...+++,       .....+,       ......        .....%,                                       ",
"    ...            ,........       ......,          ...        ......       ,...++%,      ,.....                   ...                         .....+,       ...XX+%      ,.....+-       ......       ......+                                        ",
"    ...             ........       .......          ...        ......       ....++X-      ......                   ...                         .XXXX+-       .++XXX.      ......+-       ...+++       ,.+++++                                        ",
"    ...              .......       ......+%        ....        ......      .....+++,     ......                    ...                         .XXXX+-       .++XXX+.    .......+,       ...++X      ...+++++                                        ",
"    ...                .....        .......,.,,,,%....         .....+.,,,,......XX++,,,.,...+.                     ...                         .XX+++-        ++XXXX.,.,........+,       ...+++,,,,-....+X++                                         ",
"    ...                 %...        ...........%.....%         .....++%.........XXXX........,                      ...                         .XX+++,        ,.XXXX......,.....+,       ...+++.++++....XX+,                                         ",
"    ...                  ...         ,..............%          .................XX.........                        ...                         .XXXX+-         ........... .....+,       ...............XX.                                          ",
"    ...                   ..           .........%.,            .........,..  ...XX......,                          ...                         .XXXX+,           ........  .....+-       ................                                            ",
"                                                                                                                                                                                         ......                                                      ",
"                                                                                                                                                                                         ......                                                      ",
"                                                                                                                                                                                         ......                                                      ",
"                                                                                                                                                                                         ......                                                      ",
"                                                                                                                                                                                         ......                                                      ",
"                                                                                                                                                                                         ......                                                      ",
"                                                                                                                                                                                         ......                                                      ",
"                                                                                                                                                                                                                                                     ",
"                                                                                                                                                                                                                                                     ",
"                                                                                                                                                                                                                                                     ",
"                                                                                                                                                                                                                                                     "
};
