/* XPM */
static char *map_editor_menu_title[] = {
/* columns rows colors chars-per-pixel */
"245 53 16 1 ",
"  c None",
". c #F04F39",
"X c #F14F39",
"o c #F04F3A",
"O c #F14F3A",
"+ c #F14F3B",
"@ c #F24F3B",
"# c #F05039",
"$ c #F15039",
"% c #F25039",
"& c #F25139",
"* c #F0503A",
"= c #F1503A",
"- c #F0513A",
"; c #F1503B",
": c #F2513A",
/* pixels */
"                                                                                                                                                                                                                                                     ",
"                                                                                                                                                                                                                                                     ",
"                                                                                                                                                                                                                                                     ",
"                                                                                                                                                                                                                                                     ",
"                                                                                                                                                                                                                                                     ",
"                                                                                                                                                                                                                                                     ",
"                                                                                                                                                                                                                                                     ",
"                                                                                                                                                                                                                                                     ",
"                                                                                                                                                                                                                                                     ",
"                                                                                                                                                                                                                                                     ",
"    $                              $$$                                                                          $$$$$$$$$$$@$$$@$                     $$$$$$        $$$$$$            $$$$$$                                                         ",
"    ..                            ....$                                                                         ............++**.                     ......@       ....$*           $....*$                                                         ",
"    ..$                          ...$$$                                                                         ............+++..                     ......@       ....**           $......                                                         ",
"    ...$                        $...$$$                                                                         ............++...                     ......@       ....+$           $......                                                         ",
"    ....$                      $......$                                                                         .......                               ......@                        $......                                                         ",
"    .....$                    $.......$                                                                         ......                                ......@                        $......                                                         ",
"    ......$                  *........$                                                                         ......                                ...++*@                        $......                                                         ",
"    .......$                $+........$              @@@$$$              $$$@$$    $$$                          ......                         $@$$$$....++*@       @@@@$$        $$$$......@@$               $$$$@@               $$$@@@        $$$ ",
"    ........$              *..........*          $++$*.........          ...$++ ..........                      ......                     .....*+........**@       ++**..        ..........*++*          ......++**....           .....$    +...... ",
"    .........$            $+..........$         +++++*..........         ...+++*...........                     ......                    $.....++........**@       ++**..        ..........+++*         $......++++.....          .....*   ........ ",
"    ..........$          $..........$$$        $................@        ......$...........$                    ......                   .....+.+++.........@       +.....        ............$$        .................$         .....*  $++...... ",
"    ...........$        $...........$$@       $*..*       $.....*$       .......$    $.......                   ......                  $.....+$      ......@       ......           $......           $......$    $.......        ...... *+........ ",
"    .............      *++......++**$$@       $$..         $....++       ......$      $......                   ......                  +.....#       ......$       ......           $......           ......$      $......        ......$$+........ ",
"    ... $.........    $+.+....$.++****$       $$.          .....++       ......$      .......                   ......                  ++....*       ......$       ......           $......           ......$      .......        .......++........ ",
"    ...  ..........  $.......$  ......@       $$$          $....+.       *++...$      $.....+                   ......@                 ......$       ......*       ......           $......           ......$      $......        .....*$*$*@@@$$@@ ",
"    ...   .................+$   ......$                     ....+.$      $++...        .....+$                  .............$          ......        ......$       ......           $......           ......        ......$       .....**$          ",
"    ...    ................$    ......$                     ......$      .++...        .....+$                  ............$$          ......        ......$       ......           $......           ......        ......$       .....**           ",
"    ...     @.............*     ......@                     ......$      ......        .....*@                  .......$$$$$$$          ......        ......$       ......           $......           ......        ......$       .....$$           ",
"    ...      $...........$      ....$$$           *...............@      ......        ......@                  ......                  ......        ......$       ......           $......           ......        ...++*;       .....+            ",
"    ...       $.........$       ....$$$         ..................@      ......        .....*@                  ......                  ......        ......$       ......           $......           ......        ...+++@       .....+            ",
"    ...        $.......$        ......$        $....++..+.........$      ......        .....*$                  ......                  ......        ..+++*@       ......           $......           ......        +..+.+$       ......            ",
"    ...         $.....$         ......$        .....++$$$$**......$      ......        .....+*                  ......                  ......        ..+++*@       ......           $......           ......        .....*@       ......            ",
"    ...          $...@          $...**$       $$.....#      ......$      ......        ......$                  ....++                  $+++..        ......*       ......           $......           ......        ......@       ......            ",
"    ...           ..$           ....**$       +*....$       ......$      ......        ......$                  ....++                  ++++..        ......$       ......           $......           ......        .....*@       ......            ",
"    ...            @            ....$$@       ++.....       ......$      ......        ......$                  ....++                  ......        ......$       ......           $......           .....$        ...++*@       ......            ",
"    ...                         ....$$$       ++....$      $......$      ......       $......                   ....+$                  .....$$      $......$       ......           $......           ......$      $...++*        ......            ",
"    ...                         ......$       ......$      $+.....@      ......       $......                   ......                  ......*      $......$       ......           .......           ......$      $...++.        ......            ",
"    ...                         ......@       ......*$    +.......@      ......      $......$                   ......                  .......*    ........$       ......            ......$          .......$    ........        ......            ",
"    ...                         ......@        .....++$*$$++....**@      .......**@;........                    .......@@@$@$$$$@        ++.....$*.$....+.++$       ......            $.....++$         ....++.$$*$.......         ......            ",
"    ...                         ......$        $.....+....++....**@      .......++++........                    ........**.......        $......+*......+++*@       ......             $....+$$$        *..+++++..........         ......            ",
"    ...                         .....$$         $.......++$ ....++$      .......++.........                     ........*+.......         $.....++..$ ......$       ......              .......$         *...............          ......            ",
"    ...                         .....$$           $.$...*$  ....++$      .......++....$$.                       ........++.......           $.$.++##  ......$       ......                $$..$$           $.$......$$$            ......            ",
"                                                                         ......                                                                                                                                                                      ",
"                                                                         ......                                                                                                                                                                      ",
"                                                                         ......                                                                                                                                                                      ",
"                                                                         ......                                                                                                                                                                      ",
"                                                                         ......                                                                                                                                                                      ",
"                                                                         ......                                                                                                                                                                      ",
"                                                                         $$$$$$                                                                                                                                                                      ",
"                                                                                                                                                                                                                                                     ",
"                                                                                                                                                                                                                                                     ",
"                                                                                                                                                                                                                                                     ",
"                                                                                                                                                                                                                                                     "
};
