/* XPM */
static char *_4610_cd9d40595b486290e9dcc5a7572efd45a2f3973d718d17a406e59af357e9732d[] = {
/* columns rows colors chars-per-pixel */
"199 76 74 1 ",
"  c #000000",
". c #090400",
"X c #190D00",
"o c #1C1300",
"O c #200F00",
"+ c #201100",
"@ c #291200",
"# c #2C1B00",
"$ c #301E00",
"% c #342100",
"& c #412400",
"* c #442A00",
"= c #4A2900",
"- c #512600",
"; c #592D00",
": c #573700",
"> c #573B00",
", c #5A3F00",
"< c #692E00",
"1 c #6C3300",
"2 c #6F3D00",
"3 c #733600",
"4 c #723E00",
"5 c #6E4500",
"6 c #734300",
"7 c #764A00",
"8 c #784B00",
"9 c #7A5300",
"0 c #8D3F00",
"q c #8A4400",
"w c #864D00",
"e c #884D00",
"r c #914B00",
"t c #865100",
"y c #8C5600",
"u c #925000",
"i c #9F5700",
"p c #945E00",
"a c #CA5D00",
"s c #D35E00",
"d c #DC5F00",
"f c #C86500",
"g c #D26400",
"h c #DD6500",
"j c #D46900",
"k c #CA7600",
"l c #CB7B00",
"z c #DB7000",
"x c #DD7E00",
"c c #FA6400",
"v c #F36B00",
"b c #FA6B00",
"n c #FA7300",
"m c #F57E00",
"M c #FA7B00",
"N c #D58500",
"B c #DC8100",
"V c #D58D00",
"C c #DE8800",
"Z c #D69200",
"A c #D89400",
"S c #EC8400",
"D c #F78100",
"F c #F98300",
"G c #F78B00",
"H c #F98C00",
"J c #EA9000",
"K c #F79500",
"L c #F99400",
"P c #F79800",
"I c #F99B00",
"U c #F8A200",
"Y c #F8A900",
"T c None",
/* pixels */
"TTTTTTTTcccccccccccccccccccccccccccccccccccccccccccccccccccccccccccccccccccccccccccccccccccccccccccccccccccccccccccccccccccccccccccccccccccccccccccccccccccccccccccccccccccccccccccccccccccccccTTTTTTTT",
"TTTTTcccccccccccccccccccccccccccccccccccccccccccccccccccccccccccccccccccccccccccccccccccccccccccccccccccccccccccccccccccccccccccccccccccccccccccccccccccccccccccccccccccccccccccccccccccccccccccccTTTTT",
"TTTcccccccccccccccccccccccccccccccccccccccccccccccccccccccccccccccccccccccccccccccccccccccccccccccccccccccccccccccccccccccccccccccccccccccccccccccccccccccccccccccccccccccccccccccccccccccccccccccccTTT",
"TTcccccccccccccccccccccccccccccccccccccccccccccccccccccccccccccccccccccccccccccccccccccccccccccccccccccccccccccccccccccccccccccccccccccccccccccccccccccccccccccccccccccccccccccccccccccccccccccccccccTT",
"TTcccccccccccccccccccccccccccccccccccccccccccccccccccccccccccccccccccccccccccccccccccccccccccccccccccccccccccccccccccccccccccccccccccccccccccccccccccccccccccccccccccccccccccccccccccccccccccccccccccTT",
"TcccccccccccccccccccccccccccccccccccccccccccccccccccccccccccccccccccccccccccccccccccccccccccccccccccccccccccccccccccccccccccccccccccccccccccccccccccccccccccccccccccccccccccccccccccccccccccccccccccccT",
"TcccccccccccccccccccccccccccccccccccccccccccccccccccccccccccccccccccccccccccccccccccccccccccccccccccccccccccccccccccccccccccccccccccccccccccccccccccccccccccccccccccccccccccccccccccccccccccccccccccccT",
"TcccccccccccccccccccccccccccccccccccccccccccccccccccccccccccccccccccccccccccccccccccccccccccccccccccccccccccccccccccccccccccccccccccccccccccccccccccccccccccccccccccccccccccccccccccccccccccccccccccccT",
"ccccccccccccccccccccccccccccccccccccccccccccccccccccccccccccccccccccccccccccccccccccccccccccccccccccccccccccccccccccccccccccccccccccccccccccccccccccccccccccccccccccccccccccccccccccccccccccccccccccccc",
"ccccccccccccccccccccccccccccccccccccccccccccccccccccccccccccccccccccccccccccccccccccccccccccccccccccccccccccccccccccccccccccccccccccccccccccccccccccccccccccccccccccccccccccccccccccccccccccccccccccccc",
"ccccccccccccccccccccccccccccccccccccccccccccccccccccccccccccccccccccccccccccccccccccccccccccccccccccccccccccccccccccccccccccccccccccccccccccccccccccccccccccccccccccccccccccccccccccccccccccccccccccccc",
"ccccccccccccccccccccccccccccccccccccccccccccccccccccccccccccccccccccccccccccccccccccccccccccccccccccccccccccccccccccccccccccccccccccccccccccccccccccccccccccccccccccccccccccccccccccccccccccccccccccccc",
"ccccccccccccccccccccccccccccccccccccccccccccccccccccccccccccccccccccccccccccccccccccccccccccccccccccccccccccccccccccccccccccccccccccccccccccccccccccccccccccccccccccccccccccccccccccccccccccccccccccccc",
"ccccccccccccccccccccccccccccccccccccccccccccccccccccccccccccccccccccccccccccccccccccccccccccccccccccccccccccccccccccccccccccccccccccccccccccccccccccccccccccccccccccccccccccccccccccccccccccccccccccccc",
"ccccccccccccccccccccccccccccccccccccccccccccccccccccccccccccccccccccccccccccccccccccccccccccccccccccccccccccccccccccccccccccccccccccccccccccccccccccccccccccccccccccccccccccccccccccccccccccccccccccccc",
"ccccccccccccccccccccccccccccccccccccccccccccccccccccccccccccccccccccccccccccccccccccccccccccccccccccccccccccccccccccccccccccccccccccccccccccccccccccccccccccccccccccccccccccccccccccccccccccccccccccccc",
"ccccccccccccccccccccccccccccccccccccccccccccccccccccccccccccccccccccccccccccccccccccccccccccccccccccccccccccccccccccccccccccccccccccccccccccccccccccccccccccccccccccccccccccccccccccccccccccccccccccccc",
"ccccccccccccccccccccccccccccccccccccccccccccccccccccccccccccccccccccccccccccccccccccccccccccccccccccccccccccccccccccccccccccccccccccccccccccccccccccccccccccccccccccccccccccccccccccccccccccccccccccccc",
"ccccccccccccccccccccccccccccccccccccccccccccccccccccccccccccccccccccccccccccccccccccccccccccccccccccccccccccccccccccccccccccccccccccccccccccccccccccccccccccccccccccccccccccccccccccccccccccccccccccccc",
"ccccccccccccccccccccccccccccccccccccccccccccccccccccccccccccccccccccccccccccccccccccccccccccccccccccccccccccccccccccccccccccccccccccccccccccccccccccccccccccccccccccccccccccccccccccccccccccccccccccccc",
"ccccccccccccccccccccccccccccccccccccccccccccccccccccccccccccccccccccccccccccccccccccccccccccccccccccccccccccccccccccccccccccccccccccccccccccccccccccccccccccccccccccccccccccccccccccccccccccccccccccccc",
"ccccccccccccccccccccccccccccccccccccccccccccccccccccccccccccccccccccccccccccccccccccccccccccccccccccccccccccccccccccccccccccccccccccccccccccccccccccccccccccccccccccccccccccccccccccccccccccccccccccccc",
"ccccccccccccccccccccccccccccccccccccccccccccccccccccccccccccccccccccccccccccccccccccccccccccccccccccccccccccccccccccccccccccccccccccccccccccccccccccccccccccccccccccccccccccccccccccccccccccccccccccccc",
"ccccccccccccccccccccccccccccccccccccccccccccccccccccccccccccccccccccccccccccccccccccccccccccccccccccccccccccccccccccccccccccccccccccccccccccccccccccccccccccccccccccccccccccccccccccccccccccccccccccccc",
"ccccccccccccccccccccccccccccccccccccccccccccccccccccccccccccccccccccccccccccccccccccccccccccccccccccccccccccccccccccccccccccccccccccccccccccccccccccccccccccccccccccccccccccccccccccccccccccccccccccccc",
"ccccccccccccccccccccccccccccccccccccccccccccccccccccccccccccccccccccccccccccccccccccccccccccccccccccccccccccccccccccccccccccccccccccccccccccccccccccccccccccccccccccccccccccccccccccccccccccccccccccccc",
"ccccccccccccccccccccccccccccccccccccccccccccccccccccccccccccccccccccccccccccccccccccccccccccccccccccccccccccccccccccccccccccccccccccccccccccccccccccccccccccccccccccccccccccccccccccccccccccccccccccccc",
"ccccccccccccccccccccccccccccccccccccccccccccccccccccccccccccccccccccccccccccccccccccccccccccccccccccccccccccccccccccccccccccccccccccccccccccccccccccccccccccccccccccccccccccccccccccccccccccccccccccccc",
"ccccccccccccccccccccccccccccccccccccccccccccccccccccccccccccccccccccccccccccccccccccccccccccccccccccccccccccccccccccccccccccccccccccccccccccccccccccccccccccccccccccccccccccccccccccccccccccccccccccccc",
"cccccccccccccccccccccccccccccccccccccccccccccccbcbccccccccccccccccccccbcccccccccccccccccccccccccccccccccccccccccccccccccccccccccccccccccccccccccccccccccccccccccccccccccccccccccccccccccccccccccccccccc",
"ccccccccccccccccccccccccccccccccccccccccccccbbcbbbcccccccccccccccccccccbbcccccccccccccccccccccccccbbbccccccccccccccbccccccccccccccccccccccccccccccccccccccccccccccccccccccccccccccccccccccccccccccccccc",
"cccccccccccccccccccccccccccbb<XdbbccccccccbcbbsX <ccccccccccccccccccc<   3bbccccccccccccccccccccbbb<OdbcccccccccbbbbsX <ccccccccccccccccccccccccccccccccccccccccccccccccccccccccccccccccccccccccccccccc",
"cccccccccccccccccccccccccccbn1 OhbcccccccbbbngX  1bbbccccccccccccbbbn3   3bccccccccccccccccccccbbbn1 OhbbcccccccbbMgX  1bbbcccccccccccccccccccccccccccccccccccccccccccccccccccccccccccccccccccccccccccc",
"ccccccccccccccccccccccccccbnM1  +hbbcccccbbnjX   2nbccbccbcbbbccccbnnMFDMnnbbcbbbcbbcbccccccccccbnM1  +hbbccccbbbngX   1nbccccbbcbbcccccccbccbbbbbcbcccccbcccbcbccbcbccbccccccccccccccccccccccccccccccc",
"cccccccccccccccccccccccccbbMD4   +hbbccbbbnjX    1MbbbbbbbnbbbbbbcbnMmFFDMnbbbbbbbnbbbbbbcccccccbnF4   +hbcbccbbnjX    2Mbbbbbbbnnbbbbbccbbbnbbbbbbbbbbcbcbbbbbbbcbbbbbcbcccccccccccccccccccccccccccccc",
"ccccccccccccccccccccccccccbMF6    +hbbcbbnjX     4Mnbbv3o.    @0bbbbM4   3nnb1   2-. .@0bbcccccbbMF6    ohbbbbbnjX     2Mnbbbq@.   .@qbbbbb1   1-. .@qbbbbb1   1nbb3   1bbccccccccccccccccccccccccccccc",
"ccccccccccccccccccccccccccnMH6     +hbbbnjo      2Mnbn;         1nbnM4   2nnM1   #      1bbbcccbnMG6     OhbbbnjX      2Mnnb1         1nbnM1   #      1bbbM1   1nnn4   1bbbcccccccccccccccccccccccccccc",
"ccccccccccccccccccccccccccbMH6      ohnMjX       5mnMg  uSHSe    anMD5   4MMM2    wxe    abcccccbMG6      OhnMjX       2MMnf    wBw    abMM4    wBe    annM4   4MMM4   4nbccccccccccccccccccccccccccccc",
"ccccccccccccccccccccccccccnMH6 ,o    +zjX   o,   4Mnnq &HLHLL*   qnMF6   4MMF6   &PPI*   qnbbcccnMH7 :o    +zjX   o,   4MMMw   *LII*   qMMF6   *LPL*   qMMF6   4MMF6   4Mbccccccccccccccccccccccccccccc",
"cccccccccccccccccccccccccbnMH6 8Ao    +o   oA9   4FMMFFHHHLLI9   4MDG6   6DDG6   8PLI8   3nbcccbnMG6 9Ao    oo   oA9   6DMD6   8III8   3MMH6   8PII8   4MDG6   4FFH8   4Mbbcccccccccccccccccccccccccccc",
"cccccccccccccccccccccccccbbMG5 7UAo       oVY9   2DnMMFHGFGLP8   6FFG6   6DFL6   8LLL8   4MbccccbMF6 8YVo       oVY9   5DDG6   8III8   6DDG6   8LLL8   6FFG6   4DFH8   4Mnccccccccccccccccccccccccccccc",
"ccccccccccccccccccccccccccnMF6 7UUVo     oVUU9   5MMMMFe#.       4DFH6   6FFH8   6HHL8   4MbbcccnMH6 7UUVo     oVUU9   2DDG6           4FDG7   6GHI8   4MFH6   6FFH8   6Mnccccccccccccccccccccccccccccc",
"ccccccccccccccccccccccccccnMF6 6IIIVo   oNILI8   2MnnM1          6FFH8   6FFH8   6FHL8   4MbcccbbMF6 6LIUVo   oBILI8   4FFH6           4FDH8   6FHL8  .6FHL6   4FFH8   6Mbccccccccccccccccccccccccccccc",
"cccccccccccccccccccccccccbbMF2 4HHLIVo oNLHLP8   6DMMf    tJI9   6DFH6   6FFH6   6FGH8   6MnbcccnMD4 6HLLIVo oNLHLP8   2FGH7   8LPIIUILFFFG6   6FDG8   6DFH6   6GFH8   4Mnbcccccccccccccccccccccccccccc",
"cccccccccccccccccccccccccbbMF5 2FFHLIN%NHHFGL8   2MMMe   *IIU9   6GFH6   6FFL6   6FFH8   6MnbcccbMF5 2FFGLIN%BLGFGL8   5FFH7   8LLLLPLFDMFH6   4FGH8   6FFH6   6FFH8   6Mnbcccccccccccccccccccccccccccc",
"ccccccccccccccccccccccccccbMF2 2DMMHLLLHGFMDG8   2DMDt   *ILU*   6FFH7   6FFH6   6FFH8   4MbccccbMF2 2MMDFHLLHGMMFH6   4FDLu   *LHGLG= rMDL6   6FFH6   6FFLu   *GFL=   4Mbccccccccccccccccccccccccccccc",
"cccccccccccccccccccccccccbnMF2 4MMMMDFFMMMMMG8   6DDFk    tCy    6FFG7   6FFH6   6FGH6   6MbbccbnMD2 1MMMMDFFDMMMMH8   4FFGl    eSGSi. hMFH6   6FFL8   6FFHl    ext    6nbccccccccccccccccccccccccccccc",
"ccccccccccccccccccccccccccbMD2 1MnnbnnMMbbnMG6   4DMFL5      %   6DDL6   6FFG7   4DFH8   6MnccccnMM4 2MnbnnMMnnbnMG6   5DDGL5         ;MMDG8   6FDG8   6FFFL5      $   4ccccccccccccccccccccccccccccccc",
"cccccccccccccccccccccccccbbMF4 2MbbbbbbbbbnMF6   2MMDGIp#. .:8   4FFH6   4DFG6   4DFH6   6MbbccbnnD4 2MnbbbbbbbbnMG6   2DMDLLp#.   .+4mMnMF6   4FFH6   4FMDHIp#. .:8   6Mbbcccccccccccccccccccccccccccc",
"cccccccccccccccccccccccccbbnMMDDnbccbbbbcbbMFHLLLFMnMGLLIIPLIIIILFMMFHILLFMmFLPLLFMFFLILHFMbbcccbnMDDMnbccbbbbccbnFLLLLFMMMFLLIPLLHHHFMnMMFLLLLDMMFLLLLFMMMFLPPLIPIIIILFnbccccccccccccccccccccccccccccc",
"ccccccccccccccccccccccccccbnMMMMbbbcccccccbnFFHLFMMnMMDGHLHLLLLLFMMMMGHHFMMMMGHHFDMMMFHHFMnbccccbnMMMMnbbcccccccbnMGHLFMnnnMFGHLLHHHFMMMbMMGHLHDMMMFHHFFnnMMDGLLHLHLLLGDnbccccccccccccccccccccccccccccc",
"ccccccccccccccccccccccccccbbnnnnbbbccccccbbbMMFMMMnbbnMDDGFFFFFFMMnnMMDDMMnnMMDDMMnnMMFDMMbbcccbbbnnnnbbccccccccbbMMDDMMnbbMMDFFFFMMMMnbbbMMDMMnbMMMFFMMnbbnMDFFFFFFFDMnnbbcccccccccccccccccccccccccccc",
"cccccccccccccccccccccccccccbccccbcccccccccbbbnbMnbbbbbnnnMMnMnnMMbbnnnMbnbbbbnnnnbbbnnnbnnbbccccbbbnbbbbcccccccccbbnnnnbbbbbnnnMMMnMnnbcbbbMbnnnbbnnnnnbbbbbbnnnMnMMnMnbbcccccccccccccccccccccccccccccc",
"cccccccccccccccccccccccccccbcccccccccccccccbbbbbbbbbccbbbbbbbnbbbbcbbbbbbbbbbbbbbbbcbbbbbbcbcccccccbbbccccccccccbcbbbbbbcbcbbbbbnnbbbbcccbbbbbbbbcbbbbbbcbcbbbbnbbbbbbbbbcccccccccccccccccccccccccccccc",
"cccccccccccccccccccccccccccccbccccccccccccccbccccbcccccccbcbbbcccbcccccbcbcbbcbccbcbcccccccccccccccbbcccccccccccccbccbcbccccccbbccbbccccccbcbbccccbccbcbccccccccbbbbbccbccccccccccccccccccccccccccccccc",
"ccccccccccccccccccccccccccccccccccccccccccccccccccccccccccccccccccccccccccccccccccccccccccccccccccccccccccccccccccccccccccccccccccccccccccccccccccccccccccccccccccccccccccccccccccccccccccccccccccccccc",
"ccccccccccccccccccccccccccccccccccccccccccccccccccccccccccccccccccccccccccccccccccccccccccccccccccccccccccccccccccccccccccccccccccccccccccccccccccccccccccccccccccccccccccccccccccccccccccccccccccccccc",
"ccccccccccccccccccccccccccccccccccccccccccccccccccccccccccccccccccccccccccccccccccccccccccccccccccccccccccccccccccccccccccccccccccccccccccccccccccccccccccccccccccccccccccccccccccccccccccccccccccccccc",
"ccccccccccccccccccccccccccccccccccccccccccccccccccccccccccccccccccccccccccccccccccccccccccccccccccccccccccccccccccccccccccccccccccccccccccccccccccccccccccccccccccccccccccccccccccccccccccccccccccccccc",
"ccccccccccccccccccccccccccccccccccccccccccccccccccccccccccccccccccccccccccccccccccccccccccccccccccccccccccccccccccccccccccccccccccccccccccccccccccccccccccccccccccccccccccccccccccccccccccccccccccccccc",
"ccccccccccccccccccccccccccccccccccccccccccccccccccccccccccccccccccccccccccccccccccccccccccccccccccccccccccccccccccccccccccccccccccccccccccccccccccccccccccccccccccccccccccccccccccccccccccccccccccccccc",
"ccccccccccccccccccccccccccccccccccccccccccccccccccccccccccccccccccccccccccccccccccccccccccccccccccccccccccccccccccccccccccccccccccccccccccccccccccccccccccccccccccccccccccccccccccccccccccccccccccccccc",
"ccccccccccccccccccccccccccccccccccccccccccccccccccccccccccccccccccccccccccccccccccccccccccccccccccccccccccccccccccccccccccccccccccccccccccccccccccccccccccccccccccccccccccccccccccccccccccccccccccccccc",
"ccccccccccccccccccccccccccccccccccccccccccccccccccccccccccccccccccccccccccccccccccccccccccccccccccccccccccccccccccccccccccccccccccccccccccccccccccccccccccccccccccccccccccccccccccccccccccccccccccccccc",
"ccccccccccccccccccccccccccccccccccccccccccccccccccccccccccccccccccccccccccccccccccccccccccccccccccccccccccccccccccccccccccccccccccccccccccccccccccccccccccccccccccccccccccccccccccccccccccccccccccccccc",
"ccccccccccccccccccccccccccccccccccccccccccccccccccccccccccccccccccccccccccccccccccccccccccccccccccccccccccccccccccccccccccccccccccccccccccccccccccccccccccccccccccccccccccccccccccccccccccccccccccccccc",
"ccccccccccccccccccccccccccccccccccccccccccccccccccccccccccccccccccccccccccccccccccccccccccccccccccccccccccccccccccccccccccccccccccccccccccccccccccccccccccccccccccccccccccccccccccccccccccccccccccccccc",
"ccccccccccccccccccccccccccccccccccccccccccccccccccccccccccccccccccccccccccccccccccccccccccccccccccccccccccccccccccccccccccccccccccccccccccccccccccccccccccccccccccccccccccccccccccccccccccccccccccccccc",
"TcccccccccccccccccccccccccccccccccccccccccccccccccccccccccccccccccccccccccccccccccccccccccccccccccccccccccccccccccccccccccccccccccccccccccccccccccccccccccccccccccccccccccccccccccccccccccccccccccccccT",
"TcccccccccccccccccccccccccccccccccccccccccccccccccccccccccccccccccccccccccccccccccccccccccccccccccccccccccccccccccccccccccccccccccccccccccccccccccccccccccccccccccccccccccccccccccccccccccccccccccccccT",
"TcccccccccccccccccccccccccccccccccccccccccccccccccccccccccccccccccccccccccccccccccccccccccccccccccccccccccccccccccccccccccccccccccccccccccccccccccccccccccccccccccccccccccccccccccccccccccccccccccccccT",
"TTcccccccccccccccccccccccccccccccccccccccccccccccccccccccccccccccccccccccccccccccccccccccccccccccccccccccccccccccccccccccccccccccccccccccccccccccccccccccccccccccccccccccccccccccccccccccccccccccccccTT",
"TTcccccccccccccccccccccccccccccccccccccccccccccccccccccccccccccccccccccccccccccccccccccccccccccccccccccccccccccccccccccccccccccccccccccccccccccccccccccccccccccccccccccccccccccccccccccccccccccccccccTT",
"TTTcccccccccccccccccccccccccccccccccccccccccccccccccccccccccccccccccccccccccccccccccccccccccccccccccccccccccccccccccccccccccccccccccccccccccccccccccccccccccccccccccccccccccccccccccccccccccccccccccTTT",
"TTTTTcccccccccccccccccccccccccccccccccccccccccccccccccccccccccccccccccccccccccccccccccccccccccccccccccccccccccccccccccccccccccccccccccccccccccccccccccccccccccccccccccccccccccccccccccccccccccccccTTTTT",
"TTTTTTTTcccccccccccccccccccccccccccccccccccccccccccccccccccccccccccccccccccccccccccccccccccccccccccccccccccccccccccccccccccccccccccccccccccccccccccccccccccccccccccccccccccccccccccccccccccccccTTTTTTTT"
};
