/* XPM */
static char *_0709_5109e99791b03b89cb445ad9c258e8169854fbe916589807c3517eb9d51d8697[] = {
/* columns rows colors chars-per-pixel */
"199 76 13 1 ",
"  c black",
". c #010101",
"X c #020202",
"o c #040404",
"O c gray2",
"+ c #070707",
"@ c gray3",
"# c #090909",
"$ c #0B0B0B",
"% c #0E0E0E",
"& c #101010",
"* c #111111",
"= c None",
/* pixels */
"=======================================================================================================================================================================================================",
"=======================================================================================================================================================================================================",
"=======================================================================================================================================================================================================",
"=======================================================================================================================================================================================================",
"=======================================================================================================================================================================================================",
"=======================================================================================================================================================================================================",
"=======================================================================================================================================================================================================",
"=======================================================================================================================================================================================================",
"=======================================================================================================================================================================================================",
"=======================================================================================================================================================================================================",
"=======================================================================================================================================================================================================",
"=======================================================================================================================================================================================================",
"=======================================================================================================================================================================================================",
"=======================================================================================================================================================================================================",
"=======================================================================================================================================================================================================",
"=======================================================================================================================================================================================================",
"=======================================================================================================================================================================================================",
"=======================================================================================================================================================================================================",
"=======================================================================================================================================================================================================",
"=======================================================================================================================================================================================================",
"=======================================================================================================================================================================================================",
"=======================================================================================================================================================================================================",
"=======================================================================================================================================================================================================",
"=======================================================================================================================================================================================================",
"=======================================================================================================================================================================================================",
"=======================================================================================================================================================================================================",
"=======================================================================================================================================================================================================",
"=======================================================================================================================================================================================================",
"=======================================================================================================================================================================================================",
"=======================================================================================================================================================================================================",
"=======================================================================================================================================================================================================",
"=============================&X==========& &====================================================o     X%===============================================================================================",
"=============================& .=========& &==================================================%         +==============================================================================================",
"=============================&  .========& &==================================================    =====  ==============================================================================================",
"=============================&    =======& &==================================================   +=====+ ==============================================================================================",
"=============================&     ======& &======o     o======&   *===*   *===*   &=========&   *=============*o     o======&   &$   o===o   o=========o     o========================================",
"=============================&      &====& &====&         &====&   *===*   *===*   &=========&   *============$         &====&   o      o       &=====&         &======================================",
"=============================&       $===& &====    ===    ====&   *===*   *===*   &=========&   *============  =====    ====&    ===     ===    =====    ===    ======================================",
"=============================&        +==& &====   +===+   ====&   *===*   *===*   &=========&   *============ +=====+   ====&   +===+   +===+   =====   +===+   ======================================",
"=============================& $o      O=& &===&   *===*   *===&   *===*   *===*   &=========&   *=&     *===========*   *===&   *===*   *===*   &===&   *===*   *=====================================",
"=============================& &=O      o$ &===&   *===*   *===&   *===*   *===*   &=========&   *=&     *===========*   *===&   *===*   *===*   &===&   *===*   *=====================================",
"=============================& &==@        &===&           *===&   *===*   *===*   &=========&   *===*   *======o        *===&   *===*   *===*   &===&           *=====================================",
"=============================& &===$       &===&           *===&   *===*   *===*   ==========&   *===*   *====&          *===&   *===*   *===*   &===&           *=====================================",
"=============================& &====*      &===&   *===========&   *===*   *===*   ==========&   *===*   *====    ===*   *===&   *===*   *===*   &===&   *=============================================",
"=============================& &======     &===&   *===========&   *===*   *===*   ==========&   *===*   *====   +===*   *===&   *===*   *===*   &===&   *=============================================",
"=============================& &=======    &====   +=====# ====&   *===+   *===+  &===========   +===+   =====   +===+   *===&   *===*   *===*   &====   +=====# ======================================",
"=============================& &========.  &====    =====  ====&   *===    *===  o============    ===    =====    ===    *===&   *===*   *===*   &====    =====  ======================================",
"=============================& &=========X &====%         $====&                #=============%         $=====%      o   *===&   *===*   *===*   &====%         $======================================",
"=============================& &==========X&======o     X*=====&     o$+     X#=================o     o=========o   $*   *===&   *===*   *===*   &======o     X*=======================================",
"=======================================================================================================================================================================================================",
"=======================================================================================================================================================================================================",
"=======================================================================================================================================================================================================",
"=======================================================================================================================================================================================================",
"=======================================================================================================================================================================================================",
"=======================================================================================================================================================================================================",
"=======================================================================================================================================================================================================",
"=======================================================================================================================================================================================================",
"=======================================================================================================================================================================================================",
"=======================================================================================================================================================================================================",
"=======================================================================================================================================================================================================",
"=======================================================================================================================================================================================================",
"=======================================================================================================================================================================================================",
"=======================================================================================================================================================================================================",
"=======================================================================================================================================================================================================",
"=======================================================================================================================================================================================================",
"=======================================================================================================================================================================================================",
"=======================================================================================================================================================================================================",
"=======================================================================================================================================================================================================",
"=======================================================================================================================================================================================================",
"=======================================================================================================================================================================================================",
"=======================================================================================================================================================================================================",
"=======================================================================================================================================================================================================",
"=======================================================================================================================================================================================================",
"=======================================================================================================================================================================================================",
"=======================================================================================================================================================================================================",
"======================================================================================================================================================================================================="
};
