/* XPM */
static char *_676_bc62c454e41d049500e23a46aaaea666aa46e5a7b76c29d78f33f7814c20b6bd[] = {
/* columns rows colors chars-per-pixel */
"173 76 62 1 ",
"  c #000000",
". c #090400",
"X c #0F0800",
"o c #140A00",
"O c #1B0E00",
"+ c #1E1000",
"@ c #200F00",
"# c #241401",
"$ c #291501",
"% c #2E1901",
"& c #341B01",
"* c #3C1F01",
"= c #3E2101",
"- c #411F00",
"; c #462501",
": c #4C2501",
"> c #4E2902",
", c #4F250B",
"< c #512602",
"1 c #5B2501",
"2 c #532C03",
"3 c #5A2E02",
"4 c #502708",
"5 c #562F08",
"6 c #5C2D0A",
"7 c #553005",
"8 c #5B3102",
"9 c #573209",
"0 c #5B330A",
"q c #5F3B0F",
"w c #632502",
"e c #642C06",
"r c #682B03",
"t c #642C09",
"y c #623402",
"u c #683703",
"i c #633903",
"p c #693905",
"a c #61350D",
"s c #6C340D",
"d c #62380E",
"f c #74370E",
"g c #633614",
"h c #643912",
"j c #6C3B15",
"k c #6D3C19",
"l c #743611",
"z c #783611",
"x c #733B13",
"c c #7A3F17",
"v c #744015",
"b c #78441E",
"n c #744021",
"m c #7B4222",
"M c #7E4729",
"N c #854522",
"B c #844B24",
"V c #8C4926",
"C c #854E2A",
"Z c #8F522E",
"A c #91502F",
"S c #935232",
/* pixels */
":::::<::<4<:::>::<><>4<<>:>>::::::::<:<:<::-:::<:-::<>4>:<::<><>>><><22>2>>><>>2>22>>22>2222<225<<222222222227227>777772233337878788y833338838878y888y8iyyyy8y8y8e8y8yeyyiuuu",
">>>>::::::>:::<1<::::<>4<><::<:::1<:<::>><<<<:::<<<<<<::<:::::>>>>>2>2>>>>:>>2>>22>72>>227>>:18y822<>22222>2>22727>227772223882398788733383333e88y88e8yyy88yy8eyyy8yyyyyuyryy",
"::>>>>>:>:<:<<:-:-:4<::::::<<1:::-::>:::<:<<<::::<:<<<>:::<::<>>>>>>>>><><22>>222>>22>>2>2<23<1hd872>222>7>22277>27>27>7778837770088838773333e8e3yyee3yyyey8y8yyy3yyyyyuyyuuu",
">>::::::::<:-<:::::<:<::::<::-::<:::::<<4>>::><<<::-<<<-::>>::><<>><>>>><>2>>>>2222>>2<>22><<<38a33<77<2222>>222>777277>777733788888738833733388y38y88yyy8yeyyy8ey3yyyyyyyyuu",
">><>::;>::>:<::<<<<-<<<>:>><<::<1:::-:::>><:::::<:<:4<>:::<::>>22>>2>22:><>>>2>>2>222<><>>>2<<33a832222>2>22722277777777737773773788738833338ee8y38eyy8yyyyyy3y88y8yuyyyyyyry",
":>>:;>>;::::::<::::<:<4<<<>1::::-::<::<::<><<:<<>::1<>::>>:<>>><2<>22>><2><>><><22>2>2><>22<2<2288722>72227727>277>7722723333387737888373837383y3y33y8y8yuyyeyy8y88yyyyuyyyuy",
":::::>>;;::><<::::-:<:<<>::-:<:-::::-1:<<:<:-1:<:::-<::<><>>>:<>>>>>>>::>>>>><2><>22>2>:>22<<<2<0h07><277>2>>227777727>2772787333378833383838333e88yyyy33yyyy83e3yyyyyyyyuuuu",
"<::>:>>;:><<>>::<:<<:::::<:::::11-::::<:>:::<-:-::::::>:<<::::::>:><<>>>>>2>>2>>>>>>>>>:2><22<<<5hq82>7>>7>7>2>2>772727773387722733373333883e3e838y888ye3yyy8yy8e8yuyyyyyuuuy",
"<<:<:<:-<<<<>::<<:<-<-::::<::<<<:-<4<<<:<--:-:::<<::<<:<<<::>>:>>><>>>>><>2><27>>><>2>>>>222>>>><900272>2>222>72777>7777732787732783838883833ey3eyyy8yuyyyyy8yeyy88yyyyyyyuuu",
"41<<<<<:-<>>><<:::<:-::<:<<-<-<:<:-1<::<::1:<::::<<--::-<:<:>><>>>2>>2222222>2<>>><2>2<>>2<<>:>2<3609722222>22>777>777>77337737223788883388333y88888eyy8y8yyye8yyyyyyyyyyuyuu",
"tgg6<:-<<:<:1:::::<:<<:::::<::::-<:::::--1<<<<:<<<<::::<<<::>><>>>>>2>2>>><>><>>2>><>>>>><<<>::<>33222>7722>>227>7777>>737222733787233788387y3e8y83e33y88e3ey33ye8yy3yyyyyyup",
"6nMmt11:-<::-:::-:1-<-:::<:::><::;:;::::::-:::>><<-::::1>::<><>>><<><><>>>>>>>>2><>:2>>>><<>:>>><<<<<>><>>22222>>7>7777>27337772223733878333y33388y88yyy8y3338e8y88yeyyyyuyup",
"<lNVz11,,4<<-<::<:::::<::1::-::>;>;:::::::-1:<:<<:<<<::-:::<><>>>2>>2>2><<>>>><2<>>,<4<>>>>:::<4>>><42>>>225>27777797>77277777777727273333368833888y0yi8y3883yyyy3yy8yyyyyyuu",
"<1fNBf1-<<<<-<<::::::14::-::<<:::>>::::::::::<:4::-<:<<-::<:>>><<><>><2>>:>>2>>>><<<2:>><2<:<:::<:<><>242<2242>77>79727>72277772222>772383918388380yy8y8y3y83y3yyyyyeyy8uuuuu",
"<1tcANw1<-<-<-<:::::1-<<::-1::::::::::::::<::::4::-:::::::<::><>>:>><>>>>>2>2>><>>>>><><<<<<<<<:><2>><2>>424227777777722222777777222277333323883388888yy8y388y8yyyyyy3yyyyuyu",
"4<3sBAz1<<<<<<<::;::-<--::::::;:;>>>;::1-<:::<:<<:<::<<::::<>>><<>>>>>>>22><>>>2<><2><<>>:::::>:<4>2<>>22>2252777=77>777227277222277724333333333883888y8y8e8yyy8yyy8yyyyyuuuu",
">::2zSVr1<:::::;::;:<<<:::1::<::;>>>:;::::::::::<::::<:::::>><>>>>::>>>>><22>>><>><4<><><><>>4>::>4><42>4>2>7>227>777;777777>>77>77>773333333333333y88y3yy838yiyyeyy8yyyuuyuu",
";>><ebSf1<<::::>:;::<-:<<--<::::>>;::::::::::<<:::::::::<><>>:>>><<>>2<:>>><><2>><>>><:>:>:<<>2<<<22>>2>4>>777777777777;7;;777>727>77773331333333338838y87ey88yyy8eyu8y3eyyuu",
">>::1sZBy<:<:<:>:::-<:><<-<<:::;>;;7>>;:::-1-::::::<::<4::2<<>2>2<>>>><2>>>>>2222<><>><:<2>2<:>>2>422><<2>24>77777;7777777;7777772722777335388y3833333383yy88y8y83yyyyyyyyryu",
",;:>11jCx3:::::>;:::-::<<:<-::::>;>;::>>::::::::<-<<<-<::::>2>><>>>>2>2>22>22>>>>><<<4<<>4><>><4><4>2<>>422>>>>7;77>;77;;77777=777222732233388833338388ee888yy8uyuyyyyr33yyuu",
":<<4>>4jn0>:;;>>::>:::::>::::;::>>;;>;=>:-::::::<::<:::::::<2>>:2>>2>22>>2<<>2<42>2<242>:::::22<4<><<>><<22<2>2>7777;777>7>777777727273733333333388333e388388e883yyy8uy8yyyuu",
">414,>>8xh5:>>;>:::::::><>:>::::;>>>>>>><<:>:>::<::<::<:::::>>>2>>2>2>2>2>>>>>2<><>4>><<><<<:4>:>2>>>424>>>242>7;77;77777>7>>7=77722737225333333333333383yyy3yy8uy8yyyyy8uyuu",
":::,>>:1ah0<>=;>;:>>:>;>>:>>>;;;=>;>>;>>:>:;:;;;:>:::::-:::<<<<<2>><2>><>2<22<>:<>:<<:>>>42<:<<>><<><<<>>>2>2>>27;777777777>777777722777373713132333888y887338y88y88yy8eyeuiy",
";;::>:::2ga2>>>>;;>;:;>;>;;;>>;>>>;>>=>=::;>:>>>::>>::::::::<>><2<2<><<>>2242><<<>><><:><>>>24<:4<>>:>><>2<4>22>77777;7>7777>>772227727727225355133373333338383y8878yy8yyy8yi",
";;>;>:::<062>>;;;;;>=7=7;;>;>;>;>=77=7>>>=>>;>;;;:>>>:>>>:;:::::><>>>:::<><><>::>:<>>:<<<<><22>:><>4<>>42>4<22>7>>>7777>7>72722>2>77>77>7>225333933833333y88888888888yyu8u8uy",
":;;;>>:::32<>;;;;>;>>=7=>>;>;>>;>>7=7==7>>>=>;>>>:>>>>>;:;::::>>>::<<><>422<><>:<>><<:>>44>2><4>>>>22>2<<>22522277777>7777>27>272>722722272>3<3739777838888883838888y8yyyy8yy",
";>;>>4:<4<>>>;;;;>;;=>>>;>;;>>;>7=>>=====>;>=>;>;>>>>>>:::::42<44<<><42<4<24>:<>:<<>>><>>22>><<>>4<2<22>>424422>7>7777277777>77>27>2>2777272:227278387y8888883378888yy8yy8y8y",
";;;>:>><>>;>;;;>;;>>=>>=>;;>;=>;=7==>>>>>>>;>;>>>>>;::;:>::>2<2><:<>:>>>>:>2<:><<><>>>2<4<<><:>4:<22242>224>2227777>7>27>77>7277772777779907<27727788833333388388888y8yeyyyyy",
";>;>>>><>>>>>;4;;;;>>=>7>>>;;=>=>=7>=>=>==7=;>;;;>>:::;>>:>><:<:>>><<>><>:>><>>:><<>:<>22<<:<>>>>2<4>2225>4577>777>>>2777>27>>272>22>777qqq22772773373373y333y338778yyy3yyyyy",
";;>::><>4>>;;>;;>;;;>=>=>=>;>>>>7==>>>>>>>>>>;;>>;>>:>>>:>>:::::><><>>:<:<><><><4>>:>>>24>><<<22<2>>2445>222>>777>7>27>7727>72277>72777>727>273733378y88838333388878883y8eyii",
";>::::::4;;>;4;>>;>;>>>==>=>>;=>>>>>=>>=>=>=;;>;;>:;;>>>:>>:::>::<:>4>:<<<::><>422>:>4<>><>:>>>4>4>4<42>>2>75>72>7>>7>>2277777>222>2777772>727338388ey38388888388878yyyyue8yy",
";;;:::::;;;;=;;;;>;;>=>>>=.#>>=>=7=>=>..>7=>>;;;;>::::>>>:>><<<><>><<>:<>:<><><4<>>>><4<>:::+.    .o=>5>4>5>47>777>72>77>222772227722777722>27338uyyuy333388883888888yyyyy88y",
";;;;;;>>:;;;;>;;=>=>>>>=7>..+;>;;>;;;;  ;>>;:;;:;>:::>>>>:>>4><<4><<:>:>>::::>><>>>><:<>>>-.   .     =4<24>222272222>272222>7>7>77227777>2272788yuiuy388337888888838y8y83yiii",
">;;;=;;;;;>;>;>;>>>=>==7==.. O=;;;;;;;  ;;;;;;;;;>>>>;>>>>>:<:<:<22<4<<><<::<<4>>>;:>>><>>O   o=>>=o O222>2222>2>772>2>72>22>722777227777227338888y833333333337833838888y8888",
";;;;==>>;;;>=>>=>=>;==7=>;    X;;;;;;;  ;;;;;;:;;>>;><>>4<><<<:<<<<<<<<>:425<<::>>:>:>>>>4.   =>>>>* .>222>222>>>>>77>>727>22727777777272372333383773733332378888888888yyyi8y",
";;;>>===>;>;>=>>>=>;>>=7;>     X=;;;;;  ;::;:;o.    .o;>>>;>    2<:2    :<>2    ::>:>:>44>    >>>>:>>2>72>2;o.    .+;>222>    =X  .+;>o.  .#:333233>@.    .+37888y788888i888y",
";;>>===>7==7>>=>;;;>;;;;>;      .==;;;  ;;:,;.        .;4>>>    >4>:    >>::    :;>>;><4>>    >4>>>>22>22>;         .;2>27    o     ..      .>8378<.        .<883838888888i8y",
";;=>>>>==>>====>;;;;;;;;>;        =;;;  >;;;o   X**o   O>>>>    >2<:    4<:>    :;>>>>>><>    >2>>>22>2>>>+ o;22=o   +>227    o;=o    o;;o   +7787+   o;:o   #78883888y888iii",
">;;===>>7==7=>>=;;>;;>;;>=.        =;;  ;>;;.   *>>*   .>>::    >><>    4:<:    >>>>>;2>>>    >>>>>>>2272>. =22>2=   .<>22    =97;    ;73:   .2333.   ;33;   .3333388ii88y8ii",
";>;>>=>==7>=7=>>>=;;;;;;=>. %       %;  >,;;    ;>;>    >:>:    :>>>    <::<    >>>:>>>><>    >>      2>2<>><>>222    727>    7777    7757    3373    3777    883338888i0y7i8",
";>>,;;;;=7==7=>>;;;;;;;>>;  >%       $  ;;;;    ,:>:    ;:::    :;>>    <::<    >>>>>>>>>>    >>      >>22>>>2252<    72>7    7777    7883    3783    8888    373338y8888888i",
";;;;;;;;>=7==>>=;;;;;=;>>;  ;;&         ;;::            :::;    ;>>;    4>::    :>>2>:>4>>    >2>>    ><>>2;+.        727>    7777    7883    3383            3283337y8y888ii",
";;;;;=;;=>>>>===;;;;;;;;>;  ;;;=.       ;:;-            :;;:    >>;>    <:::    ;>><>>2>4<    >>>>    2>><;.          >777.   7722    7885    3833          . 73333388888888i",
";;;;;;;;7==>>>>>;;::;;:;;>  ;>>;=.      >:;;    ;>;>::::::::    >;>>    ><:>   o44>::>>>>>    2>>>    >>2>O   o;22    7>>7.   7272    0098    8822    873798783333338888i8iii",
";>;;;;;;;::-=;;>:;:-:;;:;>  :::>:;.     :-:;    ;,;,>::::;;:    >>:>    >>>>   #>:>>:>:>2>    >2<>    >>>2.   ;>72    729>    7772    8888    3332    7877722737<37337y88iiii",
">;;;;;;;;;::>;;>:::::::;>;  ;:;:::;o    ::::.   *;;::* .:;,;    :<<=    :>>=  .;>>:>>:>>><.   =4>=   .5>2>.   =2>=    >722    2722    8798    3788.   ;7782> X3773777888y8iip",
">=;>;;;;;;;:;>;;-:::;::>;:  :::::::;O   :::;o   o*>;*o O;>>:    :4=o    ::*o  %>>:>>;:;>4>O   o==o   o22>2+   o==o    7>72    2779    8395    8878#   o;87>+ +227277888yiyi8i",
"=>=>-;;;:-:;:;;>::;:-::::>  ;:;:::-;:@  ;:::-.         =>;>:                .&:>:>><4:>>;>;.         ;>>>>;.     X    >727    7799    7728    7233>.        .:777778888888iii",
"4;>;;;:;;:;:;:;:>::;:::>:;  :::;:::<<>$ -::::-o.    .o-3<<::     .o$     .o#;::>>>>;>;>;>>>;O.     O=>;;>>>;+  .X=    777>    7797    7778    33332:@.    .O:873777788888iv8v",
">>;>;;-:>:::::>>::;::;;::::;:::;:--;::::::::::>:::360gha012<<4<44<<>><>>>>:>>>>>>>>>>;>;>>>:;>>;>>>>4575>>55>77>2>>7>>797979977792<7888977372333333338777772278772338y88yi8ii",
">,;;:;::;>::::::;:>::;::;:::;;::::;::;:;-::>:>:>>:116kkjghg6954>4:>>>:>>>>::>>>>>>>>>>>>>>>>>>>;>>>>;7>>>>9>7>77>>275577777>77777978988873323333233<328337737778772337888iiii",
";;,;::::::::::;:::;:::;::::::::::::;:::::::>>:>:><:-<11126609922<<:<>:>>>:>>:>>:>;>>>>>>>>>:>>>>>>>;>>>5>5>>7>>>777>755>>>77>77>98877798323782232333337733323887722337838iii8",
"-<-::::<::::::::<--::::;:-<::-:::;::;>:>:::;><>>>><<<<<<-<42<<4<>::>>:>:>>>:>::>>>>>=77=:>>>>>>>;>;>>579>>>9>>79>>777>77>>772>77777788783233333333733337732727322723278888v88",
"4:<::,4:::::;;::::::;::::-::<;::::::::>;:>>:>:>>>>>::<<<<><4><>::::<<:::;>>>:>,;7=>>7=77>>>>:>>>>:>:>>>>5>>>>7>>2>>>>7>577777777777777087737323732887223272337332332338387i8i",
"<:>>;::::-::::-1:::--::::::::<:::::::::::4>:::><4>::<<:::4<>22<><><>>:>>:>>;>::>7>77>>>;>;>>>>>>4>>>;5>7>>>5>>7>777777>77>74999977787887373723737373338723737227732333338iiii",
"::;,;:::::::::<--:::::::<:::::<<::::<:>::<::<::<<:>:<:<:><>>>>:>><><:>>::>:::>::=7==7=>>>>>>>>;>>>>>5>>>>>5>97>>277>777777777477770778872222373723738778773772333323333788888",
":::;-::;>:-:-<-:1::<<:<::-<<::-<:-<:>::<>::-:<<:<:<:><:::><>:::>:><>:::>>>;>>>>>=7==7=7>>>>>>>>>>>>>>>>>>59>9>>7>777>>>7>797799997077887727338873227773887332733332337388888i",
":::,:-:,>:<<<:1::::<<<:><::<::<-:::<<:<:::<<:<>:>><:<:>:<<<4><<<:<>>:::>>>>>;<>>7=7>77=7>>>>4>>77>4>>>>4>599>999222>777777955777777808777387772277337887722233723333338888888",
":>;;::::>>::::<-<:<::--:::::::::<::<<<<::1-<<<><:<>:<>:>:4<>>4::::<<::>>>>>>>>4>=7=>=77=>>>>>>>>>>>2>>>>>>>5>99>7>7>>777>7577775878907773778338378373737227222773283338877888",
":>;>;::>:<::<4<:::::::1:-:><:4<4><:::::::-<<-:><:><:<::<:><><<:::::><4>4;>>;>>>>7>>>7==7>;>>>>4>>>>>>>>75>>>9>>927>7>77>77799799999888887372377787223737337773322332337777888",
":;;,:;4>:::::-<::<:::-<<1:::-1<<<::::::<:::::-::<:><>::4<<>4<><:<:::>>:>;>>>4>::=7=77>>>>>>>>>>>>7>>4>>7>5>>>777>7777>777>777799979808088327778272332833332227733333333338338",
",-:;;:;>::<:<<::::::<<-:-::<:<<<><1--:::1-:<<1:1:>4:<:><<><::::::<<:<::<>:>:>>>>777==7=7>>>>>7>>>>>,7>>>>5>59>7>7777757>577597579770q0898737873333277827877333373333733388338",
"::::>>:,>::<<<<><:<><:::1::::<:<<:::1:-::::<>::-::<<<<<<<<><::<<:><<<>>>>>>;>>>>7=7=7=7=>>>=>>>>5>>>>>>55>>>>97777>77>7>577555557778889888788772238883772772277233<7338888888",
"::;::;:;:::::::::>:<:<<<>::::::-::::::1::--<:::<:::<>:>>>>>:<:::<:::::>;>>>>>:>>=7=7=7=7=>>>>7>>4>>>7>5>>>59>>>577>7777>775777777789880788878723227773733373372<3373328839338",
",;::>:::<-<----:<:1--:1--<:<-::1:<<<<-::<--:::::4:><<:<:<:><<:><4<:<4>>>>>:>::>:>>>;>::>>:>4>>>>2>>>222>42>>5>277257927272777799990799098777822722277327337237733278833337833",
":;;:-;;:-:::1<<:::::<<-<<::<<::--<--<<::<:1<::<><><::><4::>4<::::::>4<<<>>::::::>>:::::>>><>><>42<><4<>52>25>5425>>42242>22227779>77797777778228882<332322233322<223722372383",
";-;-:;:-::::<:1::::<1:<-<-:--<-<<:::::-1:-<<<<<<>>44<><:::<4><<<:::<<4<<:<>:2>:<<2>>:::>:>>><>4>>>2<2425222>5>52>52>>4259779757777777877772773293<553223<<23953<3323732732887",
":::-:;--::::::-<-:-:::<<-1:1-<::-<:1-<::<<-::>:>::<<:>:<:<<4:><-<><>:>>::<><><<4<24<>><4<<:<>2<24<>>24>>4>22>5424>52224427799557947777777222<<32533354333325533<2227772923733",
"--:;;;-;-<<:1:--<::-:-<--::-1:::1-<<::::<:::::<<<::<::::<><<4>::><>::::>>:44><>4<<>4<:<:>>><<>2<44<>>22><2>422<42454222>>>77757577777777777222<8323<23533<22<333733<722872233",
";:-;:::---<--<<<<<<<::-<1:-<-<-1::-:::-1-11-:1:::::<:<<:><:>>><:<><><::<:><<>::::><>::>:<>:><4242<>>4224<><2>42>42>25224>>777577777777777727224832<33324<33<25<2332232<532353",
"-:;;;-::-<-1:--:<--1<:<-1-1:-<--::1:-1-:<<:::-::<>4><>::>>>:><4::<><<><>:<<>>><<<>:2::><4<>>2><:><<>><242>><42>57422>252>77>75577>770777222>735355528833352252525233223333333",
":-,;;:;-:-<-1-:::::::1-<--:::-1::<<-:<<1--:<::<<><:<><>><<><><<>:::>::><><<:>>2<>:<<<:>><><<2>::>><4>>2<4<>>42552224>44222>7>77>>7777777277732358335522<235<33<33423223<5<412",
":;-:--::::-:-1-1:<:::::::-:-<<:<<::::-1::::<:<<<:<4<>><>:<:>>:>::>2<:<:<::::<><<<::<<><2><<4<::><>:<>42><><>47252252<4242>27>7>7>72227797222832555333982223523332<2<221<<<3<2",
";:;--:-;::<<::<<::::-1-:1--<<-1-:::1<-:<:1<-<--:>::::<<:::<<><<<<4><:::>:<>>><44><<44:>><>:<><:<><><<2<><>>444229454252>>222222772>7722772295581533535533<125352222324522<<2<",
";;-;;;:;-:<::<-<-<:1::<--<<-<-:<--<-:<:::-::--<:::<<<:><>>>:><-<>:>>:::<::<<<><>>:><<><4<>::>>:<<><>>4>>>><>4252545>>25>>2>27>>77727777272995365389352533352<251152253<223:1<",
":;::;:;;:<-<-<<-<-:--::11-<--1<-<<<::1--::::1:<<<::::::><:::::<<><><4<>>:<>><<:><:>>2><><>:<::>42<><>2<><>2<>222225>222>227977222727277727329<55525512222222322222552<5252<2<"
};
