/* XPM */
static char *abxkf_y5vc4[] = {
/* columns rows colors chars-per-pixel */
"199 76 85 1 ",
"  c #331C02",
". c #3C1B05",
"X c #451A06",
"o c #64140C",
"O c #6B150C",
"+ c #6C1A0C",
"@ c #74170E",
"# c #452502",
"$ c #4C2504",
"% c #542206",
"& c #8F1912",
"* c #931B13",
"= c #9E1B14",
"- c #A41D15",
"; c #AD1E17",
": c #B41F17",
"> c #B31F18",
", c #AA2016",
"< c #B62117",
"1 c #BA2516",
"2 c #BE2915",
"3 c #B62118",
"4 c #B82218",
"5 c #CD370F",
"6 c #CF390F",
"7 c #D23D0E",
"8 c #C22D13",
"9 c #C63112",
"0 c #CA3510",
"q c #CD3910",
"w c #D03B10",
"e c #C43E2C",
"r c #D6410C",
"t c #DB450B",
"y c #DE4909",
"u c #E54F07",
"i c #E24C08",
"p c #E65107",
"a c #EA5406",
"s c #EE5904",
"d c #C5402C",
"f c #CB462A",
"g c #CF4E2F",
"h c #DB5525",
"j c #DF5A23",
"k c #C54332",
"l c #D65834",
"z c #DA5D34",
"x c #D65D3B",
"c c #E05A23",
"v c #DC663E",
"b c #DF693D",
"n c #E36C3B",
"m c #E7713A",
"M c #D86240",
"N c #D36451",
"B c #E77A4B",
"V c #D7837A",
"C c #DA867A",
"Z c #DE8B7B",
"A c #E18F7C",
"S c #DF958C",
"D c #E0978B",
"F c #E2998A",
"G c #F0A785",
"H c #F3AA84",
"J c #F1A988",
"K c #E9B1A6",
"L c #E9B4AC",
"P c #ECBAAD",
"I c #F4C0AA",
"U c #ECC1BC",
"Y c #F2C9BD",
"T c #F5D1C3",
"R c #F4D5CD",
"E c #F8DBCE",
"W c #F3D8D3",
"Q c #F8DDD2",
"! c #F7E5E2",
"~ c #F8E5E0",
"^ c #F9EBE6",
"/ c #FAEDEA",
"( c #FCF1EC",
") c #FDF7F5",
"_ c #FFFFFF",
/* pixels */
"     XooooooooooooooooooooooooooOoooooooooooOOooooooooooooooooooooooooooooooooooOOoOooOOoOooOOoOooOOoOoo@OoOooOoooooooooooOOOOoo@@OOoo@oOOoO@OoOoOOOoOOoOOoOooOOoOOoOOoOOOOOOoOoOOOOOoOOoOOo@oO@O%#####",
"   .o@&->>>>>;>>>>>;>>>>>>>>>>>>4>>><>>>>>>;>>>>>>:>>>><3,>>>33>>>>>>3>33>3>>3333:>>>>:4>>>>>4>:>>>4>>>>>4>:>>>4<3343333<44>>:::43>>>>43>>3>34>>>>44>>3344>:>:44>>>>44:>::>4<44<34:>:::4:>4:44>;*@@$###",
"  XO&>>>>>>>>>>>>>>>>>>>>>>>>>>>4>>4>>3>>>>>>>4>>>>>333>33>333333>>>,33>>>33333333>3>4:>>4>>4>>4:4>>>4::4>44:444333333334>4>>8>>3434333433334443>4444333444:4>4>4::44>44444443<44344:4:44444:444::=O%##",
" #o=>>>>>>>>>>>>>>>>>>>>>>>>>>>>>>>>>>>>>>>>>>>>>>>>>>3>>>>33>>3>3>33>3333>33333>33>>:>4>>4>>44::>444>4:>4>>:>>443<333333>>4>>444443333433333434>44>3333>4444444444444:4>44444344444444444:44444:41-+%$",
" o&>>>>>>>>>>>>>>>>>>>>>>>>>>>>>>>>>>>>>>>>>:>>>>>><3>3>>>3>>3333333>3>3>33>3>333>:33>3:4>4:4:>44:4:4>4>>4>4>4>433333333>4>4>4>434343434334343434343434344>444>4444>44>434343434444444444:4444444444*@#",
"XO3,3>>>>>>>>>>>>>>>>>>>>>>>>>>>>>>>>>:>::>4>>>>>33>,<>>>>>333>>3>>3>33>3>33,33>3>33333>>44:>44>>4:4>4>44>4>4>4:333343<3444444444433434333343434>43434344:444444:444444443434<4444444:444444:444:>141@%",
"o&>>>>>>>>>>>>>>>>>>>>>>>>>>>>>>>>>>>>>>:4:>>>>>>3<>333>>>34>3>333>333333>>333>3>333>33>>4>44:44444>>444>>4>>4443333334333444>>443434334434343434443434344>444444:4:4:4443344444444444:44:44444444441*+",
"O->>>>>>>>>>>>>>>>>>>>>>>>>>>>>>>>>>:>>4>>4>>>>>>3,3>>3>>33>>>33>33>3>>333>,33>333>3:>334>4:>4>44>>44>4>>8>4>4>43333343333>4444434343434343434344434344444444:>444444444444<444444444:434444444444<1<,@",
"o>>>>>>>>>;>>>>>>>>>>>>>>>>>>>>>>>>>>>>:,33>>>>3>;3>>333>>33333>>44>>44>>3333,>>:3333333>:4:4>4>>4:4:4>44:4>4>4>>4>444>433>4>:4>44>4344344344>>4>44>4>44>44444444>44444444444444343444343444444444444>@",
"o>>>>>>>>>>>>>>>>>>>>>>>>>>>>>>>>>>:>>>43>33>>3>333>3>>33>>>3,>3>>>4>>>>>33333>4333333>344:444>44>>44:4>>4>44:>44>4>>>4>334>44>4>44433344>4344444444444444444>:444444:44<4>4>444434:4:43444444444>4444O",
"o>>>>>>>>>>>>>>>>>>>>>>>>>>>>>>>>>>>>>>>>3>3>>><3>3>>3>>>>>333>34>>>4>>4333333>43:33>3334>>4>44:4>4>:4:4:444>4>44>444>>43334:44>>44434334>334>4444444>444>444444>444444>434344:43434444434444444444444o",
"o>>>>>;>>>>>>>>>>>>>>>>>>>>>>>>>>>>>>:>43><>>><>>3,3>>>>>>>>3333>44>>44>3333334>3:33:3>3>44>4>>444>44:444>4>4:4>>4>4>444344344>44>4>3333443333>4444>444>44444:4>444>444>34344:444344444444444444>444:>O",
"o->>>>>>>>>>>>>>>>>>>>>>>>>>>>>>>>>>>>>333>,>><>333>3>,3>>>33>3>>>4>>4>>4>>3>33>333333>34>4>>4>4>44>444>>4>4>44444>44>4>4>4>>4>4>>>4343344444444>444>44444>44444>44>4444>4:4>>44:444:434344444448:4444o",
"o>>>>>>>>>>>>>>>>>>>>>>>>>>>>>>>>>>>>>>>>333>>><>>333>>>>>33333>4>4:4>>4>>43>>33>333>>3>>444444>4>>44>>44>444:>4>4>4>4>444>44>>44>444343>44>4344444444444444>44444844444444444:443444343444334444:4444O",
"o>>>;>>>>>>>>>>>>>>>>>>>>>>>>>>>33<>>>>>>>>>>>>>>>>>>>33>33>>>33>>>44>>43>3>3>>33>3>3333>4>44>4>>44>>44>4>4>>44>4:4>>44>>4>4444>44443443444434344444444444444:4>44>>44:4444444443434444434343443444:44@",
"o;>>>>>>>>>>>>>>>>>>>>>>>>>>>>e>>3>>>>>>3>>>>>>>>>>>>>3>>4>>333>44>>>>4>>43>33>33>3333334>4>>4>44>>44>>4>4:44>>4>4>44>44>444>4>4444343>4>44>4343>4>4>444444>444438>>>444444>44444444444343434344444444o",
"o>>>>>>>>>>>>>>>>>>>>>>>>>>>>>>>>3,>>>>>4>>>>>>>>3>>>>3>>333333>:>>>44>44>>>4>>>4:>>44:>>4>>4>>4>4>4>4>44>33>43<44>4>4>4>44>4>44334343>444443434>4>44444444>:4>4444443434444:44>4444444>4>44:433>:>44>o",
"o>>>>>>>>>>>>>>>>>>>>>>>>>>>>>>>333>>>>>>>>>>>>>>>>33>>>,3>>>>33>44>>:>>>44:>44>4>4:>>>44>44>44>4>444>44>33344>4>44>444:>44>>4>44334>4444>4>4343444444>4>444444434344444>4444444444>4444444444334>8441o",
"o->>>>>>>>>>>>>>>>>>>>>>>>>>>>>>>>>>>>>>>>>>>>>>>>>>>>>>333>33>3>>444>4>>>4>>>4>>>44>44>444>44>4>44>>4>>4>333>3>4>:44>4:4:44>444343344444>443433444444444444444>44333434444444444444444>4>:4>44444444:O",
"o>>>>>>->>>>>>>>>>>>>>>>>>>>>>>>33>>>>>>>4>>>33>>>>3>>33>>>33>3>4>:>>:4>4>>>4>:44>>>4>>4>4>4>44>>4>4>4>>:433<433>44>>4>4>4>4444>33333>4>444>4344>44>44444>>44>4444344343444:4:4444444444444444>4444444O",
"o>>>>>>>>>>>>>>>>>>>>>>>>>>>>>>>3>3>>>>>>3>>><333>>>33>333>3>3334>>>4>4:4>>44>>>>44>>>44>4>>4>4>8>>>>4>>>>4433334:>44>4>444444>4333433334>3433334>44444>4>>>4>444>3434344>444444444>444:44444444444444O",
"o;>;>>>>>>>>>>>>>>>>>>>>>>>>>>>>>33>>>>>>>>>>>>3>33>>>>>>>>333>3>:44>>4>>>4>>>44>>>:>4444>44>4>4>>>44>>84>443333>44:>4>44333>44>334333334434344344444444>8444444434343434444:44444444444>44444444444>4O",
"o>>>>>>>>>>>>>>>>>>>>>>>>>>>>>>>>34:::>>>>>><3>3>>>>33>>>>>33>3>4>4>:>>>:44:4>4>4:>4>4:4>4>444>4>44>4>:44>:4334444>44:44>43333>84333333333433433444444444>>44>4444433334>44:444>4>444444444>44444444:4O",
"o>>>>>>>>>>>>>>>>>>>>>>>>>>>>>>k33>:::>>>>>>>3>>>>>>>3>>>>>33>334>>>4>>44:>>4::>>44>>:444>4>4>4>4>44>>4>>>34<4>>4>4>>44>44434333343333333434433444444>4444444:44>443443344444444444>4:444444444444444:o",
"o;>>>>>>>>>>>>>>>>>>>>>>>>>>>>>>>:>>>>>>>>>>>33>>>3,>>>>>3>>33>3>4>>4><>>>4>4>><>>44:>44>4:4>>>4>4>4>44>4>4:>4443333<333>44>4>4434333333433334444::44>4444:44:4444>444>444444:4>4444444444444444444444O",
"o>>>>>>>>>>>>>>>>>>>>>>>>>>>>>>>>:>>>>>>>>>>3;3>>>33>>>433333>3>:>>4>>>44>4>>>4>4>:44>44>>>>334>4>4>4>>44>44444433333333>44>>44>4433333333443333444444444:4444>4444444444>444444>44>44444444>444444444O",
"o>>>>>>>>>;>>>>>>>>>>>>>>>>>k>>>>>>><>>>>>>>>>33>>>3>3433>,3,3334>4>><><4:><>4<>>44444>>:44>33334>44>44>4:44>44>333333334>44344>43>433434433433444444>:4444:4444>44>>4>44444444444444444444444444444::o",
"o;;>>>>>>>>>>>>>>>>>>>>>>>>>>>>>>>>:><<>>>>>>>>34>>4>,333>3>3>>3>>4:<><>>><>4:><>>4>>44:444>3333>4>444>444::>4>>33343333>4>43>44>4>>3333434343434:4:4444:4444:4>444444444>44>4444444444444444:4444:44>O",
"o>>>>>>>>>>>>>>>>>>>>>>>>>>>>>>>>>>>>>><>>>>333<,3>>>333>333<>><4>>>4>><3><<>>4>4:44>444>>>>4>334>4>>4>44>444>4:3334<<<<44>43334>44443333334443344444444>444:4:4444>4444>4>4444:>44>444444444444444444O",
"o>>>>>>>>>>>>>>>>>>>>>>>>>>>>>>>::>>>>>>>>>><,3,4334>43,3>>3><>>4>4>><<<44<<><>>4>:44>44>4>>>43344>34:>4>:>444>:333<<<<<3>4>333444>43343343344344>4>4:4444:44444444444>444444>44444444444444>44>444444O",
"o;;>>>>;>>>>>>>>>>>>>>>>>>>>>>>>::::>>>:>>>:<<<<143,33>>33<><>><:>:>4<1141<<<:<<>>4444>>>4>>4433>4444444444>>:>4<<>4<11144>43333>4433433344344444>4444>4>4:44:44>4>>>44444444:4:44444>44444>4444444>>>o",
"o;>>>>>>>>>>>>>>>>>>>>>>>>>>>>/S114:::>>>>:<<<1S__4333>3>3><><<:>44411____1<4>>44>>4:>4>4>>84433>444_B4444>>4>4><<411S__24433333433343343334444>444>4:44444444:44>444>>4>4>44444>44>44444444444444444>O",
"o>>>>>>>>>>>>>>>>>>>>>>>>>>312__V1<<::::>::<12S___11<<333333<::<:<<<12____211::<>>><4::>4>>44>4>4448__C21::::4<>1118F___811<<<<3:<<><><<<<4<<<<<<<<<<<<<<<4<43>>4:>4:::::44:<43443344344444434344>444>@",
"o>>;>>>>->>>>>>>>>>>>>>>>>3<19___C21<<:::<<12S____91<<,33<,<<<<<<<<<289998821:1:1<1<44444>4>44>>4488___C2441:4<>:12D____921<<<<<<:1114<<<444<:<1<<1<<<<<<<<4441:41:1111:4<4443433444344444444344444444O",
"o>>>>>>>>>>>>>>>>>>>>,>>>33<29____Z2<<:::<12F_____622<<3<<122<11<<<<229559821111111121114>>4>4>44189____Z811:44412D_____0814<<11222111<<<144121112111144<<441121414418114444>43444444343444434434444>4o",
"o>>>>>>>>>>>>>>>>>>>>;>>>33129_____Z21<<<<2F______62<<1gU/____^Le11<28____8221____NW__!Le444>44:318q_____Z2144428F______q9211eL/____^Le44111____NW__/Le14111____2114_)__224>444343443434444344344444:>O",
"o;>>>>>>>>>>>>>->>>>>>>>>><19q______Z21<12F_______5921k)________/e2<29____9888____R_____/e83>4:4<28w______Z21118D_______w882d/________/d1118____R_____/e2128____8888___)8141<4343434434343434444>4>444o",
"o>>>;>>>>>>>>>>>,>>>>>>>>><19q_______Z222F________6921K_Yx66vT___L2280____5889____TvvT__)L8>4:4:<29w_______Z828F________w888P___TvbT___L8889____TvvT___L8289____9889____881444434344343434344444444444O",
"o>>>>>>>>>>>>>>>>>;>>>>>>>312r__H_____A9F____H____r929!_M7rrrb___!9885____589q____nttn___/88::>4<28w__H_____A9F____H____7089/___nyyn___!989q____nttn___^9890____5990____082:3434343443434343434344444>O",
"o;>>>>>>>>>>>>>>>>>>>>>>>>3<9q__aH_____Y____Hs____69289qq56rry____5995____5597____yt7y___)88844:<187__aH_____Y____Hs____w990____ytyy____099w____ytty____0997____w00w____582443434344343434444434>44>44O",
"o>>>>>>>>>>>>>>>>>>>>>>>33<18q__paH________Gaa____79889955577y____5906____7007____y7ty____58:::4428q__paH________Gaa____709q____ytty____q90w____trrt____5997____7007____691<<143344343433433433444<444o",
"o>>>>>>>>>>>>>>>>>>>>>>>,3<180__yypH______Giiu____q9829fP!________6007____7507____t777____58814:4280__iiuH______Guip____rqqw___________)w00r____t77t___)7557____7007____q92<<<33433334344343344444<44<+",
"o>>>>>>>>>>>>>>>>>>>>>>>3><180__ttyyG____Giyty____7922f/__________6057____7007____7567____791::4428q__ttyiG____Giyyy____700w____________790r____t55r____6q56____7507)___r9114343343333433433434443<444o",
"o>>>->>>>->>>>>>>>>>>3>>>><199__r6rtyG__Gyr77t____6989P___Ynti____6057____7007____7557____781:4:1280__rwrtiG__Gyt77t____700r____iytyyiyrq007____7057____r00r____7557____692<<4<4433333344343344434<144O",
"o>>>>>>>>>>>>>>>>>>>>>>>>>3189__q0q6ryGGyr5557____7988/___nyyu____6557____7007____7557____58144>:28q__w00qtyJGir505r____7007____iyrtttr70907____7007___)6656____7057____r22134333433333434333443444444O",
"o->>>>>>>>>>>>>>>>>>>>>>>><180__q9995rrr759807____q985/___nyym____7997____7507____7557)___7814444480__q999qwrt7q9907____r507/___nt777z_~980w____7057____6557/___n55v____q92<433333443443434343443444:4O",
"o>>>>>>>>>>>>>>>>>>>>>>>3,3180__q9222955982895____7995P___TnnT____r557____7007____7997___)w9144>4280__0988800q988897____7007I___Tb75lP_K890w____r007____r657I___TvvT____r2e4333333434333343434444434>:o",
"o>>>>>>>>->>>>>>>>>>>>3>33<189__02112228221287____6995h(_____E___)6957____7007____7557___)w824>41280__08211888821887____w09qh(________)g9807____7007____6995h(_____E___)r2143443333333344343433444441:O",
"o->>>>>>>>>>>->>>>>>>>>>>>>48e__9211<<111<1185____6920rjI^__QB____6997____7957__))w99w)___58144:4180__q8214421441285____w9907cI^____(Yx9989q____7097____w990qjI)__QB____5814:4444444>43444334334444444O",
"o>>->>>>>>>>>>>>>>>>>>>>>>>>4809921<<<<<<<:125rtt769290rtyyttyyiy769857ty759857tt759957tt70814:444290q8214444443<18q7ttr09885ryytrr665q98890rtt759957ttr0889qrtyyttyiit7588:4:44>4>4>43334443344444444o",
"o>>>>>>>>>>>>>>>>>>>>>>>>>>>8888221<::<<>><<29676692222q777777r776988557759889576598885ww598444>4129998244343343<129q7w098289q7rrrrr66988189qwwq988957wq98889qrr7t777t7w98:1><:444>>4>43>4443334443344o",
"o>>>->>>>>>->>>>>>>>>>>>>>>>>84821<,:<<,>,<312899921222290005055598128899882888908828890988144>4<41182224433334><<28900981122890qq9q599211189009888889098812289q00057008821:4<444>>844>844444344344344o",
"o>>>>>>>>>>>>>>>>>>>>>>>>>>>>>e>1<::::>3>3>3414822<<,<11288888882221<2228881128221241122888::44><41112444,443334<<1182812144122829928221141128222112188841411228898888822144444<>44444>444444443434343o",
"o>>>>>>>>>>>>>>>>>>>>>>>>>>>>>>><<:::::><>334:48<1<<1<<<41<111112<<<<<11:4:41:1:444444448:444:>><<<4444444333333<<4<1111<<<4<1111221111<44411111:4:1111444<<44111212182144<<4:4>4>>4>44444444434343333o",
"o>>>>>>>>>>>>>>>>>>>>>>>>>>>>>>>:::>>>>3><<><<>><<<<,<,<<><<<<4<:<::<<<<::4::1::44::4433>::4:4>4:><>333333334>>3<<<<<4<4<<<<<<<<<1414<3313<<<<<<1::4<444<<<<3344:41<44444<34434<4444444:43333433433333o",
"o>>>>>>>>>>>>>>>>>>>>>>>>>>>>>>>>:>>>>>3<>>>>>>><<3<<<<<>>>>33>>::<::<:<4::::4::::444433>>:>4>>444>433333333>443<<<<<<<<<<<<<<<<333334333334<444>>443<<3<<<<333344>444<4<44<43>44>44>44443344334334343+",
"o>>>>>>>>>>>>>>>>;>>>>>;>>>>>>>>>:>>>>>4>>>>>8>>,3333>3>>>>333>>><>333>3::>:4>4>3>333333>434344>:>333333333333>434333333<<33333333333333333343334444333333444433333334344<4<433444>4>44>44444444434344o",
"o-->>>>>>>>>>>>>>>>>>>>>>>>>>>>>>>>>>>:>>>>:>>>><3<,33,>>>>>>3>3>>33>>33:44>>>4>33>33>>34>>>>>>4>48>33333333334>3333333333333<3333333333443333434:>433334334343433333343<<34344344444444>:44>4>:33344<o",
"o>>>>>>>>>>>>>>>;>>>>>>>>;>>>>>>>>>>:>::>>>>>>>>>3>33;333>333,>34>3><><>:4>>>>>>3>>333>>>>4>4>4>44>>333333>>4>44433333333334>3>333333333333333344443343333333343444343434443<3344>:4>44444>>4:>4333444o",
"o>>>>>>>>>>>>>>>>>>>>>;>>>>>>>>>>>:>>>::>>>>>>4>3>>333;>333>>333>43>33>34:>444>4>333>333>4>>4>>>>>>43333434>444>43343334333333>33333333333433333<><<33333333333444343433>3333343>44>4:4>>4444444333344o",
"o>>>>>>>>>>>>>->>>>>>>>>>>>>>>>>>>>>>:::>>>4>>>:>>;33>33>333>33>>>>>3>33334>>4>>>33>3>>3>4>>>4>434>43>33443333333333333>3>:43>:4333333333334343333343333434333343334>444:44>434>4>444:>4444444>>3333<3o",
"o>>>>>>>>>>>>>>>>>>>>>>>>>>;>>>>:>>>::>>>>>>>>>:>33>33;3>3>3>33>4>>4>33>>>>3>4>>3>>3>3334>>4>4>4>>4>333333333333333333>4>444>44>3333333334,3444344334333343433433433444344443444444444444>:4:444434334o",
"o>>>>>>->>>>>>>>>>>>>>>>>>>>>>>>>>>:>>>>>4>>>>4:>>33;33333>3,>333>3>>3>4<>>3>>>4333333>34>>4>>>44>>43>33>4333>333334>4>>444>4>>>33333333334433334334333333333334434444>444:4>4444:4444>44>444444343443o",
"o->>>>>>>->>>>>>>>>>>>>>>>>>>>>>>>>>>>>>>>>>>>::>>>>>>3>>,3>33>333><<>3>>43>44>>>3>33>33>4>>4>4>4>3>33333>33>33333334444>344>:44333333333334333334343333333333343433:4444>44444>44>44>4444444>44434334o",
"o>>>>>>>>>>>>>>;>>>>>>>>>>>>>>>>>3>>>3>>3>>3>>>>>3>>3>3>>>>>33>>>>333>3>33>>>333>>>:>44>>>>>>4>>>44>44>43343>3333333333333333333333333333333333333343333333>4333343343434334343444>44>4>44444>4>4>4>44o",
"o>>>>>>>>>>;>>>>>>>>>>>>>>>>>>>>>>>>>>>3>>>>>>3>>>>3>>>>>>4>>>3>33,>3>,33>>>33334>>4>>>>8>>>>4>4>>>>>44>34>433333333333333333333433333333>3333<333433433>434333343343434344343434>44444>44>44444444444o",
"o;>;>>>>>>>>>>>>>>>>>>>>>>>>>>>>>>>>>>>>>>>>3>>3>>3>>3>>333>3>>4333333>33>3>>>334>>3>>>44>>4>>4>44>444:44>4>33333333333333333333333333333333333333434333>43433333334333443443434444>44>>444444444>4444o",
"o;>>>>>>>>>>>>>>>>>>>>>>>>>>>>>>>>>>>>>3>33>>>>>>3>>>>3>>>>>3>>>>>3>>33>>3,>>>,3:4>3>44>>4>>4>>>>>>4::4:>4>4333333333333>3333333333333333333333333333333443333444343434334344344>4444>8>4>4444>4444>4>O",
"o=>>>>>>>>;>>>>>>>>>>>>>>>>>>>>>>>>>>3>>33>>>>>>333,>>>>>>>>3>>>3,3>33,3>3>3>3>3>3>>3>>3>4>>4>4>:4444:4>>44>4>:4>333333333>43333343333333333433333333,44444433>43434343433334434:4444444>4>4444:444>3;@",
"o&>>>>>>>>>>>>>>>>>>>>>>>>>>>>>>>>>>>>>>>33>3>>33>>33>3>>>>33>>3>3>33>3>>>33>33>3333>333>>4>4>>4>>>>>4>44>>4>44>3>4>33>33>43333334344333333334333333333434443343434343433333434344>4>4>:44444:44>444>*o",
"XO>>>>>>>>>>;>>>>>>>>>>>>>>>>>;>33>>>33>>33,>>>>>33>33>>>>>3>3>>333,33333>3>>>333>3>333>44>>>>>>4>>4>44>4>>>4>>43>44333333433333333333333333333333333333333433343434333333434334>4>444444444444>44>4>@X",
".o&>>>;>>>>>>>>>;>>>>>>>>>>>>>>>333>>>>>>>>33>>>3>33>3>4>>>>>>>>3>>3>,>3333>3,333>333>>4>>>4>44>>44>44>4>>44>44>>44>3333333433333333333334333333333343343344333333333333333434344444:44>>4:44>444>44*@X",
" .o&>>>>>>>>>>>>>>>>>>>>>>>>>>>>>>>>>>>>>>>>>>>>,3>>>>>>>>>>>>>>33333>3>333>33>3>333>3>>3>>3>33>>44>>4>44>4>:>4433>>33>>33>>44>44>4>4333>>e333333333434434344>4334334>44334>4>4444444>444>434333>43-O$#",
"  Xo&>>>>>>>>>>>>>>>>>>>>>>>>>>>>>>>>>>>>33>>3>>3>>>>>>3>>>>>>>>>,333>33333>>3>333>33>4>>3333>334>>44:4>>433>>>43>>>3>>>33>>4>344>>443333>;3333333334433<34444433334444>43344444>4>4444444343433>4*O%##",
"   .o@&-->>;>;>;>;>;>>>>;>>;>>>>>;>;>;>>,>>>>>>>>>>>>>>>>>>>>>>>3333>>>3,>>3>,333>>33>4>3>>>3>>>>>4>>>::>>33>>>>33>>33>>3>>>>>3343333433>33333333433444<4434443433444>>4333443>4>444>44>>444>4>;*@@$#.#",
"    .XooooooooooooooooooooooooooooooooooooooooooooooooooooooOOOoooooooooooooooooooooooooooooooooooOOooOoOoOOoOooOOoOOOoO@OOOOOO@oooooooooooooooooooooooooooooooooOoooO+oo+oooooOOoooOooooOoooOOOO%#####"
};
