/* XPM */
static char *_5137_f9ae64db9206cec212a14e7e30ca7d171c066857988037ecdc91325f1c476d80[] = {
/* columns rows colors chars-per-pixel */
"199 76 12 1 ",
"  c black",
". c #010101",
"X c #020202",
"o c #040404",
"O c gray2",
"+ c #070707",
"@ c #090909",
"# c gray4",
"$ c #0B0B0B",
"% c #101010",
"& c #111111",
"* c None",
/* pixels */
"*******************************************************************************************************************************************************************************************************",
"*******************************************************************************************************************************************************************************************************",
"*******************************************************************************************************************************************************************************************************",
"*******************************************************************************************************************************************************************************************************",
"*******************************************************************************************************************************************************************************************************",
"*******************************************************************************************************************************************************************************************************",
"*******************************************************************************************************************************************************************************************************",
"*******************************************************************************************************************************************************************************************************",
"*******************************************************************************************************************************************************************************************************",
"*******************************************************************************************************************************************************************************************************",
"*******************************************************************************************************************************************************************************************************",
"*******************************************************************************************************************************************************************************************************",
"*******************************************************************************************************************************************************************************************************",
"*******************************************************************************************************************************************************************************************************",
"*******************************************************************************************************************************************************************************************************",
"*******************************************************************************************************************************************************************************************************",
"*******************************************************************************************************************************************************************************************************",
"*******************************************************************************************************************************************************************************************************",
"*******************************************************************************************************************************************************************************************************",
"*******************************************************************************************************************************************************************************************************",
"*******************************************************************************************************************************************************************************************************",
"*******************************************************************************************************************************************************************************************************",
"*******************************************************************************************************************************************************************************************************",
"*******************************************************************************************************************************************************************************************************",
"*******************************************************************************************************************************************************************************************************",
"*******************************************************************************************************************************************************************************************************",
"*******************************************************************************************************************************************************************************************************",
"*******************************************************************************************************************************************************************************************************",
"*******************************************************************************************************************************************************************************************************",
"*******************************************************************************************************************************************************************************************************",
"*******************************************************************************************************************************************************************************************************",
"****************************** ****************&  ********************    ************************** ****************&  *******************************************************************************",
"******************************  **************&   ********************    **************************  **************&   *******************************************************************************",
"******************************   ************&    **************************************************   ************&    *******************************************************************************",
"******************************    **********&     **************************************************    **********&     *******************************************************************************",
"******************************     ********&      ******+.    X#******    ****    *o  X#************     ********&      ******#X    X#******    *o  X#******    ****    *******************************",
"******************************      ******&       *****         .*****    ****    O     .***********      ******&       *****.        .*****    O     .*****    ****    *******************************",
"******************************       ****&        ****$ +****O   #****    ****    O**O   #**********       ****&        ****@   O**O   #****    O**O   #****    ****    *******************************",
"******************************  &     **&    &    ****X ******   X****    ****    ****   X**********  &     **&    &    ****.   ****   X****    ****   X****    ****    *******************************",
"******************************  *&     +    &*    ************    ****    ****    ****    **********  *&     +    &*    ****    ****    ****    ****    ****    ****    *******************************",
"******************************  **&        &**    ************    ****    ****    ****    **********  **&        &**    ****    ****    ****    ****    ****    ****    *******************************",
"******************************  ***%      &***    ******#X        ****    ****    ****    **********  ***%      &***    ****            ****    ****    ****    ****    *******************************",
"******************************  ****%    &****    *****.          ****    ****    ****    **********  ****%    &****    ****            ****    ****    ****    ****    *******************************",
"******************************  *****%  &*****    ****@   O***    ****    ****    ****    **********  *****%  &*****    ****    ************    ****    ****    ****    *******************************",
"******************************  ******%&******    ****.   ****    ****    ****    ****    **********  ******%&******    ****    ************    ****    ****    ****    *******************************",
"******************************  **************    ****.   ****    ****    ****    ****    **********  **************    ****.   ****** X****    ****    ****.   ****    *******************************",
"******************************  **************    ****@   O**O    ****    ****    ****    **********  **************    ****@   O****@ $****    ****    ****@   O**O    *******************************",
"******************************  **************    *****.     o    ****    ****    ****    **********  **************    *****.         *****    ****    *****.     o    *******************************",
"******************************  **************    ******@.  o*    ****    ****    ****    **********  **************    ******@.    .+******    ****    ******@.  o*    *******************************",
"*******************************************************************************************************************************************************************************************************",
"*******************************************************************************************************************************************************************************************************",
"*******************************************************************************************************************************************************************************************************",
"*******************************************************************************************************************************************************************************************************",
"*******************************************************************************************************************************************************************************************************",
"*******************************************************************************************************************************************************************************************************",
"*******************************************************************************************************************************************************************************************************",
"*******************************************************************************************************************************************************************************************************",
"*******************************************************************************************************************************************************************************************************",
"*******************************************************************************************************************************************************************************************************",
"*******************************************************************************************************************************************************************************************************",
"*******************************************************************************************************************************************************************************************************",
"*******************************************************************************************************************************************************************************************************",
"*******************************************************************************************************************************************************************************************************",
"*******************************************************************************************************************************************************************************************************",
"*******************************************************************************************************************************************************************************************************",
"*******************************************************************************************************************************************************************************************************",
"*******************************************************************************************************************************************************************************************************",
"*******************************************************************************************************************************************************************************************************",
"*******************************************************************************************************************************************************************************************************",
"*******************************************************************************************************************************************************************************************************",
"*******************************************************************************************************************************************************************************************************",
"*******************************************************************************************************************************************************************************************************",
"*******************************************************************************************************************************************************************************************************",
"*******************************************************************************************************************************************************************************************************",
"*******************************************************************************************************************************************************************************************************",
"*******************************************************************************************************************************************************************************************************"
};
