/* XPM */
static char *_7138_fabc42cdd5f7a9a8f891c76e50e94f5876f65ce92d46de3498df9e28fef5d69d[] = {
/* columns rows colors chars-per-pixel */
"173 104 37 1 ",
"  c black",
". c #010101",
"X c #0B0C0C",
"o c #0C0C0D",
"O c #0C0D0D",
"+ c #0F0F10",
"@ c #121314",
"# c #131415",
"$ c #141516",
"% c #161718",
"& c #171819",
"* c #18191A",
"= c #222325",
"- c #44474B",
"; c #474A4E",
": c #474B4F",
"> c #484B4F",
", c #494C50",
"< c #4B4F53",
"1 c #4E5256",
"2 c #505358",
"3 c #53565B",
"4 c #53575B",
"5 c #53575C",
"6 c #55595D",
"7 c #60656A",
"8 c #62666C",
"9 c #63686D",
"0 c #64686E",
"q c #64696E",
"w c #65696F",
"e c #656A70",
"r c #666A70",
"t c #696E73",
"y c #6A6F75",
"u c #6D7278",
"i c None",
/* pixels */
"iiiiiiiiiiiiiiiiiiiiiiiiii                                                                                                                         iiiiiiiiiiiiiiiiiiiiiiiiii",
"iiiiiiiiiiiiiiiiiiiii                                                                                                                                   iiiiiiiiiiiiiiiiiiiii",
"iiiiiiiiiiiiiiiiii                                                                                                                                         iiiiiiiiiiiiiiiiii",
"iiiiiiiiiiiiiiii                                                                                                                                             iiiiiiiiiiiiiiii",
"iiiiiiiiiiiiiii                                                                                                                                               iiiiiiiiiiiiiii",
"iiiiiiiiiiiii                                                                                                                                                   iiiiiiiiiiiii",
"iiiiiiiiiiii                                                                                                                                                     iiiiiiiiiiii",
"iiiiiiiiiii                                                                                                                                                       iiiiiiiiiii",
"iiiiiiiii                                                                                                                                                           iiiiiiiii",
"iiiiiiii                                                                                                                                                             iiiiiiii",
"iiiiiiii                                                                                                                                                             iiiiiiii",
"iiiiiii                                                                                                                                                               iiiiiii",
"iiiiii                                                                                                                                                                 iiiiii",
"iiiii                                                                                                                                                                   iiiii",
"iiiii                                                                                                                                                                   iiiii",
"iiii                                                                                                                                                                     iiii",
"iii                                                                                                                                                                       iii",
"iii                                                                                                                                                                       iii",
"ii                                                                                                                                                                         ii",
"ii                                                                                                                                                                         ii",
"ii                                                                                                                                                                         ii",
"i                                                                                                                                                                           i",
"i                                                                                                                                                                           i",
"i                                                                                                                                                                           i",
"i                                                                                                                                                                           i",
"i                                                                                                                                                                           i",
"                                                                                                                                                                             ",
"                                                                                                                                                                             ",
"                                                                                                                                                                             ",
"                                                                                                                                                                             ",
"                                                                                                                                                                             ",
"                                                                                                                                                                             ",
"                                                                                                                                                                             ",
"                                                                                                                                                                             ",
"                                                                                                                                                                             ",
"                                                                                                                                                                             ",
"                                                                                                                                                                             ",
"                                                                                                                                                                             ",
"                                                                                                                                                                             ",
"                                                                                                                                                                             ",
"                                                                                                                                                                             ",
"                                                                                                                                                                             ",
"                                                                                                                                                                             ",
"                                                                                                                                                                             ",
"                                                                                                                                                                             ",
"                                O>9uuuu9>o    .uuuuuuuu9:o          .uuuu                                                                                                    ",
"                               OeuuuuuuuuwX   .uuuuuuuuuuwX         .uuuu                                                                                                    ",
"                               ,uuu4%%3uuu;   .uuuu  %3uuu;         .uuuu                                                                                                    ",
"                               0uuu&  %uuu8   .uuuu   %uuu8         .uuuu                                                                                                    ",
"                              .uuuu    uuuu   .uuuu    uuuu         .uuuu                                                                                                    ",
"                              .uuuu    uuuu   .uuuu    uuuq         .uuuu                                                                                                    ",
"                              .uuuu    uuuu   .uuuu   %uuu1         .uuuu                                                                                                    ",
"                              .uuuu    uuuu   .uuuu..*5uut$         .uuuu                                                                                                    ",
"                              .uuuu    uuuu   .uuuuuuuu7-+          .uuuu                                                                                                    ",
"                              .uuuu    uuuu   .uuuuuuuuw2$          .uuuu                                                                                                    ",
"                              .uuuu    uuuu   .uuuu..#,uuy#  uuuu.  .uuuu                                                                                                    ",
"                              .uuuu    uuuu   .uuuu   @uuu<  uuuu.  .uuuu                                                                                                    ",
"                              .uuuu    uuuu   .uuuu    uuu0  uuuu.  .uuuu                                                                                                    ",
"                              .uuuu    uuuu   .uuuu    uuuu  uuuu.  .uuuu                                                                                                    ",
"                               0uuu&  &uuu8   .uuuu   &uuu8  ruuu*  *uuur                                                                                                    ",
"                               ,uuu5%&4uuu;   .uuuu  &4uuu;  6uuu5%%5uuu6                                                                                                    ",
"                               OeuuuuuuuuwX   .uuuuuuuuuuwX  =uuuuuuuuuu=                                                                                                    ",
"                                O>9uuuu9>o    .uuuuuuuu9:o    =6ruuuur6=                                                                                                     ",
"                                                                                                                                                                             ",
"                                                                                                                                                                             ",
"                                                                                                                                                                             ",
"                                                                                                                                                                             ",
"                                                                                                                                                                             ",
"                                                                                                                                                                             ",
"                                                                                                                                                                             ",
"                                                                                                                                                                             ",
"                                                                                                                                                                             ",
"                                                                                                                                                                             ",
"                                                                                                                                                                             ",
"                                                                                                                                                                             ",
"                                                                                                                                                                             ",
"                                                                                                                                                                             ",
"                                                                                                                                                                             ",
"i                                                                                                                                                                           i",
"i                                                                                                                                                                           i",
"i                                                                                                                                                                           i",
"i                                                                                                                                                                           i",
"i                                                                                                                                                                           i",
"ii                                                                                                                                                                         ii",
"ii                                                                                                                                                                         ii",
"ii                                                                                                                                                                         ii",
"iii                                                                                                                                                                       iii",
"iii                                                                                                                                                                       iii",
"iiii                                                                                                                                                                     iiii",
"iiiii                                                                                                                                                                   iiiii",
"iiiii                                                                                                                                                                   iiiii",
"iiiiii                                                                                                                                                                 iiiiii",
"iiiiiii                                                                                                                                                               iiiiiii",
"iiiiiiii                                                                                                                                                             iiiiiiii",
"iiiiiiii                                                                                                                                                             iiiiiiii",
"iiiiiiiii                                                                                                                                                           iiiiiiiii",
"iiiiiiiiiii                                                                                                                                                       iiiiiiiiiii",
"iiiiiiiiiiii                                                                                                                                                     iiiiiiiiiiii",
"iiiiiiiiiiiii                                                                                                                                                   iiiiiiiiiiiii",
"iiiiiiiiiiiiiii                                                                                                                                               iiiiiiiiiiiiiii",
"iiiiiiiiiiiiiiii                                                                                                                                             iiiiiiiiiiiiiiii",
"iiiiiiiiiiiiiiiiii                                                                                                                                         iiiiiiiiiiiiiiiiii",
"iiiiiiiiiiiiiiiiiiiii                                                                                                                                   iiiiiiiiiiiiiiiiiiiii",
"iiiiiiiiiiiiiiiiiiiiiiiiii                                                                                                                         iiiiiiiiiiiiiiiiiiiiiiiiii"
};
