/* XPM */
static char *_5458_dd131028b0234e2c362a48c949b338123453594c43bf6740e6aaa4ad696f4488[] = {
/* columns rows colors chars-per-pixel */
"292 50 73 1 ",
"  c black",
". c #010101",
"X c #040404",
"o c gray2",
"O c #060606",
"+ c gray3",
"@ c #090909",
"# c #0C0C0C",
"$ c #0C0C0D",
"% c #0C0D0D",
"& c gray6",
"* c #0F0F10",
"= c #121213",
"- c #121314",
"; c #141516",
": c #151617",
"> c #161616",
", c #161718",
"< c #171819",
"1 c gray12",
"2 c #1D1E20",
"3 c #1E1F21",
"4 c gray17",
"5 c gray19",
"6 c #303234",
"7 c #303235",
"8 c #303335",
"9 c #313336",
"0 c #323437",
"q c #383A3D",
"w c #383B3E",
"e c #393C3F",
"r c #434343",
"t c #44474B",
"y c #45484C",
"u c #474A4E",
"i c #484B4F",
"p c #4E4E4E",
"a c #494C50",
"s c #4E5256",
"d c #4F5357",
"f c #505458",
"g c #53575B",
"h c #53575C",
"j c #5B5B5B",
"k c #5F5F5F",
"l c #575B60",
"z c #585C61",
"x c #595D62",
"c c #5A5E63",
"v c #5F6469",
"b c gray38",
"n c #60656A",
"m c #62676C",
"M c #63686D",
"N c #64686E",
"B c #64696E",
"V c #65696F",
"C c #656A6F",
"Z c DimGray",
"A c #656A70",
"S c #696E74",
"D c #6C7177",
"F c #6D7278",
"G c #777777",
"H c #898989",
"J c #8D8D8D",
"K c #929292",
"L c #939393",
"P c #979797",
"I c #989898",
"U c gray60",
"Y c None",
/* pixels */
"YYYYYYYYYYYYYYYYYYYYIIPPIPPPPPPPPPPPPPPPPPPPPPPPPPPPPPPPPPPPPPPPPPPPPPPPPPPPPPPPPPPPPPPPPPPPPPPPPPPPPPPPPPPPPPPPPPPPPPPPPPPPPPPPPPPPPPPPPPPPPPPPPPPPPPPPPPPPPPPPPPPPPPPPPPPPPPPPPPPPPPPPPPPPPPPPPPPPPPPPPPPPPPPPPPPPPPPPPPPPPPPPPPPPPPPPPPPPPPPPPPPPPPPPPPPPPPPPPPPPPPPPPPPIPPIIYYYYYYYYYYYYYYYYYYYY",
"YYYYYYYYYYYYYYYYYILZr4>#X                                                                                                                                                                                                                                                  X#>4rZLIYYYYYYYYYYYYYYYYY",
"YYYYYYYYYYYYYYIJk5O                                                                                                                                                                                                                                                              O5kJIYYYYYYYYYYYYYY",
"YYYYYYYYYYYYIKp+                                                                                                                                                                                                                                                                    @pKIYYYYYYYYYYYY",
"YYYYYYYYYYYPj&                                                                                                                                                                                                                                                                        &jPYYYYYYYYYYY",
"YYYYYYYYYYH1                                                                                                                                                                                                                                                                            1HYYYYYYYYYY",
"YYYYYYYYPG&                                                                                                                                                                                                                                                                              &GPYYYYYYYY",
"YYYYYYYPbo                                                                                                                                                                                                                                                                                obPYYYYYYY",
"YYYYYYPb                                                                                                                                                                                                                                                                                    bPYYYYYY",
"YYYYYYGo                                                                                                                                                                                                                                                                                    oGYYYYYY",
"YYYYYH&                                                                                                                                                                                                                                                                                      &HYYYYY",
"YYYYP1                                                                                                                                                                                                                                                                                        1PYYYY",
"YYYIj                                                                                                                                                                                                                                                                                          jIYYY",
"YYYK&                                                                                                                                                                                                                                                                                          &KYYY",
"YYIp                                                                                                                                                                                                                                                                                            pIYY",
"YYJ+                                                                                                                                                                                                                                                                                            @JYY",
"YYk                                                                                                                                                                                                                                                                                              kYY",
"YI5                                                                                                                                                                                                                                                                                              5IY",
"YLO                                                                      .F6               wFF.                  .FFFF                         .F6               wFF.                                                                                                                            OLY",
"YZ                                                                       .FF7             wFFF.                  .FFFF                         .FF7             wFFF.                                                                                                                             ZY",
"Ur                                                                       .FFF7           wFFFF.                                                .FFF7           wFFFF.                                                                                                                             rU",
"I4                                                                       .FFFF8         wFFFFF.                                                .FFFF8         wFFFFF.                                                                                                                             4I",
"P>                                                                       .FFFFF9       wFFFFFF.    ;sBFFFFmu$    .FFFF   .FFFF2xFFmu$          .FFFFF9       wFFFFFF.    $umFFFFmu$    .FFFF2xFFmu$    .FFFF    DFFD                                                                              >P",
"P#                                                                       .FFFFFF9     wFFFFFFF.   *SFFFFFFFFV$   .FFFF   .FFFFlFFFFFV$         .FFFFFF9     wFFFFFFF.   %CFFFFFFFFV$   .FFFFlFFFFFV$   .FFFF    FFFF                                                                              #P",
"IX                                                                       .FFFFFFF9   wFFFFFFFF.   yFf;  <gFFFu   .FFFF   .FFFFh<<gFFFu         .FFFFFFF9   wFFFFFFFF.   aFFFh<<gFFFu   .FFFFh<<gFFFu   .FFFF    FFFF                                                                              XI",
"IX                                                                       .FFwFFFFF0 wFFFFqFFFF.   nF<    ,FFFm   .FFFF   .FFFF<  ,FFFm         .FFwFFFFF0 wFFFFqFFFF.   BFFF<  ,FFFm   .FFFF<  ,FFFm   .FFFF    FFFF                                                                              XI",
"P#                                                                       .FF.qFFFFFfFFFFw FFFF.           FFFF   .FFFF   .FFFF    FFFF         .FF.qFFFFFfFFFFw FFFF.  .FFFF    FFFF   .FFFF    FFFF   .FFFF    FFFF                                                                              #P",
"P>                                                                       .FF. wFFFFFFFFw  FFFF.           FFFF   .FFFF   .FFFF    FFFF         .FF. wFFFFFFFFw  FFFF.  .FFFF    FFFF   .FFFF    FFFF   .FFFF    FFFF                                                                              >I",
"I4                                                                       .FF.  wFFFFFFw   FFFF.    $umFFFFFFFF   .FFFF   .FFFF    FFFF         .FF.  wFFFFFFw   FFFF.  .FFFFFFFFFFFF   .FFFF    FFFF   .FFFF    FFFF                                                                              4I",
"Ur                                                                       .FF.   eFFFFw    FFFF.   %CFFFFFFFFFF   .FFFF   .FFFF    FFFF         .FF.   eFFFFw    FFFF.  .FFFFFFFFFFFF   .FFFF    FFFF   .FFFF    FFFF                                                                              rI",
"YZ                                                                       .FF.    eFFw     FFFF.   aFFFh<  FFFF   .FFFF   .FFFF    FFFF         .FF.    eFFw     FFFF.  .FFFF           .FFFF    FFFF   .FFFF    FFFF                                                                              ZY",
"YLO                                                                      .FF.     ew      FFFF.   BFFF<   FFFF   .FFFF   .FFFF    FFFF         .FF.     ew      FFFF.  .FFFF      ..   .FFFF    FFFF   .FFFF    FFFF                                                                             OLY",
"YI5                                                                      .FF.             FFFF.   NFFF<  <FFFF   .FFFF   .FFFF    FFFF         .FF.             FFFF.   NFFF<    -Fv   .FFFF    FFFF    NFFF<  <FFFF                                                                             5IY",
"YYk                                                                      .FF.             FFFF.   aFFFh,<gFFFF   .FFFF   .FFFF    FFFF         .FF.             FFFF.   aFFFh,  =aFt   .FFFF    FFFF    aFFFh,<gFFFF                                                                             kYY",
"YYJ+                                                                     .FF.             FFFF.   %AFFFFFzFFFF   .FFFF   .FFFF    FFFF         .FF.             FFFF.   %AFFFFFFFFS*   .FFFF    FFFF    %AFFFFFzFFFF                                                                            +JYY",
"YYIp                                                                     .FF.             FFFF.    %iMFFc3FFFF   .FFFF   .FFFF    FFFF         .FF.             FFFF.    %iMFFFFCd:    .FFFF    FFFF     %iMFFc3FFFF                                                                            pIYY",
"YYYK&                                                                                                                                                                                                                                                                                          &KYYY",
"YYYIj                                                                                                                                                                                                                                                                                          jIYYY",
"YYYYP1                                                                                                                                                                                                                                                                                        1PYYYY",
"YYYYYH&                                                                                                                                                                                                                                                                                      &HYYYYY",
"YYYYYYGo                                                                                                                                                                                                                                                                                    oGYYYYYY",
"YYYYYYPb                                                                                                                                                                                                                                                                                    bPYYYYYY",
"YYYYYYYPbo                                                                                                                                                                                                                                                                                obPYYYYYYY",
"YYYYYYYYPG&                                                                                                                                                                                                                                                                              &GPYYYYYYYY",
"YYYYYYYYYYH1                                                                                                                                                                                                                                                                            1HYYYYYYYYYY",
"YYYYYYYYYYYPj&                                                                                                                                                                                                                                                                        &jPYYYYYYYYYYY",
"YYYYYYYYYYYYIKp+                                                                                                                                                                                                                                                                    +pKIYYYYYYYYYYYY",
"YYYYYYYYYYYYYYIJk5O                                                                                                                                                                                                                                                              O5kJIYYYYYYYYYYYYYY",
"YYYYYYYYYYYYYYYYYILZr4>#X                                                                                                                                                                                                                                                  X#>4rZLIYYYYYYYYYYYYYYYYY",
"YYYYYYYYYYYYYYYYYYYYUIPPIPPPPPPPPPPPPPPPPPPPPPPPPPPPPPPPPPPPPPPPPPPPPPPPPPPPPPPPPPPPPPPPPPPPPPPPPPPPPPPPPPPPPPPPPPPPPPPPPPPPPPPPPPPPPPPPPPPPPPPPPPPPPPPPPPPPPPPPPPPPPPPPPPPPPPPPPPPPPPPPPPPPPPPPPPPPPPPPPPPPPPPPPPPPPPPPPPPPPPPPPPPPPPPPPPPPPPPPPPPPPPPPPPPPPPPPPPPPPPPPPPPIPPIUYYYYYYYYYYYYYYYYYYYY"
};
