/* XPM */
static char *brick[] = {
/* columns rows colors chars-per-pixel */
"16 16 39 1 ",
"  c #5F3529",
". c #62372A",
"X c #6B3C2F",
"o c #6E3D30",
"O c #764232",
"+ c #794335",
"@ c #7C4536",
"# c #7E4536",
"$ c #7F4637",
"% c #804738",
"& c #824938",
"* c #864A3A",
"= c #884C3A",
"- c #8D4E3D",
"; c #8F503F",
": c #92503E",
"> c #975341",
", c #9A5542",
"< c #9B5643",
"1 c #A35B47",
"2 c #A55B47",
"3 c #A75E47",
"4 c #AA5E4A",
"5 c #B1624D",
"6 c #B2634E",
"7 c #99857F",
"8 c #988680",
"9 c #9B8883",
"0 c #A08C86",
"q c #A08E88",
"w c #A3918B",
"e c #AB9893",
"r c #AC9994",
"t c #AF9D97",
"y c #B19F99",
"u c #B2A09A",
"i c #B5A39D",
"p c #B7A59F",
"a c #B8A49E",
/* pixels */
"<:<r<<:2<4-e<2<<",
"@@*p6@XX@@*t<*@@",
"@-Xr<%@O@@@y*>@-",
"w99pq988808a898w",
"-<<<<:<e22<<<<<r",
"<@<@X@@e<@O@O@@y",
"<.-X@.@p4o*O@@@r",
"9999900p9999998p",
"<><y><252<<r<>5@",
"o%%r>%o%*-Or<>@@",
":%*y>%.%o*@r<@*@",
"q07yqq88899p9q98",
"<<5>><:e>5<<<<<p",
">%o%%%oe>@@%@@%y",
"<o-%%%oy<@%@-%%y",
"77708q0yqq99988e"
};
