/* XPM */
static char *dirt_grass_ico[] = {
/* columns rows colors chars-per-pixel */
"16 16 21 1 ",
"  c #593D29",
". c #79553A",
"X c #745844",
"o c #6C6C6C",
"O c #966C4A",
"+ c #509026",
"@ c #57972D",
"# c #5F9F35",
"$ c #60A036",
"% c #67A73D",
"& c #68A83E",
"* c #6DAD43",
"= c #70B046",
"- c #74B44A",
"; c #7EBE54",
": c #B9855C",
"> c #81B051",
", c #8AB95A",
"< c #93C263",
"1 c #9CCB6C",
"2 c gray53",
/* pixels */
"---%%*#&;-*%%$+*",
"-*,>> &%$<<-$*%*",
", 1%* = -;<< @# ",
" o  =   # * .  .",
"O.O: O..   o.O .",
". OO.O   .. ...:",
":...2..::.::.O.O",
"..::OO..O OO..OO",
"O..O.O. .OO... .",
".O ..  .....::.O",
".O.::.:O :: OO2.",
"O..OO:.OoOO. O. ",
". O.OO:.......::",
".O..X.OO. : .:OO",
"O. :. . ::.O..OO",
"O.:OO.2.OO..OO. "
};
