/* XPM */
static char *door_ico[] = {
/* columns rows colors chars-per-pixel */
"16 16 67 1 ",
"  c #362C11",
". c #392A13",
"X c #382C16",
"o c #382B18",
"O c #2F3511",
"+ c #2E3412",
"@ c #313711",
"# c #303811",
"$ c #363E17",
"% c #3D3119",
"& c #373D1B",
"* c #3E3524",
"= c #3D3823",
"- c #3E3629",
"; c #502A1F",
": c #403019",
"> c #47371D",
", c #46381E",
"< c #48381E",
"1 c #522E22",
"2 c #433324",
"3 c #483723",
"4 c #473821",
"5 c #483821",
"6 c #473B2D",
"7 c #443C2F",
"8 c #4C392B",
"9 c #443C31",
"0 c #3B431E",
"q c #3C4220",
"w c #534427",
"e c #53432A",
"r c #444034",
"t c #5E5538",
"y c #5D563C",
"u c #605539",
"i c #65553C",
"p c #64543D",
"a c #6A513D",
"s c #605341",
"d c #615444",
"f c #AF9F86",
"g c #B19F87",
"h c #AFA187",
"j c #B1A086",
"k c #B5AC8F",
"l c #B4AD91",
"z c #BAA890",
"x c #B8A992",
"c c #BAAA93",
"v c #BCAB91",
"b c #C4B29A",
"n c #C3B49D",
"m c #C9B09C",
"M c #C0B3A1",
"N c #CEBEA5",
"B c #CDBEA9",
"V c #D0BFA5",
"C c #D7C7AE",
"Z c #D8C6AE",
"A c #D6C5B1",
"S c #D7C7B0",
"D c #D7C8B3",
"F c #D8C8B1",
"G c #E0CEB8",
"H c #E3D4BF",
"J c #E3D4C1",
/* pixels */
"r-97--26;127792*",
"-dMMi<dnma>iMMso",
"7MJSvenGZz8nJSxo",
"7nFNjwnCVnwnSNf>",
"2icji>ichi,izfi.",
"*3ee>>5ee,,4ee2.",
"*dnni2inni,innio",
"7nHZceMJJcenJDxo",
"9MSNgenCCfenSBh%",
"*sxhi>ivft>izfto",
"*4ee>><we>>>ee2o",
"2inni>inni>icnio",
"4MJDhwnHCcwnJSco",
"9nDCjwnCChenFCg>",
"=tchu,tvkt,yxjt ",
"0O00#OO00OO&0$#o"
};
