/* XPM */
static char *gold_ico[] = {
/* columns rows colors chars-per-pixel */
"16 16 55 1 ",
"  c #D8AF2D",
". c #DAB12D",
"X c #E6B428",
"o c #E0BB2F",
"O c #E6BC2F",
"+ c #E8BB2E",
"@ c #FABF30",
"# c #E8C82F",
"$ c #F6CA2C",
"% c #E3C433",
"& c #E9CF32",
"* c #E9CE34",
"= c #EFCD37",
"- c #ECC738",
"; c #E8CC39",
": c #FBC331",
"> c #FFCB35",
", c #E8D43E",
"< c #EED83D",
"1 c #FCD736",
"2 c #F0D038",
"3 c #F2D13A",
"4 c #FAD838",
"5 c #FADC3A",
"6 c #F7E935",
"7 c #FCE03E",
"8 c #FBEF3A",
"9 c #FAF13B",
"0 c #E7C845",
"q c #E8D045",
"w c #EAD349",
"e c #EDD949",
"r c #F8DE40",
"t c #EAD352",
"y c #F0DD52",
"u c #F9E447",
"i c #FEEF4C",
"p c #FCED4F",
"a c #FFF144",
"s c #FFF845",
"d c #FEF649",
"f c #F9FB49",
"g c #FFF949",
"h c #F9FD48",
"j c #FFEE5B",
"k c #FFF555",
"l c #FAFA54",
"z c #FFF659",
"x c #FEFE5A",
"c c #FDEA64",
"v c #FDFE63",
"b c #FDF865",
"n c #FFFD6E",
"m c #FEFC70",
"M c #FFFD78",
/* pixels */
"  .o%;,;;-qqeyy;",
"0cjjzxkkzzzkldd;",
"qnmnnlllkzllga8&",
"qnnnnlllxzgdssa&",
"qxnlggllllgsaga,",
"qxlaaggglllgggs,",
",xlggggggghhhsa*",
",vxdaaaaadh9ss9*",
"qxngnaaaaaaaa96#",
"wnngvvxxxxxxllg;",
"wmmmnnnvvvxxxkd-",
"tMMMmmnnnnvzpuro",
"tmmmmmmnbvkir33+",
"wnvvvvnvbzur544+",
"elldkdkkki541$$X",
"<<3,=,=;;3>>>::@"
};
