/* XPM */
static char *jukebox_ico[] = {
/* columns rows colors chars-per-pixel */
"16 16 19 1 ",
"  c #181514",
". c #272220",
"X c #282320",
"o c #292422",
"O c #302B29",
"+ c #312C28",
"@ c #342C29",
"# c #342E2A",
"$ c #352F2B",
"% c #745039",
"& c #795543",
"* c #825739",
"= c #84523C",
"- c #955A3E",
"; c #835742",
": c #885C46",
"> c #915840",
", c #945F44",
"< c #9B664B",
/* pixels */
"o$$O$$$$$$$$$$$X",
"$&==**%%%%%;%;&@",
"$:%*%=-%%<<:-<;$",
"$=:---%  %,---=$",
"$%%%*<%  %=-<-&$",
"@%--<<%  %,,%=%@",
"$:<<<<%  %-<<<;$",
"@=----%  %,---=$",
"$;<<<<%  %<-<<;$",
"$%*%*<%  %%-<*%@",
"$;,,<<%  %,,,,;+",
"$=----%  %--;-=+",
"$;<<<*%  %**<-:$",
"$%-<<<<%%-<=%*%@",
"$&%%%;;%;;%=::%$",
".@$$$$$$$$@$#$$$"
};
