/* XPM */
static char *lava_ico[] = {
/* columns rows colors chars-per-pixel */
"16 16 118 2 ",
"   c #973F1A",
".  c #AF2F00",
"X  c #A73100",
"o  c #AE2C14",
"O  c #A32D19",
"+  c #B02C18",
"@  c #A33713",
"#  c #AC3E19",
"$  c #AE1927",
"%  c #A01A2D",
"&  c #9B2126",
"*  c #893037",
"=  c #953C30",
"-  c #BD3B21",
";  c #BA3C24",
":  c #B33328",
">  c #B8322B",
",  c #BF2734",
"<  c #BB2A31",
"1  c #BD2836",
"2  c #C61800",
"3  c #C81800",
"4  c #D11100",
"5  c #D81500",
"6  c #DC1500",
"7  c #D01A00",
"8  c #CD2400",
"9  c #C82A00",
"0  c #CB2A00",
"q  c #D72F00",
"w  c #D32B07",
"e  c #DC2D00",
"r  c #CD3800",
"t  c #D03600",
"y  c #D83500",
"u  c #DF3600",
"i  c #D83C00",
"p  c #CD3E16",
"a  c #CF381B",
"s  c #E62401",
"d  c #ED2500",
"f  c #E72B00",
"g  c #E82E00",
"h  c #F02202",
"j  c #E03200",
"k  c #E23700",
"l  c #CE3822",
"z  c #824808",
"x  c #BE4200",
"c  c #B94800",
"v  c #B45200",
"b  c #AC431C",
"n  c #BC401F",
"m  c #B6402A",
"M  c #B26C27",
"N  c #C4480D",
"B  c #D24600",
"V  c #C64211",
"C  c #C94112",
"Z  c #C94B11",
"A  c #F34E04",
"S  c #F84D00",
"D  c #F74D0A",
"F  c #FD4C0C",
"G  c #EA5900",
"H  c #EB5C00",
"J  c #F75304",
"K  c #F95206",
"L  c #F15A00",
"P  c #FC5B05",
"I  c #FC500A",
"U  c #F9530D",
"Y  c #EC5312",
"T  c #EB5518",
"R  c #FA5611",
"E  c #D66C00",
"W  c #DA6D00",
"Q  c #C77404",
"!  c #CF7000",
"~  c #DB7200",
"^  c #D1700A",
"/  c #CF7018",
"(  c #E46100",
")  c #EC6300",
"_  c #E66800",
"`  c #EB6800",
"'  c #CF5D39",
"]  c #C0602E",
"[  c #CB6B2F",
"{  c #FF7C24",
"}  c #FF762D",
"|  c #FF7829",
" . c #FF8D0D",
".. c #FD9906",
"X. c #FE9108",
"o. c #FF8715",
"O. c #FF861C",
"+. c #FF8E1C",
"@. c #FF8221",
"#. c #FF842B",
"$. c #E99E2B",
"%. c #ED9C35",
"&. c #E9A226",
"*. c #FFAD3D",
"=. c #FFBF31",
"-. c #FFBB3A",
";. c #FFC62F",
":. c #FFC534",
">. c #FFCA34",
",. c #FFC23E",
"<. c #FFCC3C",
"1. c #E88C51",
"2. c #FFA844",
"3. c #FFB541",
"4. c #FFB147",
"5. c #FFBB42",
"6. c #FFB34A",
"7. c #FFC641",
/* pixels */
"z $.&.Q c . X X x c ^ v x X X b ",
"M 7.<.E y e 3 e i G ,.! t e 2 o ",
"] +.-.( 8 s i I j L :.X.9 f e l ",
"> j J i L G o.3.) ` W _ W G s a ",
", 5 j P 2.) ) ) +.*.) 3.3.O.F p ",
"1 f { 2.P S 3 e g y 9 { { L K V ",
"$ f G B k g 4 5 h s f A i j | Z ",
"% 3 y G X.! 5 3 G ) i 7 j { 5.%.",
"% 3 S { 3. .h j +.3.I 3 i I ) / ",
"l f g F F S s g ) 2.I 3 3 j K N ",
"1 J K i i i 5 g J G F y B { I C ",
"# @.-.W W ..F g f f g K ..>.@.Z ",
"b 6.7.~ ;.:.| s 7 g g P ;.;.L V ",
": R @.G G J F y K K j S +.L f p ",
"& t T t . w y T #.#.T y T r w + ",
"* m ' m ; ; o @ 1.[ n - - ; O = "
};
