/* XPM */
static char *library_ico[] = {
/* columns rows colors chars-per-pixel */
"16 16 29 1 ",
"  c #271E11",
". c #2C2213",
"X c #362A15",
"o c #3F2E18",
"O c #3F3F3F",
"+ c #41311A",
"@ c #632805",
"# c #773007",
"$ c #4C3D26",
"% c #5E720D",
"& c #695433",
"* c #735E39",
"= c #7C623E",
"- c #0C6B50",
"; c #2A4E7A",
": c #494949",
"> c #911111",
", c #BC1616",
"< c #873608",
"1 c #897E08",
"2 c #758E11",
"3 c #118E6B",
"4 c #A89B0A",
"5 c #9F844D",
"6 c #B4905A",
"7 c #BC9862",
"8 c #315B8E",
"9 c #898989",
"0 c gray71",
/* pixels */
"7776777555*77775",
"7.    2%..    .5",
"7,>.8;2%XXX2%o+5",
"&0938;2%,>X2%3-*",
"7,>38;:O,>o2%097",
"5,>38;:O+,>2%3-5",
"7,>38;2%o,>2%3-7",
"**&&&&&***&&&&**",
"75555766555*7555",
"5      ...  8;.5",
"7 XX,>ooX41.8;X5",
"*<#@,>X+%09>8;3*",
"7<#@,>8X%09>8;37",
"6<#@,>8%X41>8;36",
"7<#@,>8%+41>8;37",
"***=&&=&***&$&&*"
};
