/* XPM */
static char *mob_spawner_ico[] = {
/* columns rows colors chars-per-pixel */
"16 16 70 1 ",
"  c #020202",
". c #060604",
"X c gray9",
"o c #191919",
"O c gray11",
"+ c #262F1E",
"@ c #282A1D",
"# c #202020",
"$ c #232323",
"% c gray15",
"& c #272727",
"* c #282828",
"= c gray18",
"- c #2F2F2F",
"; c #2F3626",
": c #33362B",
"> c #323232",
", c #363833",
"< c gray22",
"1 c #3A3A3A",
"2 c gray26",
"3 c #444641",
"4 c gray28",
"5 c #4A4B46",
"6 c #4E4E4E",
"7 c #51544D",
"8 c gray33",
"9 c #565656",
"0 c #595957",
"q c gray35",
"w c #5E605B",
"e c #606060",
"r c gray38",
"t c #626262",
"y c #696A65",
"u c DimGray",
"i c gray43",
"p c #6F6F6F",
"a c gray44",
"s c #767676",
"d c gray47",
"f c #7C7C7C",
"g c #7D7D7F",
"h c #818181",
"j c #828284",
"k c gray53",
"l c #898989",
"z c gray54",
"x c #8E8E8E",
"c c gray56",
"v c #959595",
"b c gray59",
"n c #979799",
"m c #9F9F9F",
"M c #A2A2A2",
"N c gray64",
"B c #A5A7A6",
"V c #A7A7A7",
"C c #A9A9A9",
"Z c #AAA8A9",
"A c gray68",
"S c #AEAEAE",
"D c #AFAFAF",
"F c gray69",
"G c #B1B1B1",
"H c #B6B6B6",
"J c #B7B7B7",
"K c gray72",
"L c gray73",
"P c gray74",
/* pixels */
"111,;+++X:;;:*1,",
">t0q37yy59t0638*",
"$8i8qtqae8jgea6*",
"$6qtLL8iyaLLtjt$",
">izLSSi8gkLSSau#",
"*8gLaLViqKFgKa,O",
"*tjLjLSLLSSlLjqO",
"*qLGLGSnvVFLFS8>",
"*6GSFSc$$xSSSSa,",
"6zLMSb$  $KSSZl1",
"3gSSVv$. *LSmMs-",
"3gVSSSzOOFSSSVa-",
"3gSSSVSGGVSSZSa*",
"3aVSSZSMVmmmZma-",
"6aaadaagaaiiaga*",
"1->*$$**-***$*--"
};
