/* XPM */
static char *mystery_box_ico[] = {
/* columns rows colors chars-per-pixel */
"16 16 69 1 ",
"  c #3B2200",
". c #3F2904",
"X c #3E2A11",
"o c #362327",
"O c #3E242F",
"+ c #392530",
"@ c #412905",
"# c #4A2B00",
"$ c #402C0B",
"% c #4A300F",
"& c #4C3314",
"* c #45341A",
"= c #422227",
"- c #422329",
"; c #412429",
": c #442628",
"> c #443425",
", c #7E5817",
"< c #7E5819",
"1 c #7D5A18",
"2 c #775927",
"3 c #7D5728",
"4 c #79562E",
"5 c #775A2E",
"6 c #765B2E",
"7 c #785A28",
"8 c #7C5D2E",
"9 c #72593D",
"0 c #7F612F",
"q c #80581A",
"w c #855F1E",
"e c #95620F",
"r c #8F6511",
"t c #8E6418",
"y c #8F6418",
"u c #976411",
"i c #946412",
"p c #9A6A16",
"a c #916318",
"s c #966518",
"d c #9B6D18",
"f c #9C6B1C",
"g c #9E701D",
"h c #A06C16",
"j c #A06919",
"k c #A36E1E",
"l c #A3701D",
"z c #875F21",
"x c #8A6423",
"c c #80602F",
"v c #946924",
"b c #996D26",
"n c #946D2A",
"m c #9A6F2A",
"M c #9C7125",
"N c #98702A",
"B c #806132",
"V c #826637",
"C c #856735",
"Z c #896535",
"A c #8A6435",
"S c #856638",
"D c #9D7434",
"F c #A67320",
"G c #A57722",
"H c #A77725",
"J c #A87421",
"K c #A07529",
"L c #A27631",
/* pixels */
" @##.#####@#### ",
"@5zwzx1,<1wxqz5.",
"&VxaiagMKKKbbDV@",
"&8vfffgffkffkb8@",
"&2yeeJGikeikkmc@",
"%2blklFikfkkiy8@",
"&VDlJFFiiipFFDV.",
"%zbfkkpfhhkffmz@",
"&CLFJfiJlllllLS@",
"&5aiiFlfiielFa8@",
"&0NgFHiiirgllv0@",
"&8bkfffffdpppf0@",
"&VKFKiFaieiilvV@",
"*5nHKKKaMMNiyx8@",
">984wZVxZZ7cZV9X",
"+;;;====;====;Oo"
};
