/* XPM */
static char *sand_ico[] = {
/* columns rows colors chars-per-pixel */
"16 16 54 1 ",
"  c #A9A36C",
". c #B0AA72",
"X c #B3AD76",
"o c #BCB67E",
"O c #BFB881",
"+ c #BFB882",
"@ c #C1BA83",
"# c #C2BC84",
"$ c #C7BF89",
"% c #C7BE8D",
"& c #CBBF93",
"* c #C6C089",
"= c #CAC48D",
"- c #CDC78F",
"; c #CDC790",
": c #CFC892",
"> c #D0C795",
", c #D2CB95",
"< c #D0C499",
"1 c #D6CE98",
"2 c #D9CF9E",
"3 c #D6D098",
"4 c #D8D29A",
"5 c #DBD59D",
"6 c #D8CDA2",
"7 c #DED7A1",
"8 c #DDD4A3",
"9 c #DFD8A2",
"0 c #DED8A6",
"q c #DFD3A9",
"w c #E1D7A7",
"e c #E0D9A2",
"r c #E2D6AA",
"t c #E2D8A8",
"y c #E6D9AE",
"u c #E7DBB1",
"i c #E8DCB1",
"p c #E6E0A9",
"a c #E9E3AC",
"s c #EDE1B6",
"d c #EEE2B6",
"f c #EEE8B1",
"g c #F1EAB4",
"h c #F4E8BD",
"j c #EEEACC",
"k c #F8ECC1",
"l c #F9EEC2",
"z c #FFFAC2",
"x c #FFF7CC",
"c c #F7F5D2",
"v c #FFFED2",
"b c #FFFFDF",
"n c #FBFBEA",
"m c #FFFFF1",
/* pixels */
"%tw4ew,,ee477x-,",
"74ri@,,,din4747d",
"rdl3,36779us3::k",
";137,w,e.130su3+",
"t3u1iiti,:,u3@s-",
"-e;m,a773g4*::3@",
"or;7@e4,33ux4u96",
"44r44,tz9<31eqju",
"ttdir,uq1v+9,977",
"@4t446>,439f3t6t",
"tt t%d37hfp33n33",
":tt&4417993z,,1+",
"s41f7,9@%71,rt,1",
"tu;X;,,hqhu993u1",
"r71,764e*7+3t::r",
"191@v9-s3h<7r33%"
};
