/* XPM */
static char *wood_c_ico[] = {
/* columns rows colors chars-per-pixel */
"16 16 15 1 ",
"  c #1E170E",
". c #251E13",
"X c #342918",
"o c #342A1A",
"O c #382D1C",
"+ c #4C3E29",
"@ c #4F412B",
"# c #55442E",
"$ c #56452F",
"% c #59462F",
"& c #594730",
"* c #5B4830",
"= c #604C32",
"- c #644F33",
"; c #6D5435",
/* pixels */
"oo ooo   oo oooO",
"o*&**%**#%%%==%o",
" *@@#+@###@#@#%o",
"o*#*==*======@% ",
".*@=*=******=##o",
" *@=%####@#*=@%o",
" *#=*+*===@%*@% ",
" *@;*#=**=#%=#*O",
"o**=*@***=+*=+*o",
"o*@=*#====#*=#*o",
"o%@**@#@##@==@*o",
" *#=******%==#%X",
" *#==*-*=*-==@* ",
" *+##@#@##@###* ",
".*%***##%*##***o",
"oO ooX oXXoo   o"
};
