/* XPM */
static char *wood_d_ico[] = {
/* columns rows colors chars-per-pixel */
"16 16 19 1 ",
"  c #2C2214",
". c #372C1B",
"X c #493921",
"o c #4C3D26",
"O c #4F3F27",
"+ c #504028",
"@ c #53442D",
"# c #62522E",
"$ c #675631",
"% c #685732",
"& c #6B5A35",
"* c #725636",
"= c #775A37",
"- c #795B37",
"; c #805F38",
": c #826038",
"> c #846138",
", c #866238",
"< c #946A38",
/* pixels */
"oo ooo   oo ooo+",
"o-==----**-->--o",
" -#$$#%#&$$$#&-o",
"o-&->;>;;;;;>$- ",
".-$>-------;>%-o",
" -#>-%&&%$$-;#-o",
" -%;-$;;>>#--$- ",
" -$<-%>-->&*>&-+",
"o--;-$;--;$->#>o",
"o-#;-$;;>>$->#-o",
"X-$;-$$$#&$;>#-o",
" -$;-------->&-o",
" -#>;;;;;;,;-&- ",
" -#$%$$$$%%%&&- ",
".----;**--$----o",
"o+ +oX ooOoo   o"
};
