/* XPM */
static char *wood_a_ico[] = {
/* columns rows colors chars-per-pixel */
"16 16 24 1 ",
"  c #3C2F1C",
". c #4C3D26",
"X c #644F2E",
"o c #665130",
"O c #6A5534",
"+ c #6F5A39",
"@ c #745F3E",
"# c #997E47",
"$ c #9B8049",
"% c #9C814A",
"& c #A0854E",
"* c #A1864F",
"= c #A28750",
"- c #A48952",
"; c #AD8953",
": c #B18D57",
"> c #B38F59",
", c #AC915A",
"< c #B4905A",
"1 c #B8945E",
"2 c #BA9660",
"3 c #BC9862",
"4 c #BF9B65",
"5 c #C9A56F",
/* pixels */
"OO OOo   OO +OO+",
"O>:><><<;:<<12<X",
" <%%&#%%-&%&&-<O",
"O<-1333332323%< ",
".<%3<2<<<1<13%<O",
" <%3<&--&&%<2%<O",
" <&3<%2333&<1&< ",
" <%5<&3<<3=;3%<@",
"o<,3<%3<<3%<3%2O",
"O2%3<%3333&<3%<O",
"o<&<<%%&&&&13%<O",
" <&3<<<<<<<23->X",
" <%4323333333%< ",
" <%&-%%&%=&-;-< ",
".<<<<2;;><;<<<<O",
"o+ OOo +ooOO   o"
};
