/* XPM */
static char *brique[] = {
/* columns rows colors chars-per-pixel */
"64 64 63 1 ",
"  c None",
". c #5F3529",
"X c #62372A",
"o c #65372B",
"O c #67392D",
"+ c #6A3B2E",
"@ c #6B3C2F",
"# c #6D3D2F",
"$ c #6E3D30",
"% c #733F31",
"& c #764232",
"* c #794335",
"= c #7C4536",
"- c #7E4536",
"; c #7F4637",
": c #804738",
"> c #824938",
", c #834939",
"< c #864A3A",
"1 c #884C3A",
"2 c #894C3B",
"3 c #8C4D3C",
"4 c #8D4E3D",
"5 c #8F503F",
"6 c #92503E",
"7 c #945240",
"8 c #975341",
"9 c #9A5542",
"0 c #9B5643",
"q c #9D5745",
"w c #9F5845",
"e c #A35B47",
"r c #A55B47",
"t c #A75E47",
"y c #AA5E4A",
"u c #B1624D",
"i c #B2634E",
"p c #99857F",
"a c #988680",
"s c #9B8883",
"d c #9D8985",
"f c #9C8A84",
"g c #9E8A84",
"h c #9E8C86",
"j c #9F8C87",
"k c #A08C86",
"l c #A08E88",
"z c #A3918B",
"x c #AB9793",
"c c #AB9893",
"v c #AC9994",
"b c #AD9995",
"n c #AE9A96",
"m c #AE9B96",
"M c #AF9D97",
"N c #B09C98",
"B c #B19F99",
"V c #B2A09A",
"C c #B5A19B",
"Z c #B5A39D",
"A c #B6A39E",
"S c #B7A59F",
"D c #B8A49E",
/* pixels */
"                        060M006y0y2Nwrw7                        ",
"                        ==<Zu=$o=&<M0===                        ",
"                        *2+M0:=+===N>5=5                        ",
"                        zggBgggdgggZgggz                        ",
"                        2000060Mrr000w0M                        ",
"                        0=0=+==M0=%=+==M                        ",
"                        0o<$=o*Zr$>&===M                        ",
"                        gggggggZgggggggM                        ",
"                        000M70rur00M00u=                        ",
"                        ===M7===<<&M0<==                        ",
"                        2=2Z0=.=+:=M0=<=                        ",
"                        dkpBgggggggBgkdg                        ",
"                        0ey0002x6u00000D                        ",
"                        0=====+M0=====:M                        ",
"                        0+,====M0**=<=*M                        ",
"                        gdpggggZgggkggkM                        ",
"        w60M007y7y2M0y0095wM7w7rwt5Mwrw7060M0w6r0y2n0r00        ",
"        ==<Zu=$o=&<B0=====<Zu=++=&<M0=====<Zu=++==<B0===        ",
"        *5+M0**&=**B>5=2=5oMw==+===M=6=5=2+V0:=$===M>5=2        ",
"        jggBggkgggkZgggzllgBgggggggZggglkkgngggggggZgggl        ",
"        2000020Mrre0000n<www060Mryw7w99M200066rnrrw7w00M        ",
"        0=0=+==M0=$=+==Bw*7=+=&Mw&&=+==Bw=0=+==nw=&=+==M        ",
"        0X2$=o=Zt+:&===nw.<$=o=Zt$<&===Mwo<+=X=Zr+<&===M        ",
"        gggggkgNkkdggggZgggggggNggaggggMggggdkkngggggggZ        ",
"        w00M70yue6en00u:e60n70yuwwwN99i;000M60ru000M00u:        ",
"        ===M7===:1=x02=====n7===<<&c9<*;===M6===<<=x02==        ",
"        2=<Z0=.=+>=n0=>=2=2D0=.=$;=N9;<;2=<Z0=X=+<=M0=>=        ",
"        ggpBggggkkkngkdkkkpngggggggBjlaggddZkkddgggBgkdk        ",
"        0ey0005x6u00600Dwwy0006x7i99799S00y0002x6u00000D        ",
"        0=====+x0====:=M0=====oM9*;*;;;B0==*==+x0=====:n        ",
"        0+<==**N0===>=:M0+<====N9;;;;;;B0+2*===M0===>=:n        ",
"        gdpggggZkgggkggMggpggggBlhaglggcggdggkgZggggkggM        ",
"                        q79m9q7y9t5M9y99                        ",
"                        **;Zi&@o;&;B9;==                        ",
"                        ;7&m9;;&*;*B;7=5                        ",
"                        lfaBgjgaglgZgggl                        ",
"                        <q99979Nytw9999N                        ",
"                        9*9;@;&B9*&;&&*B                        ",
"                        q.1&;.;Zt@;*;**B                        ",
"                        jffaghgBggaggggB                        ",
"                        w99N79wiw99Bw9i;                        ",
"                        ;*;M7;;*<<&c9<*;                        ",
"                        <;<S9*.;&;;N9;<=                        ",
"                        ggaBggggajaBjlag                        ",
"                        wwtww97c7i9999wZ                        ",
"                        9;***&@c9*;**;;M                        ",
"                        9@<*;*;Nq*;;;;;M                        ",
"                        gjajgjaNlgajlhgM                        ",
"                        w70Mww7y0y2M0r00                        ",
"                        *;<Zu;@o=&<M0===                        ",
"                        *2oB7;=&===M>6=2                        ",
"                        zjgBgggagggZgggz                        ",
"                        2www77wNyrw0w00M                        ",
"                        0=7&+=&N0=&=+==M                        ",
"                        0.<&=o;Zr$;&===M                        ",
"                        gggggggBgggggggZ                        ",
"                        w99N79wiw07Bwwu=                        ",
"                        ;==M7;;*<<&c0<==                        ",
"                        <;1Sw*.;$<=Mw=<=                        ",
"                        ggaBgggggggBgggg                        ",
"                        wwtw9w7c7iw770wZ                        ",
"                        9***;&ocw=*===;N                        ",
"                        9@<;;;=N7;==<&;B                        ",
"                        ggajgggBjggggggM                        "
};
