/* XPM */
static char *dirt_snow[] = {
/* columns rows colors chars-per-pixel */
"64 64 12 1 ",
"  c None",
". c #593D29",
"X c #79553A",
"o c #745844",
"O c #6C6C6C",
"+ c #966C4A",
"@ c #B9855C",
"# c gray53",
"$ c #E3F3F3",
"% c #EEFFFF",
"& c #FBFFFF",
"* c white",
/* pixels */
"                        .X++XX+++#X++@X+                        ",
"                        ++XX.XXX.X.X@.X+                        ",
"                        ++@X.@.X++X.XX+X                        ",
"                        @@XXXXXXX@++X+.X                        ",
"                        .X+.X++O+X@++XX+                        ",
"                        X#++X@@.+@X@@X++                        ",
"                        +X@@XXXXX..XX.++                        ",
"                        X.XXX++X.X+X+XX+                        ",
"                        ++XX++.+XX++@@X@                        ",
"                        +X+X@@X@@XX#XX.@                        ",
"                        @XXX.XX...+X++.X                        ",
"                        X.+XO...XX+.@+X+                        ",
"                        X..X.%.*...*..O.                        ",
"                        .%*.$%%*.%.$$%.%                        ",
"                        $**$%%*$$%.%%***                        ",
"                        **$$%%***%**%***                        ",
"        ++XX++++@@X+.%*****%**%***%%$$***$.XX@++X+X.@++.        ",
"        XX+.X++XX..XO.*****%%%%$$*%%$**$**%..XX+.X#X@++X        ",
"        @.X+XX.X@X++.%**%*%$$%%$*%%$**%%$**.+X+XX@++X@X+        ",
"        +@XX+@X+@X+@.$%%*$$$**$**%%$**%$$$.XXXXXX@+.XXX+        ",
"        +X.++@XX+#X.*$%***%%%*$*%%$**%%$%%$.O.@+XXXXX..X        ",
"        X.X+@X.++X++...*%%%%$***$%$$%%%$%%%%.X@++X@+X@XX        ",
"        #X+@X@.XXX.X.%%%*$$$*%$*$$$*%%$$**%..XX.+X@+X.X+        ",
"        +.+X++X.X@.X..$***%%%%%$**$$*%%$*$**..@+XX.OXXX+        ",
"        +XXXO.XX+@..**$**%%%$$$$**&$**%$*$..X.@X.X++X+.+        ",
"        +X.X+@X+.XX..%**%%%****%%%%$*$$$%%%.X.XXX.@X@+X#        ",
"        XX@X+@X++@X.%%%%***$%%%%%%$**%%$*...++X++.X@+X.X        ",
"        X..XXXXX+@.O.$%%*$$%%%$$$$$*%%$$*%$*.X#+XX@++.X+        ",
"        +XXX.+@XXXXXX.$$%*%$$$%***%$$$$$%%$.@+X@+X@+XX@+        ",
"        +X@X++@XX+X+.**$%%%$%%%$*%%$**%%**%.++X@X.XX+X.@        ",
"        X++@X#X.+XX..%***%*$$$$******%%$**.OX..XX++X.+XX        ",
"        .++@.X+X++@XX.$****%%$$$$$%*$%$***%.+X@@++++XX++        ",
"                        ***%**%***%%$$**                        ",
"                        ***%%.%$$*%%$**$                        ",
"                        %.%$$.%.*%%$.*%.                        ",
"                        .O..*...*.%.X..X                        ",
"                        +X+@.+XX...OX+.X                        ",
"                        X.++X+...XX.XXX@                        ",
"                        @.XX#XX@@X@@X+X+                        ",
"                        @X@@++XX+.++XX++                        ",
"                        +XX+X+X.X++XXX.X                        ",
"                        ++.XX..XXXXX@@X+                        ",
"                        ++X@@X@+.@@X++#X                        ",
"                        +XX++@X+O++X.+X.                        ",
"                        X.+X++@XXXXXXX@@                        ",
"                        X+XX.X++X.@.X@++                        ",
"                        +X.@X.X.XXX.XX++                        ",
"                        +X@++X#+++XX++X.                        ",
"                        @++XX@++XX.XX@X@                        ",
"                        X+.XX+#.X@+X@+..                        ",
"                        @XX.@XXX@XXX..@X                        ",
"                        +O@X+.X@++X+X@+X                        ",
"                        +X+@.+XX+.XOX+.X                        ",
"                        X.++X+...XX.XXX@                        ",
"                        @XXX#XX@@X@@X+X+                        ",
"                        XX@@++XX+.++XX++                        ",
"                        +XX+X+X.X++XXX.X                        ",
"                        X+.XX..XXXXX@@X+                        ",
"                        X+X@@X@+.@@.++#X                        ",
"                        +XX++@X+O++X.+X.                        ",
"                        X.+X++@XXXXXXX@@                        ",
"                        X+XXoX++X.@.X@++                        ",
"                        +X.@X.X.@@X+XX++                        ",
"                        +X@++X#X++XX++X.                        "
};
