/* XPM */
static char *dirt[] = {
/* columns rows colors chars-per-pixel */
"64 64 8 1 ",
"  c None",
". c #593D29",
"X c #79553A",
"o c #745844",
"O c #6C6C6C",
"+ c #966C4A",
"@ c #B9855C",
"# c gray53",
/* pixels */
"                        @++XX@++XX.XX@X@                        ",
"                        X+.XX+#.X@+X@+..                        ",
"                        @XX.@XXX@XXX..@X                        ",
"                        +O@X+.X@++X+X@+X                        ",
"                        +X+@.+XX+.XOX+.X                        ",
"                        X.++X+...XX.XXX@                        ",
"                        @XXX#XX@@X@@X+X+                        ",
"                        XX@@++XX+.++XX++                        ",
"                        +XX+X+X.X++XXX.X                        ",
"                        X+.XX..XXXXX@@X+                        ",
"                        X+X@@X@+.@@.++#X                        ",
"                        +XX++@X+O++X.+X.                        ",
"                        X.+X++@XXXXXXX@@                        ",
"                        X+XXoX++X.@.X@++                        ",
"                        +X.@X.X.@@X+XX++                        ",
"                        +X@++X#X++XX++X.                        ",
"        @++XX@++XX.XX@X@@++XX@++XX.XX@X@@++XX@++XX.XX@X@        ",
"        X+.XX+#.X@+X@+..X+.XX+#.X@+X@+..X+.XX+#.X@+X@+..        ",
"        @XX.@XXX@XXX..@X@XX.@XXX@XXX..@X@XX.@XXX@XXX..@X        ",
"        +O@X+.X@++X+X@+X+O@X+.X@++X+X@+X+O@X+.X@++X+X@+X        ",
"        +X+@.+XX+.XOX+.X+X+@.+XX+.XOX+.X+X+@.+XX+.XOX+.X        ",
"        X.++X+...XX.XXX@X.++X+...XX.XXX@X.++X+...XX.XXX@        ",
"        @XXX#XX@@X@@X+X+@XXX#XX@@X@@X+X+@XXX#XX@@X@@X+X+        ",
"        XX@@++XX+.++XX++XX@@++XX+.++XX++XX@@++XX+.++XX++        ",
"        +XX+X+X.X++XXX.X+XX+X+X.X++XXX.X+XX+X+X.X++XXX.X        ",
"        X+.XX..XXXXX@@X+X+.XX..XXXXX@@X+X+.XX..XXXXX@@X+        ",
"        X+X@@X@+.@@.++#XX+X@@X@+.@@.++#XX+X@@X@+.@@.++#X        ",
"        +XX++@X+O++X.+X.+XX++@X+O++X.+X.+XX++@X+O++X.+X.        ",
"        X.+X++@XXXXXXX@@X.+X++@XXXXXXX@@X.+X++@XXXXXXX@@        ",
"        X+XXoX++X.@.X@++X+XXoX++X.@.X@++X+XXoX++X.@.X@++        ",
"        +X.@X.X.@@X+XX+++X.@X.X.@@X+XX+++X.@X.X.@@X+XX++        ",
"        +X@++X#X++XX++X.+X@++X#X++XX++X.+X@++X#X++XX++X.        ",
"                        @++XX@++XX.XX@X@                        ",
"                        X+.XX+#.X@+X@+..                        ",
"                        @XX.@XXX@XXX..@X                        ",
"                        +O@X+.X@++X+X@+X                        ",
"                        +X+@.+XX+.XOX+.X                        ",
"                        X.++X+...XX.XXX@                        ",
"                        @XXX#XX@@X@@X+X+                        ",
"                        XX@@++XX+.++XX++                        ",
"                        +XX+X+X.X++XXX.X                        ",
"                        X+.XX..XXXXX@@X+                        ",
"                        X+X@@X@+.@@.++#X                        ",
"                        +XX++@X+O++X.+X.                        ",
"                        X.+X++@XXXXXXX@@                        ",
"                        X+XXoX++X.@.X@++                        ",
"                        +X.@X.X.@@X+XX++                        ",
"                        +X@++X#X++XX++X.                        ",
"                        @++XX@++XX.XX@X@                        ",
"                        X+.XX+#.X@+X@+..                        ",
"                        @XX.@XXX@XXX..@X                        ",
"                        +O@X+.X@++X+X@+X                        ",
"                        +X+@.+XX+.XOX+.X                        ",
"                        X.++X+...XX.XXX@                        ",
"                        @XXX#XX@@X@@X+X+                        ",
"                        XX@@++XX+.++XX++                        ",
"                        +XX+X+X.X++XXX.X                        ",
"                        X+.XX..XXXXX@@X+                        ",
"                        X+X@@X@+.@@.++#X                        ",
"                        +XX++@X+O++X.+X.                        ",
"                        X.+X++@XXXXXXX@@                        ",
"                        X+XXoX++X.@.X@++                        ",
"                        +X.@X.X.@@X+XX++                        ",
"                        +X@++X#X++XX++X.                        "
};
