/* XPM */
static char *iron[] = {
/* columns rows colors chars-per-pixel */
"64 64 39 1 ",
"  c None",
". c #B1B1B1",
"X c #B4B4B4",
"o c gray71",
"O c #B7B7B7",
"+ c gray72",
"@ c #B9B9B9",
"# c gray73",
"$ c #BBBBBB",
"% c #BCBCBC",
"& c gray74",
"* c gray",
"= c gray75",
"- c #C3C3C3",
"; c gray77",
": c #C5C5C5",
"> c #C6C6C6",
", c #CACACA",
"< c gray84",
"1 c #D8D8D8",
"2 c gray85",
"3 c gray86",
"4 c gainsboro",
"5 c #DDDDDD",
"6 c gray87",
"7 c gray88",
"8 c #E1E1E1",
"9 c #E6E6E6",
"0 c gray91",
"q c #E9E9E9",
"w c #EAEAEA",
"e c #ECECEC",
"r c gray93",
"t c #EEEEEE",
"y c #EFEFEF",
"u c gray94",
"i c #F1F1F1",
"p c gray95",
"a c #F3F3F3",
/* pixels */
"                        +OOO+::+:::O++++                        ",
"                        ,y9yyyyy999999y+                        ",
"                        +99999999999999+                        ",
"                        +6666666696<<<<O                        ",
"                        :iyyyyyyy999999+                        ",
"                        :99999999999999:                        ",
"                        +666<<6666<6<66.                        ",
"                        :iyy9yy99999999+                        ",
"                        :99999999999999+                        ",
"                        O666666666<6<<6O                        ",
"                        :iiiiiyyyyy9999+                        ",
"                        :99999999999999O                        ",
"                        +6666699666<<<6.                        ",
"                        :iyyiiyiy999999O                        ",
"                        :y999999999y999O                        ",
"                        ++++++++++++OOO.                        ",
"        +OOO+:+::::O+++++OOO+:+::::++++++OO++::+:::OOO++        ",
"        ,99yyyyy999999y+,99yyyyy9999999:,y99yyyy9999999+        ",
"        :99999999999999+:99999999999999+:99999999999999+        ",
"        O6666666669<<<<OO6666666666<6<<OO6666666696<6<<O        ",
"        +iyiyyyyy999999++iyiyyyyy999999+:yyyyyyyy999999+        ",
"        :99999999999999::99999999999999+:9999999999999y+        ",
"        O666666666<66<6.O6666666966<<6<OO66<6666666<6<<O        ",
"        :yyy99y99999999+:yyy99y99999999+:yyy99y99999999+        ",
"        :99999999999999+:99999999999999+:99999999999999+        ",
"        O666966666<6<<6OO6669666666<<<6O+6666666666<<<6O        ",
"        :iiiiiiy9yy9999+:iiiiiiyyy99999O:iiiiiiyy9y9999+        ",
"        :99999999999999+:99999999999999+:99999y99999999O        ",
"        +666669666<6<<<OO666<69696<6<<6.+6666696666<<<<O        ",
"        :iyiyyiiy999999O:iyyiyiiy999999O:iyyyiyyy999999+        ",
"        :99999999y9y999O:y9y99999999999+:99999y99y9999y+        ",
"        :O+++++O++++OO.O++++++++++++.OOO:++++O++++++.OO+        ",
"                        +OO++::+:::O++++                        ",
"                        ,y99yyyy999999y+                        ",
"                        :99999999999999+                        ",
"                        O6666666696<<<<O                        ",
"                        :yyyyyyyy999999+                        ",
"                        :99999999999999:                        ",
"                        O66<666666<6<66.                        ",
"                        :yyy99y99999999+                        ",
"                        :99999999999999+                        ",
"                        +666666666<6<<6O                        ",
"                        :iiiiiiyyyy9999+                        ",
"                        :99999y99999999O                        ",
"                        +6666669666<<<6.                        ",
"                        :iyyiiiiy999999O                        ",
"                        :9999999999y999O                        ",
"                        :+++++++++++OOO.                        ",
"                        +OOO+::+:::O+O++                        ",
"                        ,y9yyyyy999999y+                        ",
"                        +99999999999999+                        ",
"                        +66666666666<<<O                        ",
"                        :iyyyyyyy999999:                        ",
"                        :99999999999999+                        ",
"                        +666<<66666<<<6O                        ",
"                        :iyy9yy99999999+                        ",
"                        :99999999999999+                        ",
"                        O666666669<<<<6O                        ",
"                        :iiiiiyyy9y9999+                        ",
"                        :9999999999999y+                        ",
"                        +666669966<6<<<O                        ",
"                        :iyyiiyiy999999O                        ",
"                        :y99999y9999999O                        ",
"                        ++++++O+++++.OOO                        "
};
