/* XPM */
static char *lava[] = {
/* columns rows colors chars-per-pixel */
"64 64 253 2 ",
"   c None",
".  c #973F1A",
"X  c #AF2F00",
"o  c #A73100",
"O  c #A83000",
"+  c #AB3200",
"@  c #AD3100",
"#  c #A22E17",
"$  c #AE2C14",
"%  c #A32D19",
"&  c #B02C18",
"*  c #A33713",
"=  c #AC3E19",
"-  c #AE1927",
";  c #A41A29",
":  c #A01A2D",
">  c #9B2126",
",  c #893037",
"<  c #953C30",
"1  c #B93227",
"2  c #B73E21",
"3  c #BD3B21",
"4  c #B93E21",
"5  c #BA3C24",
"6  c #B33328",
"7  c #B8322B",
"8  c #BF2734",
"9  c #BB2A31",
"0  c #BD2836",
"q  c #C61800",
"w  c #C61D00",
"e  c #C81800",
"r  c #CC1900",
"t  c #CD1B00",
"y  c #CF1A00",
"u  c #CC1C00",
"i  c #CC1D00",
"p  c #D11100",
"a  c #D61100",
"s  c #D91200",
"d  c #D81500",
"f  c #DC1500",
"g  c #D01A00",
"h  c #D51B00",
"j  c #C02300",
"k  c #CB2000",
"l  c #CD2400",
"z  c #C82A00",
"x  c #CB2A00",
"c  c #DC2700",
"v  c #D72F00",
"b  c #D32B07",
"n  c #DA2802",
"m  c #DC2D00",
"M  c #DD2E00",
"N  c #DE2F00",
"B  c #CD3800",
"V  c #D33103",
"C  c #D53103",
"Z  c #D13500",
"A  c #D03600",
"S  c #D13700",
"D  c #D83100",
"F  c #D93300",
"G  c #DC3200",
"H  c #D83500",
"J  c #DA3500",
"K  c #DF3600",
"L  c #D63F00",
"P  c #D93800",
"I  c #DA3900",
"U  c #DC3800",
"Y  c #DC3900",
"T  c #D83C00",
"R  c #D13208",
"E  c #CD3E16",
"W  c #CF381B",
"Q  c #CC3A1B",
"!  c #E62401",
"~  c #ED2500",
"^  c #EE2607",
"/  c #E12A00",
"(  c #E62800",
")  c #E62900",
"_  c #E42B00",
"`  c #E52B00",
"'  c #E62A00",
"]  c #E72B00",
"[  c #E22D00",
"{  c #E32E00",
"}  c #E62C00",
"|  c #E62D00",
" . c #E42E00",
".. c #E52F00",
"X. c #E82900",
"o. c #E82A00",
"O. c #E82E00",
"+. c #F02202",
"@. c #F02203",
"#. c #E13000",
"$. c #E33000",
"%. c #E03200",
"&. c #E03300",
"*. c #E53200",
"=. c #E63200",
"-. c #E33400",
";. c #E23500",
":. c #E23700",
">. c #E43400",
",. c #E83000",
"<. c #E23B00",
"1. c #CE3822",
"2. c #824808",
"3. c #BE4200",
"4. c #BA4400",
"5. c #B94800",
"6. c #B45200",
"7. c #AC431C",
"8. c #B6431C",
"9. c #BC401F",
"0. c #BB441E",
"q. c #B6402A",
"w. c #B26C27",
"e. c #C04A00",
"r. c #C6430F",
"t. c #C4480D",
"y. c #D24600",
"u. c #C64211",
"i. c #C74710",
"p. c #C94112",
"a. c #C94B11",
"s. c #F34E04",
"d. c #F64E05",
"f. c #F84D00",
"g. c #FD4E05",
"h. c #FF4D07",
"j. c #F74D0A",
"k. c #FB4F09",
"l. c #FA4D0B",
"z. c #FF4C0B",
"x. c #FD4C0C",
"c. c #E45E00",
"v. c #EA5900",
"b. c #ED5800",
"n. c #EE5A00",
"m. c #EB5C00",
"M. c #EC5D00",
"N. c #ED5B06",
"B. c #F25200",
"V. c #F35300",
"C. c #F25500",
"Z. c #F55400",
"A. c #F45401",
"S. c #F75304",
"D. c #F85200",
"F. c #F95206",
"G. c #FC5404",
"H. c #FF5405",
"J. c #F05A00",
"K. c #F15A00",
"L. c #F65902",
"P. c #F55A02",
"I. c #F15D00",
"U. c #F25D00",
"Y. c #F05F00",
"T. c #F35A04",
"R. c #F95A01",
"E. c #FC5B05",
"W. c #FF5C07",
"Q. c #FC500A",
"!. c #F9530D",
"~. c #F8520E",
"^. c #FD530D",
"/. c #EC5312",
"(. c #E85114",
"). c #EE5114",
"_. c #EB5518",
"`. c #FA5611",
"'. c #D66C00",
"]. c #D76E00",
"[. c #DA6D00",
"{. c #C77404",
"}. c #CF7000",
"|. c #DB7200",
" X c #DD7700",
".X c #D1700A",
"XX c #CF7018",
"oX c #E46000",
"OX c #E46100",
"+X c #E46300",
"@X c #E36500",
"#X c #EC6300",
"$X c #EA6600",
"%X c #E66800",
"&X c #E06E00",
"*X c #E16F00",
"=X c #EB6800",
"-X c #F06200",
";X c #F16200",
":X c #CF5D39",
">X c #C0602E",
",X c #CB6B2F",
"<X c #FF7C22",
"1X c #FF7F23",
"2X c #FF7C24",
"3X c #FF7D24",
"4X c #FF7F27",
"5X c #FF762D",
"6X c #FF7829",
"7X c #FC8F07",
"8X c #FF8D0D",
"9X c #F99301",
"0X c #FD9906",
"qX c #FE9108",
"wX c #FF8715",
"eX c #FF8618",
"rX c #FF851B",
"tX c #FF841C",
"yX c #FF861C",
"uX c #FF8E1C",
"iX c #FF8221",
"pX c #FF8123",
"aX c #FF8124",
"sX c #FF8921",
"dX c #FF842B",
"fX c #FF862F",
"gX c #E99E2B",
"hX c #ED9C35",
"jX c #E9A226",
"kX c #FFAD3D",
"lX c #FFBF31",
"zX c #FFB13F",
"xX c #FFBB3A",
"cX c #FFBB3D",
"vX c #FFB83F",
"bX c #FFBF3D",
"nX c #FFC62F",
"mX c #FFC82F",
"MX c #FFC130",
"NX c #FFC534",
"BX c #FFCA34",
"VX c #FFC23E",
"CX c #FFCC3C",
"ZX c #E88C51",
"AX c #FFA743",
"SX c #FFA844",
"DX c #FFB541",
"FX c #FFB641",
"GX c #FFB147",
"HX c #FFB446",
"JX c #FFBB42",
"KX c #FFB34A",
"LX c #FFC641",
/* pixels */
"                                                2.gXjX{.5.@ @ @ 4.e..X6.4.@ o .                                                 ",
"                                                w.LXLX'.V M w V M m.VX[.V M q $                                                 ",
"                                                >XuXcXoXk ( &.x.H T.MXqXz ( ! 1.                                                ",
"                                                7 &.G.y.T.m.wXFX=X=X[.*XoXm.( W                                                 ",
"                                                0 f &.W.AX;XoX=XeXkX%XJXJXuXx.E                                                 ",
"                                                0 ( 1XSXW.h.r H &.&.x 6XpXT.D.r.                                                ",
"                                                - ( c.y.H ( p p @.@.( D.H Y 6Xa.                                                ",
"                                                ; q V m.9X'.f r oXoXH g &.1XJXhX                                                ",
"                                                ; r x.pXFX8X^ &.eXFX`.e M D.$XXX                                                ",
"                                                9 ^ &.x.G.G.@.( ;XKXQ.g r &.d.r.                                                ",
"                                                1 x.G.H Y Y f ( D.T.x.H y.1XQ.p.                                                ",
"                                                = uXcX[. X9XQ.( &.( ( D.0XBXpXi.                                                ",
"                                                7.KXLX XMXMX5X&.g o.o.W.nXnXT.u.                                                ",
"                                                6 ~.1Xm.T.D.x.&.D.D.&.h.eX$XH Q                                                 ",
"                                                > R _.A X M V (.fXdX/.Y ).V v &                                                 ",
"                                                , 5 :X8.5 5 # * ZX,Xq.3 3 2 % <                                                 ",
"                2.gXjX{.4.@ o @ 4.e..X6.4.@ o . 2.jXjX{.5.X o @ 4.5..X6.5.@ o 7.2.jXjX{.5.X o @ 4.e..X6.4.@ o .                 ",
"                w.LXCX'.V c w v H m.VX[.V M q $ w.VXCX'.A n w v M m.VX'.B k q $ w.LXCX'.A c w M H m.JX[.A v w $                 ",
"                >XuXcXoXk ( &.Q.&.T.MXqXz ( ! 1.:XuXcX$Xk ! &.x.H T.MXqXz ( ! 1.w.pXcXoXk ( H x.Y T.MX8Xz ( ! 1.                ",
"                7 H D.T T.m.wXvX$X$X[.*XoXm.( W 7 H G.Y m.m.wXvX=X=X%X XoXm.( Q 7 &.D.T T.m.wXvX=X=X[.*XoXm.( W                 ",
"                0 p &.W.AX$Xc.$XeXkX%XJXJXuXx.E 9 p &.;XAX$X$X$XuXkX=XFXJXeXx.E 1.a #.`.kX$Xc.$XwXkX=XFXJXeXx.E                 ",
"                0 ^ 1XAXW.h.k M &.&.x 6XpXT.D.r.0 ( 6XSXW.h.r H ( &.x pXpXT.G.u.0 ! 6XSXW.h.r M &.&.x pXpXT.G.u.                ",
"                - M b.y.&.( p p @.@.( D.H Y 6Xa.- ( b.y.&.( p p @.^ M d.Y <.6Xa.- ( m.y.<.( p p @.^ H d.H <.5Xa.                ",
"                ; e H $XqX}.f r oXoXH g &.1XJXhX; e H $XqX}.p r c.oXH r H 1XJXhX: r V m.qX}.f r m.oXH p &.1XcXhX                ",
"                ; r j.1XFX8X^ &.eXFX`.e M D.$XXX; r j.pXFX8X^ ( eXFX~.r H G.$XXX; r j.1XFX8X^ ( eXKX`.g M D.$XXX                ",
"                9 ( ,.h.G.D.@.( ;XKXQ.g r &.d.r.9 ( ,.h.G.D.^ ( ;XKXQ.r r &.d.t.9 ( &.h.G.G.^ &.;XKXQ.g r &.G.t.                ",
"                1 x.G.Y H Y f ( D.T.x.H y.1XQ.p.1 x.G.Y Y Y f ( D.T.x.H T 1XQ.p.1 x.G.Y H H f ( D.T.x.H y.1XQ.p.                ",
"                = sXcX[. X9Xx.&.&.( ( D.0XBXpXi.= sXcX[. X9Xx.( ( ( &.D.0XBXpXa.= sXcX[. X7Xx.( ( ( &.D.9XBXpXr.                ",
"                7.KXVX XMXMX5X( g o.o.W.nXnXT.u.7.KXVX XMXMX5X&.g o.! W.MXmXT.r.7.KXVX XMXMX5X&.g ( ( T.MXBXT.u.                ",
"                6 `.pXm.T.T.x.&.D.D.&.h.eX$XH Q 6 `.pXm.T.T.x.&.D.G.&.G.uXm.&.Q 6 `.pXm.T.T.x.&.D.D.&.G.eX;X&.Q                 ",
"                > R _.B X V V (.fXdX/.Y ).V v & > R _.B X V V (.dXdX/.H /.A v & > R _.B X M V /.fXdX~.H /.B b &                 ",
"                , q.:X8.1.5 # * ZX,Xq.3 3 2 % < , q.:X8.1.5 # * ZX,X9.5 5 5 % < , q.:X9.5 5 # * ZX,X9.5 9.5 % <                 ",
"                                                2.jXjX{.5.X o @ 4.e..X6.4.X o .                                                 ",
"                                                w.LXCX'.A c w M H N.VX'.V M q $                                                 ",
"                                                w.pXcXoXk ( H x.&.T.MX7Xz ( ! 1.                                                ",
"                                                7 &.D.T T.m.wXvX=X%X%X X[.m.( W                                                 ",
"                                                1.a #.`.kX$Xc.$XeXkX$XFXJXuXx.E                                                 ",
"                                                0 ! 6XSXW.h.r M ( &.x 1X1XD.D.r.                                                ",
"                                                - ( m.y.<.( p p @.^ M d.H <.5Xa.                                                ",
"                                                : r V m.qX}.f r oXoXH g &.1XJXhX                                                ",
"                                                ; r j.1XFX8X^ ( eXFX`.e H G.$XXX                                                ",
"                                                9 ( &.h.G.G.^ &.;XKXQ.r r &.h.r.                                                ",
"                                                1 x.G.Y H H f ( D.T.x.H y.1XQ.p.                                                ",
"                                                = sXJX[. X7Xx.( ( o.&.D.0XBXpXp.                                                ",
"                                                7.KXLX XMXMX5X&.g o.o.W.nXmX$Xu.                                                ",
"                                                6 ~.pXm.T.T.x.&.D.D.&.h.eXm.( Q                                                 ",
"                                                > R /.A X M V /.fXdX/.Y /.T x &                                                 ",
"                                                , q.:X9.5 5 # * ZX,X9.5 9.5 % <                                                 ",
"                                                2.jXjX{.4.@ o @ 4.e..X6.5.o o 7.                                                ",
"                                                w.LXCX'.V M w v H m.cX'.B k q $                                                 ",
"                                                >XuXcXoXk o.H Q.&.T.lX8Xz ( ! 1.                                                ",
"                                                7 H D.Y T.m.wXFX=X%X X*XoXm.( W                                                 ",
"                                                1.a <.W.SX;XoX=XuXkX=XFXJXuXx.E                                                 ",
"                                                0 ! 6XSXW.d.k ( ( &.x pXpXT.G.r.                                                ",
"                                                : ! N.y.&.o.p p @.^ M d.Y Y 6Xa.                                                ",
"                                                : e V m.9X}.f r c.oXH r ( 1XcXhX                                                ",
"                                                ; r j.1XFXqX^ ( eXFX~.r H G.$XXX                                                ",
"                                                9 ( o.h.G.G.@.&.;XKXQ.r r &.d.t.                                                ",
"                                                1 x.G.H Y Y f ( D.T.x.H T 1XQ.p.                                                ",
"                                                7.sXJX'. X9Xx.( ( ( &.D.0XBXpXa.                                                ",
"                                                7.KXVX XlXMX5X&.g ( o.T.MXMXT.u.                                                ",
"                                                1 ~.pXm.T.D.x.&.D.D.,.h.eX$X&.Q                                                 ",
"                                                > R _.B X M V /.fXfX/.H /.B v &                                                 ",
"                                                , q.:X8.5 5 * * ZX,X8.Q q.5 % <                                                 "
};
