/* XPM */
static char *mystery_box[] = {
/* columns rows colors chars-per-pixel */
"64 64 147 2 ",
"   c None",
".  c #241400",
"X  c #201A0E",
"o  c #2C1F0D",
"O  c #361E00",
"+  c #3A1F00",
"@  c #2F220C",
"#  c #342001",
"$  c #3A2100",
"%  c #3F2904",
"&  c #32240D",
"*  c #3D2B0E",
"=  c #2D2413",
"-  c #2D2018",
";  c #3E2A11",
":  c #3B331F",
">  c #362327",
",  c #3F2025",
"<  c #3F242F",
"1  c #392530",
"2  c #442A02",
"3  c #492B00",
"4  c #402C0B",
"5  c #4F3407",
"6  c #4A300F",
"7  c #51360B",
"8  c #53380D",
"9  c #453214",
"0  c #4C3313",
"q  c #4F3912",
"w  c #46361C",
"e  c #432326",
"r  c #432429",
"t  c #443425",
"y  c #4D3F25",
"u  c #7E5817",
"i  c #7F5719",
"p  c #7E5919",
"a  c #4F4126",
"s  c #4D422C",
"d  c #524329",
"f  c #5E4D2F",
"g  c #4F4431",
"h  c #5E523C",
"j  c #604D2F",
"k  c #7D5727",
"l  c #775927",
"z  c #795920",
"x  c #72572C",
"c  c #7C572A",
"v  c #75592B",
"b  c #7B5C2B",
"n  c #655133",
"m  c #6A5536",
"M  c #67563C",
"N  c #6A563B",
"B  c #6D5A39",
"V  c #795E33",
"C  c #72593D",
"Z  c #7E622F",
"A  c #7A633A",
"S  c #8E5E15",
"D  c #815A1B",
"F  c #8A5F1D",
"G  c #95620F",
"H  c #8F6214",
"J  c #8E641B",
"K  c #936413",
"L  c #9C6A17",
"P  c #936418",
"I  c #9D6C1B",
"U  c #9E711E",
"Y  c #A16B17",
"T  c #A16D1C",
"R  c #A1701D",
"E  c #875F21",
"W  c #895F22",
"Q  c #866224",
"!  c #8B6524",
"~  c #84642D",
"^  c #8F6B2D",
"/  c #966B24",
"(  c #9B6D23",
")  c #936D2C",
"_  c #9A6D29",
"`  c #997021",
"'  c #9D7021",
"]  c #9F7022",
"[  c #9E7122",
"{  c #9B7127",
"}  c #9C7125",
"|  c #9E7025",
" . c #9D7023",
".. c #98702A",
"X. c #836330",
"o. c #826636",
"O. c #826637",
"+. c #846536",
"@. c #836534",
"#. c #8A6434",
"$. c #8A6A31",
"%. c #886835",
"&. c #8A6A37",
"*. c #8E6E35",
"=. c #8E6D36",
"-. c #8D6E36",
";. c #8C6C35",
":. c #856638",
">. c #85653A",
",. c #916D31",
"<. c #916D31",
"1. c #9D7434",
"2. c #9D7532",
"3. c #93723D",
"4. c #92733D",
"5. c #94733C",
"6. c #94733E",
"7. c #93733D",
"8. c #A57523",
"9. c #A47327",
"0. c #A37424",
"q. c #A27427",
"w. c #A37627",
"e. c #A57425",
"r. c #A47525",
"t. c #A67624",
"y. c #A77725",
"u. c #A47527",
"i. c #A67526",
"p. c #A57524",
"a. c #A87423",
"s. c #A07529",
"d. c #A27429",
"f. c #A17628",
"g. c #A3752A",
"h. c #A0762A",
"j. c #A1762A",
"k. c #A4742A",
"l. c #A5752B",
"z. c #A2762D",
"x. c #A1762B",
"c. c #A07530",
"v. c #A17632",
"b. c #A17631",
"n. c #897047",
"m. c #8B7347",
"M. c #8A7247",
/* pixels */
"                                                X = = o @ @ & & & & @ @ @ = = =                                                 ",
"                                                & B O.~ Z z X.X.z ! -.z p v A w                                                 ",
"                                                O x ! K J ' ( l.K { f.f.{ _ ~ 8                                                 ",
"                                                $ >.( ( G K K K K t.I f.t.l.3.8                                                 ",
"                                                O b / I T L L L L L I T U ` -.6                                                 ",
"                                                # Z ..R T I K K G K q.y.U ' *.7                                                 ",
"                                                O v J q.I K K K U I y.K K ! X.5                                                 ",
"                                                O O.1.l.q.( ( q.l.P ( y.f.f.5.8                                                 ",
"                                                O x F S S S H P H H S S F F W 8                                                 ",
"                                                o M M M m n f f f n m m n B h t                                                 ",
"                                                . * * 2 2 2 2 2 2 2 2 2 2 2 * 9                                                 ",
"                                                O V W W W D p ! D ! ! D p z x 7                                                 ",
"                                                + -.^ I P ( ( ' ( ( / ( P _ -.7                                                 ",
"                                                + 3.1.I ' l.t.{ ' ' K K K ! 3.8                                                 ",
"                                                + n.-.W _ Q Q Q Q Q _ -.~ *.m.q                                                 ",
"                                                : g d y d d d a d d s a d a s a                                                 ",
"                = w 7 8 8 5 5 8 8 w 9 w 5 7 8 y + 2 3 2 3 3 2 3 3 3 3 3 3 3 2 # : O + + O . o O # # # + $ # # X                 ",
"                = A ~ 3.-.-.~ 3.~ M * x -.5.m.s 2 b W W W W p p p p p W D ~ b % g n.3.#.V * h l >.v Z b O.v B =                 ",
"                = b ..f.I ' ! 1.F M 4 z / / <.y w O.! S S K ( ' l.l._ ] ( 1.>.2 d -.c._ W 4 M W 1.! _ / ..! o.@                 ",
"                & z { t.I U K l.S n 3 p / P ~ d 6 b / I I I I I I I I I I ( ~ 2 d ! I / W 2 M S l.q.R I U H X.@                 ",
"                & z f.t.Y q.K l.S m 3 D P K -.a 6 x P K L y.y.G q.G G T T _ O.2 d _ ( / W 2 m S ] I R L G H ~ @                 ",
"                & ~ f.I I y.q.I S n 5 ~ ' P <.d 6 c ( T R R R K U I T R K P k $ d ~ l.P D 2 n S ] K I I K ' z &                 ",
"                & X.f.q.L K U J S n 2 ! I ' Q d 7 %.l.R R y.t.K K G T y.q.1.O.4 d Q f.I p 2 f H ] K K L K ' X.&                 ",
"                & z P K L G U q.H f 2 p ( ' Q d w ~ ( Y T Y L T Y T G T I ( ~ 2 d Q f.( ! 2 f P q.K H L K l.X.&                 ",
"                & ~ l.K L H H q.K f 2 ! ( q.Q a w %.l.q.y.T G R y.R R R y.v.o.2 d Q ' ( p 2 f H q.U K L K J p &                 ",
"                & ~ q.K L G K ' J j 2 p ( t.Q d 6 z J K G y.R R G G G L y.P z 2 d Q U I ~ 2 n S K U K L q.t.o.&                 ",
"                @ p ( K I T K ] S n 2 D P l.! d 6 O...R q.y.K G K K U R T _ Z 2 d <.J ' ! 3 B S ( q.t.I K f.o.&                 ",
"                @ Z H G Y T I ] S M 3 D / ( _ d 6 Z ( I I I K I L L L L I / b 2 a -.K P D 3 m S q.K t.T l.f.p @                 ",
"                @ X.J I I R q.l.S M 2 W / I ~ d 0 >.l.q.y.P q.K K H K G T ( >.2 a _ H / D 3 n P l.K I I t.f.z @                 ",
"                & A ! ( / ..! 1.W M 4 W _ c.-.d w b ^ l.l.l.l.S ..' ( H J ! v % s <.! / p 4 M D c./ ' ( f./ b =                 ",
"                = B v o.b Z v O.b h * V #.3.n.g t C c c k %.%.k -.%.k O.O.>.C ; s m.5.%.x ; M ~ 3.~ -.-.3.O.A =                 ",
"                X @ # $ + # O O + o . O + + O : 1 1 r r e e e e e e e e e r < > y 7 7 7 w 9 w 7 8 5 7 7 8 q 0 -                 ",
"                                                a s d d a d d d y d d d d d g :                                                 ",
"                                                7 m.*.~ ..<.Q Q ! ! ! <.! -.n.O                                                 ",
"                                                8 5.! K H J ' ' q.l.q.' I 1.m.+                                                 ",
"                                                8 o._ P / ` ( I I I I P I _ -.+                                                 ",
"                                                q v p p D ! ! D W D p W W W V O                                                 ",
"                                                9 * 4 2 2 2 2 2 2 2 2 2 2 4 ; .                                                 ",
"                                                t h B n m m M f j j n m M M h o                                                 ",
"                                                8 W F F S S S H S S S S S W x O                                                 ",
"                                                8 3.f.f.l.( K l.l.( ( q.y.1.O.+                                                 ",
"                                                5 ~ ! K K y.I U K K K I q.! v O                                                 ",
"                                                7 *.' U y.q.G K G K T T R _ Z #                                                 ",
"                                                6 -.' R T I L L L L L I I / b O                                                 ",
"                                                8 3.f.y.q.I q.K K K K K U / O.$                                                 ",
"                                                7 ~ ....l.f.f.P l.' U H H ! v #                                                 ",
"                                                w A v p p o.~ z X.X.z Z X.o.B @                                                 ",
"                                                - = @ & @ & & & & & & & @ @ = X                                                 ",
"                                                $ 2 3 3 2 3 2 3 3 3 3 3 3 3 3 O                                                 ",
"                                                2 V W D W W u u p p D W D W v 2                                                 ",
"                                                w O.! P P P ' ' l.l._ ] ( 1.O.2                                                 ",
"                                                6 V / I I I I T I I I T / _ O.2                                                 ",
"                                                6 k J K G y.y.G q.G G T T _ ~ 2                                                 ",
"                                                6 z ( R T T y.K U I T R K J b $                                                 ",
"                                                w >.c.T y.y.y.G G K Y y.q.1.O.4                                                 ",
"                                                6 W ( I T Y G T Y Y L T ( _ W 2                                                 ",
"                                                w O.c.y.y.T K y.R R R R R v.-.2                                                 ",
"                                                6 b J K K y.R R K K G R y.P z 2                                                 ",
"                                                8 X._ I y.y.K K G H U R T _ Z %                                                 ",
"                                                6 c ( T T G G I L L L L I / b 2                                                 ",
"                                                0 >.l.q.y.I ] K K H K H I _ O.2                                                 ",
"                                                t c _ f._ _ l.P ..' ' J P ! v 2                                                 ",
"                                                t C V k E >.>.E -.%.k W %.>.C ;                                                 ",
"                                                1 1 r e e r r e e e e e , < < >                                                 "
};
