/* XPM */
static char *obsidienne[] = {
/* columns rows colors chars-per-pixel */
"64 64 6 1 ",
"  c None",
". c #070707",
"X c gray20",
"o c gray34",
"O c gray39",
"+ c #979797",
/* pixels */
"                        oXXXXo++.+oXXXXo                        ",
"                        oo++++++X+++.ooX                        ",
"                        o.XX.XXX+Xooo+oo                        ",
"                        o+ooo.o+ooXXXXXo                        ",
"                        o++XXXXXXX+++++.                        ",
"                        XXoooXXXo.ooXX.o                        ",
"                        ++oOoX++oooo+++.                        ",
"                        oooXXXXXX.XXXXoo                        ",
"                        o++.+Xooo+++++++                        ",
"                        oXXXXXXo.ooXXX+o                        ",
"                        oo+XX++X.X+++ooo                        ",
"                        .oooXooo++ooo++.                        ",
"                        oXXXXXXX++XXXXXo                        ",
"                        o+X+.ooXXX.Xoo++                        ",
"                        oooXXXXXoo++oXXo                        ",
"                        XXXX.++ooooXXXoo                        ",
"        oXXXXo++.+oXXXXooXXXXo++.+oXXXXooXXXXo++.+oXXXXo        ",
"        oo++++++X+++.ooXoo++++++X+++.ooXoo++++++X+++.ooX        ",
"        o.XX.XXX+Xooo+ooo.XX.XXX+Xooo+ooo.XX.XXX+Xooo+oo        ",
"        o+ooo.o+ooXXXXXoo+ooo.o+ooXXXXXoo+ooo.o+ooXXXXXo        ",
"        o++XXXXXXX+++++.o++XXXXXXX+++++.o++XXXXXXX+++++.        ",
"        XXoooXXXo.ooXX.oXXoooXXXo.ooXX.oXXoooXXXo.ooXX.o        ",
"        ++oOoX++oooo+++.++oOoX++oooo+++.++oOoX++oooo+++.        ",
"        oooXXXXXX.XXXXoooooXXXXXX.XXXXoooooXXXXXX.XXXXoo        ",
"        o++.+Xooo+++++++o++.+Xooo+++++++o++.+Xooo+++++++        ",
"        oXXXXXXo.ooXXX+ooXXXXXXo.ooXXX+ooXXXXXXo.ooXXX+o        ",
"        oo+XX++X.X+++ooooo+XX++X.X+++ooooo+XX++X.X+++ooo        ",
"        .oooXooo++ooo++..oooXooo++ooo++..oooXooo++ooo++.        ",
"        oXXXXXXX++XXXXXooXXXXXXX++XXXXXooXXXXXXX++XXXXXo        ",
"        o+X+.ooXXX.Xoo++o+X+.ooXXX.Xoo++o+X+.ooXXX.Xoo++        ",
"        oooXXXXXoo++oXXooooXXXXXoo++oXXooooXXXXXoo++oXXo        ",
"        XXXX.++ooooXXXooXXXX.++ooooXXXooXXXX.++ooooXXXoo        ",
"                        oXXXXo++.+oXXXXo                        ",
"                        oo++++++X+++.ooX                        ",
"                        o.XX.XXX+Xooo+oo                        ",
"                        o+ooo.o+ooXXXXXo                        ",
"                        o++XXXXXXX+++++.                        ",
"                        XXoooXXXo.ooXX.o                        ",
"                        ++oOoX++oooo+++.                        ",
"                        oooXXXXXX.XXXXoo                        ",
"                        o++.+Xooo+++++++                        ",
"                        oXXXXXXo.ooXXX+o                        ",
"                        oo+XX++X.X+++ooo                        ",
"                        .oooXooo++ooo++.                        ",
"                        oXXXXXXX++XXXXXo                        ",
"                        o+X+.ooXXX.Xoo++                        ",
"                        oooXXXXXoo++oXXo                        ",
"                        XXXX.++ooooXXXoo                        ",
"                        oXXXXo++.+oXXXXo                        ",
"                        oo++++++X+++.ooX                        ",
"                        o.XX.XXX+Xooo+oo                        ",
"                        o+ooo.o+ooXXXXXo                        ",
"                        o++XXXXXXX+++++.                        ",
"                        XXoooXXXo.ooXX.o                        ",
"                        ++oOoX++oooo+++.                        ",
"                        oooXXXXXX.XXXXoo                        ",
"                        o++.+Xooo+++++++                        ",
"                        oXXXXXXo.ooXXX+o                        ",
"                        oo+XX++X.X+++ooo                        ",
"                        .oooXooo++ooo++.                        ",
"                        oXXXXXXX++XXXXXo                        ",
"                        o+X+.ooXXX.Xoo++                        ",
"                        oooXXXXXoo++oXXo                        ",
"                        XXXX.++ooooXXXoo                        "
};
