/* XPM */
static char *spawner[] = {
/* columns rows colors chars-per-pixel */
"64 64 167 2 ",
"   c None",
".  c #060606",
"X  c #070508",
"o  c #0B050C",
"O  c #0C090D",
"+  c #100E0F",
"@  c #0F0511",
"#  c #0E0A10",
"$  c #120614",
"%  c #140B14",
"&  c #1B061A",
"*  c #170B19",
"=  c #1B0D1C",
"-  c #121113",
";  c #161218",
":  c #1B131C",
">  c #1D191E",
",  c #200F1E",
"<  c #20161F",
"1  c #1E201D",
"2  c #1F0C20",
"3  c #1E1521",
"4  c #1E1C21",
"5  c #220E22",
"6  c #221624",
"7  c #241B25",
"8  c #291F26",
"9  c #261628",
"0  c #2A152C",
"q  c #271B29",
"w  c #2B1C2C",
"e  c #321F26",
"r  c #301C2D",
"t  c #2E1B30",
"y  c #311B32",
"u  c #252325",
"i  c #292226",
"p  c #272529",
"a  c #2A222B",
"s  c #2D2B2D",
"d  c #31252D",
"f  c #312D2E",
"g  c #34312E",
"h  c #2F2131",
"j  c #2F2D31",
"k  c #322634",
"l  c #382736",
"z  c #322A33",
"x  c #392D37",
"c  c #352738",
"v  c #38273B",
"b  c #372A39",
"n  c #3B2B3D",
"m  c #333334",
"M  c #3A3634",
"N  c #3A3936",
"B  c #373739",
"V  c #3A343A",
"C  c #3A393B",
"Z  c #540F16",
"A  c #42151D",
"S  c #4B151B",
"D  c #41363F",
"F  c #403E3D",
"G  c #41413F",
"H  c #3F2F41",
"J  c #412E42",
"K  c #423444",
"L  c #473549",
"P  c #4A3D4B",
"I  c #4F3852",
"U  c #454544",
"Y  c #4C404D",
"T  c #4F4251",
"R  c #514353",
"E  c #584757",
"W  c #5C465E",
"Q  c #574959",
"!  c #5A4B5B",
"~  c #5D515D",
"^  c #5E4461",
"/  c #5F4E60",
"(  c #5F5361",
")  c #614C61",
"_  c #635465",
"`  c #685267",
"'  c #655867",
"]  c #665768",
"[  c #685769",
"{  c #665969",
"}  c #6C5D6D",
"|  c #725362",
" . c #6D5F70",
".. c #735F73",
"X. c #6B606C",
"o. c #6F6271",
"O. c #746474",
"+. c #746876",
"@. c #766478",
"#. c #79677B",
"$. c #776B79",
"%. c #7B6D7C",
"&. c #7E717F",
"*. c #88616E",
"=. c #896876",
"-. c #876979",
";. c #7E6E80",
":. c #7F7181",
">. c #806D81",
",. c #817082",
"<. c #817384",
"1. c #847385",
"2. c #877487",
"3. c #847385",
"4. c #8A7487",
"5. c #867887",
"6. c #877588",
"7. c #8A728A",
"8. c #8D758D",
"9. c #8A748A",
"0. c #877889",
"q. c #8B7A8C",
"w. c #9B7483",
"e. c #8F7290",
"r. c #8F7290",
"t. c #937D96",
"y. c #948295",
"u. c #9D859D",
"i. c #9A8B9A",
"p. c #998B9C",
"a. c #9D899D",
"s. c #9B8A9C",
"d. c #A68392",
"f. c #A58DA6",
"g. c #A592A6",
"h. c #A698A7",
"j. c #A797A8",
"k. c #AA95AB",
"l. c #A799A8",
"z. c #AC9BAD",
"x. c #AF9CB1",
"c. c #B49CB4",
"v. c #B89EB7",
"b. c #B79FB9",
"n. c #BB9EBC",
"m. c #BB9DBB",
"M. c #B3A1B4",
"N. c #B5AAB7",
"B. c #BAA2BA",
"V. c #BBA3BB",
"C. c #B9AABB",
"Z. c #BDAFBE",
"A. c #BCAABC",
"S. c #C3A1C3",
"D. c #C2ACC3",
"F. c #CCAECD",
"G. c #C3B7C5",
"H. c #C7B6C7",
"J. c #C2B8C3",
"K. c #CBB2CC",
"L. c #CCB2CD",
"P. c #CBBACB",
"I. c #CFB3D0",
"U. c #D3B3D3",
"Y. c #D4BBD6",
"T. c #D8BBD7",
"R. c #DBBDDB",
/* pixels */
"                                                U M u u u u d d d d u 8 u u N F                                                 ",
"                                                C O o o % = %.p.p.-.= % o o O d                                                 ",
"                                                p o : ; $.%.w * = w %.&.; : O >                                                 ",
"                                                p o : O.: = 6 % % q 2 R %.: o >                                                 ",
"                                                a % %.= w ! _ } } } } E R &.* 4                                                 ",
"                                                : = %.= ! q.N.Z.J.H.P.} , -.T 7                                                 ",
"                                                a 1.w 6 ` S.6 * % 6 H.} 6 w 1.q                                                 ",
"                                                b p.% # } D.% . . % K.} $ % p.t                                                 ",
"                                                w p.* @ } L.+ X . % Z.} % % p.w                                                 ",
"                                                a ;.p 6  .K.4 % = 6 V.` 6 w 1.q                                                 ",
"                                                a = %.= } P.J.J.Z.Z.q.! = &.T 7                                                 ",
"                                                p % $.3 T } } } } _ ! 7 : &.% :                                                 ",
"                                                4 o = +.: = 6 $ $ 6 = = +.; O >                                                 ",
"                                                u o : ; %.%.t = = w %.$.; : O >                                                 ",
"                                                C # # o % = &.p.p.%.= * o o O j                                                 ",
"                                                U B a q a a z z z k a p p p B C                                                 ",
"                C C p a 9 9 y y y y 9 9 w p C U N N u u u 8 d d d d e u u u N N C C a a 9 9 y y y y 9 9 w p B U                 ",
"                j O O o * 2 ;.d.a.;.2 * o o # C z O O o % = %.p.p.-.= % o O O s j O O o = , >.u.p.>.5 & o O O B                 ",
"                > O : : &.%.w 5 5 t %.:.; 3 O p > O : : 3.3.r & = w 3.3.= : O > > O : ; %.%.y 5 5 y %.;.; : O p                 ",
"                : o : :.} = y 7.r.t = } :.* X p : o = 6.B.v.8 $ $ y c.V.3., o : > o = &.} = y 7.7.w = } :.* o p                 ",
"                : % 1. .9 = r.m.m.7.= w  .1.* p 3 % 1.V.T.F.Q 7 q Q F.T.V.1.= 4 : % 1.} w = r.m.m.7.= w } 1.= a                 ",
"                6 = %.= = ..S.S.S.m...: 2 ;. .k 3 = 6.c.L.T.x.w w x.T.I.c.q.I 7 6 : %.= 2 ..m.S.S.m...5 = >. .k                 ",
"                w %.w w 7.B.S.U.U.S.m.7.w t 6.c q :.t y W c.k.& 2 k.x.^ y t 1.9 q :.t t 7.c.S.U.U.S.V.7.w r 1.c                 ",
"                t u.6 7.m.S.U.R.R.U.S.m.7.2 p.c t p.% o 3 w + . X - w 3 o % p.t t u.3 6.S.S.U.R.R.U.S.m.7.5 p.b                 ",
"                w u.5 1.m.S.U.R.R.U.S.V.7.6 u.k w u.% @ 7 q % o X - w 3 @ - p.t w u.2 6.V.S.U.R.R.U.S.m.6.2 p.c                 ",
"                w ;.w w 7.v.S.U.U.S.m.7.w t 1.z w ;.t t W c.l.* & k.x.^ t h :.0 w :.w t 7.c.S.U.U.S.m.7.w t 6.k                 ",
"                3 = %.2 = ..m.S.S.m.O.= = 1. .k 3 2 5.x.L.T.c.w w x.Y.K.c.0.R q 6 = %.2 = ..m.S.S.c...= = 1. .c                 ",
"                3 % 1.o.w = r.m.m.7.= w  .:.* p 4 # 6.V.T.F.Q 7 3 ^ K.T.n.:.2 3 3 % :.} w : r.m.V.7.= w  .:.; p                 ",
"                > o = ;.} : y 7.7.y : X.&.= o p > o = 6.V.c.w o @ h c.V.6.2 X 3 > o = ;.X.= y 7.7.y = X.&.; O p                 ",
"                4 o : : &.%.y , 5 w %.&.; : O p 4 o : * 1.6.w = = w 6.1.3 3 X 4 > o : : &.%.y 5 5 y %.&.; ; O p                 ",
"                j # o X % : &.i.p.&.= % X O O C j # O o % = =.d.d.-.= % O O O j m O O O % : %.p.p.&.= % O O + H                 ",
"                C C p p > u j z z u > u u 1 N U C C s p a a S S Z e w p p p B B C C u u > u j z s u > u u 1 C U                 ",
"                                                G g u < 8 8 C D D b 7 8 7 u g N                                                 ",
"                                                d O O % 6 k O.6.1.} 8 < o O + d                                                 ",
"                                                u O : a X._ q * = k O.} 7 ; O >                                                 ",
"                                                u % z ! : 7 w 3 6 r r Q } 7 % >                                                 ",
"                                                7 7 } 2 k _ O.$.$.+.O.E R O.< 3                                                 ",
"                                                4 z _ 9 _ u.g.g.z.M.Z._ w X.R 7                                                 ",
"                                                C +.q w O.g.3 % % b N.) 6 c %.w                                                 ",
"                                                K q.% 3 @.k.# . O a Z.) % q q.t                                                 ",
"                                                b 5.; 7 %.x.; X O d c./ % a q.w                                                 ",
"                                                z } z w %.c.z h d P k.! 7 K o.w                                                 ",
"                                                q q } q O.Z.N.N.M.j.%.P 7 +.K 7                                                 ",
"                                                7 4 _ h P ( ( / ~ ! P 7 k ' % :                                                 ",
"                                                ; # q ( w 8 6 $ % 6 8 k ~ % O >                                                 ",
"                                                u o ; 7 } [ b w w K } ( ; ; O u                                                 ",
"                                                m ; + % = w #.q.q.' : % O + ; m                                                 ",
"                                                F M a a u a z z z k a a a s C C                                                 ",
"                                                N d u u 7 a C D D x u < < u g N                                                 ",
"                                                p O o + 7 z O.3.3.[ r 6 + O O s                                                 ",
"                                                : + : x q.-.w = = b q.>.8 : O >                                                 ",
"                                                : $ b y.V.f.w $ = L c.m.>.8 % :                                                 ",
"                                                < 7 q.V.Y.S.! 9 y O.L.U.c.@.3 6                                                 ",
"                                                6 k ;.f.V.L.p.9 D c.L.m.u.@.R q                                                 ",
"                                                c @.w y ) u.1.= t y.t.I w v %.w                                                 ",
"                                                J 3.% # 7 q O . X ; q 3 o q q.t                                                 ",
"                                                b 1.* = k b 7 o # h H q & t 5.t                                                 ",
"                                                k } b K O.c.y.= h z.k.) H H o.q                                                 ",
"                                                3 w q.V.L.I.t.w b k.Y.K.k.;.K q                                                 ",
"                                                : 6 %.B.U.m.P 6 w _ K.I.k.[ * 4                                                 ",
"                                                : # w ;.c.u.7 $ $ J k.k. .= @ 4                                                 ",
"                                                4 O : 7 O.} l w r K @.[ * ; # 4                                                 ",
"                                                s % O # ; e *.w.w.| , % # # ; j                                                 ",
"                                                C B p a a r Z Z Z A d p p j C B                                                 "
};
