/* XPM */
static char *stone[] = {
/* columns rows colors chars-per-pixel */
"64 64 80 1 ",
"  c None",
". c #4C4C4C",
"X c gray30",
"o c #4E4E4E",
"O c #505050",
"+ c #515151",
"@ c gray32",
"# c #535353",
"$ c gray33",
"% c #555555",
"& c #565656",
"* c #585858",
"= c gray35",
"- c #5A5A5A",
"; c #5B5B5B",
": c gray36",
"> c #5D5D5D",
", c gray37",
"< c #5F5F5F",
"1 c gray38",
"2 c #626262",
"3 c gray39",
"4 c #646464",
"5 c #656565",
"6 c gray40",
"7 c #676767",
"8 c #686868",
"9 c DimGray",
"0 c #6C6C6C",
"q c #6D6D6D",
"w c #6F6F6F",
"e c gray44",
"r c #717171",
"t c #727272",
"y c gray45",
"u c #747474",
"i c #777777",
"p c #797979",
"a c gray48",
"s c #7C7C7C",
"d c gray49",
"f c #7E7E7E",
"g c gray50",
"h c #818181",
"j c gray51",
"k c #838383",
"l c #848484",
"z c gray52",
"x c #868686",
"c c gray53",
"v c #888888",
"b c #898989",
"n c gray55",
"m c #8D8D8D",
"M c #8E8E8E",
"N c gray56",
"B c #909090",
"V c gray57",
"C c #929292",
"Z c gray59",
"A c #979797",
"S c gray60",
"D c #9A9A9A",
"F c #9B9B9B",
"G c gray61",
"H c gray62",
"J c #A0A0A0",
"K c #A2A2A2",
"L c gray64",
"P c #A5A5A5",
"I c gray65",
"U c #A7A7A7",
"Y c #A9A9A9",
"T c gray67",
"R c #ACACAC",
"E c gray68",
"W c #AEAEAE",
"Q c #AFAFAF",
"! c gray69",
"~ c gray75",
/* pixels */
"                        g22!YcqYPg2&-qP!                        ",
"                        b2YYb2Pc!bb22Pgc                        ",
"                        2PgggoPAggc&22Ag                        ",
"                        2-Ggu&ggbc&&P2-&                        ",
"                        GP-&&&2c&&PGcg-u                        ",
"                        YguYPY2&2~Ggbcb2                        ",
"                        gb-Gcug222cbcA--                        ",
"                        uuu-oo&cPc-2q&-q                        ",
"                        2YYYc-YAYYbqGb22                        ",
"                        2gcgb&2uYYqco2YY                        ",
"                        &-bgo22q-ggo2YPc                        ",
"                        &-&-2PYcuo22!bbg                        ",
"                        2GGA-gPbYY22Ycc&                        ",
"                        PPbc22&2ucg2gcg&                        ",
"                        2bPcugg---g-q&&2                        ",
"                        c&ucg-2PcgoqGY2c                        ",
"        g22!YcqYPg2&-qPYg22!YcqYPc2&-qPYg22YPcqPPc2&-qYY        ",
"        c2YYc2PcYbb22Pgcc2YYc2PcYbb22Gcgb2YYc2Yc!bb-2Pcg        ",
"        2Pggg&PAcgc&22Ac2Pggg&PAcgc&22Gc2Pggg&PAggb-22Ac        ",
"        2-Ggu&ggbc&&P2-&2-Ggu&ggbg&-P2-&22Ggq&gcbc&&P2-&        ",
"        GY&&&&2g&&PAcg2qGY&&&&2go&PGgg2qAY&&&&2go&PGgg2q        ",
"        YguYP!2&2~GcbgcqYguYP!2&q~GgbgcqYguYPY2-q~Gcbgcq        ",
"        ub-Gcug222cbbb--ub-Gcug222gbbA-&uc2Gcug2--cbbA--        ",
"        ugu&oo&bPc-2u&22ugu&oo&bYc-2u&-qugu&oo&bYc-2u&-2        ",
"        2YYYc-YAYYbqGb222PYYc-YAYYbqGb222YYYc-YAYYbqGb22        ",
"        2gcgb&2uYYqco2YY2ccgb&2uYYqgo2YY2gcgbo2uYYqg&2YY        ",
"        &-bgo222-ggo2YPc&-bgo222-gg&-PYc&&cg&22q-gg&-YYc        ",
"        &2&-2P!cuo22!bbg&2&-2P!cu&-2!cAg&2&--PYcu&22!cbg        ",
"        2GGG&gPbYY22Ycc&2GGG&gPbYP22Ycc&-PAG-gPAPP22Pcc&        ",
"        PPbc22&2ucg2gcg&PPbc22&2ucg2gcg&PPbbq-o2ucg2gcg&        ",
"        2bPgugg---g-q&&22bPgugg---g2q&&22bGgugg---g2q&&2        ",
"        c&ucc&2PcgoqGY2cc&ucc&2PgcoqPY-cc&gcg&2PcgoqPP2c        ",
"                        g22YPcqPPg2&-qY!                        ",
"                        b2YYc2YcYbb-2Pgg                        ",
"                        2Pggg&PAcgc&22Ac                        ",
"                        22Ggq&gcbc&&P2-&                        ",
"                        AY&&&&2g&&PGcg-u                        ",
"                        YguYPY2&2~Ggbcb2                        ",
"                        uc2Gggg222cbcA--                        ",
"                        ugu&oo&cPc-2q&-q                        ",
"                        2PYYc-YGPYAqGb22                        ",
"                        2gcgbo2uYYqgo2YY                        ",
"                        &-bg&-2q-ggo2YPc                        ",
"                        &2&-2PYcu&2-!bbg                        ",
"                        2GGA-gGAYY22Ycc&                        ",
"                        PPbb2-&2ucg2gcg&                        ",
"                        2bPgucc---c2q&&2                        ",
"                        c&ucg&2Pggo2GY2c                        ",
"                        g22!YcqYPc2&-qPY                        ",
"                        b2YYb2PcYbb22Gcg                        ",
"                        2PgggoPAcgc&22Ac                        ",
"                        2-Ggu&ggbg&-P22&                        ",
"                        GP-&&&2co&PGgg2u                        ",
"                        YguYPY2&q~Ggbgc2                        ",
"                        gb-Gcug222gbbA--                        ",
"                        uuu-oo&cYc-2u&-q                        ",
"                        2YYYc-YAYYbqGb22                        ",
"                        2gcgb&2uYYqgo2YY                        ",
"                        &-bg&-2q-gg&-PYc                        ",
"                        --&-2PYcu&-2!cAg                        ",
"                        2GGA&gPbYP22Ycc&                        ",
"                        PPbcq-o2ucg2gcg&                        ",
"                        qbPgugg---g2q&&2                        ",
"                        c&ucc&2PgcoqPY-c                        "
};
