/* XPM */
static char *wood_c_cut[] = {
/* columns rows colors chars-per-pixel */
"64 64 8 1 ",
"  c None",
". c #1E1309",
"X c #291A0C",
"o c #2D1D0D",
"O c #301E0E",
"+ c #3E2912",
"@ c #462D15",
"# c #492F17",
/* pixels */
"                        #++++##@+######+                        ",
"                        ##@o@@+++++@+@#+                        ",
"                        ##++++@@o##@###+                        ",
"                        XXooooooooXXXXoo                        ",
"                        #++++##+#++o@@@#                        ",
"                        ++o@@@#+@@@@++++                        ",
"                        ###@###+++o#####                        ",
"                        ooXXXXXoooXXXXoo                        ",
"                        #####o+##@@@###+                        ",
"                        +++++#@@+++o#+++                        ",
"                        #@@@##++++@@@@@+                        ",
"                        oXooXXXoooooXXXo                        ",
"                        #####+#++o++@###                        ",
"                        @+o####+#@@++++@                        ",
"                        ##+++##+##+@####                        ",
"                        oooOXXOXoooX.XXo                        ",
"        #++++##@+######+#++++##@+######+#++++##@+######+        ",
"        ##@o@@+++++@+@#+##@o@@+++++@+@#+##@o@@+++++@+@#+        ",
"        ##++++@@o##@###+##++++@@o##@###+##++++@@o##@###+        ",
"        XXXoooooooXXXXooXXXoooooooXXXXooXXXoooooooXoXXoo        ",
"        #++++##+#++o@@@##++++##+#++o@@@##++++##+#++o@@@#        ",
"        ++o@@@#+@@@@++++++o@@@#+@@@@++++++o@@@#+@@@@++++        ",
"        ###@###+++o########@###+++o########@###+++o#####        ",
"        ooXXXXXoooXXXXooooXXXXXoooXXXXooooXXXXXoooXXXXoo        ",
"        #####o+##@@@###+#####o+##@@@###+#####o+##@@@###+        ",
"        +++++#@@+++o#++++++++#@@+++o#++++++++#@@+++o#+++        ",
"        @@@@##++++@@@@@+#@@@##++++@@@@@+#@@@##++++@@@@@+        ",
"        ooooXXXoooooXXXooXooXXXoooooXXXooXooXXXoooooXXoo        ",
"        #####+#++o++@########+#++o++@########+#++o++@###        ",
"        @+o####+#@@++++@@+o####+#@@++++@@+o####+#@@++++@        ",
"        ##+++@#+##+@######+++##+##+@######+++##+##+@@###        ",
"        oooooooooooX.XXoooooXXOXoooX.XXoooooXooXoooX.Xoo        ",
"                        #++++##@+######+                        ",
"                        ##@o@@+++++@+@#+                        ",
"                        ##++++@@o##@###+                        ",
"                        XXXoooooooXXXXoo                        ",
"                        #++++##+#++o@@@#                        ",
"                        ++o@@@#+@@@@++++                        ",
"                        ###@###+++o#####                        ",
"                        ooXXXXXoooXXXXoo                        ",
"                        #####o+##@@@###+                        ",
"                        +++++#@@+++o#+++                        ",
"                        #@@@##++++@@@@@+                        ",
"                        ooooXXXoooooXXXo                        ",
"                        #####+#++o++@###                        ",
"                        @+o####+#@@++++@                        ",
"                        ##+++##+##+@####                        ",
"                        ooooXooXoooX.XXo                        ",
"                        #++++##@+######+                        ",
"                        ##@o@@+++++@+@#+                        ",
"                        ##++++@@o##@###+                        ",
"                        XXooooooooXXXXoo                        ",
"                        #++++##+#++o@@@#                        ",
"                        ++o@@@#+@@@@++++                        ",
"                        ###@###+++o#####                        ",
"                        ooXXXXXoooXXXooo                        ",
"                        #####o+##@@@###+                        ",
"                        +++++#@@+++o#+++                        ",
"                        #@@@##++++@@@@@+                        ",
"                        oXooXXXoooooXXXo                        ",
"                        #####+#++o++@###                        ",
"                        @+o####+#@@++++@                        ",
"                        ##+++##+##+@####                        ",
"                        ooooXooXoooX.XXo                        "
};
