/* XPM */
static char *wood_d_cut[] = {
/* columns rows colors chars-per-pixel */
"64 64 10 1 ",
"  c None",
". c #382B1D",
"X c #443321",
"o c #493824",
"O c #4F3C27",
"+ c #534028",
"@ c #5D462A",
"# c #664F2F",
"$ c #785836",
"% c #805E36",
/* pixels */
"                        %####%%$#%%%%%%#                        ",
"                        %%$#$$#####$#$%#                        ",
"                        %$####$$#%%$%%%#                        ",
"                        XXXoooooXoXXXXoo                        ",
"                        %####%%#%##+$$$%                        ",
"                        ##O$$$%#$$$$####                        ",
"                        %%%$%%%###O%%%%%                        ",
"                        ooXXXXXoooXXXXoo                        ",
"                        %%%%%O#%%$$$%%%#                        ",
"                        #####%$$###+%###                        ",
"                        %$$$%%####$$$$$#                        ",
"                        oXooXXXoooooXXXo                        ",
"                        %%%%%#%##o##$%%%                        ",
"                        $#+%%%%#%$$####$                        ",
"                        %%###%%#%%#$%%%%                        ",
"                        oooOXXOXoooX.XXo                        ",
"        %####$%$#%%%%%%#%####$%$#%%%%%%#%####%%$#%%%%%%#        ",
"        %%$#$$#####$#$%#%%$#$$#####$#$%#%$$#$$#####$#$%#        ",
"        %%####$$#%%$%%%#%%####$$#%%$%%%#%%####$$#%%$%%%#        ",
"        XXXoooooXoXXXXooXXXoooooXXXXXXooXXXoooooXoXoXXoo        ",
"        %####%%#%##+$$$%%####%%#%##+$$$%%####%%#%##O$$$%        ",
"        ##+$$$%#$$$$######+$$$%#$$$$######O$$$%#$$$$####        ",
"        %%%$%%%###O%%%%%%%%$%%%###+%%%%%%%%$%%%###O%%%%%        ",
"        ooXXXXXoooXXXXooooXXXXXoooXXXXooooXXXXXoooXXXXoo        ",
"        %%%%%+#%%$$$%%%#%%%%%+#%%$$$%%%#%%%%%+#%%$$$%%%#        ",
"        #####%$$###+%########%$$###+%########%$$###O%###        ",
"        %$$$%%####$$$$$#%$$$%%####$$$$$#%$$$%%####$$$$$#        ",
"        oXooXXXoooooXXXooXooXXXoooooXXXooXooXXXoooooXXXo        ",
"        %%%%%#%##o##$%%%%%%%%#%##o##$%%%%%%%%#%##o##$%%%        ",
"        $#+%%%%#%$$####$$#+%%%%#%$$####$$#O%%%%#%$$####$        ",
"        %%###%%#%%#$%%%%%%###%%#%%#$%%%%%%###%%#%%#$%%%%        ",
"        ooooXXOXoooX.XXooooOXXOXoooX.XXooooOXXOXoooo.Xoo        ",
"                        %####%%$#%%%%%%#                        ",
"                        %$$#$$#####$#$%#                        ",
"                        %%####$$#%%$%%%#                        ",
"                        XXXoooooXXXXXXXO                        ",
"                        %####%%#%##+$$$%                        ",
"                        ##O$$$%#$$$$####                        ",
"                        %%%$%%%###+%%%%%                        ",
"                        OXXXXXXoooXXXXoo                        ",
"                        %%%%%O#%%$$$%%%#                        ",
"                        #####%$$###+%###                        ",
"                        %$$$%%####$$$$$#                        ",
"                        oXoooXXoooooXXXo                        ",
"                        %%%%%#%##o##$%%%                        ",
"                        $#O%%%%#%$$####$                        ",
"                        %%###%%#%%#$%%%%                        ",
"                        oooOXXOXoooX.XXo                        ",
"                        %####%%$#%%%%%%#                        ",
"                        %%$#$$#####$#$%#                        ",
"                        %%####$$#$%$%%%#                        ",
"                        XXXoooooooXXXXoo                        ",
"                        %####%%#%##O$$$%                        ",
"                        ##O$$$%#$$$$####                        ",
"                        %%%$%%%###+%%%%%                        ",
"                        ooXXXXXoooXXXooo                        ",
"                        %%%%%+#%%$$$%%%#                        ",
"                        #####%$$###+%###                        ",
"                        %$$$%%####$$$$$#                        ",
"                        oXooXXXoooooXXXo                        ",
"                        %%%%%#%##o##$%%%                        ",
"                        $#+%%%%#%$$####$                        ",
"                        %%###%%#%%#$%%%%                        ",
"                        oooOXXOXoooX.XXo                        "
};
