/* XPM */
static char *wood_c[] = {
/* columns rows colors chars-per-pixel */
"64 64 81 1 ",
"  c None",
". c #1C150A",
"X c #1D160B",
"o c #1E170C",
"O c #1E170E",
"+ c #1F180D",
"@ c #20190E",
"# c #211A0F",
"$ c #221B10",
"% c #231C11",
"& c #241D12",
"* c #251E13",
"= c #261E12",
"- c #2D2415",
"; c #322614",
": c #332715",
"> c #302516",
", c #312717",
"< c #342816",
"1 c #352917",
"2 c #322818",
"3 c #332919",
"4 c #342918",
"5 c #362A18",
"6 c #372B19",
"7 c #342A1A",
"8 c #352B1B",
"9 c #372C1B",
"0 c #362C1C",
"q c #382C1A",
"w c #392D1B",
"e c #382D1C",
"r c #392F1F",
"t c #3F311D",
"y c #4A381E",
"u c #4B391F",
"i c #4C3A20",
"p c #4D3B21",
"a c #4C3B22",
"s c #4E3C22",
"d c #4F3D23",
"f c #4E3D24",
"g c #4F3E25",
"h c #4C3E29",
"j c #4E3F29",
"k c #503E24",
"l c #513F25",
"z c #4E402A",
"x c #4E402B",
"c c #4F412B",
"v c #4F412C",
"b c #524026",
"n c #50412C",
"m c #51422C",
"M c #51422D",
"N c #52432D",
"B c #54432D",
"V c #53442D",
"C c #52442E",
"Z c #55442E",
"A c #56442E",
"S c #56452E",
"D c #56452F",
"F c #57452F",
"G c #59462F",
"H c #5A472F",
"J c #594730",
"K c #584831",
"L c #5A4830",
"P c #5B4830",
"I c #5C4930",
"U c #5D4931",
"Y c #5E4A30",
"T c #5E4A31",
"R c #5F4B31",
"E c #604C32",
"W c #614C32",
"Q c #634D32",
"! c #634E33",
"~ c #644F33",
"^ c #6D5435",
/* pixels */
"                        $eek@ei@44,y4e4f                        ",
"                        $4eX@i@4k@,i@y$i                        ",
"                        @,,@-i@5i@,y@y=j                        ",
"                        5#,@yy@<k@,kOi@y                        ",
"                        5#e<ye<<e@6kOj@y                        ",
"                        5,<,k,,<6@4iOrX4                        ",
"                        <y$ek,,@i@e=.eO6                        ",
"                        5k@4k@k@s@y@4y@e                        ",
"                        6f@6s@6@4@i@66@6                        ",
"                        6j@66s@66Xs@6s@y                        ",
"                        &y@66i@>@4k@6k@s                        ",
"                        @6@66s@f.4k@6s@j                        ",
"                        OfO48h.6@,u@<<@s                        ",
"                        @6>6>y&66,,@<ui.                        ",
"                        .4s@8r*Oy6s@<y@;                        ",
"                        >>y@488O66,O<<,y                        ",
"        kpkye4e6yeskkX4y08O008OOO88%8480kskey466ytppi@<y        ",
"        4$$$@@@@@@@@@kX40KjUKUUUjKUUWWJ46==@X@@@OO$O#k@<        ",
"        yeykpyre6iki,ie4OUjjjhjjUhjjjjJ4yeyhiryeepkp;uy5        ",
"        e$@@@@.46666<6440UKUU!!!WW!!~jJ@6@$@@@X44e4e<,,,        ",
"        yiekpy=@@@@@@@@.*Kj!UEUUUWUUWjJ4yirsky==###@@@@@        ",
"        e<,44,yysskss<s,OUjUKjKjhjjUWjJ6444446yeupkki,i5        ",
"        ,@X@$@@@@@;;<<<6OKjEUjU!!!jUWjJO4@@@@@@X#X,,<,<5        ",
"        ,kpke4yk<6@@@eu<&Ej^UjUUU!jKWjJr4ksi66ike<#X#eu5        ",
"        #<<4<5@#@6,s66@@4JJWUjUUUUjUEjE0@<<<<e@@$44kee$X        ",
"        p###5,<k6@@@@=&44WjWUj!!!!jU!jK0k@@@<<4p4$X$X$$4        ",
"        4ppye,,@@issiry44JjWUjjjjjjE!jK0euuey4=@$pppkyy,        ",
"        $+4eykiks66e444;OUjWUUUUUUUE!jK3@@<yyikkye4e4-<-        ",
"        kX##5<ee6666,6O@OJj~~W^!!!!!UjU*k@@@<,e4ee<<,e#X        ",
"        ee,,55$#@@@@@,iy@JjjjjjjjjjjKjUOee,<ee$X@$##X,ky        ",
"        <<,$#,ypkkyrs6,,*JJJWUjjUUjUUjK0<<,=#,yikkyepe4<        ",
"        $#Xe55,566OO@@@;8r@888%80000OOO0#@@e<5,e44$@X$X,        ",
"                        =<<s@6k@824y404f                        ",
"                        @<e@@k@<hO>i@y&h                        ",
"                        @,,@,k@<hO6y@y&s                        ",
"                        6$,@ey@,sO>sOh@y                        ",
"                        <$6<ye666@6hOiO0                        ",
"                        6,6<k,,<6O6yOy@4                        ",
"                        ,y=6i,4@iO0>.0@6                        ",
"                        6k@6k@k@sOy&4y@6                        ",
"                        4k@ei@6@<@u@66@6                        ",
"                        6k$6ei@66Os@6s@y                        ",
"                        @r@44i@,@;k@6j@i                        ",
"                        Oy@4ek@kO4k@6s@k                        ",
"                        OfX44hX4@,u@<<@s                        ",
"                        @4444y$r6;<O<ui.                        ",
"                        O4iO4y*@s6sO<yO;                        ",
"                        >>yO;44@<6<O<6,y                        ",
"                        r8O388OO@44Or444                        ",
"                        8UKKUUJJJJJJWWJ4                        ",
"                        OUhhhhChCjCCMCJ4                        ",
"                        8UKT!T!T!!WWWhJO                        ",
"                        *Uh!UTUKJ!J!WMJ4                        ",
"                        OKh!UjMKjjjJWjJ4                        ",
"                        OJh!TKTT!!jUWjJ@                        ",
"                        OUj^UhTUJ!CCWMJr                        ",
"                        0UK!Uj!UJ!jU!h!8                        ",
"                        0Uj!UjU!!!hU!hU8                        ",
"                        8jjEUjjjjjj!!jC8                        ",
"                        OUjEUUUUUJU!!jJ8                        ",
"                        OUj!!W!!WW!!WjU%                        ",
"                        OUjjjhjjhKjjKjUO                        ",
"                        *KUUUUjjUUjUUjU8                        ",
"                        00&088%88888OOO8                        "
};
