/* XPM */
static char *wood_a[] = {
/* columns rows colors chars-per-pixel */
"64 64 85 1 ",
"  c None",
". c #372A17",
"X c #382B18",
"o c #392C19",
"O c #3A2D1A",
"+ c #3B2E1B",
"@ c #3C2F1C",
"# c #3D301D",
"$ c #3E311E",
"% c #3F321F",
"& c #403320",
"* c #413421",
"= c #423522",
"- c #433623",
"; c #453825",
": c #463926",
"> c #4C3D26",
", c #59472C",
"< c #5E4B2F",
"1 c #624D2C",
"2 c #634E2D",
"3 c #644F2E",
"4 c #65502F",
"5 c #665130",
"6 c #675231",
"7 c #685332",
"8 c #695433",
"9 c #6A5534",
"0 c #6B5635",
"q c #6C5736",
"w c #6D5837",
"e c #6E5938",
"r c #6F5A39",
"t c #705B3A",
"y c #745F3E",
"u c #7C623E",
"i c #8F6F40",
"p c #917142",
"a c #927243",
"s c #937344",
"d c #947445",
"f c #957546",
"g c #967647",
"h c #977C45",
"j c #997E47",
"k c #977748",
"l c #987849",
"z c #99794A",
"x c #9A7A4B",
"c c #9A7F48",
"v c #9B7B4C",
"b c #9C7C4D",
"n c #9D7D4E",
"m c #9F7F50",
"M c #9B8049",
"N c #9C814A",
"B c #9D824B",
"V c #9E834C",
"C c #9F844D",
"Z c #A0854E",
"A c #A1864F",
"S c #A28750",
"D c #AB8751",
"F c #A38851",
"G c #A48952",
"H c #A78C55",
"J c #AD8953",
"K c #AE8A54",
"L c #B18D57",
"P c #B28E58",
"I c #B38F59",
"U c #AC915A",
"Y c #B4905A",
"T c #B5915B",
"R c #B6925C",
"E c #B7935D",
"W c #B8945E",
"Q c #B9955F",
"! c #BA9660",
"~ c #BB9761",
"^ c #BC9862",
"/ c #BD9963",
"( c #BE9A64",
") c #BF9B65",
"_ c #C9A56F",
/* pixels */
"                        :8wzOef*558ueu8z                        ",
"                        *1tO*z*5z$8z>u>f                        ",
"                        O<1*5z*5zO8u>u>z                        ",
"                        e:1*uu$8f$8f$m*u                        ",
"                        8*q5uuq5e*8zOzOu                        ",
"                        8<q3m5588$8i*u*8                        ",
"                        8i:qf<5$fOu,.u$e                        ",
"                        8z#qz*z*zOu>3u*e                        ",
"                        8z$tf*8*8*fOqq#u                        ",
"                        8z:8wf*88Of*8f*u                        ",
"                        :u&88fO4#<S*8m*f                        ",
"                        &u$8tz*z.<m#qzOm                        ",
"                        OzO48zO8#3f#83#f                        ",
"                        *w<w8u>tq38#8fmO                        ",
"                        O8h*8u>$f5zO3u#8                        ",
"                        <8uO188&8q3O3q3u                        ",
"        mfzuu5eeuufzzO5uw5$886O$O88Oe88emfzuu5e8uufzzO5u        ",
"        5>>*O*O****$*mO55TUTITITKITI~~T38>>*O******O*z*3        ",
"        uuuzzuuu8fzf1fu8$TNNZhZMHSNSNHT8uuuzzuuuqfmf1fu8        ",
"        8>,O**.3q8qe88558THT~^~^^T~~^NI$e>>$O*.5qq8eq855        ",
"        uzuzzi,>O**$**O.>KN^T^TTT~I~^NT8uzuzzf,>O**#O*OO        ",
"        885888uuffmzf5f5$TN^TNCHZNNI~NT8585888uuffmzf5f5        ",
"        8OO$*$OO*.<<515e$TN^TNT^^~ZT~NTO5*O$*O$O*O<<515q        ",
"        5zzze8fz88*.*qf8$TC_TN^TT~SK^NTy5zfze8fz8q*.*qf8        ",
"        *55888$**q5zqe**5IU^TNQTT~NT^N~8*55858O**85z8q**        ",
"        f*$$858z8*O*.>>58!N^TN^^^^NI^NT8f**Oe58z8*O*O>>8        ",
"        8zzuu81$*ffzzuu55IN!TNHNSNS~^NI8ezzuu81**ffzzuu8        ",
"        $$8uuzzzfe8eq5q1OTN^LTTTITI~^HT3O*8uuzfzfe8t8581        ",
"        zO**848we5555e**$IC^^^^^~~^^~NTOzO**55q8t5855q**        ",
"        wt11e8>**:*$.<zuOTzNHNNNzSSSHHI$ee11eq>**:**O<fu        ",
"        85<:*<uzzmuuze58>TTTTTKKTTKITII883<:*<uzzmuuze58        ",
"        :$Ow8w8858:*O*O<8eOe58$w8888O$O8:*Oe888888*$O*O<        ",
"                        :8wz$wf*485ueu8z                        ",
"                        $4eO$z*4z$5z,t>k                        ",
"                        O<4$5z$8z$4u,u>z                        ",
"                        w:4*uu$5k$5zOz*u                        ",
"                        8*w5uuw8e*5z$zOu                        ",
"                        w<w5z8488*8i$u*5                        ",
"                        8u>wz15$fOu,.u$e                        ",
"                        wz$8z$z*zOu>5u*e                        ",
"                        8z*tf*8*5*f$qq*u                        ",
"                        8z:5wf*8w.f*8f*y                        ",
"                        :u*85zO4#<V*8m*f                        ",
"                        $u*5ez*z.<m#qf*z                        ",
"                        OzO4wzO8*3f#q1*f                        ",
"                        *w<w5u>eq15*5fmO                        ",
"                        O8k$wu>$f5zO5u*5                        ",
"                        <5u$488$5q5.583u                        ",
"                        88$888$OO88Oe8ee                        ",
"                        8TKTTTTILITT~~I1                        ",
"                        OTNNNhNMHNNZNST8                        ",
"                        8THQ^^^^~~~~^ZTO                        ",
"                        >TN^T~TITQIQ~ZI8                        ",
"                        OTN^TNZHNZZI~NT8                        ",
"                        $TN^TN^^)~NTQNT$                        ",
"                        OTN_TZ^TT~SK~ZTt                        ",
"                        8TU^TNQTI^ZT~N~8                        ",
"                        8TN^TM^^^^NI^NI8                        ",
"                        4PAQTNNZZNZQ^NT8                        ",
"                        $TN^TTTTTTT~^HT1                        ",
"                        OTN^^T^^^~)^~NT$                        ",
"                        $PMAHZNZzZZSKHHO                        ",
"                        >TTTTTKKTTKITIT8                        ",
"                        8wOw85$88888O$$8                        "
};
