/* XPM */
static char *wood_d[] = {
/* columns rows colors chars-per-pixel */
"64 64 79 1 ",
"  c None",
". c #0F0403",
"X c #0F0503",
"o c #110603",
"O c #110703",
"+ c #130803",
"@ c #140A04",
"# c #160B04",
"$ c #160C04",
"% c #180D04",
"& c #1D1005",
"* c #241606",
"= c #2B1907",
"- c #2B1A07",
"; c #291909",
": c #2C1B08",
"> c #2D1C09",
", c #2E1D0A",
"< c #2F1E0B",
"1 c #301F0C",
"2 c #31210D",
"3 c #32210E",
"4 c #33230F",
"5 c #2C2214",
"6 c #322210",
"7 c #342310",
"8 c #3B2713",
"9 c #372C1B",
"0 c #4A3014",
"q c #4A3116",
"w c #4C3216",
"e c #4D3317",
"r c #4E3418",
"t c #4F3519",
"y c #50361A",
"u c #52371C",
"i c #53381D",
"p c #54391E",
"a c #553A1F",
"s c #493921",
"d c #483922",
"f c #493A23",
"g c #4B3B23",
"h c #4B3C25",
"j c #4C3C24",
"k c #4C3D26",
"l c #4F3F27",
"z c #4E3F28",
"x c #504028",
"c c #514129",
"v c #53442D",
"b c #61512D",
"n c #62522E",
"m c #64532E",
"M c #65542F",
"N c #645430",
"B c #655531",
"V c #675631",
"C c #685732",
"Z c #6F5435",
"A c #695833",
"S c #685834",
"D c #6A5934",
"F c #6B5A35",
"G c #6D5C37",
"H c #705536",
"J c #725636",
"K c #755937",
"L c #775A37",
"P c #795B37",
"I c #7B5C37",
"U c #7D5D37",
"Y c #715F39",
"T c #7E5E38",
"R c #805F38",
"E c #826038",
"W c #846138",
"Q c #866238",
"! c #946A38",
/* pixels */
"                        %12yO1yO:118181y                        ",
"                        @>7O%rO1r#1y&8&r                        ",
"                        O>>O1rO1y#18%8&y                        ",
"                        1@>@88O1yO1rOyO0                        ",
"                        1@2188117O1yOyO0                        ",
"                        1;11y1111O1q#8O;                        ",
"                        18%2y>1Oq#8;O8O3                        ",
"                        2y@2yOy@yO8%18O7                        ",
"                        1y%1rO1O1OrO22%8                        ",
"                        1y%11yO11Or#1yO8                        ",
"                        %8%11rO1O;p#1y#y                        ",
"                        O8O17yOyO;pO1yOy                        ",
"                        OyO11yO1#;yO1=Oy                        ",
"                        O3;118&71::O1eyO                        ",
"                        O1yO18&#r1yO=8O=                        ",
"                        ;18#=11O111O11=0                        ",
"        yyy8818388yyyO18hh5zff555zz5zfzzyyy8817188yyyO18        ",
"        1&&#OOOO@O%OOyO1zPKKPPPPHKPURRPf1&&#O%OO%@%O#yO=        ",
"        880yy0781yyy=q815UNVVnVVSVVVVVUh888yy8881ypy=r8:        ",
"        1%%O#OO;221711=1zUSRRRRRRRRRRVP51&&#OOO1131111=1        ",
"        8y8ryq*&O##OOOOO9KNRUUUUUUPRRVPj0y8yyq=%O@@OO#OO        ",
"        11111188rrppy1r15KNRPVSVVVVPRVPf;>>11188ryayy1y1        ",
"        1OOOOOOO#O;;:=115UNUUNRRRRVPRVP51OOOO##O@O;;;111        ",
"        1yyy77wy11OO#1q15US!UNRPURNKRVPv1yyy71qy11OOO1q1        ",
"        @>>1>1O@O1=y13O#jUYRPVRUPRVPRVRh@>>111#O%1>y17OO        ",
"        r@O@3>1y1#O#O&&1jUNRPnRRRRVPRVPhr@OO1>1y1OO@O&&1        ",
"        2yy881>OOyeyy881fKVUPVVVVVVRRVPf7yy881>OOyryy881        ",
"        O@188yyyy113111=5PVRKUPPRPPRRSPfO@188yyyr117111>        ",
"        yO@@>>13111111O#5UVRRRRRRRRRRVU5yO@O1>227111>1@O        ",
"        27>>21*O#%#OO;y85PnNYVVNVVVVYHU513>>11*OO%@OO>y8        ",
"        1>;@@>8yyy88y1119UPPPUHKRPZPPPYf1>>@@;8yyy88y1>1        ",
"        %@O112>211%OOOO;jz5zjj5jjjzj555j%OO7111111%OO@O>        ",
"                        %11yO3yO11=8171y                        ",
"                        O17O%yO>yO1y&0&r                        ",
"                        O;;O1yO1yO18&8&y                        ",
"                        1%1O88O>yO1yOp+8                        ",
"                        1O7108>>1O1yOw+8                        ",
"                        1>1>y1>31O1qO0O5                        ",
"                        >0%2y;1Or#8;O8O3                        ",
"                        3yO2y#y@yO8&;8#7                        ",
"                        1yO7rO1@1OrO11%8                        ",
"                        1y%11yO11Or#1yO8                        ",
"                        O8O11yO>O;p#1p#y                        ",
"                        O0O11y@yO;pO1yOy                        ",
"                        OyO13yO1#;eO1=Oy                        ",
"                        O1;318&31=1O1eyO                        ",
"                        O1y@38&Or1yO=8O;                        ",
"                        ;18O;>1O111O11=0                        ",
"                        zf5jzf555jz5zjzz                        ",
"                        zYPPUUPPKKPURRPf                        ",
"                        5UNVVnVNSVVVVVPf                        ",
"                        zUVURRRRRRRRRVP5                        ",
"                        9KVRUUUUPRPURVPz                        ",
"                        5PNRPVSSVVVPRNPj                        ",
"                        5PNRUNRRRRVPRVU7                        ",
"                        5PV!PNRUURVKRVYv                        ",
"                        fPYRPVRPPRVPRVRh                        ",
"                        fRMRPVRRRRVPRVPh                        ",
"                        fPVRPVVVVVVURVPh                        ",
"                        5PVRPPPPUUPRRSPf                        ",
"                        5PVRRRRRQRRRRVR5                        ",
"                        5PnVSVVVVVVVYVP5                        ",
"                        9UPPPUZKUPZPPPPz                        ",
"                        zz3zhf5zfzhh555f                        "
};
