/* XPM */
static char *wood_b_cut[] = {
/* columns rows colors chars-per-pixel */
"64 64 10 1 ",
"  c None",
". c #8E815E",
"X c #9E8B61",
"o c #A59467",
"O c #AE9869",
"+ c #BAA973",
"@ c #B8A875",
"# c #C8B77A",
"$ c #D7C185",
"% c #D7CB8D",
/* pixels */
"                        %####%%$#%%%%%%#                        ",
"                        %%$@$$#####$#$$+                        ",
"                        %%####$#@%%$%%%@                        ",
"                        XXXoooooooXXXXoo                        ",
"                        %####%%#%##@$$$%                        ",
"                        ##@$$$%@$$$$####                        ",
"                        %%%$%%%@##@%%%%%                        ",
"                        ooXXXXXoooXXXXoo                        ",
"                        %%%%%@#%%$$$%%%@                        ",
"                        #####%$$###@%##@                        ",
"                        %$$$%%####$$$$$@                        ",
"                        oXooXXXoooooXXXo                        ",
"                        %%%%%#%+#@##$%%%                        ",
"                        $#@%%%%+%$$####$                        ",
"                        %%###%%+%%#$%%%%                        ",
"                        oooOXXOXoooX.XXo                        ",
"        %####%%$#%%%%%%+%####%%$#%%%%%%+%####%%$#%%%%%%#        ",
"        %%$@$$#####$#$%+%%$@$$#####$#$%+%%$@$$#####$#$%@        ",
"        %%####$$@%%$%%%+%%####$$@%%$%%%+%%####$$@%%$%%%@        ",
"        XXXoooooooXXXXooXXXoooooooXXXXooXXXoooooooXXXXoo        ",
"        %####%%+%##@$$$%%####%%+%##@$$$%%####%%+%##@$$$%        ",
"        ##@$$$%+$$$$######@$$$%+$$$$######@$$$%+$$$$####        ",
"        %%%$%%%@##@%%%%%%%%$%%%+##@%%%%%%%%$%%%+##@%%%%%        ",
"        ooXXXXXoooXXXXooooXXXXXoooXXXXooooXXXXXoooXXXXoo        ",
"        %%%%%@#%%$$$%%%+%%%%%@#%%$$$%%%+%%%%%@#%%$$$%%%@        ",
"        #####%$$###@%##+#####%$$###@%##+#####%$$###@%##@        ",
"        %$$$%%####$$$$$+%$$$%%####$$$$$+%$$$%%####$$$$$@        ",
"        oXooXXXoooooXXXooXooXXXoooooXXXooXooXXXoooooXXXo        ",
"        %%%%%#%@#@##$%%%%%%%%#%+#@##$%%%%%%%%#%+#@##$%%%        ",
"        $#@%%%%@%$$####$$#@%%%%+%$$####$$#@%%%%+%$$####$        ",
"        %%###%%@%%#$%%%%%%###%%+%%#$%%%%%%###%%@%%#$%%%%        ",
"        oooOXXOXoooX.XXooooOXXOXoooX.XXooooOXXOXoooX.XXo        ",
"                        %####%%$#%%%%%%+                        ",
"                        %%$@$$#####$#$%+                        ",
"                        %%####$$@%%$%%%+                        ",
"                        XXXoooooooXXXXoo                        ",
"                        %####%%+%##@$$$%                        ",
"                        ##@$$$%+$$$$####                        ",
"                        %%%$%%%+##@%%%%%                        ",
"                        ooXXXXXoooXXXXoo                        ",
"                        %%%%%@#%%$$$%%%+                        ",
"                        #####%$$###@%##+                        ",
"                        %$$$%%####$$$$$+                        ",
"                        oXooXXXoooooXXXo                        ",
"                        %%%%%#%+#@##$%%%                        ",
"                        $#@%%%%+%$$####$                        ",
"                        %%###%%+%%#$%%%%                        ",
"                        oooOXXOXoooX.XXo                        ",
"                        %####%%$#%%%%%$#                        ",
"                        %%$@$$#####$#$%@                        ",
"                        %%####$$@%%$%%%@                        ",
"                        XXXooooOooXXXXoo                        ",
"                        %####%%@%##@$$$%                        ",
"                        ##@$$$%@$$$$####                        ",
"                        %%%$%%%@##@%%%%%                        ",
"                        ooXXXXXoooXXXXoo                        ",
"                        %%%%%@#%%$$$%%%@                        ",
"                        #####%$$###@%##@                        ",
"                        %$$$%%####$$$$$+                        ",
"                        oXooXXXoooooXXXo                        ",
"                        %%%%%#%+#@##$%%%                        ",
"                        $#@%%%%+%$$####$                        ",
"                        %%###%%+%%#$%%%%                        ",
"                        oooOXXOXoooX.XXo                        "
};
