/* XPM */
static char *result[] = {
/* columns rows colors chars-per-pixel */
"64 64 25 1 ",
"  c #190D0F",
". c #190D10",
"X c #1B0D10",
"o c #1C0E10",
"O c #1C0E11",
"+ c #1D0F12",
"@ c #1F0F13",
"# c #1E1013",
"$ c #211114",
"% c #221216",
"& c #241417",
"* c #291519",
"= c #2E161B",
"- c #30181C",
"; c #331B1F",
": c #34181D",
"> c #36181E",
", c #38181E",
"< c #381A1F",
"1 c #3E1E24",
"2 c #402026",
"3 c #44242A",
"4 c #46262C",
"5 c #4A2A30",
"6 c None",
/* pixels */
"666666666666666666666666&@  &&      @&&&666666666666666666666666",
"666666666666666666666666&144411<&<1443<<666666666666666666666666",
"666666666666666666666666&<--::--#<-:::--666666666666666666666666",
"666666666666666666666666&<-&--&o#<-&---&666666666666666666666666",
"666666666666666666666666&###o .o.O@@   @666666666666666666666666",
"666666666666666666666666<<&1445411&11<<<666666666666666666666666",
"666666666666666666666666=*#<-,----;2&---666666666666666666666666",
"666666666666666666666666*&#<-->-*&&<-&-&666666666666666666666666",
"666666666666666666666666&&   @####&&&&&&666666666666666666666666",
"666666666666666666666666&<<<&111&1<<#<<<666666666666666666666666",
"666666666666666666666666&<--&<--&1--#<--666666666666666666666666",
"666666666666666666666666&<&-&<--#<-&#<--666666666666666666666666",
"666666666666666666666666@@    &#X+$X%@&&666666666666666666666666",
"666666666666666666666666;1141<<<#<14433<666666666666666666666666",
"666666666666666666666666&<:-----&<-----&666666666666666666666666",
"666666666666666666666666&<----###<-&&#&&666666666666666666666666",
"66666666&@  &&      @&&&&@  &&      @&&&&@  &&      @&&&66666666",
"66666666&144411<&<1443<<&144411<&<1443<<&144411<&<1443<<66666666",
"66666666&<--::--#<-:::--&<--::--#<-:::--&<--::--#<-:::--66666666",
"66666666&<-&--&o#<-&---&&<-&--&o#<-&---&&<-&--&o#<-&---&66666666",
"66666666&###o .o.O@@   @&###o .o.O@@   @&###o .o.O@@   @66666666",
"66666666<<&1445411&11<<<<<&1445411&11<<<<<&1445411&11<<<66666666",
"66666666=*#<-,----;2&---=*#<-,----;2&---=*#<-,----;2&---66666666",
"66666666*&#<-->-*&&<-&-&*&#<-->-*&&<-&-&*&#<-->-*&&<-&-&66666666",
"66666666&&   @####&&&&&&&&   @####&&&&&&&&   @####&&&&&&66666666",
"66666666&<<<&111&1<<#<<<&<<<&111&1<<#<<<&<<<&111&1<<#<<<66666666",
"66666666&<--&<--&1--#<--&<--&<--&1--#<--&<--&<--&1--#<--66666666",
"66666666&<&-&<--#<-&#<--&<&-&<--#<-&#<--&<&-&<--#<-&#<--66666666",
"66666666@@    &#X+$X%@&&@@    &#X+$X%@&&@@    &#X+$X%@&&66666666",
"66666666;1141<<<#<14433<;1141<<<#<14433<;1141<<<#<14433<66666666",
"66666666&<:-----&<-----&&<:-----&<-----&&<:-----&<-----&66666666",
"66666666&<----###<-&&#&&&<----###<-&&#&&&<----###<-&&#&&66666666",
"666666666666666666666666&@  &&      @&&&666666666666666666666666",
"666666666666666666666666&144411<&<1443<<666666666666666666666666",
"666666666666666666666666&<--::--#<-:::--666666666666666666666666",
"666666666666666666666666&<-&--&o#<-&---&666666666666666666666666",
"666666666666666666666666&###o .o.O@@   @666666666666666666666666",
"666666666666666666666666<<&1445411&11<<<666666666666666666666666",
"666666666666666666666666=*#<-,----;2&---666666666666666666666666",
"666666666666666666666666*&#<-->-*&&<-&-&666666666666666666666666",
"666666666666666666666666&&   @####&&&&&&666666666666666666666666",
"666666666666666666666666&<<<&111&1<<#<<<666666666666666666666666",
"666666666666666666666666&<--&<--&1--#<--666666666666666666666666",
"666666666666666666666666&<&-&<--#<-&#<--666666666666666666666666",
"666666666666666666666666@@    &#X+$X%@&&666666666666666666666666",
"666666666666666666666666;1141<<<#<14433<666666666666666666666666",
"666666666666666666666666&<:-----&<-----&666666666666666666666666",
"666666666666666666666666&<----###<-&&#&&666666666666666666666666",
"666666666666666666666666&@  &&      @&&&666666666666666666666666",
"666666666666666666666666&144411<&<1443<<666666666666666666666666",
"666666666666666666666666&<--::--#<-:::--666666666666666666666666",
"666666666666666666666666&<-&--&o#<-&---&666666666666666666666666",
"666666666666666666666666&###o .o.O@@   @666666666666666666666666",
"666666666666666666666666<<&1445411&11<<<666666666666666666666666",
"666666666666666666666666=*#<-,----;2&---666666666666666666666666",
"666666666666666666666666*&#<-->-*&&<-&-&666666666666666666666666",
"666666666666666666666666&&   @####&&&&&&666666666666666666666666",
"666666666666666666666666&<<<&111&1<<#<<<666666666666666666666666",
"666666666666666666666666&<--&<--&1--#<--666666666666666666666666",
"666666666666666666666666&<&-&<--#<-&#<--666666666666666666666666",
"666666666666666666666666@@    &#X+$X%@&&666666666666666666666666",
"666666666666666666666666;1141<<<#<14433<666666666666666666666666",
"666666666666666666666666&<:-----&<-----&666666666666666666666666",
"666666666666666666666666&<----###<-&&#&&666666666666666666666666"
};
