/* XPM */
static char *result[] = {
/* columns rows colors chars-per-pixel */
"64 64 170 2 ",
"   c #A9A36C",
".  c #B0AA72",
"X  c #B3AD76",
"o  c #BBB37E",
"O  c #BBB47E",
"+  c #BCB67E",
"@  c #BEB77F",
"#  c #BFB881",
"$  c #BFB882",
"%  c #BFB488",
"&  c #C1BA83",
"*  c #C1BB84",
"=  c #C2BC84",
"-  c #C5BE86",
";  c #C7BF89",
":  c #C7BE8D",
">  c #C9BD91",
",  c #CBBF93",
"<  c #CBBF94",
"1  c #C6C089",
"2  c #C7C089",
"3  c #C7C189",
"4  c #C9C28B",
"5  c #C8C18C",
"6  c #CAC48D",
"7  c #CCC78F",
"8  c #CDC78F",
"9  c #CDC790",
"0  c #CEC790",
"q  c #CFC890",
"w  c #CFC991",
"e  c #CFC892",
"r  c #D0C795",
"t  c #D0C991",
"y  c #D0C993",
"u  c #D0CA92",
"i  c #D1CA93",
"p  c #D1CB93",
"a  c #D2CB94",
"s  c #D2CB95",
"d  c #D2CC94",
"f  c #D3CC95",
"g  c #D6CF97",
"h  c #D0C499",
"j  c #D4CD98",
"k  c #D6CE98",
"l  c #D6CF98",
"z  c #D7CF98",
"x  c #D5CC9A",
"c  c #D7CF9B",
"v  c #D5C99D",
"b  c #D5C99E",
"n  c #D7CB9F",
"m  c #D7CD9D",
"M  c #D7CE9C",
"N  c #D7CF9E",
"B  c #D8CE9E",
"V  c #D9CF9E",
"C  c #D6D097",
"Z  c #D6D098",
"A  c #D7D199",
"S  c #D7D09F",
"D  c #D8D099",
"F  c #D8D09B",
"G  c #D8D19B",
"H  c #D8D29A",
"J  c #D9D29B",
"K  c #D8D09D",
"L  c #DAD29D",
"P  c #DAD49C",
"I  c #DBD59C",
"U  c #DBD59D",
"Y  c #DDD59E",
"T  c #DCD59F",
"R  c #DCD69E",
"E  c #D8CDA2",
"W  c #D9CDA2",
"Q  c #DBCFA4",
"!  c #DBD2A1",
"~  c #DCD1A0",
"^  c #DCD1A1",
"/  c #DDD3A3",
"(  c #DED3A3",
")  c #DBD5A1",
"_  c #DDD4A0",
"`  c #DDD4A1",
"'  c #DDD7A0",
"]  c #DED7A1",
"[  c #DDD4A3",
"{  c #DCD5A3",
"}  c #DDD5A3",
"|  c #DDD6A2",
" . c #DFD7A2",
".. c #DDD1A7",
"X. c #DDD2A6",
"o. c #DED3A7",
"O. c #DFD4A4",
"+. c #DFD5A4",
"@. c #DFD8A0",
"#. c #DFD9A1",
"$. c #DFD8A2",
"%. c #DFD9A2",
"&. c #DED8A6",
"*. c #DFD8A7",
"=. c #DFD3A9",
"-. c #E1D7A6",
";. c #E1D7A7",
":. c #E1D8A0",
">. c #E0D9A2",
",. c #E1DBA3",
"<. c #E2DBA3",
"1. c #E1D8A5",
"2. c #E2DAA4",
"3. c #E2DBA4",
"4. c #E3DDA4",
"5. c #E2DCA5",
"6. c #E3DCA6",
"7. c #E3DDA6",
"8. c #E5DFA6",
"9. c #E4DEA7",
"0. c #E0D4A8",
"q. c #E0D4A9",
"w. c #E0D5A9",
"e. c #E0D5AA",
"r. c #E2D6AA",
"t. c #E2D8A8",
"y. c #E4DBA8",
"u. c #E5DEA8",
"i. c #E5DCAA",
"p. c #E4D8AD",
"a. c #E5D9AE",
"s. c #E6D9AE",
"d. c #E6DAAE",
"f. c #E6DAAF",
"g. c #E7DBAF",
"h. c #E6DDAC",
"j. c #E7DEAD",
"k. c #E8DFAE",
"l. c #E7DBB1",
"z. c #E8DCB1",
"x. c #E2DFBE",
"c. c #E6E0A9",
"v. c #E9E3AB",
"b. c #E8E0AC",
"n. c #E9E3AC",
"m. c #EAE3AC",
"M. c #E9E1AE",
"N. c #EFE7B2",
"B. c #EDE1B6",
"V. c #EEE2B6",
"C. c #EEE4B6",
"Z. c #EEE8B1",
"A. c #F1EAB2",
"S. c #F1EAB4",
"D. c #F1E6BA",
"F. c #F4E8BD",
"G. c #F6E9BE",
"H. c #FBF4BD",
"J. c #EEEACC",
"K. c #F8ECC1",
"L. c #F9EEC2",
"P. c #FFFAC2",
"I. c #FFF7CC",
"U. c #F7F5D2",
"Y. c #FFFFD1",
"T. c #FFFED2",
"R. c #FFFFDF",
"E. c #FBFBEA",
"W. c #FFFFF1",
"Q. c None",
/* pixels */
"Q.Q.Q.Q.Q.Q.Q.Q.Q.Q.Q.Q.Q.Q.Q.Q.Q.Q.Q.Q.Q.Q.Q.Q.] H e.l.% d u f x.f.R.R ( H +.v.Q.Q.Q.Q.Q.Q.Q.Q.Q.Q.Q.Q.Q.Q.Q.Q.Q.Q.Q.Q.Q.Q.Q.Q.",
"Q.Q.Q.Q.Q.Q.Q.Q.Q.Q.Q.Q.Q.Q.Q.Q.Q.Q.Q.Q.Q.Q.Q.Q.r.V.L.l D Z U U R 5.f.z.V q d K.Q.Q.Q.Q.Q.Q.Q.Q.Q.Q.Q.Q.Q.Q.Q.Q.Q.Q.Q.Q.Q.Q.Q.Q.",
"Q.Q.Q.Q.Q.Q.Q.Q.Q.Q.Q.Q.Q.Q.Q.Q.Q.Q.Q.Q.Q.Q.Q.Q.7 k F ' y #.i [ . g J 5.k.j.P # Q.Q.Q.Q.Q.Q.Q.Q.Q.Q.Q.Q.Q.Q.Q.Q.Q.Q.Q.Q.Q.Q.Q.Q.",
"Q.Q.Q.Q.Q.Q.Q.Q.Q.Q.Q.Q.Q.Q.Q.Q.Q.Q.Q.Q.Q.Q.Q.Q.9.g z.g z.z.s.z.r 9 d f.n = C.4 Q.Q.Q.Q.Q.Q.Q.Q.Q.Q.Q.Q.Q.Q.Q.Q.Q.Q.Q.Q.Q.Q.Q.Q.",
"Q.Q.Q.Q.Q.Q.Q.Q.Q.Q.Q.Q.Q.Q.Q.Q.Q.Q.Q.Q.Q.Q.Q.Q.8 @.e W.f n.] ..Z S.R - e p P = Q.Q.Q.Q.Q.Q.Q.Q.Q.Q.Q.Q.Q.Q.Q.Q.Q.Q.Q.Q.Q.Q.Q.Q.",
"Q.Q.Q.Q.Q.Q.Q.Q.Q.Q.Q.Q.Q.Q.Q.Q.Q.Q.Q.Q.Q.Q.Q.Q.+ =.< U $ <.F d l Z z.I.T f.' W Q.Q.Q.Q.Q.Q.Q.Q.Q.Q.Q.Q.Q.Q.Q.Q.Q.Q.Q.Q.Q.Q.Q.Q.",
"Q.Q.Q.Q.Q.Q.Q.Q.Q.Q.Q.Q.Q.Q.Q.Q.Q.Q.Q.Q.Q.Q.Q.Q.P Z d.H U i u.H.' h Z f #.e.J.f.Q.Q.Q.Q.Q.Q.Q.Q.Q.Q.Q.Q.Q.Q.Q.Q.Q.Q.Q.Q.Q.Q.Q.Q.",
"Q.Q.Q.Q.Q.Q.Q.Q.Q.Q.Q.Q.Q.Q.Q.Q.Q.Q.Q.Q.Q.Q.Q.Q.>.=.B.g.q.f z.=.x T.& T k Q / U Q.Q.Q.Q.Q.Q.Q.Q.Q.Q.Q.Q.Q.Q.Q.Q.Q.Q.Q.Q.Q.Q.Q.Q.",
"Q.Q.Q.Q.Q.Q.Q.Q.Q.Q.Q.Q.Q.Q.Q.Q.Q.Q.Q.Q.Q.Q.Q.Q.* G p.J H X.r d P T T Z.P w.m m.Q.Q.Q.Q.Q.Q.Q.Q.Q.Q.Q.Q.Q.Q.Q.Q.Q.Q.Q.Q.Q.Q.Q.Q.",
"Q.Q.Q.Q.Q.Q.Q.Q.Q.Q.Q.Q.Q.Q.Q.Q.Q.Q.Q.Q.Q.Q.Q.Q.%.0.  a.2 B.A Q D.A.c.g P E.C P Q.Q.Q.Q.Q.Q.Q.Q.Q.Q.Q.Q.Q.Q.Q.Q.Q.Q.Q.Q.Q.Q.Q.Q.",
"Q.Q.Q.Q.Q.Q.Q.Q.Q.Q.Q.Q.Q.Q.Q.Q.Q.Q.Q.Q.Q.Q.Q.Q.0 a.8.> ' l T D ' T H P.d d i o Q.Q.Q.Q.Q.Q.Q.Q.Q.Q.Q.Q.Q.Q.Q.Q.Q.Q.Q.Q.Q.Q.Q.Q.",
"Q.Q.Q.Q.Q.Q.Q.Q.Q.Q.Q.Q.Q.Q.Q.Q.Q.Q.Q.Q.Q.Q.Q.Q.V.' f N.#.s 2.@ ; T F i w.a.t k Q.Q.Q.Q.Q.Q.Q.Q.Q.Q.Q.Q.Q.Q.Q.Q.Q.Q.Q.Q.Q.Q.Q.Q.",
"Q.Q.Q.Q.Q.Q.Q.Q.Q.Q.Q.Q.Q.Q.Q.Q.Q.Q.Q.Q.Q.Q.Q.Q.&.f.7 X i d f F.e.G.f.%.4.Z f.b Q.Q.Q.Q.Q.Q.Q.Q.Q.Q.Q.Q.Q.Q.Q.Q.Q.Q.Q.Q.Q.Q.Q.Q.",
"Q.Q.Q.Q.Q.Q.Q.Q.Q.Q.Q.Q.Q.Q.Q.Q.Q.Q.Q.Q.Q.Q.Q.Q.r.E z w o.v R ,.5 $.O Z f., w e.Q.Q.Q.Q.Q.Q.Q.Q.Q.Q.Q.Q.Q.Q.Q.Q.Q.Q.Q.Q.Q.Q.Q.Q.",
"Q.Q.Q.Q.Q.Q.Q.Q.Q.Q.Q.Q.Q.Q.Q.Q.Q.Q.Q.Q.Q.Q.Q.Q.k 7.Z * Y.@.3 B.P D.i ( O.U Z 1 Q.Q.Q.Q.Q.Q.Q.Q.Q.Q.Q.Q.Q.Q.Q.Q.Q.Q.Q.Q.Q.Q.Q.Q.",
"Q.Q.Q.Q.Q.Q.Q.Q.Q.Q.Q.Q.Q.Q.Q.Q.Q.Q.Q.Q.Q.Q.Q.Q.b.3._ Y B -.~ j N ` S i.L *.{ ) Q.Q.Q.Q.Q.Q.Q.Q.Q.Q.Q.Q.Q.Q.Q.Q.Q.Q.Q.Q.Q.Q.Q.Q.",
"Q.Q.Q.Q.Q.Q.Q.Q.: t.;.I h.P d H 5.' F +.^ U.6 J : t.;.I h.P d H 5.' F +.^ U.6 J : t.;.I h.P d H 5.' F +.^ U.6 J Q.Q.Q.Q.Q.Q.Q.Q.",
"Q.Q.Q.Q.Q.Q.Q.Q.] H e.l.% d u f x.f.R.R ( H +.v.] H e.l.% d u f x.f.R.R ( H +.v.] H e.l.% d u f x.f.R.R ( H +.v.Q.Q.Q.Q.Q.Q.Q.Q.",
"Q.Q.Q.Q.Q.Q.Q.Q.r.V.L.l D Z U U R 5.f.z.V q d K.r.V.L.l D Z U U R 5.f.z.V q d K.r.V.L.l D Z U U R 5.f.z.V q d K.Q.Q.Q.Q.Q.Q.Q.Q.",
"Q.Q.Q.Q.Q.Q.Q.Q.7 k F ' y #.i [ . g J 5.k.j.P # 7 k F ' y #.i [ . g J 5.k.j.P # 7 k F ' y #.i [ . g J 5.k.j.P # Q.Q.Q.Q.Q.Q.Q.Q.",
"Q.Q.Q.Q.Q.Q.Q.Q.9.g z.g z.z.s.z.r 9 d f.n = C.4 9.g z.g z.z.s.z.r 9 d f.n = C.4 9.g z.g z.z.s.z.r 9 d f.n = C.4 Q.Q.Q.Q.Q.Q.Q.Q.",
"Q.Q.Q.Q.Q.Q.Q.Q.8 @.e W.f n.] ..Z S.R - e p P = 8 @.e W.f n.] ..Z S.R - e p P = 8 @.e W.f n.] ..Z S.R - e p P = Q.Q.Q.Q.Q.Q.Q.Q.",
"Q.Q.Q.Q.Q.Q.Q.Q.+ =.< U $ <.F d l Z z.I.T f.' W + =.< U $ <.F d l Z z.I.T f.' W + =.< U $ <.F d l Z z.I.T f.' W Q.Q.Q.Q.Q.Q.Q.Q.",
"Q.Q.Q.Q.Q.Q.Q.Q.P Z d.H U i u.H.' h Z f #.e.J.f.P Z d.H U i u.H.' h Z f #.e.J.f.P Z d.H U i u.H.' h Z f #.e.J.f.Q.Q.Q.Q.Q.Q.Q.Q.",
"Q.Q.Q.Q.Q.Q.Q.Q.>.=.B.g.q.f z.=.x T.& T k Q / U >.=.B.g.q.f z.=.x T.& T k Q / U >.=.B.g.q.f z.=.x T.& T k Q / U Q.Q.Q.Q.Q.Q.Q.Q.",
"Q.Q.Q.Q.Q.Q.Q.Q.* G p.J H X.r d P T T Z.P w.m m.* G p.J H X.r d P T T Z.P w.m m.* G p.J H X.r d P T T Z.P w.m m.Q.Q.Q.Q.Q.Q.Q.Q.",
"Q.Q.Q.Q.Q.Q.Q.Q.%.0.  a.2 B.A Q D.A.c.g P E.C P %.0.  a.2 B.A Q D.A.c.g P E.C P %.0.  a.2 B.A Q D.A.c.g P E.C P Q.Q.Q.Q.Q.Q.Q.Q.",
"Q.Q.Q.Q.Q.Q.Q.Q.0 a.8.> ' l T D ' T H P.d d i o 0 a.8.> ' l T D ' T H P.d d i o 0 a.8.> ' l T D ' T H P.d d i o Q.Q.Q.Q.Q.Q.Q.Q.",
"Q.Q.Q.Q.Q.Q.Q.Q.V.' f N.#.s 2.@ ; T F i w.a.t k V.' f N.#.s 2.@ ; T F i w.a.t k V.' f N.#.s 2.@ ; T F i w.a.t k Q.Q.Q.Q.Q.Q.Q.Q.",
"Q.Q.Q.Q.Q.Q.Q.Q.&.f.7 X i d f F.e.G.f.%.4.Z f.b &.f.7 X i d f F.e.G.f.%.4.Z f.b &.f.7 X i d f F.e.G.f.%.4.Z f.b Q.Q.Q.Q.Q.Q.Q.Q.",
"Q.Q.Q.Q.Q.Q.Q.Q.r.E z w o.v R ,.5 $.O Z f., w e.r.E z w o.v R ,.5 $.O Z f., w e.r.E z w o.v R ,.5 $.O Z f., w e.Q.Q.Q.Q.Q.Q.Q.Q.",
"Q.Q.Q.Q.Q.Q.Q.Q.k 7.Z * Y.@.3 B.P D.i ( O.U Z 1 k 7.Z * Y.@.3 B.P D.i ( O.U Z 1 k 7.Z * Y.@.3 B.P D.i ( O.U Z 1 Q.Q.Q.Q.Q.Q.Q.Q.",
"Q.Q.Q.Q.Q.Q.Q.Q.Q.Q.Q.Q.Q.Q.Q.Q.Q.Q.Q.Q.Q.Q.Q.Q.: t.;.I h.P d H 5.' F +.^ U.6 J Q.Q.Q.Q.Q.Q.Q.Q.Q.Q.Q.Q.Q.Q.Q.Q.Q.Q.Q.Q.Q.Q.Q.Q.",
"Q.Q.Q.Q.Q.Q.Q.Q.Q.Q.Q.Q.Q.Q.Q.Q.Q.Q.Q.Q.Q.Q.Q.Q.] H e.l.% d u f x.f.R.R ( H +.v.Q.Q.Q.Q.Q.Q.Q.Q.Q.Q.Q.Q.Q.Q.Q.Q.Q.Q.Q.Q.Q.Q.Q.Q.",
"Q.Q.Q.Q.Q.Q.Q.Q.Q.Q.Q.Q.Q.Q.Q.Q.Q.Q.Q.Q.Q.Q.Q.Q.r.V.L.l D Z U U R 5.f.z.V q d K.Q.Q.Q.Q.Q.Q.Q.Q.Q.Q.Q.Q.Q.Q.Q.Q.Q.Q.Q.Q.Q.Q.Q.Q.",
"Q.Q.Q.Q.Q.Q.Q.Q.Q.Q.Q.Q.Q.Q.Q.Q.Q.Q.Q.Q.Q.Q.Q.Q.7 k F ' y #.i [ . g J 5.k.j.P # Q.Q.Q.Q.Q.Q.Q.Q.Q.Q.Q.Q.Q.Q.Q.Q.Q.Q.Q.Q.Q.Q.Q.Q.",
"Q.Q.Q.Q.Q.Q.Q.Q.Q.Q.Q.Q.Q.Q.Q.Q.Q.Q.Q.Q.Q.Q.Q.Q.9.g z.g z.z.s.z.r 9 d f.n = C.4 Q.Q.Q.Q.Q.Q.Q.Q.Q.Q.Q.Q.Q.Q.Q.Q.Q.Q.Q.Q.Q.Q.Q.Q.",
"Q.Q.Q.Q.Q.Q.Q.Q.Q.Q.Q.Q.Q.Q.Q.Q.Q.Q.Q.Q.Q.Q.Q.Q.8 @.e W.f n.] ..Z S.R - e p P = Q.Q.Q.Q.Q.Q.Q.Q.Q.Q.Q.Q.Q.Q.Q.Q.Q.Q.Q.Q.Q.Q.Q.Q.",
"Q.Q.Q.Q.Q.Q.Q.Q.Q.Q.Q.Q.Q.Q.Q.Q.Q.Q.Q.Q.Q.Q.Q.Q.+ =.< U $ <.F d l Z z.I.T f.' W Q.Q.Q.Q.Q.Q.Q.Q.Q.Q.Q.Q.Q.Q.Q.Q.Q.Q.Q.Q.Q.Q.Q.Q.",
"Q.Q.Q.Q.Q.Q.Q.Q.Q.Q.Q.Q.Q.Q.Q.Q.Q.Q.Q.Q.Q.Q.Q.Q.P Z d.H U i u.H.' h Z f #.e.J.f.Q.Q.Q.Q.Q.Q.Q.Q.Q.Q.Q.Q.Q.Q.Q.Q.Q.Q.Q.Q.Q.Q.Q.Q.",
"Q.Q.Q.Q.Q.Q.Q.Q.Q.Q.Q.Q.Q.Q.Q.Q.Q.Q.Q.Q.Q.Q.Q.Q.>.=.B.g.q.f z.=.x T.& T k Q / U Q.Q.Q.Q.Q.Q.Q.Q.Q.Q.Q.Q.Q.Q.Q.Q.Q.Q.Q.Q.Q.Q.Q.Q.",
"Q.Q.Q.Q.Q.Q.Q.Q.Q.Q.Q.Q.Q.Q.Q.Q.Q.Q.Q.Q.Q.Q.Q.Q.* G p.J H X.r d P T T Z.P w.m m.Q.Q.Q.Q.Q.Q.Q.Q.Q.Q.Q.Q.Q.Q.Q.Q.Q.Q.Q.Q.Q.Q.Q.Q.",
"Q.Q.Q.Q.Q.Q.Q.Q.Q.Q.Q.Q.Q.Q.Q.Q.Q.Q.Q.Q.Q.Q.Q.Q.%.0.  a.2 B.A Q D.A.c.g P E.C P Q.Q.Q.Q.Q.Q.Q.Q.Q.Q.Q.Q.Q.Q.Q.Q.Q.Q.Q.Q.Q.Q.Q.Q.",
"Q.Q.Q.Q.Q.Q.Q.Q.Q.Q.Q.Q.Q.Q.Q.Q.Q.Q.Q.Q.Q.Q.Q.Q.0 a.8.> ' l T D ' T H P.d d i o Q.Q.Q.Q.Q.Q.Q.Q.Q.Q.Q.Q.Q.Q.Q.Q.Q.Q.Q.Q.Q.Q.Q.Q.",
"Q.Q.Q.Q.Q.Q.Q.Q.Q.Q.Q.Q.Q.Q.Q.Q.Q.Q.Q.Q.Q.Q.Q.Q.V.' f N.#.s 2.@ ; T F i w.a.t k Q.Q.Q.Q.Q.Q.Q.Q.Q.Q.Q.Q.Q.Q.Q.Q.Q.Q.Q.Q.Q.Q.Q.Q.",
"Q.Q.Q.Q.Q.Q.Q.Q.Q.Q.Q.Q.Q.Q.Q.Q.Q.Q.Q.Q.Q.Q.Q.Q.&.f.7 X i d f F.e.G.f.%.4.Z f.b Q.Q.Q.Q.Q.Q.Q.Q.Q.Q.Q.Q.Q.Q.Q.Q.Q.Q.Q.Q.Q.Q.Q.Q.",
"Q.Q.Q.Q.Q.Q.Q.Q.Q.Q.Q.Q.Q.Q.Q.Q.Q.Q.Q.Q.Q.Q.Q.Q.r.E z w o.v R ,.5 $.O Z f., w e.Q.Q.Q.Q.Q.Q.Q.Q.Q.Q.Q.Q.Q.Q.Q.Q.Q.Q.Q.Q.Q.Q.Q.Q.",
"Q.Q.Q.Q.Q.Q.Q.Q.Q.Q.Q.Q.Q.Q.Q.Q.Q.Q.Q.Q.Q.Q.Q.Q.k 7.Z * Y.@.3 B.P D.i ( O.U Z 1 Q.Q.Q.Q.Q.Q.Q.Q.Q.Q.Q.Q.Q.Q.Q.Q.Q.Q.Q.Q.Q.Q.Q.Q.",
"Q.Q.Q.Q.Q.Q.Q.Q.Q.Q.Q.Q.Q.Q.Q.Q.Q.Q.Q.Q.Q.Q.Q.Q.y.2.M K 1.! x a | } c  .:.S 6.M.Q.Q.Q.Q.Q.Q.Q.Q.Q.Q.Q.Q.Q.Q.Q.Q.Q.Q.Q.Q.Q.Q.Q.Q.",
"Q.Q.Q.Q.Q.Q.Q.Q.Q.Q.Q.Q.Q.Q.Q.Q.Q.Q.Q.Q.Q.Q.Q.Q.: t.;.I h.P d H 5.' F +.^ U.6 J Q.Q.Q.Q.Q.Q.Q.Q.Q.Q.Q.Q.Q.Q.Q.Q.Q.Q.Q.Q.Q.Q.Q.Q.",
"Q.Q.Q.Q.Q.Q.Q.Q.Q.Q.Q.Q.Q.Q.Q.Q.Q.Q.Q.Q.Q.Q.Q.Q.] H e.l.% d u f x.f.R.R ( H +.v.Q.Q.Q.Q.Q.Q.Q.Q.Q.Q.Q.Q.Q.Q.Q.Q.Q.Q.Q.Q.Q.Q.Q.Q.",
"Q.Q.Q.Q.Q.Q.Q.Q.Q.Q.Q.Q.Q.Q.Q.Q.Q.Q.Q.Q.Q.Q.Q.Q.r.V.L.l D Z U U R 5.f.z.V q d K.Q.Q.Q.Q.Q.Q.Q.Q.Q.Q.Q.Q.Q.Q.Q.Q.Q.Q.Q.Q.Q.Q.Q.Q.",
"Q.Q.Q.Q.Q.Q.Q.Q.Q.Q.Q.Q.Q.Q.Q.Q.Q.Q.Q.Q.Q.Q.Q.Q.7 k F ' y #.i [ . g J 5.k.j.P # Q.Q.Q.Q.Q.Q.Q.Q.Q.Q.Q.Q.Q.Q.Q.Q.Q.Q.Q.Q.Q.Q.Q.Q.",
"Q.Q.Q.Q.Q.Q.Q.Q.Q.Q.Q.Q.Q.Q.Q.Q.Q.Q.Q.Q.Q.Q.Q.Q.9.g z.g z.z.s.z.r 9 d f.n = C.4 Q.Q.Q.Q.Q.Q.Q.Q.Q.Q.Q.Q.Q.Q.Q.Q.Q.Q.Q.Q.Q.Q.Q.Q.",
"Q.Q.Q.Q.Q.Q.Q.Q.Q.Q.Q.Q.Q.Q.Q.Q.Q.Q.Q.Q.Q.Q.Q.Q.8 @.e W.f n.] ..Z S.R - e p P = Q.Q.Q.Q.Q.Q.Q.Q.Q.Q.Q.Q.Q.Q.Q.Q.Q.Q.Q.Q.Q.Q.Q.Q.",
"Q.Q.Q.Q.Q.Q.Q.Q.Q.Q.Q.Q.Q.Q.Q.Q.Q.Q.Q.Q.Q.Q.Q.Q.+ =.< U $ <.F d l Z z.I.T f.' W Q.Q.Q.Q.Q.Q.Q.Q.Q.Q.Q.Q.Q.Q.Q.Q.Q.Q.Q.Q.Q.Q.Q.Q.",
"Q.Q.Q.Q.Q.Q.Q.Q.Q.Q.Q.Q.Q.Q.Q.Q.Q.Q.Q.Q.Q.Q.Q.Q.P Z d.H U i u.H.' h Z f #.e.J.f.Q.Q.Q.Q.Q.Q.Q.Q.Q.Q.Q.Q.Q.Q.Q.Q.Q.Q.Q.Q.Q.Q.Q.Q.",
"Q.Q.Q.Q.Q.Q.Q.Q.Q.Q.Q.Q.Q.Q.Q.Q.Q.Q.Q.Q.Q.Q.Q.Q.>.=.B.g.q.f z.=.x T.& T k Q / U Q.Q.Q.Q.Q.Q.Q.Q.Q.Q.Q.Q.Q.Q.Q.Q.Q.Q.Q.Q.Q.Q.Q.Q.",
"Q.Q.Q.Q.Q.Q.Q.Q.Q.Q.Q.Q.Q.Q.Q.Q.Q.Q.Q.Q.Q.Q.Q.Q.* G p.J H X.r d P T T Z.P w.m m.Q.Q.Q.Q.Q.Q.Q.Q.Q.Q.Q.Q.Q.Q.Q.Q.Q.Q.Q.Q.Q.Q.Q.Q.",
"Q.Q.Q.Q.Q.Q.Q.Q.Q.Q.Q.Q.Q.Q.Q.Q.Q.Q.Q.Q.Q.Q.Q.Q.%.0.  a.2 B.A Q D.A.c.g P E.C P Q.Q.Q.Q.Q.Q.Q.Q.Q.Q.Q.Q.Q.Q.Q.Q.Q.Q.Q.Q.Q.Q.Q.Q.",
"Q.Q.Q.Q.Q.Q.Q.Q.Q.Q.Q.Q.Q.Q.Q.Q.Q.Q.Q.Q.Q.Q.Q.Q.0 a.8.> ' l T D ' T H P.d d i o Q.Q.Q.Q.Q.Q.Q.Q.Q.Q.Q.Q.Q.Q.Q.Q.Q.Q.Q.Q.Q.Q.Q.Q.",
"Q.Q.Q.Q.Q.Q.Q.Q.Q.Q.Q.Q.Q.Q.Q.Q.Q.Q.Q.Q.Q.Q.Q.Q.V.' f N.#.s 2.@ ; T F i w.a.t k Q.Q.Q.Q.Q.Q.Q.Q.Q.Q.Q.Q.Q.Q.Q.Q.Q.Q.Q.Q.Q.Q.Q.Q.",
"Q.Q.Q.Q.Q.Q.Q.Q.Q.Q.Q.Q.Q.Q.Q.Q.Q.Q.Q.Q.Q.Q.Q.Q.&.f.7 X i d f F.e.G.f.%.4.Z f.b Q.Q.Q.Q.Q.Q.Q.Q.Q.Q.Q.Q.Q.Q.Q.Q.Q.Q.Q.Q.Q.Q.Q.Q.",
"Q.Q.Q.Q.Q.Q.Q.Q.Q.Q.Q.Q.Q.Q.Q.Q.Q.Q.Q.Q.Q.Q.Q.Q.r.E z w o.v R ,.5 $.O Z f., w e.Q.Q.Q.Q.Q.Q.Q.Q.Q.Q.Q.Q.Q.Q.Q.Q.Q.Q.Q.Q.Q.Q.Q.Q."
};
