/* XPM */
static char *result[] = {
/* columns rows colors chars-per-pixel */
"64 64 80 1 ",
"  c #4C4C4C",
". c gray30",
"X c #4E4E4E",
"o c #505050",
"O c #515151",
"+ c gray32",
"@ c #535353",
"# c gray33",
"$ c #555555",
"% c #565656",
"& c #585858",
"* c gray35",
"= c #5A5A5A",
"- c #5B5B5B",
"; c gray36",
": c #5D5D5D",
"> c gray37",
", c #5F5F5F",
"< c gray38",
"1 c #626262",
"2 c gray39",
"3 c #646464",
"4 c #656565",
"5 c gray40",
"6 c #676767",
"7 c #686868",
"8 c DimGray",
"9 c #6C6C6C",
"0 c #6D6D6D",
"q c #6F6F6F",
"w c gray44",
"e c #717171",
"r c #727272",
"t c gray45",
"y c #747474",
"u c #777777",
"i c #797979",
"p c gray48",
"a c #7C7C7C",
"s c gray49",
"d c #7E7E7E",
"f c gray50",
"g c #818181",
"h c gray51",
"j c #838383",
"k c #848484",
"l c gray52",
"z c #868686",
"x c gray53",
"c c #888888",
"v c #898989",
"b c gray55",
"n c #8D8D8D",
"m c #8E8E8E",
"M c gray56",
"N c #909090",
"B c gray57",
"V c #929292",
"C c gray59",
"Z c #979797",
"A c gray60",
"S c #9A9A9A",
"D c #9B9B9B",
"F c gray61",
"G c gray62",
"H c #A0A0A0",
"J c #A2A2A2",
"K c gray64",
"L c #A5A5A5",
"P c gray65",
"I c #A7A7A7",
"U c #A9A9A9",
"Y c gray67",
"T c #ACACAC",
"R c gray68",
"E c #AEAEAE",
"W c #AFAFAF",
"Q c gray69",
"! c gray75",
"~ c None",
/* pixels */
"~~~~~~~~~~~~~~~~~~~~~~~~s31QUfwUJd3+=0PQ~~~~~~~~~~~~~~~~~~~~~~~~",
"~~~~~~~~~~~~~~~~~~~~~~~~v1UTx6UzQnm12Kff~~~~~~~~~~~~~~~~~~~~~~~~",
"~~~~~~~~~~~~~~~~~~~~~~~~1Hpff+UVffl%31Zj~~~~~~~~~~~~~~~~~~~~~~~~",
"~~~~~~~~~~~~~~~~~~~~~~~~11Dse%fgMf%&L11@~~~~~~~~~~~~~~~~~~~~~~~~",
"~~~~~~~~~~~~~~~~~~~~~~~~AU%%%%7fo$USff1q~~~~~~~~~~~~~~~~~~~~~~~~",
"~~~~~~~~~~~~~~~~~~~~~~~~WarEJR1%7!GfMfx7~~~~~~~~~~~~~~~~~~~~~~~~",
"~~~~~~~~~~~~~~~~~~~~~~~~ux>Fhpd111fncB>=~~~~~~~~~~~~~~~~~~~~~~~~",
"~~~~~~~~~~~~~~~~~~~~~~~~iuy%. %vIg:2r@:6~~~~~~~~~~~~~~~~~~~~~~~~",
"~~~~~~~~~~~~~~~~~~~~~~~~1UUUg:TCUUN9Db41~~~~~~~~~~~~~~~~~~~~~~~~",
"~~~~~~~~~~~~~~~~~~~~~~~~1fxfno5rUU9fX1UU~~~~~~~~~~~~~~~~~~~~~~~~",
"~~~~~~~~~~~~~~~~~~~~~~~~+-vfo118=ffo<UUh~~~~~~~~~~~~~~~~~~~~~~~~",
"~~~~~~~~~~~~~~~~~~~~~~~~%<%=1JEhtO11WlBf~~~~~~~~~~~~~~~~~~~~~~~~",
"~~~~~~~~~~~~~~~~~~~~~~~~1GAZ*sKMYU11Ukk=~~~~~~~~~~~~~~~~~~~~~~~~",
"~~~~~~~~~~~~~~~~~~~~~~~~JPmx7<o5yks1pcf%~~~~~~~~~~~~~~~~~~~~~~~~",
"~~~~~~~~~~~~~~~~~~~~~~~~5bJfyfd:,;f19%%4~~~~~~~~~~~~~~~~~~~~~~~~",
"~~~~~~~~~~~~~~~~~~~~~~~~z#uxf%6Kffo8KU1g~~~~~~~~~~~~~~~~~~~~~~~~",
"~~~~~~~~s31QUfwUJd3+=0PQs31QUfwUJd3+=0PQs31QUfwUJd3+=0PQ~~~~~~~~",
"~~~~~~~~v1UTx6UzQnm12Kffv1UTx6UzQnm12Kffv1UTx6UzQnm12Kff~~~~~~~~",
"~~~~~~~~1Hpff+UVffl%31Zj1Hpff+UVffl%31Zj1Hpff+UVffl%31Zj~~~~~~~~",
"~~~~~~~~11Dse%fgMf%&L11@11Dse%fgMf%&L11@11Dse%fgMf%&L11@~~~~~~~~",
"~~~~~~~~AU%%%%7fo$USff1qAU%%%%7fo$USff1qAU%%%%7fo$USff1q~~~~~~~~",
"~~~~~~~~WarEJR1%7!GfMfx7WarEJR1%7!GfMfx7WarEJR1%7!GfMfx7~~~~~~~~",
"~~~~~~~~ux>Fhpd111fncB>=ux>Fhpd111fncB>=ux>Fhpd111fncB>=~~~~~~~~",
"~~~~~~~~iuy%. %vIg:2r@:6iuy%. %vIg:2r@:6iuy%. %vIg:2r@:6~~~~~~~~",
"~~~~~~~~1UUUg:TCUUN9Db411UUUg:TCUUN9Db411UUUg:TCUUN9Db41~~~~~~~~",
"~~~~~~~~1fxfno5rUU9fX1UU1fxfno5rUU9fX1UU1fxfno5rUU9fX1UU~~~~~~~~",
"~~~~~~~~+-vfo118=ffo<UUh+-vfo118=ffo<UUh+-vfo118=ffo<UUh~~~~~~~~",
"~~~~~~~~%<%=1JEhtO11WlBf%<%=1JEhtO11WlBf%<%=1JEhtO11WlBf~~~~~~~~",
"~~~~~~~~1GAZ*sKMYU11Ukk=1GAZ*sKMYU11Ukk=1GAZ*sKMYU11Ukk=~~~~~~~~",
"~~~~~~~~JPmx7<o5yks1pcf%JPmx7<o5yks1pcf%JPmx7<o5yks1pcf%~~~~~~~~",
"~~~~~~~~5bJfyfd:,;f19%%45bJfyfd:,;f19%%45bJfyfd:,;f19%%4~~~~~~~~",
"~~~~~~~~z#uxf%6Kffo8KU1gz#uxf%6Kffo8KU1gz#uxf%6Kffo8KU1g~~~~~~~~",
"~~~~~~~~~~~~~~~~~~~~~~~~s31QUfwUJd3+=0PQ~~~~~~~~~~~~~~~~~~~~~~~~",
"~~~~~~~~~~~~~~~~~~~~~~~~v1UTx6UzQnm12Kff~~~~~~~~~~~~~~~~~~~~~~~~",
"~~~~~~~~~~~~~~~~~~~~~~~~1Hpff+UVffl%31Zj~~~~~~~~~~~~~~~~~~~~~~~~",
"~~~~~~~~~~~~~~~~~~~~~~~~11Dse%fgMf%&L11@~~~~~~~~~~~~~~~~~~~~~~~~",
"~~~~~~~~~~~~~~~~~~~~~~~~AU%%%%7fo$USff1q~~~~~~~~~~~~~~~~~~~~~~~~",
"~~~~~~~~~~~~~~~~~~~~~~~~WarEJR1%7!GfMfx7~~~~~~~~~~~~~~~~~~~~~~~~",
"~~~~~~~~~~~~~~~~~~~~~~~~ux>Fhpd111fncB>=~~~~~~~~~~~~~~~~~~~~~~~~",
"~~~~~~~~~~~~~~~~~~~~~~~~iuy%. %vIg:2r@:6~~~~~~~~~~~~~~~~~~~~~~~~",
"~~~~~~~~~~~~~~~~~~~~~~~~1UUUg:TCUUN9Db41~~~~~~~~~~~~~~~~~~~~~~~~",
"~~~~~~~~~~~~~~~~~~~~~~~~1fxfno5rUU9fX1UU~~~~~~~~~~~~~~~~~~~~~~~~",
"~~~~~~~~~~~~~~~~~~~~~~~~+-vfo118=ffo<UUh~~~~~~~~~~~~~~~~~~~~~~~~",
"~~~~~~~~~~~~~~~~~~~~~~~~%<%=1JEhtO11WlBf~~~~~~~~~~~~~~~~~~~~~~~~",
"~~~~~~~~~~~~~~~~~~~~~~~~1GAZ*sKMYU11Ukk=~~~~~~~~~~~~~~~~~~~~~~~~",
"~~~~~~~~~~~~~~~~~~~~~~~~JPmx7<o5yks1pcf%~~~~~~~~~~~~~~~~~~~~~~~~",
"~~~~~~~~~~~~~~~~~~~~~~~~5bJfyfd:,;f19%%4~~~~~~~~~~~~~~~~~~~~~~~~",
"~~~~~~~~~~~~~~~~~~~~~~~~z#uxf%6Kffo8KU1g~~~~~~~~~~~~~~~~~~~~~~~~",
"~~~~~~~~~~~~~~~~~~~~~~~~s31QUfwUJd3+=0PQ~~~~~~~~~~~~~~~~~~~~~~~~",
"~~~~~~~~~~~~~~~~~~~~~~~~v1UTx6UzQnm12Kff~~~~~~~~~~~~~~~~~~~~~~~~",
"~~~~~~~~~~~~~~~~~~~~~~~~1Hpff+UVffl%31Zj~~~~~~~~~~~~~~~~~~~~~~~~",
"~~~~~~~~~~~~~~~~~~~~~~~~11Dse%fgMf%&L11@~~~~~~~~~~~~~~~~~~~~~~~~",
"~~~~~~~~~~~~~~~~~~~~~~~~AU%%%%7fo$USff1q~~~~~~~~~~~~~~~~~~~~~~~~",
"~~~~~~~~~~~~~~~~~~~~~~~~WarEJR1%7!GfMfx7~~~~~~~~~~~~~~~~~~~~~~~~",
"~~~~~~~~~~~~~~~~~~~~~~~~ux>Fhpd111fncB>=~~~~~~~~~~~~~~~~~~~~~~~~",
"~~~~~~~~~~~~~~~~~~~~~~~~iuy%. %vIg:2r@:6~~~~~~~~~~~~~~~~~~~~~~~~",
"~~~~~~~~~~~~~~~~~~~~~~~~1UUUg:TCUUN9Db41~~~~~~~~~~~~~~~~~~~~~~~~",
"~~~~~~~~~~~~~~~~~~~~~~~~1fxfno5rUU9fX1UU~~~~~~~~~~~~~~~~~~~~~~~~",
"~~~~~~~~~~~~~~~~~~~~~~~~+-vfo118=ffo<UUh~~~~~~~~~~~~~~~~~~~~~~~~",
"~~~~~~~~~~~~~~~~~~~~~~~~%<%=1JEhtO11WlBf~~~~~~~~~~~~~~~~~~~~~~~~",
"~~~~~~~~~~~~~~~~~~~~~~~~1GAZ*sKMYU11Ukk=~~~~~~~~~~~~~~~~~~~~~~~~",
"~~~~~~~~~~~~~~~~~~~~~~~~JPmx7<o5yks1pcf%~~~~~~~~~~~~~~~~~~~~~~~~",
"~~~~~~~~~~~~~~~~~~~~~~~~5bJfyfd:,;f19%%4~~~~~~~~~~~~~~~~~~~~~~~~",
"~~~~~~~~~~~~~~~~~~~~~~~~z#uxf%6Kffo8KU1g~~~~~~~~~~~~~~~~~~~~~~~~"
};
