/* XPM */
static char *dirt_grass[] = {
/* columns rows colors chars-per-pixel */
"64 64 112 2 ",
"   c None",
".  c #593D29",
"X  c #79553A",
"o  c #745844",
"O  c #6C6C6C",
"+  c #966C4A",
"@  c #509026",
"#  c #57972D",
"$  c #5F9F35",
"%  c #61A137",
"&  c #65A53B",
"*  c #69A93F",
"=  c #5EB04D",
"-  c #6CAC42",
";  c #63AE4F",
":  c #63B54E",
">  c #68B84F",
",  c #71B147",
"<  c #74B44A",
"1  c #62AE51",
"2  c #65B452",
"3  c #69B454",
"4  c #65BB51",
"5  c #69BB54",
"6  c #6CBA59",
"7  c #7FBF55",
"8  c #71BE5C",
"9  c #6DC157",
"0  c #6EC159",
"q  c #74C45F",
"w  c #75C464",
"e  c #7AC566",
"r  c #76CB63",
"t  c #7BCB66",
"y  c #7BC66A",
"u  c #7CCB6A",
"i  c #77D164",
"p  c #7BD166",
"a  c #7DD169",
"s  c #B9855C",
"d  c #82B152",
"f  c #8CBB5C",
"g  c #90BF60",
"h  c #80C66D",
"j  c #81CE6E",
"k  c #80CE6F",
"l  c #81CD6D",
"z  c #84CD6F",
"x  c #84CE6E",
"c  c #80CB6C",
"v  c #88CD6F",
"b  c #88CE6F",
"n  c #92C162",
"m  c #93C263",
"M  c #97C667",
"N  c #94C364",
"B  c #9CCB6C",
"V  c #9CCB6C",
"C  c #80D167",
"Z  c #80D06B",
"A  c #81D06B",
"S  c #80D16B",
"D  c #82D06A",
"F  c #82D06B",
"G  c #80D46A",
"H  c #81D46B",
"J  c #80D06D",
"K  c #81D06D",
"L  c #80D16D",
"P  c #81D16D",
"I  c #82D06D",
"U  c #80D26D",
"Y  c #82D06E",
"T  c #82D06F",
"R  c #82D16F",
"E  c #85D06D",
"W  c #84D26D",
"Q  c #84D06E",
"!  c #85D16F",
"~  c #86D06F",
"^  c #81D46D",
"/  c #80D46E",
"(  c #81D46E",
")  c #80D56F",
"_  c #82D46F",
"`  c #84D46D",
"'  c #84D46F",
"]  c #80C971",
"[  c #82CB71",
"{  c #81CB72",
"}  c #85CB73",
"|  c #86CB73",
" . c #80CD71",
".. c #81CD71",
"X. c #84CD73",
"o. c #85CD75",
"O. c #88CD75",
"+. c #84D271",
"@. c #86D271",
"#. c #84D072",
"$. c #85D072",
"%. c #84D272",
"&. c #84D471",
"*. c #85D671",
"=. c #84D473",
"-. c #8AD471",
";. c #88D075",
":. c #88D275",
">. c #86D872",
",. c #86DA73",
"<. c gray53",
"1. c gray53",
/* pixels */
"                                                . X + + X X + + X 1.X + + s X +                                                 ",
"                                                + + X X + X s s . X . X s . X +                                                 ",
"                                                + + s X . s . X + + X o X X + X                                                 ",
"                                                s s X X X X X X X s + + X + . X                                                 ",
"                                                . X + . X + + O + X s + + X X +                                                 ",
"                                                X 1.+ + . s s . + s X s s X + X                                                 ",
"                                                + X s s X X X X X . . X X . + X                                                 ",
"                                                X . X X X + + X . X + X + X X +                                                 ",
"                                                + + X X + + . + X X + + s s X X                                                 ",
"                                                + X + X s s X s s X X 1.X X X s                                                 ",
"                                                s X X X . X X . . . + X + + . X                                                 ",
"                                                X . + X O . . . X X + . s + X +                                                 ",
"                                                X . . X . - . $ . . . - . . O .                                                 ",
"                                                . % # . M g 7 < . < . - & V . f                                                 ",
"                                                - & - % < g M $ & & . d d f - <                                                 ",
"                                                - @ $ - & - < 7 - $ - & & < < <                                                 ",
"                + + X X + X X + X s X + . f < < u u 6 2 u w u a X.5 3 0 t h y u - - . X X s + + X + X . s + + .                 ",
"                X X + . X + + X X X . X O . - < u a 2 6 a r t u l 4 4 2 t X.X.l # & $ . . X X + . X 1.X s + + X                 ",
"                s . X + X X . X s X + + . V f < X.u l F e 5 5 F q p a u l F u p $ - # . + X + X X s + + X s X +                 ",
"                + s X X + s X + s X + s . & d & e u +.a +.3 9 r u a a F u 4 4 F - $ . X X X X X X s + . X X X +                 ",
"                + X o + + s X X + <.X . , * d & F e r F u r a u r +.e u l 5 = a & < M . O . s + X X . X X . + X                 ",
"                X . X + s X . + + X + + . . . - +.a t h +.y u a y e 2 8 p a t F - f M - . X s + + X s + X s X X                 ",
"                <.X + s X s . X X X . X . - - $ p r 2 3 u q a e ] u = 5 +.t e y < g 7 . . X X . + X s + X . s +                 ",
"                X . + X + + X . X s . X . . & - p e 2 4 w l +.5 3 u +.F F a i r 7 $ < $ . . s + X X . O X X s +                 ",
"                + s X X O . X X + s . . $ , $ 7 X.l q a r u u 5 ; l e p t F 4 4 - & . . X . s X . X + + X + . X                 ",
"                + s . X + s X + . X X . . 7 M < X.F u X.u F u +.w l l e +.l 6 3 $ - - . X . X X X . s X s + X 1.                ",
"                X X s X + s X + + s X . - M g - 4 4 u -.u +.a u e +.F y a a 4 9 - . . . + + X + + . X s + X . X                 ",
"                X + . X X . X X + s . O . M < & 8 4 +.l p F F F 4 6 t t F h a t & d & < . X 1.+ X X s + + o X +                 ",
"                + X X X . + s X X X X X X . % * e ] l r 2 4 ,.p 2 3 l 2 4 l l u & d & . s + X s + X s + X X s +                 ",
"                + X s X + + s X X + X + . # - % u l y i 0 3 a X.u e p 5 q e e e < f V . + + X s X . X X + X . s                 ",
"                X + + s X <.X . + X X . . % & @ F y -.y : 6 +.u X.+.+.i a y ; 2 < - . O X . X X X + + X . + X X                 ",
"                . + + s . X + X + + s X X . - - l l X.e F y a F X.y u u X.y : 4 < < f . + X s X + X X + X X + +                 ",
"                                                < < < & & - $ - 7 < - & - % @ -                                                 ",
"                                                < - f < d . & & $ M f < $ - & -                                                 ",
"                                                f . V & - . , . < 7 g M . # % .                                                 ",
"                                                . O . . < . . . $ . - . X . . X                                                 ",
"                                                + X + s . + X X . . . O X + . X                                                 ",
"                                                X . + + X + . . . X X . X X X s                                                 ",
"                                                s X X X 1.X X s s X s s X + X +                                                 ",
"                                                X X s s + + X X + . + + X X + +                                                 ",
"                                                + X X + X + X . X + + X X X . X                                                 ",
"                                                X + . X X . . X X X X X s s X +                                                 ",
"                                                X + X s s X s + . s s . + + 1.X                                                 ",
"                                                + X X + + s X + O + + X . + X .                                                 ",
"                                                X . + X + + s X X X X X X X s s                                                 ",
"                                                X + X X o X + + X . s . X s + +                                                 ",
"                                                + X . s X . X . s s X + X X + +                                                 ",
"                                                + X s + + X 1.X + + X X + + X .                                                 ",
"                                                s + + X X s + + X X . X X s X s                                                 ",
"                                                X + . X X + 1.. X s + X s + . .                                                 ",
"                                                s X X . s X X X s X X X . . s X                                                 ",
"                                                + O s X + . X s + + X + X s + X                                                 ",
"                                                + X + s . + X X + . X O X + . X                                                 ",
"                                                X . + + X + . . . X X . X X X s                                                 ",
"                                                s X X X 1.X X s s X s s X + X +                                                 ",
"                                                X X s s + + X X + . + + X X + +                                                 ",
"                                                + X X + X + X . X + + X X X . X                                                 ",
"                                                X + . X X . . X X X X X s s X +                                                 ",
"                                                X + X s s X s + . s s . + + 1.X                                                 ",
"                                                + X X + + s X + O + + X . + X .                                                 ",
"                                                X . + X + + s X X X X X X X s s                                                 ",
"                                                X + X X o X + + X . s . X s + +                                                 ",
"                                                + X . s X . X . s s X + X X + +                                                 ",
"                                                + X s + + X 1.X + + X X + + X .                                                 "
};
