/* XPM */
static char *library[] = {
/* columns rows colors chars-per-pixel */
"64 64 39 1 ",
"  c None",
". c #271E11",
"X c #2C2213",
"o c #362A15",
"O c #3F2E18",
"+ c #3F3F3F",
"@ c #41311A",
"# c #632805",
"$ c #773007",
"% c #4C3D26",
"& c #5E720D",
"* c #695433",
"= c #735E39",
"- c #7C623E",
"; c #0C6B50",
": c #2A4E7A",
"> c #494949",
", c #911111",
"< c #BC1616",
"1 c #873608",
"2 c #897E08",
"3 c #758E11",
"4 c #118E6B",
"5 c #A89B0A",
"6 c #9F844D",
"7 c #8E815E",
"8 c #B4905A",
"9 c #9E8B61",
"0 c #A59467",
"q c #AE9869",
"w c #BC9862",
"e c #BAA973",
"r c #B8A875",
"t c #C8B77A",
"y c #315B8E",
"u c #898989",
"i c gray71",
"p c #D7C185",
"a c #D7CB8D",
/* pixels */
"                        attttaaptaaaaaae                        ",
"                        aaprpptttttptpae                        ",
"                        aattttppraapaaae                        ",
"                        9990000q00999900                        ",
"                        attttaarattrpppa                        ",
"                        ttrppparpppptttt                        ",
"                        aaapaaarttraaaaa                        ",
"                        0099999000999900                        ",
"                        aaaaartaapppaaae                        ",
"                        tttttapptttratte                        ",
"                        apppaattttpppppe                        ",
"                        0900999000009990                        ",
"                        aaaaatartrttpaaa                        ",
"                        ptraaaarappttttp                        ",
"                        aatttaaraatpaaaa                        ",
"                        000q990900097990                        ",
"        attttaaptaaaaaaewww8www666=wwww6attttaaptaaaaaar        ",
"        aaprpptttttptpaewXXX..3&XX.XXXX6aaprpptttttptpar        ",
"        aattttppraapaaaew<,Xy:3&ooo3&oO6aattttppraapaaar        ",
"        9990000000999900*iu4y:3&<,o3&4;=9990000000999900        ",
"        attttaaeattrpppaw<,4y:>+<,O3&iuwattttaaeattrpppa        ",
"        ttrpppaepppptttt6<,4y:>+O<,3&4;6ttrpppaepppptttt        ",
"        aaapaaarttraaaaa8<,4y:3&O<,3&4;8aaapaaaettraaaaa        ",
"        0099999000999900==*****-==****-=0099999000999900        ",
"        aaaaartaapppaaaew6666888666*w666aaaaartaapppaaar        ",
"        tttttapptttratte6.....XXXX..y:.6tttttapptttrattr        ",
"        apppaattttpppppew.oo<,OOo55.y:o6apppaattttpppppr        ",
"        0900999000009990-1$#<,oO&iu$yy4=0900999000009990        ",
"        aaaaatartrttpaaa81$#<,yo&iu,y:;waaaaataetrttpaaa        ",
"        ptraaaarappttttp81$#<,y&o52,y:48ptraaaarappttttp        ",
"        aatttaaraatpaaaaw1$#<,y&O52,yy4waatttaaraatpaaaa        ",
"        000q99q900097990--=-**-*==**%**-000q99w90009799q        ",
"                        attttaaptaaaaaar                        ",
"                        aaprpptttttptpar                        ",
"                        aattttppraapaaar                        ",
"                        9990000000999900                        ",
"                        attttaaeattrpppa                        ",
"                        ttrpppaepppptttt                        ",
"                        aaapaaarttraaaaa                        ",
"                        0099999000999900                        ",
"                        aaaaartaapppaaar                        ",
"                        tttttapptttrattr                        ",
"                        apppaattttpppppr                        ",
"                        0900999000009990                        ",
"                        aaaaatartrttpaaa                        ",
"                        ptraaaarappttttp                        ",
"                        aatttaaraatpaaaa                        ",
"                        000q99w900097990                        ",
"                        attttaaptaaaaape                        ",
"                        aaprpptttttptpae                        ",
"                        aattttppraapaaat                        ",
"                        9990000000999900                        ",
"                        attttaarattrpppa                        ",
"                        ttrppparpppptttt                        ",
"                        aaapaaarttraaaaa                        ",
"                        0099999000999900                        ",
"                        aaaaartaapppaaar                        ",
"                        tttttapptttrattr                        ",
"                        apppaattttpppppr                        ",
"                        0900999000009990                        ",
"                        aaaaatartrttpaaa                        ",
"                        ptraaaarappttttp                        ",
"                        aatttaaraatpaaaa                        ",
"                        000q99w900097990                        "
};
