/* XPM */
static char *wood_b[] = {
/* columns rows colors chars-per-pixel */
"64 64 128 2 ",
"   c None",
".  c #151917",
"X  c #1B1B14",
"o  c #1C171B",
"O  c #1C1A1A",
"+  c #1D2218",
"@  c #201922",
"#  c #3E3B35",
"$  c #3C363A",
"%  c #363F3A",
"&  c #3C3B3B",
"*  c #413C39",
"=  c #42413C",
"-  c #3E3940",
";  c #A0874F",
":  c #A68D55",
">  c #A88F57",
",  c #AB925A",
"<  c #B19860",
"1  c #BAA974",
"2  c #C1AA6F",
"3  c #C4AC72",
"4  c #C7B277",
"5  c #C8B076",
"6  c #C6B27B",
"7  c #CBB57A",
"8  c #CFB97D",
"9  c #B3B5AC",
"0  c #B5B4B1",
"q  c #BBB4B1",
"w  c #B2BAB1",
"e  c #BBBAB2",
"r  c #CFBD81",
"t  c #D0BE82",
"y  c #D2CFC8",
"u  c #DAD6CE",
"i  c #D9D9C9",
"p  c #D7D1D3",
"a  c #DCD4D4",
"s  c #D5DBD3",
"d  c #DBDBD4",
"f  c #D7D6D8",
"g  c #DAD6D8",
"h  c #D6D9D9",
"j  c #D9DEDB",
"k  c #E0DACE",
"l  c #E0D6D3",
"z  c #E1DCD5",
"x  c #E2DCD8",
"c  c #EADFDF",
"v  c #D6E2D4",
"b  c #DDE1D6",
"n  c #E5E1DD",
"m  c #EAE5DC",
"M  c #E7E9DF",
"N  c #EAECDD",
"B  c #F1E8DE",
"V  c #ECF2DF",
"C  c #E4E5E2",
"Z  c #EAE5E3",
"A  c #E5EBE3",
"S  c #EBE8E3",
"D  c #E8EAE3",
"F  c #E9EAE3",
"G  c #E8EBE3",
"H  c #EAEBE2",
"J  c #EAEAE3",
"K  c #EBEAE3",
"L  c #EAE9E1",
"P  c #EFEAE1",
"I  c #EDEBE3",
"U  c #EEEAE3",
"Y  c #E8EDE0",
"T  c #EAECE3",
"R  c #EDEDE0",
"E  c #EDECE1",
"W  c #ECEDE2",
"Q  c #E9E9E4",
"!  c #EAE9E5",
"~  c #E8EAE5",
"^  c #EAEAE5",
"/  c #EBEAE5",
"(  c #EAEBE5",
")  c #EAEAE6",
"_  c #EBEAE6",
"`  c #ECE9E4",
"'  c #EDEAE4",
"]  c #ECEBE4",
"[  c #EDEBE4",
"{  c #EDEAE5",
"}  c #EEEBE5",
"|  c #EDEAE6",
" . c #E9ECE4",
".. c #EBECE4",
"X. c #EBEDE4",
"o. c #EBECE5",
"O. c #E8EEE6",
"+. c #EAEFE7",
"@. c #EDEFE5",
"#. c #ECEFE7",
"$. c #EEEEE6",
"%. c #EBEBE4",
"&. c #E3E9E8",
"*. c #E6EDE8",
"=. c #E4EBE8",
"-. c #EAE8E8",
";. c #E8EAE8",
":. c #ECEAE8",
">. c #EDEDE9",
",. c #EBEAE8",
"<. c #F0EAE1",
"1. c #F1EAE3",
"2. c #F4EFE3",
"3. c #F1EAE7",
"4. c #F2ECE4",
"5. c #F0EDE6",
"6. c #F2ECE4",
"7. c #F0EAE8",
"8. c #F0EAE8",
"9. c #E8F0E7",
"0. c #ECF0E4",
"q. c #ECF1E4",
"w. c #EEF0E5",
"e. c #EBF0E5",
"r. c #E9F1E8",
"t. c #E9F1E8",
"y. c white",
"u. c white",
/* pixels */
"                                                0 N [ [ [ e [ d d A u.u.u.>.[ 9                                                 ",
"                                                5.A d a a A A Z A N A [ N [ N A                                                 ",
"                                                h e.C e.[ z [ u d g [ 0 [ A a a                                                 ",
"                                                [ u.A w * . @ $ Z 5.Z [ A [ s [                                                 ",
"                                                Z [ 9 0 b * & @ & C d s d a * u                                                 ",
"                                                % = [ u.u.B [ u.u.[ u.u.[ & O X                                                 ",
"                                                & k u n [ e m a s s [ [ 0 Z Z [                                                 ",
"                                                C q u.N C d d A u.e A >.u.d d f                                                 ",
"                                                a d a u.u.>.7.u.c [ 5.Z A e.s d                                                 ",
"                                                N C A A d d w d w i d [ e.M >.C                                                 ",
"                                                9 e.u d d q A t.[ N u.u.Z C u.>.                                                ",
"                                                [ [ C A [ q w w [ [ v d w 0 d b                                                 ",
"                                                C u.u.[ s d b [ [ M C Z Z [ * =                                                 ",
"                                                & d s e.[ N A 0 d A Z Z * $ O X                                                 ",
"                                                o & % [ A u.u.u.Z d - & q j + o                                                 ",
"                                                C [ A & d d z [ [ >.s d g u.u.5.                                                ",
"                9 A d [ s X [ f d C -.h = X o 5.0 N Z [ [ e [ d j A @ $ & A [ 9 9 [ d [ a X [ s d Z >.h = X O 5.                ",
"                [ m a d * o [ d s 7.u.d & + + u.5.1 3 7 3 3 3 4 3 1 3 3 r 8 3 A [ Z s d * o C d s 7.u.d & O + u.                ",
"                [ [ A N l & Z a e.[ C 0 [ - j u.s 3 : : > ; : : , > : > > > 7 d C [ A [ l & [ a e.N C 0 Z $ j u.                ",
"                u.e.A [ d [ 0 u.A t.M w Z * q a & 3 > 3 4 4 5 5 t t 4 7 4 > 3 [ u.N A [ d [ 0 u.A 9.Z w Z * q g                 ",
"                u.[ 0 e.s u.Z e.-.[ u.d m C & z & 3 : 5 4 5 3 3 3 7 3 7 5 : 3 n u.[ 0 e.s u.Z [ -.Z u.d m Z & d                 ",
"                u.A A Z d u.N A [ s u.v ;.Z $ a @ 7 : 7 4 : , , : : > 3 3 : 4 & u.A [ Z d u.[ A 7.s u.v [ Z $ s                 ",
"                A [ a 5.C [ d e [ u N [ A [ d >.y 7 > 7 3 : 5 6 5 5 : 7 8 : 1 @ A M g [ A [ d e [ i N [ A [ d >.                ",
"                d [ d Z & u.s u.c w [ [ [ d Z A A 6 : 7 3 : 8 3 3 r : 3 8 , 1 @ d [ d Z & u.s u.Z w [ [ [ s Z [                 ",
"                d Z a $ @ u.a C u.d [ w [ 9 u.[ a 3 < 5 7 : 7 3 3 r : 3 4 : 5 d d Z a $ @ u.a A u.d t.w [ 9 u.[                 ",
"                [ A [ @ & [ m d 5.w >.w v ;.u.x N 1 : r 7 : 5 5 7 7 : 3 5 : 3 Z [ A [ @ & [ m d 7.w [ w v ;.u.x                 ",
"                e A z . # 5.e d [ d 0 q d N u.d q 3 : 3 3 : : : : > > 3 6 > 3 -.e A z . # [ q d [ d 0 q d N u.d                 ",
"                [ a N * b u.A Z u.d d [ s [ A d [ 3 : 5 3 3 4 4 7 3 3 7 7 , 3 h [ a N & b u.[ m u.d a [ s [ A d                 ",
"                [ g [ w 0 u.n N u.A d M [ e.[ % A 6 : 3 t r 7 6 4 4 5 7 4 > 3 n [ a e.w 0 u.n N u.C d A >.N [ %                 ",
"                [ d A A 9 [ u u.a A u C u.s % [ % 4 ; : , : : : : > > > , , 3 >.[ d A A 0 N u u.a [ u A u.s % [                 ",
"                N A [ u.[ = u 9 d C [ Z u.d & [ $ 3 3 3 6 7 1 1 1 6 7 3 6 5 3 x N A [ u.[ = k q d C [ [ u.s * [                 ",
"                9 5.h [ Z & & [ a N w [ A & o C @ @ & u d d & % @ o a z a u.u.5.0 [ h [ Z & & M a N w A ;.& O Z                 ",
"                                                0 N [ e.[ e [ d z A u.u.u.>.[ 9                                                 ",
"                                                [ A d a a A A Z A [ A [ N [ N A                                                 ",
"                                                h e.A [ [ d [ a d a A q A A a a                                                 ",
"                                                [ u.M w * . @ $ Z 5.Z e.[ [ s [                                                 ",
"                                                Z [ 9 0 b # & @ & C d s d a * u                                                 ",
"                                                & = [ u.u.N [ u.u.[ u.u.[ & O X                                                 ",
"                                                & u u n [ q m a s s [ [ 0 Z Z [                                                 ",
"                                                [ q u.N Z d d A u.e A >.u.d d f                                                 ",
"                                                a d a u.u.A >.u.c [ 5.Z A e.s d                                                 ",
"                                                N C [ n d d w d w i d [ e.M >.C                                                 ",
"                                                w e.u s z 0 >.>.[ N u.u.Z C u.>.                                                ",
"                                                [ Z A A [ q w w [ [ v d w 0 d b                                                 ",
"                                                ;.u.u.[ s d v [ [ M C Z Z [ * =                                                 ",
"                                                & a s V [ N ;.9 d A Z Z * $ O X                                                 ",
"                                                O & % [ [ u.u.u.Z d - & q j + o                                                 ",
"                                                C >.A & d s x [ [ >.s d g u.u.5.                                                ",
"                                                0 N [ [ [ e [ d j A @ $ % [ A 9                                                 ",
"                                                5.1 3 7 3 3 3 4 3 1 3 3 r 8 3 [                                                 ",
"                                                s 3 : : : ; : : , > > > > > 7 d                                                 ",
"                                                & 3 , 3 5 5 3 5 t t 3 7 4 > 3 Z                                                 ",
"                                                & 3 : 3 6 3 3 3 3 7 3 7 5 : 3 n                                                 ",
"                                                @ 7 : 7 6 : , , : > > 3 5 : 4 &                                                 ",
"                                                y 8 : 7 3 : 3 6 5 3 > 7 8 : 1 @                                                 ",
"                                                C 4 : 8 3 > 8 3 3 r : 3 8 : 1 @                                                 ",
"                                                a 5 < 5 7 : 8 3 3 t : 3 3 : 5 j                                                 ",
"                                                N 1 : 8 7 : 4 4 7 7 > 3 5 : 3 Z                                                 ",
"                                                e 2 : 3 3 : : : > : > 3 6 : 3 Z                                                 ",
"                                                [ 3 : 5 3 3 4 4 4 4 3 7 7 , 3 j                                                 ",
"                                                A 7 : 5 r 8 7 6 5 5 5 7 3 > 3 n                                                 ",
"                                                % 3 ; : , : : > : : : > < , 3 [                                                 ",
"                                                & 3 3 3 6 7 1 1 1 7 7 3 5 6 3 x                                                 ",
"                                                @ @ & a s d & $ @ @ s z a u.u.5.                                                "
};
